M48
; DRILL file {KiCad (5.1.5)-3} date 4/3/2021 7:56:19 PM
; FORMAT={-:-/ absolute / inch / decimal}
; #@! TF.CreationDate,2021-04-03T19:56:19-04:00
; #@! TF.GenerationSoftware,Kicad,Pcbnew,(5.1.5)-3
; #@! TF.FileFunction,Plated,1,2,PTH
FMAT,2
INCH
T1C0.0157
T2C0.0197
T3C0.0315
T4C0.0394
%
G90
G05
T1
X4.07Y-4.27
X4.22Y-4.27
X4.27Y-4.06
X4.42Y-4.05
X4.51Y-4.31
X4.74Y-4.46
X4.75Y-4.02
X4.8Y-4.02
X4.8Y-4.46
X5.0Y-4.06
X5.1Y-4.45
X5.19Y-4.25
X5.2057Y-4.5343
X5.29Y-4.08
X5.31Y-4.54
X5.68Y-3.84
X6.11Y-4.35
T2
X4.85Y-4.46
X5.08Y-4.15
T3
X4.2902Y-3.14
X4.3902Y-3.14
X4.4902Y-3.14
X4.5902Y-3.14
X4.65Y-5.04
X4.6902Y-3.14
X4.75Y-5.04
X4.7902Y-3.14
X4.85Y-5.04
X4.8902Y-3.14
X4.95Y-5.04
X4.9902Y-3.14
X5.05Y-5.04
X5.0902Y-3.14
X5.15Y-5.04
X5.1902Y-3.14
X5.25Y-5.04
X5.35Y-3.14
X5.35Y-5.04
X5.45Y-3.14
X5.55Y-3.14
X5.55Y-5.04
X5.65Y-3.14
X5.65Y-5.04
X5.75Y-3.14
X5.75Y-5.04
X5.85Y-3.14
X5.85Y-5.04
X5.95Y-3.14
X5.95Y-5.04
X6.05Y-3.14
X6.05Y-5.04
X5.96Y-3.91
X5.96Y-3.9887
X5.96Y-4.0675
X5.96Y-4.1462
X6.0387Y-3.91
X6.0387Y-3.9887
X6.0387Y-4.0675
X6.0387Y-4.1462
X5.96Y-4.36
X5.96Y-4.4387
X5.96Y-4.5175
X5.96Y-4.5962
X6.0387Y-4.36
X6.0387Y-4.4387
X6.0387Y-4.5175
X6.0387Y-4.5962
T4
X4.65Y-4.93
X4.75Y-4.93
X4.85Y-4.93
X4.95Y-4.93
X5.05Y-4.93
X5.15Y-4.93
X5.25Y-4.93
X5.35Y-4.93
X5.55Y-4.93
X5.65Y-4.93
X5.75Y-4.93
X5.85Y-4.93
X5.95Y-4.93
X6.05Y-4.93
X4.29Y-3.25
X4.39Y-3.25
X4.49Y-3.25
X4.59Y-3.25
X4.69Y-3.25
X4.79Y-3.25
X4.89Y-3.25
X4.99Y-3.25
X5.09Y-3.25
X5.19Y-3.25
X5.77Y-3.92
X5.77Y-4.02
X5.77Y-4.12
X5.35Y-3.25
X5.45Y-3.25
X5.55Y-3.25
X5.65Y-3.25
X5.75Y-3.25
X5.85Y-3.25
X5.95Y-3.25
X6.05Y-3.25
X5.77Y-4.38
X5.77Y-4.48
X5.77Y-4.58
T0
M30
