G04 #@! TF.GenerationSoftware,KiCad,Pcbnew,(5.1.5)-3*
G04 #@! TF.CreationDate,2021-04-03T19:56:23-04:00*
G04 #@! TF.ProjectId,JoystickCtrlV2,4a6f7973-7469-4636-9b43-74726c56322e,rev?*
G04 #@! TF.SameCoordinates,Original*
G04 #@! TF.FileFunction,Legend,Bot*
G04 #@! TF.FilePolarity,Positive*
%FSLAX46Y46*%
G04 Gerber Fmt 4.6, Leading zero omitted, Abs format (unit mm)*
G04 Created by KiCad (PCBNEW (5.1.5)-3) date 2021-04-03 19:56:23*
%MOMM*%
%LPD*%
G04 APERTURE LIST*
%ADD10C,0.120000*%
%ADD11C,0.150000*%
G04 APERTURE END LIST*
D10*
X156340000Y-90166000D02*
X158880000Y-92706000D01*
X156340000Y-78736000D02*
X156340000Y-90166000D01*
X154690000Y-77086000D02*
X156340000Y-78736000D01*
X90040000Y-77086000D02*
X154690000Y-77086000D01*
X90040000Y-86616000D02*
X90040000Y-77086000D01*
X83690000Y-86616000D02*
X90040000Y-86616000D01*
X83690000Y-98296000D02*
X83690000Y-86616000D01*
X90040000Y-98296000D02*
X83690000Y-98296000D01*
X90040000Y-118366000D02*
X90040000Y-98296000D01*
X88140000Y-118366000D02*
X90040000Y-118366000D01*
X88140000Y-127506000D02*
X88140000Y-118366000D01*
X90040000Y-127506000D02*
X88140000Y-127506000D01*
X90040000Y-130686000D02*
X90040000Y-127506000D01*
X156340000Y-130686000D02*
X90040000Y-130686000D01*
X156340000Y-128016000D02*
X156340000Y-130686000D01*
X158880000Y-125476000D02*
X156340000Y-128016000D01*
X158880000Y-92706000D02*
X158880000Y-125476000D01*
D11*
X120094285Y-131992666D02*
X119618095Y-131992666D01*
X120189523Y-132278380D02*
X119856190Y-131278380D01*
X119522857Y-132278380D01*
X118665714Y-132278380D02*
X119237142Y-132278380D01*
X118951428Y-132278380D02*
X118951428Y-131278380D01*
X119046666Y-131421238D01*
X119141904Y-131516476D01*
X119237142Y-131564095D01*
M02*
