G04 #@! TF.GenerationSoftware,KiCad,Pcbnew,(5.1.5)-3*
G04 #@! TF.CreationDate,2021-04-03T19:56:23-04:00*
G04 #@! TF.ProjectId,JoystickCtrlV2,4a6f7973-7469-4636-9b43-74726c56322e,rev?*
G04 #@! TF.SameCoordinates,Original*
G04 #@! TF.FileFunction,Paste,Top*
G04 #@! TF.FilePolarity,Positive*
%FSLAX46Y46*%
G04 Gerber Fmt 4.6, Leading zero omitted, Abs format (unit mm)*
G04 Created by KiCad (PCBNEW (5.1.5)-3) date 2021-04-03 19:56:23*
%MOMM*%
%LPD*%
G04 APERTURE LIST*
%ADD10C,0.100000*%
%ADD11R,0.533400X1.981200*%
%ADD12R,0.560800X1.981200*%
%ADD13R,0.558800X1.981200*%
G04 APERTURE END LIST*
D10*
G36*
X101995504Y-106304204D02*
G01*
X102019773Y-106307804D01*
X102043571Y-106313765D01*
X102066671Y-106322030D01*
X102088849Y-106332520D01*
X102109893Y-106345133D01*
X102129598Y-106359747D01*
X102147777Y-106376223D01*
X102164253Y-106394402D01*
X102178867Y-106414107D01*
X102191480Y-106435151D01*
X102201970Y-106457329D01*
X102210235Y-106480429D01*
X102216196Y-106504227D01*
X102219796Y-106528496D01*
X102221000Y-106553000D01*
X102221000Y-107303000D01*
X102219796Y-107327504D01*
X102216196Y-107351773D01*
X102210235Y-107375571D01*
X102201970Y-107398671D01*
X102191480Y-107420849D01*
X102178867Y-107441893D01*
X102164253Y-107461598D01*
X102147777Y-107479777D01*
X102129598Y-107496253D01*
X102109893Y-107510867D01*
X102088849Y-107523480D01*
X102066671Y-107533970D01*
X102043571Y-107542235D01*
X102019773Y-107548196D01*
X101995504Y-107551796D01*
X101971000Y-107553000D01*
X100721000Y-107553000D01*
X100696496Y-107551796D01*
X100672227Y-107548196D01*
X100648429Y-107542235D01*
X100625329Y-107533970D01*
X100603151Y-107523480D01*
X100582107Y-107510867D01*
X100562402Y-107496253D01*
X100544223Y-107479777D01*
X100527747Y-107461598D01*
X100513133Y-107441893D01*
X100500520Y-107420849D01*
X100490030Y-107398671D01*
X100481765Y-107375571D01*
X100475804Y-107351773D01*
X100472204Y-107327504D01*
X100471000Y-107303000D01*
X100471000Y-106553000D01*
X100472204Y-106528496D01*
X100475804Y-106504227D01*
X100481765Y-106480429D01*
X100490030Y-106457329D01*
X100500520Y-106435151D01*
X100513133Y-106414107D01*
X100527747Y-106394402D01*
X100544223Y-106376223D01*
X100562402Y-106359747D01*
X100582107Y-106345133D01*
X100603151Y-106332520D01*
X100625329Y-106322030D01*
X100648429Y-106313765D01*
X100672227Y-106307804D01*
X100696496Y-106304204D01*
X100721000Y-106303000D01*
X101971000Y-106303000D01*
X101995504Y-106304204D01*
G37*
G36*
X101995504Y-109104204D02*
G01*
X102019773Y-109107804D01*
X102043571Y-109113765D01*
X102066671Y-109122030D01*
X102088849Y-109132520D01*
X102109893Y-109145133D01*
X102129598Y-109159747D01*
X102147777Y-109176223D01*
X102164253Y-109194402D01*
X102178867Y-109214107D01*
X102191480Y-109235151D01*
X102201970Y-109257329D01*
X102210235Y-109280429D01*
X102216196Y-109304227D01*
X102219796Y-109328496D01*
X102221000Y-109353000D01*
X102221000Y-110103000D01*
X102219796Y-110127504D01*
X102216196Y-110151773D01*
X102210235Y-110175571D01*
X102201970Y-110198671D01*
X102191480Y-110220849D01*
X102178867Y-110241893D01*
X102164253Y-110261598D01*
X102147777Y-110279777D01*
X102129598Y-110296253D01*
X102109893Y-110310867D01*
X102088849Y-110323480D01*
X102066671Y-110333970D01*
X102043571Y-110342235D01*
X102019773Y-110348196D01*
X101995504Y-110351796D01*
X101971000Y-110353000D01*
X100721000Y-110353000D01*
X100696496Y-110351796D01*
X100672227Y-110348196D01*
X100648429Y-110342235D01*
X100625329Y-110333970D01*
X100603151Y-110323480D01*
X100582107Y-110310867D01*
X100562402Y-110296253D01*
X100544223Y-110279777D01*
X100527747Y-110261598D01*
X100513133Y-110241893D01*
X100500520Y-110220849D01*
X100490030Y-110198671D01*
X100481765Y-110175571D01*
X100475804Y-110151773D01*
X100472204Y-110127504D01*
X100471000Y-110103000D01*
X100471000Y-109353000D01*
X100472204Y-109328496D01*
X100475804Y-109304227D01*
X100481765Y-109280429D01*
X100490030Y-109257329D01*
X100500520Y-109235151D01*
X100513133Y-109214107D01*
X100527747Y-109194402D01*
X100544223Y-109176223D01*
X100562402Y-109159747D01*
X100582107Y-109145133D01*
X100603151Y-109132520D01*
X100625329Y-109122030D01*
X100648429Y-109113765D01*
X100672227Y-109107804D01*
X100696496Y-109104204D01*
X100721000Y-109103000D01*
X101971000Y-109103000D01*
X101995504Y-109104204D01*
G37*
D11*
X133604000Y-105486200D03*
X134874000Y-105486200D03*
X136144000Y-105486200D03*
X137414000Y-105486200D03*
X138684000Y-105486200D03*
X139954000Y-105486200D03*
X141224000Y-105486200D03*
X141224000Y-110413800D03*
X139954000Y-110413800D03*
X138684000Y-110413800D03*
X137414000Y-110413800D03*
X136144000Y-110413800D03*
X134874000Y-110413800D03*
X133604000Y-110413800D03*
D12*
X126873000Y-110414999D03*
X125603000Y-110414999D03*
X124333000Y-110414999D03*
X123063000Y-110414999D03*
X121793000Y-110414999D03*
X120523000Y-110414999D03*
X119253000Y-110414999D03*
X117983000Y-110414999D03*
X117983000Y-105485001D03*
X119253000Y-105485001D03*
X120523000Y-105485001D03*
X121793000Y-105485001D03*
X123063000Y-105485001D03*
X124333000Y-105485001D03*
X125603000Y-105485001D03*
X126873000Y-105485001D03*
D13*
X112268000Y-110921800D03*
X110998000Y-110921800D03*
X109728000Y-110921800D03*
X108458000Y-110921800D03*
X107188000Y-110921800D03*
X105918000Y-110921800D03*
X104648000Y-110921800D03*
X104648000Y-105994200D03*
X105918000Y-105994200D03*
X107188000Y-105994200D03*
X108458000Y-105994200D03*
X109728000Y-105994200D03*
X110998000Y-105994200D03*
X112268000Y-105994200D03*
M02*
