G04 #@! TF.GenerationSoftware,KiCad,Pcbnew,(5.1.5)-3*
G04 #@! TF.CreationDate,2021-04-03T19:56:23-04:00*
G04 #@! TF.ProjectId,JoystickCtrlV2,4a6f7973-7469-4636-9b43-74726c56322e,rev?*
G04 #@! TF.SameCoordinates,Original*
G04 #@! TF.FileFunction,Legend,Top*
G04 #@! TF.FilePolarity,Positive*
%FSLAX46Y46*%
G04 Gerber Fmt 4.6, Leading zero omitted, Abs format (unit mm)*
G04 Created by KiCad (PCBNEW (5.1.5)-3) date 2021-04-03 19:56:23*
%MOMM*%
%LPD*%
G04 APERTURE LIST*
%ADD10C,0.150000*%
%ADD11C,0.010000*%
%ADD12C,0.120000*%
%ADD13C,0.152400*%
G04 APERTURE END LIST*
D10*
X143724380Y-99425142D02*
X144438666Y-99425142D01*
X144581523Y-99472761D01*
X144676761Y-99568000D01*
X144724380Y-99710857D01*
X144724380Y-99806095D01*
X144438666Y-104886095D02*
X144438666Y-104409904D01*
X144724380Y-104981333D02*
X143724380Y-104648000D01*
X144724380Y-104314666D01*
X144438666Y-111490095D02*
X144438666Y-111013904D01*
X144724380Y-111585333D02*
X143724380Y-111252000D01*
X144724380Y-110918666D01*
X143724380Y-116189142D02*
X144438666Y-116189142D01*
X144581523Y-116236761D01*
X144676761Y-116332000D01*
X144724380Y-116474857D01*
X144724380Y-116570095D01*
X153296952Y-118713238D02*
X153249333Y-118808476D01*
X153201714Y-118856095D01*
X153106476Y-118903714D01*
X153058857Y-118903714D01*
X152963619Y-118856095D01*
X152916000Y-118808476D01*
X152868380Y-118713238D01*
X152868380Y-118522761D01*
X152916000Y-118427523D01*
X152963619Y-118379904D01*
X153058857Y-118332285D01*
X153106476Y-118332285D01*
X153201714Y-118379904D01*
X153249333Y-118427523D01*
X153296952Y-118522761D01*
X153296952Y-118713238D01*
X153344571Y-118808476D01*
X153392190Y-118856095D01*
X153487428Y-118903714D01*
X153677904Y-118903714D01*
X153773142Y-118856095D01*
X153820761Y-118808476D01*
X153868380Y-118713238D01*
X153868380Y-118522761D01*
X153820761Y-118427523D01*
X153773142Y-118379904D01*
X153677904Y-118332285D01*
X153487428Y-118332285D01*
X153392190Y-118379904D01*
X153344571Y-118427523D01*
X153296952Y-118522761D01*
X150836380Y-118951333D02*
X150836380Y-118284666D01*
X151836380Y-118713238D01*
X152963619Y-109251714D02*
X152916000Y-109204095D01*
X152868380Y-109108857D01*
X152868380Y-108870761D01*
X152916000Y-108775523D01*
X152963619Y-108727904D01*
X153058857Y-108680285D01*
X153154095Y-108680285D01*
X153296952Y-108727904D01*
X153868380Y-109299333D01*
X153868380Y-108680285D01*
X151836380Y-108680285D02*
X151836380Y-109251714D01*
X151836380Y-108966000D02*
X150836380Y-108966000D01*
X150979238Y-109061238D01*
X151074476Y-109156476D01*
X151122095Y-109251714D01*
X153296952Y-107283238D02*
X153249333Y-107378476D01*
X153201714Y-107426095D01*
X153106476Y-107473714D01*
X153058857Y-107473714D01*
X152963619Y-107426095D01*
X152916000Y-107378476D01*
X152868380Y-107283238D01*
X152868380Y-107092761D01*
X152916000Y-106997523D01*
X152963619Y-106949904D01*
X153058857Y-106902285D01*
X153106476Y-106902285D01*
X153201714Y-106949904D01*
X153249333Y-106997523D01*
X153296952Y-107092761D01*
X153296952Y-107283238D01*
X153344571Y-107378476D01*
X153392190Y-107426095D01*
X153487428Y-107473714D01*
X153677904Y-107473714D01*
X153773142Y-107426095D01*
X153820761Y-107378476D01*
X153868380Y-107283238D01*
X153868380Y-107092761D01*
X153820761Y-106997523D01*
X153773142Y-106949904D01*
X153677904Y-106902285D01*
X153487428Y-106902285D01*
X153392190Y-106949904D01*
X153344571Y-106997523D01*
X153296952Y-107092761D01*
X150836380Y-107521333D02*
X150836380Y-106854666D01*
X151836380Y-107283238D01*
X151836380Y-96996285D02*
X151836380Y-97567714D01*
X151836380Y-97282000D02*
X150836380Y-97282000D01*
X150979238Y-97377238D01*
X151074476Y-97472476D01*
X151122095Y-97567714D01*
X152963619Y-97567714D02*
X152916000Y-97520095D01*
X152868380Y-97424857D01*
X152868380Y-97186761D01*
X152916000Y-97091523D01*
X152963619Y-97043904D01*
X153058857Y-96996285D01*
X153154095Y-96996285D01*
X153296952Y-97043904D01*
X153868380Y-97615333D01*
X153868380Y-96996285D01*
X139001261Y-85178380D02*
X139001261Y-85892666D01*
X138953642Y-86035523D01*
X138858404Y-86130761D01*
X138715547Y-86178380D01*
X138620309Y-86178380D01*
X139620309Y-86178380D02*
X139525071Y-86130761D01*
X139477452Y-86083142D01*
X139429833Y-85987904D01*
X139429833Y-85702190D01*
X139477452Y-85606952D01*
X139525071Y-85559333D01*
X139620309Y-85511714D01*
X139763166Y-85511714D01*
X139858404Y-85559333D01*
X139906023Y-85606952D01*
X139953642Y-85702190D01*
X139953642Y-85987904D01*
X139906023Y-86083142D01*
X139858404Y-86130761D01*
X139763166Y-86178380D01*
X139620309Y-86178380D01*
X140286976Y-85511714D02*
X140525071Y-86178380D01*
X140763166Y-85511714D02*
X140525071Y-86178380D01*
X140429833Y-86416476D01*
X140382214Y-86464095D01*
X140286976Y-86511714D01*
X141096500Y-86130761D02*
X141191738Y-86178380D01*
X141382214Y-86178380D01*
X141477452Y-86130761D01*
X141525071Y-86035523D01*
X141525071Y-85987904D01*
X141477452Y-85892666D01*
X141382214Y-85845047D01*
X141239357Y-85845047D01*
X141144119Y-85797428D01*
X141096500Y-85702190D01*
X141096500Y-85654571D01*
X141144119Y-85559333D01*
X141239357Y-85511714D01*
X141382214Y-85511714D01*
X141477452Y-85559333D01*
X141810785Y-85511714D02*
X142191738Y-85511714D01*
X141953642Y-85178380D02*
X141953642Y-86035523D01*
X142001261Y-86130761D01*
X142096500Y-86178380D01*
X142191738Y-86178380D01*
X142525071Y-86178380D02*
X142525071Y-85511714D01*
X142525071Y-85178380D02*
X142477452Y-85226000D01*
X142525071Y-85273619D01*
X142572690Y-85226000D01*
X142525071Y-85178380D01*
X142525071Y-85273619D01*
X143429833Y-86130761D02*
X143334595Y-86178380D01*
X143144119Y-86178380D01*
X143048880Y-86130761D01*
X143001261Y-86083142D01*
X142953642Y-85987904D01*
X142953642Y-85702190D01*
X143001261Y-85606952D01*
X143048880Y-85559333D01*
X143144119Y-85511714D01*
X143334595Y-85511714D01*
X143429833Y-85559333D01*
X143858404Y-86178380D02*
X143858404Y-85178380D01*
X143953642Y-85797428D02*
X144239357Y-86178380D01*
X144239357Y-85511714D02*
X143858404Y-85892666D01*
X146001261Y-86083142D02*
X145953642Y-86130761D01*
X145810785Y-86178380D01*
X145715547Y-86178380D01*
X145572690Y-86130761D01*
X145477452Y-86035523D01*
X145429833Y-85940285D01*
X145382214Y-85749809D01*
X145382214Y-85606952D01*
X145429833Y-85416476D01*
X145477452Y-85321238D01*
X145572690Y-85226000D01*
X145715547Y-85178380D01*
X145810785Y-85178380D01*
X145953642Y-85226000D01*
X146001261Y-85273619D01*
X146572690Y-86178380D02*
X146477452Y-86130761D01*
X146429833Y-86083142D01*
X146382214Y-85987904D01*
X146382214Y-85702190D01*
X146429833Y-85606952D01*
X146477452Y-85559333D01*
X146572690Y-85511714D01*
X146715547Y-85511714D01*
X146810785Y-85559333D01*
X146858404Y-85606952D01*
X146906023Y-85702190D01*
X146906023Y-85987904D01*
X146858404Y-86083142D01*
X146810785Y-86130761D01*
X146715547Y-86178380D01*
X146572690Y-86178380D01*
X147334595Y-85511714D02*
X147334595Y-86178380D01*
X147334595Y-85606952D02*
X147382214Y-85559333D01*
X147477452Y-85511714D01*
X147620309Y-85511714D01*
X147715547Y-85559333D01*
X147763166Y-85654571D01*
X147763166Y-86178380D01*
X148096500Y-85511714D02*
X148477452Y-85511714D01*
X148239357Y-85178380D02*
X148239357Y-86035523D01*
X148286976Y-86130761D01*
X148382214Y-86178380D01*
X148477452Y-86178380D01*
X148810785Y-86178380D02*
X148810785Y-85511714D01*
X148810785Y-85702190D02*
X148858404Y-85606952D01*
X148906023Y-85559333D01*
X149001261Y-85511714D01*
X149096500Y-85511714D01*
X149572690Y-86178380D02*
X149477452Y-86130761D01*
X149429833Y-86083142D01*
X149382214Y-85987904D01*
X149382214Y-85702190D01*
X149429833Y-85606952D01*
X149477452Y-85559333D01*
X149572690Y-85511714D01*
X149715547Y-85511714D01*
X149810785Y-85559333D01*
X149858404Y-85606952D01*
X149906023Y-85702190D01*
X149906023Y-85987904D01*
X149858404Y-86083142D01*
X149810785Y-86130761D01*
X149715547Y-86178380D01*
X149572690Y-86178380D01*
X150477452Y-86178380D02*
X150382214Y-86130761D01*
X150334595Y-86035523D01*
X150334595Y-85178380D01*
X151001261Y-86178380D02*
X150906023Y-86130761D01*
X150858404Y-86035523D01*
X150858404Y-85178380D01*
X151763166Y-86130761D02*
X151667928Y-86178380D01*
X151477452Y-86178380D01*
X151382214Y-86130761D01*
X151334595Y-86035523D01*
X151334595Y-85654571D01*
X151382214Y-85559333D01*
X151477452Y-85511714D01*
X151667928Y-85511714D01*
X151763166Y-85559333D01*
X151810785Y-85654571D01*
X151810785Y-85749809D01*
X151334595Y-85845047D01*
X152239357Y-86178380D02*
X152239357Y-85511714D01*
X152239357Y-85702190D02*
X152286976Y-85606952D01*
X152334595Y-85559333D01*
X152429833Y-85511714D01*
X152525071Y-85511714D01*
X153525071Y-85511714D02*
X153763166Y-86178380D01*
X154001261Y-85511714D01*
X154334595Y-85273619D02*
X154382214Y-85226000D01*
X154477452Y-85178380D01*
X154715547Y-85178380D01*
X154810785Y-85226000D01*
X154858404Y-85273619D01*
X154906023Y-85368857D01*
X154906023Y-85464095D01*
X154858404Y-85606952D01*
X154286976Y-86178380D01*
X154906023Y-86178380D01*
X140715547Y-87828380D02*
X140715547Y-86828380D01*
X141048880Y-87542666D01*
X141382214Y-86828380D01*
X141382214Y-87828380D01*
X142286976Y-87828380D02*
X142286976Y-87304571D01*
X142239357Y-87209333D01*
X142144119Y-87161714D01*
X141953642Y-87161714D01*
X141858404Y-87209333D01*
X142286976Y-87780761D02*
X142191738Y-87828380D01*
X141953642Y-87828380D01*
X141858404Y-87780761D01*
X141810785Y-87685523D01*
X141810785Y-87590285D01*
X141858404Y-87495047D01*
X141953642Y-87447428D01*
X142191738Y-87447428D01*
X142286976Y-87399809D01*
X143191738Y-87828380D02*
X143191738Y-86828380D01*
X143191738Y-87780761D02*
X143096500Y-87828380D01*
X142906023Y-87828380D01*
X142810785Y-87780761D01*
X142763166Y-87733142D01*
X142715547Y-87637904D01*
X142715547Y-87352190D01*
X142763166Y-87256952D01*
X142810785Y-87209333D01*
X142906023Y-87161714D01*
X143096500Y-87161714D01*
X143191738Y-87209333D01*
X144048880Y-87780761D02*
X143953642Y-87828380D01*
X143763166Y-87828380D01*
X143667928Y-87780761D01*
X143620309Y-87685523D01*
X143620309Y-87304571D01*
X143667928Y-87209333D01*
X143763166Y-87161714D01*
X143953642Y-87161714D01*
X144048880Y-87209333D01*
X144096500Y-87304571D01*
X144096500Y-87399809D01*
X143620309Y-87495047D01*
X145620309Y-87304571D02*
X145763166Y-87352190D01*
X145810785Y-87399809D01*
X145858404Y-87495047D01*
X145858404Y-87637904D01*
X145810785Y-87733142D01*
X145763166Y-87780761D01*
X145667928Y-87828380D01*
X145286976Y-87828380D01*
X145286976Y-86828380D01*
X145620309Y-86828380D01*
X145715547Y-86876000D01*
X145763166Y-86923619D01*
X145810785Y-87018857D01*
X145810785Y-87114095D01*
X145763166Y-87209333D01*
X145715547Y-87256952D01*
X145620309Y-87304571D01*
X145286976Y-87304571D01*
X146191738Y-87161714D02*
X146429833Y-87828380D01*
X146667928Y-87161714D02*
X146429833Y-87828380D01*
X146334595Y-88066476D01*
X146286976Y-88114095D01*
X146191738Y-88161714D01*
X147048880Y-87733142D02*
X147096500Y-87780761D01*
X147048880Y-87828380D01*
X147001261Y-87780761D01*
X147048880Y-87733142D01*
X147048880Y-87828380D01*
X147048880Y-87209333D02*
X147096500Y-87256952D01*
X147048880Y-87304571D01*
X147001261Y-87256952D01*
X147048880Y-87209333D01*
X147048880Y-87304571D01*
X148239357Y-87780761D02*
X148382214Y-87828380D01*
X148620309Y-87828380D01*
X148715547Y-87780761D01*
X148763166Y-87733142D01*
X148810785Y-87637904D01*
X148810785Y-87542666D01*
X148763166Y-87447428D01*
X148715547Y-87399809D01*
X148620309Y-87352190D01*
X148429833Y-87304571D01*
X148334595Y-87256952D01*
X148286976Y-87209333D01*
X148239357Y-87114095D01*
X148239357Y-87018857D01*
X148286976Y-86923619D01*
X148334595Y-86876000D01*
X148429833Y-86828380D01*
X148667928Y-86828380D01*
X148810785Y-86876000D01*
X149239357Y-87828380D02*
X149239357Y-87161714D01*
X149239357Y-86828380D02*
X149191738Y-86876000D01*
X149239357Y-86923619D01*
X149286976Y-86876000D01*
X149239357Y-86828380D01*
X149239357Y-86923619D01*
X150144119Y-87828380D02*
X150144119Y-86828380D01*
X150144119Y-87780761D02*
X150048880Y-87828380D01*
X149858404Y-87828380D01*
X149763166Y-87780761D01*
X149715547Y-87733142D01*
X149667928Y-87637904D01*
X149667928Y-87352190D01*
X149715547Y-87256952D01*
X149763166Y-87209333D01*
X149858404Y-87161714D01*
X150048880Y-87161714D01*
X150144119Y-87209333D01*
X151382214Y-87828380D02*
X151382214Y-86828380D01*
X151620309Y-86828380D01*
X151763166Y-86876000D01*
X151858404Y-86971238D01*
X151906023Y-87066476D01*
X151953642Y-87256952D01*
X151953642Y-87399809D01*
X151906023Y-87590285D01*
X151858404Y-87685523D01*
X151763166Y-87780761D01*
X151620309Y-87828380D01*
X151382214Y-87828380D01*
X152810785Y-87828380D02*
X152810785Y-87304571D01*
X152763166Y-87209333D01*
X152667928Y-87161714D01*
X152477452Y-87161714D01*
X152382214Y-87209333D01*
X152810785Y-87780761D02*
X152715547Y-87828380D01*
X152477452Y-87828380D01*
X152382214Y-87780761D01*
X152334595Y-87685523D01*
X152334595Y-87590285D01*
X152382214Y-87495047D01*
X152477452Y-87447428D01*
X152715547Y-87447428D01*
X152810785Y-87399809D01*
X153191738Y-87161714D02*
X153429833Y-87828380D01*
X153667928Y-87161714D01*
X154048880Y-87828380D02*
X154048880Y-87161714D01*
X154048880Y-86828380D02*
X154001261Y-86876000D01*
X154048880Y-86923619D01*
X154096500Y-86876000D01*
X154048880Y-86828380D01*
X154048880Y-86923619D01*
X154477452Y-87780761D02*
X154572690Y-87828380D01*
X154763166Y-87828380D01*
X154858404Y-87780761D01*
X154906023Y-87685523D01*
X154906023Y-87637904D01*
X154858404Y-87542666D01*
X154763166Y-87495047D01*
X154620309Y-87495047D01*
X154525071Y-87447428D01*
X154477452Y-87352190D01*
X154477452Y-87304571D01*
X154525071Y-87209333D01*
X154620309Y-87161714D01*
X154763166Y-87161714D01*
X154858404Y-87209333D01*
X145715547Y-89478380D02*
X145715547Y-88478380D01*
X146048880Y-89192666D01*
X146382214Y-88478380D01*
X146382214Y-89478380D01*
X146810785Y-89430761D02*
X146953642Y-89478380D01*
X147191738Y-89478380D01*
X147286976Y-89430761D01*
X147334595Y-89383142D01*
X147382214Y-89287904D01*
X147382214Y-89192666D01*
X147334595Y-89097428D01*
X147286976Y-89049809D01*
X147191738Y-89002190D01*
X147001261Y-88954571D01*
X146906023Y-88906952D01*
X146858404Y-88859333D01*
X146810785Y-88764095D01*
X146810785Y-88668857D01*
X146858404Y-88573619D01*
X146906023Y-88526000D01*
X147001261Y-88478380D01*
X147239357Y-88478380D01*
X147382214Y-88526000D01*
X147810785Y-89478380D02*
X147810785Y-88478380D01*
X148048880Y-88478380D01*
X148191738Y-88526000D01*
X148286976Y-88621238D01*
X148334595Y-88716476D01*
X148382214Y-88906952D01*
X148382214Y-89049809D01*
X148334595Y-89240285D01*
X148286976Y-89335523D01*
X148191738Y-89430761D01*
X148048880Y-89478380D01*
X147810785Y-89478380D01*
X149572690Y-89478380D02*
X149572690Y-88478380D01*
X149953642Y-88478380D01*
X150048880Y-88526000D01*
X150096500Y-88573619D01*
X150144119Y-88668857D01*
X150144119Y-88811714D01*
X150096500Y-88906952D01*
X150048880Y-88954571D01*
X149953642Y-89002190D01*
X149572690Y-89002190D01*
X150525071Y-88573619D02*
X150572690Y-88526000D01*
X150667928Y-88478380D01*
X150906023Y-88478380D01*
X151001261Y-88526000D01*
X151048880Y-88573619D01*
X151096500Y-88668857D01*
X151096500Y-88764095D01*
X151048880Y-88906952D01*
X150477452Y-89478380D01*
X151096500Y-89478380D01*
X152048880Y-89478380D02*
X151477452Y-89478380D01*
X151763166Y-89478380D02*
X151763166Y-88478380D01*
X151667928Y-88621238D01*
X151572690Y-88716476D01*
X151477452Y-88764095D01*
X152382214Y-88478380D02*
X153001261Y-88478380D01*
X152667928Y-88859333D01*
X152810785Y-88859333D01*
X152906023Y-88906952D01*
X152953642Y-88954571D01*
X153001261Y-89049809D01*
X153001261Y-89287904D01*
X152953642Y-89383142D01*
X152906023Y-89430761D01*
X152810785Y-89478380D01*
X152525071Y-89478380D01*
X152429833Y-89430761D01*
X152382214Y-89383142D01*
X153953642Y-89478380D02*
X153382214Y-89478380D01*
X153667928Y-89478380D02*
X153667928Y-88478380D01*
X153572690Y-88621238D01*
X153477452Y-88716476D01*
X153382214Y-88764095D01*
X154906023Y-89478380D02*
X154334595Y-89478380D01*
X154620309Y-89478380D02*
X154620309Y-88478380D01*
X154525071Y-88621238D01*
X154429833Y-88716476D01*
X154334595Y-88764095D01*
D11*
G36*
X92858167Y-120904000D02*
G01*
X92879333Y-120925166D01*
X92858167Y-120946333D01*
X92837000Y-120925166D01*
X92858167Y-120904000D01*
G37*
X92858167Y-120904000D02*
X92879333Y-120925166D01*
X92858167Y-120946333D01*
X92837000Y-120925166D01*
X92858167Y-120904000D01*
G36*
X93450833Y-119126000D02*
G01*
X93472000Y-119147166D01*
X93450833Y-119168333D01*
X93429667Y-119147166D01*
X93450833Y-119126000D01*
G37*
X93450833Y-119126000D02*
X93472000Y-119147166D01*
X93450833Y-119168333D01*
X93429667Y-119147166D01*
X93450833Y-119126000D01*
G36*
X93620167Y-120311333D02*
G01*
X93641333Y-120332500D01*
X93620167Y-120353666D01*
X93599000Y-120332500D01*
X93620167Y-120311333D01*
G37*
X93620167Y-120311333D02*
X93641333Y-120332500D01*
X93620167Y-120353666D01*
X93599000Y-120332500D01*
X93620167Y-120311333D01*
G36*
X94217847Y-121647032D02*
G01*
X94252008Y-121587445D01*
X94274098Y-121597427D01*
X94276333Y-121621168D01*
X94245587Y-121678573D01*
X94234485Y-121686867D01*
X94210429Y-121680053D01*
X94217847Y-121647032D01*
G37*
X94217847Y-121647032D02*
X94252008Y-121587445D01*
X94274098Y-121597427D01*
X94276333Y-121621168D01*
X94245587Y-121678573D01*
X94234485Y-121686867D01*
X94210429Y-121680053D01*
X94217847Y-121647032D01*
G36*
X95398167Y-122428000D02*
G01*
X95419333Y-122449166D01*
X95398167Y-122470333D01*
X95377000Y-122449166D01*
X95398167Y-122428000D01*
G37*
X95398167Y-122428000D02*
X95419333Y-122449166D01*
X95398167Y-122470333D01*
X95377000Y-122449166D01*
X95398167Y-122428000D01*
G36*
X95398167Y-121158000D02*
G01*
X95419333Y-121179166D01*
X95398167Y-121200333D01*
X95377000Y-121179166D01*
X95398167Y-121158000D01*
G37*
X95398167Y-121158000D02*
X95419333Y-121179166D01*
X95398167Y-121200333D01*
X95377000Y-121179166D01*
X95398167Y-121158000D01*
G36*
X95863833Y-118702666D02*
G01*
X95885000Y-118723833D01*
X95863833Y-118745000D01*
X95842667Y-118723833D01*
X95863833Y-118702666D01*
G37*
X95863833Y-118702666D02*
X95885000Y-118723833D01*
X95863833Y-118745000D01*
X95842667Y-118723833D01*
X95863833Y-118702666D01*
G36*
X95997012Y-118715948D02*
G01*
X96012000Y-118723833D01*
X96052428Y-118763720D01*
X96054333Y-118771163D01*
X96026988Y-118774052D01*
X96012000Y-118766166D01*
X95971571Y-118726279D01*
X95969667Y-118718836D01*
X95997012Y-118715948D01*
G37*
X95997012Y-118715948D02*
X96012000Y-118723833D01*
X96052428Y-118763720D01*
X96054333Y-118771163D01*
X96026988Y-118774052D01*
X96012000Y-118766166D01*
X95971571Y-118726279D01*
X95969667Y-118718836D01*
X95997012Y-118715948D01*
G36*
X96237778Y-119775111D02*
G01*
X96262945Y-119780922D01*
X96266000Y-119803333D01*
X96250511Y-119838178D01*
X96237778Y-119831555D01*
X96232711Y-119781316D01*
X96237778Y-119775111D01*
G37*
X96237778Y-119775111D02*
X96262945Y-119780922D01*
X96266000Y-119803333D01*
X96250511Y-119838178D01*
X96237778Y-119831555D01*
X96232711Y-119781316D01*
X96237778Y-119775111D01*
G36*
X96244833Y-122555000D02*
G01*
X96266000Y-122576166D01*
X96244833Y-122597333D01*
X96223667Y-122576166D01*
X96244833Y-122555000D01*
G37*
X96244833Y-122555000D02*
X96266000Y-122576166D01*
X96244833Y-122597333D01*
X96223667Y-122576166D01*
X96244833Y-122555000D01*
G36*
X96837500Y-121454333D02*
G01*
X96858667Y-121475500D01*
X96837500Y-121496666D01*
X96816333Y-121475500D01*
X96837500Y-121454333D01*
G37*
X96837500Y-121454333D02*
X96858667Y-121475500D01*
X96837500Y-121496666D01*
X96816333Y-121475500D01*
X96837500Y-121454333D01*
G36*
X97006833Y-119041333D02*
G01*
X97028000Y-119062500D01*
X97006833Y-119083666D01*
X96985667Y-119062500D01*
X97006833Y-119041333D01*
G37*
X97006833Y-119041333D02*
X97028000Y-119062500D01*
X97006833Y-119083666D01*
X96985667Y-119062500D01*
X97006833Y-119041333D01*
G36*
X97599500Y-120650000D02*
G01*
X97620667Y-120671166D01*
X97599500Y-120692333D01*
X97578333Y-120671166D01*
X97599500Y-120650000D01*
G37*
X97599500Y-120650000D02*
X97620667Y-120671166D01*
X97599500Y-120692333D01*
X97578333Y-120671166D01*
X97599500Y-120650000D01*
G36*
X96895530Y-122072917D02*
G01*
X96987520Y-121961991D01*
X97106736Y-121890290D01*
X97176167Y-121877666D01*
X97281720Y-121907016D01*
X97386117Y-121978000D01*
X97389757Y-121981576D01*
X97461951Y-122084749D01*
X97493605Y-122191331D01*
X97493667Y-122195166D01*
X97464317Y-122300720D01*
X97393333Y-122405117D01*
X97389757Y-122408757D01*
X97286584Y-122480951D01*
X97180002Y-122512605D01*
X97176250Y-122512664D01*
X97176250Y-122294301D01*
X97245719Y-122265687D01*
X97275604Y-122199140D01*
X97274059Y-122185197D01*
X97225242Y-122114546D01*
X97186136Y-122097274D01*
X97114871Y-122116640D01*
X97078475Y-122181943D01*
X97094795Y-122256182D01*
X97104200Y-122267133D01*
X97176250Y-122294301D01*
X97176250Y-122512664D01*
X97176167Y-122512666D01*
X97053917Y-122475803D01*
X96942991Y-122383813D01*
X96871290Y-122264597D01*
X96858667Y-122195166D01*
X96895530Y-122072917D01*
G37*
X96895530Y-122072917D02*
X96987520Y-121961991D01*
X97106736Y-121890290D01*
X97176167Y-121877666D01*
X97281720Y-121907016D01*
X97386117Y-121978000D01*
X97389757Y-121981576D01*
X97461951Y-122084749D01*
X97493605Y-122191331D01*
X97493667Y-122195166D01*
X97464317Y-122300720D01*
X97393333Y-122405117D01*
X97389757Y-122408757D01*
X97286584Y-122480951D01*
X97180002Y-122512605D01*
X97176250Y-122512664D01*
X97176250Y-122294301D01*
X97245719Y-122265687D01*
X97275604Y-122199140D01*
X97274059Y-122185197D01*
X97225242Y-122114546D01*
X97186136Y-122097274D01*
X97114871Y-122116640D01*
X97078475Y-122181943D01*
X97094795Y-122256182D01*
X97104200Y-122267133D01*
X97176250Y-122294301D01*
X97176250Y-122512664D01*
X97176167Y-122512666D01*
X97053917Y-122475803D01*
X96942991Y-122383813D01*
X96871290Y-122264597D01*
X96858667Y-122195166D01*
X96895530Y-122072917D01*
G36*
X92492885Y-120817132D02*
G01*
X92589049Y-120691358D01*
X92722751Y-120606062D01*
X92872251Y-120577131D01*
X92965420Y-120595244D01*
X93074068Y-120616965D01*
X93174436Y-120579590D01*
X93193359Y-120567612D01*
X93261811Y-120510499D01*
X93277956Y-120470297D01*
X93276757Y-120468868D01*
X93264363Y-120405549D01*
X93287630Y-120306766D01*
X93335840Y-120207890D01*
X93368167Y-120167213D01*
X93399803Y-120125853D01*
X93412053Y-120070497D01*
X93411688Y-120065917D01*
X93411688Y-119193420D01*
X93498412Y-119190636D01*
X93536039Y-119167886D01*
X93593353Y-119083610D01*
X93579521Y-119002017D01*
X93546083Y-118970939D01*
X93435682Y-118932098D01*
X93350239Y-118972123D01*
X93342113Y-118981311D01*
X93311308Y-119067370D01*
X93341909Y-119145202D01*
X93411688Y-119193420D01*
X93411688Y-120065917D01*
X93404865Y-119980300D01*
X93378188Y-119834417D01*
X93367202Y-119780670D01*
X93339053Y-119621182D01*
X93324930Y-119491400D01*
X93327265Y-119415436D01*
X93329718Y-119409167D01*
X93337219Y-119381245D01*
X93324133Y-119390015D01*
X93279488Y-119382800D01*
X93217758Y-119321139D01*
X93155061Y-119228468D01*
X93107515Y-119128225D01*
X93091000Y-119051019D01*
X93126612Y-118939981D01*
X93215583Y-118827625D01*
X93331114Y-118739895D01*
X93446407Y-118702734D01*
X93450833Y-118702666D01*
X93565494Y-118735812D01*
X93680135Y-118819622D01*
X93797090Y-118936577D01*
X94084554Y-118846847D01*
X94243180Y-118792322D01*
X94340564Y-118742177D01*
X94398164Y-118682644D01*
X94426564Y-118627392D01*
X94522516Y-118485427D01*
X94651554Y-118416474D01*
X94798923Y-118424466D01*
X94926791Y-118494072D01*
X95019251Y-118610573D01*
X95036010Y-118741143D01*
X94976774Y-118864664D01*
X94932500Y-118906770D01*
X94869566Y-118972112D01*
X94835662Y-119057344D01*
X94827998Y-119181230D01*
X94843785Y-119362534D01*
X94853587Y-119437591D01*
X94879605Y-119564737D01*
X94917703Y-119623981D01*
X94954731Y-119634000D01*
X95040447Y-119659508D01*
X95127768Y-119714015D01*
X95190613Y-119754400D01*
X95268435Y-119775605D01*
X95384049Y-119780657D01*
X95560272Y-119772581D01*
X95566375Y-119772190D01*
X95741639Y-119758044D01*
X95856291Y-119737993D01*
X95934367Y-119704437D01*
X95999904Y-119649775D01*
X96020197Y-119628675D01*
X96152954Y-119529855D01*
X96265538Y-119507000D01*
X96408021Y-119544100D01*
X96526261Y-119639578D01*
X96595782Y-119769697D01*
X96604667Y-119835902D01*
X96642096Y-119945359D01*
X96736709Y-120027934D01*
X96861992Y-120069520D01*
X96991430Y-120056010D01*
X97006594Y-120049739D01*
X97067141Y-120021197D01*
X97099116Y-119990769D01*
X97106060Y-119937355D01*
X97091512Y-119839855D01*
X97064489Y-119704560D01*
X97026802Y-119562337D01*
X96985181Y-119479432D01*
X96979006Y-119475659D01*
X96979006Y-119238361D01*
X97065030Y-119229155D01*
X97087951Y-119213611D01*
X97144113Y-119133162D01*
X97155000Y-119083666D01*
X97124463Y-118996087D01*
X97087951Y-118953722D01*
X97001993Y-118924570D01*
X96924986Y-118962700D01*
X96882226Y-119052318D01*
X96879833Y-119083666D01*
X96908842Y-119184601D01*
X96979006Y-119238361D01*
X96979006Y-119475659D01*
X96961016Y-119464666D01*
X96862979Y-119428050D01*
X96763911Y-119334911D01*
X96685408Y-119210312D01*
X96652139Y-119106170D01*
X96621591Y-118991487D01*
X96561380Y-118928103D01*
X96482818Y-118894901D01*
X96383501Y-118869482D01*
X96313122Y-118885980D01*
X96231750Y-118955148D01*
X96221601Y-118965244D01*
X96083543Y-119061134D01*
X95978632Y-119083666D01*
X95966383Y-119080732D01*
X95966383Y-118872000D01*
X96065468Y-118839987D01*
X96115528Y-118763626D01*
X96107851Y-118672430D01*
X96045803Y-118602958D01*
X95945771Y-118582774D01*
X95852690Y-118626752D01*
X95815804Y-118681079D01*
X95820795Y-118768470D01*
X95881869Y-118843087D01*
X95966383Y-118872000D01*
X95966383Y-119080732D01*
X95840607Y-119050599D01*
X95709984Y-118967217D01*
X95621101Y-118857250D01*
X95609483Y-118828562D01*
X95581625Y-118780832D01*
X95522510Y-118755411D01*
X95410705Y-118745850D01*
X95331814Y-118745000D01*
X95197686Y-118738508D01*
X95106877Y-118721585D01*
X95080667Y-118702666D01*
X95118967Y-118679604D01*
X95217876Y-118664229D01*
X95316343Y-118660333D01*
X95459626Y-118654874D01*
X95554210Y-118629093D01*
X95635834Y-118568884D01*
X95691758Y-118512166D01*
X95843571Y-118399668D01*
X96000463Y-118366849D01*
X96148242Y-118410942D01*
X96272712Y-118529184D01*
X96331219Y-118636752D01*
X96420244Y-118759165D01*
X96548015Y-118828868D01*
X96688679Y-118837793D01*
X96807309Y-118785345D01*
X96951998Y-118712526D01*
X97094650Y-118724105D01*
X97236642Y-118820211D01*
X97242923Y-118826410D01*
X97345836Y-118974541D01*
X97364424Y-119125895D01*
X97298693Y-119276142D01*
X97242343Y-119341502D01*
X97175521Y-119412273D01*
X97142534Y-119472210D01*
X97137903Y-119549444D01*
X97156149Y-119672111D01*
X97166713Y-119729829D01*
X97208429Y-119903024D01*
X97266605Y-120024735D01*
X97354536Y-120125832D01*
X97439620Y-120223982D01*
X97488812Y-120314466D01*
X97493667Y-120340750D01*
X97509215Y-120398010D01*
X97571477Y-120410627D01*
X97618155Y-120405399D01*
X97734631Y-120413444D01*
X97841299Y-120485966D01*
X97850988Y-120495473D01*
X97940235Y-120631723D01*
X97948840Y-120772808D01*
X97876402Y-120905525D01*
X97863908Y-120918607D01*
X97792935Y-121032700D01*
X97802151Y-121158870D01*
X97858589Y-121262669D01*
X97904718Y-121371410D01*
X97917000Y-121456373D01*
X97887592Y-121557318D01*
X97816271Y-121659585D01*
X97728392Y-121732859D01*
X97670855Y-121750666D01*
X97648679Y-121769397D01*
X97648679Y-121519886D01*
X97696075Y-121488032D01*
X97705333Y-121454333D01*
X97674855Y-121399133D01*
X97665925Y-121392641D01*
X97615741Y-121395391D01*
X97588930Y-121446284D01*
X97599927Y-121497357D01*
X97648679Y-121519886D01*
X97648679Y-121769397D01*
X97629266Y-121785795D01*
X97620667Y-121830150D01*
X97598003Y-121909464D01*
X97546861Y-121969576D01*
X97492508Y-121984475D01*
X97479040Y-121975929D01*
X97478537Y-121924249D01*
X97512296Y-121854431D01*
X97547737Y-121784207D01*
X97531690Y-121728286D01*
X97470111Y-121663756D01*
X97393263Y-121556263D01*
X97366667Y-121454333D01*
X97399246Y-121342840D01*
X97479180Y-121238026D01*
X97579763Y-121169498D01*
X97633978Y-121158000D01*
X97694985Y-121127334D01*
X97705333Y-121094500D01*
X97669851Y-121042828D01*
X97641917Y-121036364D01*
X97641917Y-120812634D01*
X97711386Y-120784020D01*
X97741271Y-120717473D01*
X97739726Y-120703531D01*
X97690909Y-120632880D01*
X97651802Y-120615607D01*
X97580538Y-120634974D01*
X97544141Y-120700277D01*
X97560462Y-120774515D01*
X97569867Y-120785466D01*
X97641917Y-120812634D01*
X97641917Y-121036364D01*
X97618742Y-121031000D01*
X97525967Y-120998882D01*
X97422044Y-120920273D01*
X97338529Y-120821787D01*
X97314712Y-120774595D01*
X97279616Y-120736257D01*
X97234391Y-120774940D01*
X97183308Y-120884231D01*
X97159923Y-120960491D01*
X97159923Y-120556396D01*
X97216994Y-120524249D01*
X97269585Y-120434149D01*
X97255573Y-120331169D01*
X97184270Y-120252157D01*
X97114243Y-120230725D01*
X97054007Y-120278159D01*
X97045463Y-120289348D01*
X96996884Y-120402624D01*
X97029958Y-120497711D01*
X97077368Y-120537174D01*
X97159923Y-120556396D01*
X97159923Y-120960491D01*
X97133424Y-121046908D01*
X97099711Y-121189174D01*
X97091348Y-121278114D01*
X97108348Y-121341191D01*
X97133575Y-121382144D01*
X97183683Y-121491901D01*
X97197333Y-121572842D01*
X97164883Y-121672634D01*
X97084687Y-121781581D01*
X96982479Y-121872595D01*
X96883993Y-121918586D01*
X96873701Y-121919470D01*
X96873701Y-121681809D01*
X96934565Y-121651323D01*
X96976399Y-121577387D01*
X96949003Y-121491363D01*
X96891211Y-121438422D01*
X96817784Y-121417482D01*
X96743875Y-121466315D01*
X96743762Y-121466428D01*
X96699370Y-121551737D01*
X96719322Y-121628758D01*
X96783979Y-121678458D01*
X96873701Y-121681809D01*
X96873701Y-121919470D01*
X96867548Y-121920000D01*
X96790167Y-121955445D01*
X96701424Y-122048749D01*
X96678774Y-122080897D01*
X96615550Y-122185846D01*
X96598781Y-122252792D01*
X96622755Y-122310418D01*
X96630816Y-122321821D01*
X96685324Y-122458846D01*
X96657521Y-122602085D01*
X96565590Y-122727590D01*
X96417751Y-122830581D01*
X96357768Y-122837972D01*
X96357768Y-122629169D01*
X96426867Y-122588866D01*
X96474880Y-122498046D01*
X96438557Y-122408994D01*
X96412913Y-122384626D01*
X96331526Y-122359844D01*
X96235131Y-122379570D01*
X96159859Y-122430942D01*
X96139000Y-122482126D01*
X96173751Y-122574507D01*
X96257117Y-122627394D01*
X96357768Y-122629169D01*
X96357768Y-122837972D01*
X96266898Y-122849169D01*
X96116426Y-122783377D01*
X96047820Y-122724333D01*
X95902072Y-122620731D01*
X95758622Y-122599196D01*
X95624408Y-122659881D01*
X95569135Y-122713750D01*
X95486787Y-122789649D01*
X95389878Y-122823501D01*
X95308749Y-122828055D01*
X95308749Y-122631793D01*
X95400497Y-122595399D01*
X95457770Y-122508451D01*
X95430966Y-122417051D01*
X95410867Y-122394133D01*
X95322149Y-122347024D01*
X95224092Y-122350377D01*
X95139972Y-122392346D01*
X95093066Y-122461084D01*
X95106650Y-122544746D01*
X95108611Y-122547965D01*
X95194553Y-122615940D01*
X95308749Y-122631793D01*
X95308749Y-122828055D01*
X95271167Y-122830166D01*
X95134795Y-122820477D01*
X95043286Y-122780970D01*
X94967359Y-122706962D01*
X94886998Y-122573686D01*
X94878378Y-122467959D01*
X94871210Y-122367693D01*
X94800476Y-122296013D01*
X94786937Y-122287682D01*
X94684763Y-122215801D01*
X94589841Y-122131058D01*
X94516719Y-122049726D01*
X94479944Y-121988077D01*
X94494064Y-121962383D01*
X94496063Y-121962333D01*
X94577611Y-121992530D01*
X94614575Y-122025322D01*
X94684301Y-122088582D01*
X94788793Y-122163367D01*
X94809461Y-122176448D01*
X94906770Y-122230534D01*
X94970416Y-122239200D01*
X95036016Y-122205696D01*
X95046955Y-122198126D01*
X95192066Y-122141729D01*
X95352682Y-122147229D01*
X95502521Y-122206437D01*
X95615303Y-122311167D01*
X95652517Y-122386771D01*
X95710431Y-122456318D01*
X95802333Y-122473681D01*
X95897166Y-122440876D01*
X95960944Y-122366739D01*
X96065996Y-122228685D01*
X96216046Y-122151493D01*
X96370270Y-122144379D01*
X96472294Y-122151231D01*
X96537209Y-122116275D01*
X96596242Y-122030605D01*
X96677249Y-121893307D01*
X96577458Y-121777293D01*
X96492959Y-121633499D01*
X96492317Y-121493037D01*
X96575796Y-121351659D01*
X96606017Y-121319470D01*
X96710994Y-121233173D01*
X96806912Y-121205862D01*
X96860050Y-121209566D01*
X96945794Y-121212920D01*
X96992862Y-121175316D01*
X97027797Y-121076590D01*
X97060860Y-120936510D01*
X97056928Y-120842180D01*
X97006643Y-120759323D01*
X96916393Y-120668464D01*
X96824561Y-120574623D01*
X96783679Y-120499147D01*
X96779790Y-120406033D01*
X96787961Y-120337182D01*
X96799482Y-120219847D01*
X96783515Y-120156134D01*
X96727603Y-120116341D01*
X96688150Y-120099177D01*
X96583870Y-120069535D01*
X96498852Y-120091387D01*
X96458239Y-120115801D01*
X96345215Y-120167205D01*
X96252095Y-120184333D01*
X96252022Y-120184311D01*
X96252022Y-119963839D01*
X96306098Y-119948838D01*
X96324919Y-119934135D01*
X96386045Y-119863141D01*
X96369367Y-119799739D01*
X96327375Y-119759237D01*
X96262634Y-119727106D01*
X96200356Y-119766168D01*
X96199961Y-119766562D01*
X96160255Y-119824981D01*
X96182235Y-119887717D01*
X96197505Y-119909494D01*
X96252022Y-119963839D01*
X96252022Y-120184311D01*
X96165964Y-120157408D01*
X96064271Y-120091954D01*
X95975745Y-120010950D01*
X95929116Y-119937376D01*
X95927333Y-119924560D01*
X95888350Y-119907582D01*
X95784754Y-119894797D01*
X95636575Y-119888367D01*
X95588667Y-119888000D01*
X95419749Y-119889845D01*
X95318496Y-119898141D01*
X95267937Y-119917033D01*
X95251099Y-119950665D01*
X95250000Y-119970690D01*
X95218054Y-120054280D01*
X95147581Y-120129440D01*
X95045162Y-120205500D01*
X95221180Y-120537235D01*
X95323167Y-120716915D01*
X95407786Y-120833398D01*
X95487792Y-120902613D01*
X95531858Y-120925234D01*
X95671281Y-121021034D01*
X95746243Y-121152740D01*
X95752265Y-121300106D01*
X95684862Y-121442883D01*
X95654091Y-121477424D01*
X95520482Y-121565661D01*
X95436137Y-121568188D01*
X95436137Y-121364365D01*
X95487830Y-121352440D01*
X95537514Y-121298270D01*
X95536770Y-121220049D01*
X95493740Y-121154869D01*
X95440500Y-121136833D01*
X95369612Y-121166777D01*
X95350980Y-121233126D01*
X95369787Y-121332737D01*
X95436137Y-121364365D01*
X95436137Y-121568188D01*
X95382750Y-121569788D01*
X95244458Y-121490016D01*
X95204655Y-121451109D01*
X95130514Y-121380332D01*
X95061202Y-121347407D01*
X94974647Y-121351958D01*
X94848779Y-121393609D01*
X94729316Y-121442995D01*
X94624976Y-121496940D01*
X94583035Y-121553633D01*
X94581621Y-121620460D01*
X94559861Y-121733659D01*
X94541443Y-121757984D01*
X94541443Y-121377336D01*
X94636332Y-121358353D01*
X94784794Y-121311632D01*
X94801169Y-121306135D01*
X94974002Y-121239858D01*
X95085714Y-121173679D01*
X95158687Y-121093697D01*
X95168785Y-121077833D01*
X95231058Y-120991192D01*
X95281171Y-120947572D01*
X95287191Y-120946333D01*
X95286480Y-120911534D01*
X95252973Y-120818066D01*
X95193040Y-120682326D01*
X95150230Y-120593799D01*
X95071720Y-120442002D01*
X95005816Y-120325650D01*
X94961936Y-120260831D01*
X94950676Y-120252938D01*
X94927307Y-120247781D01*
X94927307Y-120005146D01*
X95001506Y-119986540D01*
X95038235Y-119933635D01*
X95038333Y-119930333D01*
X95004357Y-119878060D01*
X94971988Y-119859883D01*
X94893734Y-119858096D01*
X94842971Y-119900197D01*
X94844151Y-119960855D01*
X94857688Y-119978288D01*
X94927307Y-120005146D01*
X94927307Y-120247781D01*
X94897806Y-120241269D01*
X94811944Y-120194763D01*
X94724234Y-120133856D01*
X94665823Y-120078982D01*
X94657333Y-120060477D01*
X94621017Y-120053375D01*
X94525229Y-120072133D01*
X94389711Y-120112714D01*
X94371583Y-120118904D01*
X94181788Y-120185217D01*
X94058962Y-120231345D01*
X93989919Y-120264374D01*
X93961477Y-120291394D01*
X93960449Y-120319491D01*
X93966327Y-120336764D01*
X93966881Y-120432476D01*
X93924252Y-120546560D01*
X93922411Y-120549116D01*
X93922411Y-120146789D01*
X94010918Y-120130290D01*
X94144311Y-120087079D01*
X94241248Y-120052176D01*
X94392147Y-120000617D01*
X94507500Y-119967884D01*
X94568938Y-119958920D01*
X94574324Y-119962528D01*
X94589717Y-119949803D01*
X94625737Y-119878819D01*
X94636053Y-119855601D01*
X94693227Y-119755871D01*
X94753024Y-119696008D01*
X94758979Y-119693249D01*
X94799442Y-119654488D01*
X94785717Y-119574398D01*
X94781916Y-119564142D01*
X94755764Y-119452782D01*
X94741955Y-119311292D01*
X94741352Y-119281994D01*
X94733083Y-119140834D01*
X94713534Y-119091911D01*
X94713534Y-118775248D01*
X94785082Y-118762433D01*
X94825888Y-118712198D01*
X94826667Y-118702666D01*
X94792690Y-118650394D01*
X94760321Y-118632217D01*
X94679954Y-118630525D01*
X94640331Y-118680048D01*
X94654823Y-118740939D01*
X94713534Y-118775248D01*
X94713534Y-119091911D01*
X94697105Y-119050795D01*
X94614710Y-118978808D01*
X94546055Y-118936803D01*
X94471167Y-118897267D01*
X94405193Y-118881348D01*
X94321039Y-118888962D01*
X94191605Y-118920028D01*
X94133862Y-118935540D01*
X93979584Y-118981703D01*
X93884225Y-119026722D01*
X93823690Y-119086120D01*
X93779473Y-119163882D01*
X93675792Y-119302910D01*
X93564246Y-119380000D01*
X93481837Y-119421553D01*
X93444053Y-119466931D01*
X93439575Y-119544231D01*
X93453382Y-119655166D01*
X93472152Y-119803345D01*
X93485315Y-119933779D01*
X93488136Y-119975356D01*
X93506016Y-120054074D01*
X93562595Y-120069852D01*
X93583406Y-120066629D01*
X93685334Y-120073387D01*
X93791738Y-120111253D01*
X93856712Y-120139476D01*
X93922411Y-120146789D01*
X93922411Y-120549116D01*
X93856753Y-120640284D01*
X93807776Y-120672084D01*
X93772179Y-120690551D01*
X93763591Y-120726370D01*
X93785948Y-120795674D01*
X93843182Y-120914596D01*
X93888125Y-121001575D01*
X93968646Y-121152135D01*
X94026235Y-121241586D01*
X94075828Y-121284545D01*
X94132358Y-121295633D01*
X94185004Y-121292161D01*
X94313223Y-121301171D01*
X94418302Y-121340546D01*
X94476607Y-121370696D01*
X94541443Y-121377336D01*
X94541443Y-121757984D01*
X94481919Y-121836601D01*
X94370036Y-121916091D01*
X94246454Y-121958931D01*
X94224617Y-121957578D01*
X94224617Y-121740114D01*
X94284385Y-121718864D01*
X94295375Y-121710096D01*
X94349609Y-121651064D01*
X94361000Y-121623666D01*
X94332212Y-121573357D01*
X94295375Y-121537237D01*
X94233035Y-121506230D01*
X94171074Y-121541778D01*
X94159304Y-121553220D01*
X94111842Y-121612734D01*
X94128710Y-121661672D01*
X94159304Y-121694113D01*
X94224617Y-121740114D01*
X94224617Y-121957578D01*
X94133415Y-121951924D01*
X94079806Y-121918206D01*
X94023698Y-121903052D01*
X93982998Y-121937554D01*
X93953704Y-122000557D01*
X93983085Y-122075544D01*
X93997492Y-122096934D01*
X94049115Y-122206228D01*
X94064666Y-122291177D01*
X94028204Y-122404999D01*
X93937668Y-122511218D01*
X93821339Y-122582564D01*
X93747250Y-122597316D01*
X93747250Y-122378967D01*
X93816719Y-122350353D01*
X93846604Y-122283806D01*
X93845059Y-122269864D01*
X93796242Y-122199213D01*
X93757136Y-122181941D01*
X93685871Y-122201307D01*
X93649475Y-122266610D01*
X93665795Y-122340848D01*
X93675200Y-122351800D01*
X93747250Y-122378967D01*
X93747250Y-122597316D01*
X93747167Y-122597333D01*
X93624917Y-122560469D01*
X93513991Y-122468479D01*
X93442290Y-122349264D01*
X93429666Y-122279833D01*
X93461069Y-122171947D01*
X93538244Y-122064093D01*
X93635647Y-121985187D01*
X93710159Y-121962333D01*
X93825911Y-121926216D01*
X93896558Y-121830122D01*
X93909049Y-121692437D01*
X93907770Y-121683904D01*
X93905879Y-121558577D01*
X93935643Y-121477938D01*
X93954166Y-121432524D01*
X93944499Y-121360724D01*
X93902224Y-121246612D01*
X93824707Y-121077977D01*
X93746437Y-120926672D01*
X93675099Y-120809700D01*
X93639907Y-120766678D01*
X93639907Y-120519049D01*
X93699927Y-120471660D01*
X93707727Y-120461426D01*
X93746937Y-120390834D01*
X93725420Y-120336306D01*
X93704453Y-120313977D01*
X93632394Y-120272521D01*
X93566456Y-120295498D01*
X93500196Y-120370586D01*
X93516030Y-120450331D01*
X93569729Y-120497219D01*
X93639907Y-120519049D01*
X93639907Y-120766678D01*
X93621976Y-120744756D01*
X93607481Y-120737230D01*
X93532757Y-120716994D01*
X93433175Y-120672981D01*
X93334071Y-120635213D01*
X93262856Y-120650113D01*
X93244329Y-120662397D01*
X93201241Y-120708984D01*
X93201409Y-120774085D01*
X93227780Y-120853593D01*
X93256630Y-120955055D01*
X93246591Y-121041126D01*
X93193449Y-121153140D01*
X93151158Y-121236540D01*
X93134624Y-121304583D01*
X93149704Y-121375504D01*
X93202252Y-121467541D01*
X93298124Y-121598928D01*
X93364315Y-121685310D01*
X93436848Y-121792997D01*
X93484873Y-121889127D01*
X93503504Y-121957564D01*
X93487858Y-121982175D01*
X93447293Y-121959395D01*
X93398328Y-121904186D01*
X93317809Y-121798679D01*
X93221020Y-121663113D01*
X93195012Y-121625346D01*
X93087569Y-121476245D01*
X93009721Y-121390513D01*
X92950227Y-121357352D01*
X92917331Y-121358534D01*
X92858167Y-121356573D01*
X92858167Y-121158000D01*
X92936901Y-121126817D01*
X93012648Y-121056416D01*
X93048576Y-120981522D01*
X93048667Y-120978393D01*
X93022595Y-120913413D01*
X92978605Y-120854417D01*
X92904033Y-120794228D01*
X92854629Y-120777000D01*
X92774231Y-120810482D01*
X92699907Y-120886466D01*
X92667667Y-120967500D01*
X92701354Y-121050914D01*
X92778003Y-121126602D01*
X92858167Y-121158000D01*
X92858167Y-121356573D01*
X92782963Y-121354080D01*
X92648062Y-121287207D01*
X92535114Y-121176974D01*
X92466605Y-121042440D01*
X92456000Y-120967500D01*
X92492885Y-120817132D01*
G37*
X92492885Y-120817132D02*
X92589049Y-120691358D01*
X92722751Y-120606062D01*
X92872251Y-120577131D01*
X92965420Y-120595244D01*
X93074068Y-120616965D01*
X93174436Y-120579590D01*
X93193359Y-120567612D01*
X93261811Y-120510499D01*
X93277956Y-120470297D01*
X93276757Y-120468868D01*
X93264363Y-120405549D01*
X93287630Y-120306766D01*
X93335840Y-120207890D01*
X93368167Y-120167213D01*
X93399803Y-120125853D01*
X93412053Y-120070497D01*
X93411688Y-120065917D01*
X93411688Y-119193420D01*
X93498412Y-119190636D01*
X93536039Y-119167886D01*
X93593353Y-119083610D01*
X93579521Y-119002017D01*
X93546083Y-118970939D01*
X93435682Y-118932098D01*
X93350239Y-118972123D01*
X93342113Y-118981311D01*
X93311308Y-119067370D01*
X93341909Y-119145202D01*
X93411688Y-119193420D01*
X93411688Y-120065917D01*
X93404865Y-119980300D01*
X93378188Y-119834417D01*
X93367202Y-119780670D01*
X93339053Y-119621182D01*
X93324930Y-119491400D01*
X93327265Y-119415436D01*
X93329718Y-119409167D01*
X93337219Y-119381245D01*
X93324133Y-119390015D01*
X93279488Y-119382800D01*
X93217758Y-119321139D01*
X93155061Y-119228468D01*
X93107515Y-119128225D01*
X93091000Y-119051019D01*
X93126612Y-118939981D01*
X93215583Y-118827625D01*
X93331114Y-118739895D01*
X93446407Y-118702734D01*
X93450833Y-118702666D01*
X93565494Y-118735812D01*
X93680135Y-118819622D01*
X93797090Y-118936577D01*
X94084554Y-118846847D01*
X94243180Y-118792322D01*
X94340564Y-118742177D01*
X94398164Y-118682644D01*
X94426564Y-118627392D01*
X94522516Y-118485427D01*
X94651554Y-118416474D01*
X94798923Y-118424466D01*
X94926791Y-118494072D01*
X95019251Y-118610573D01*
X95036010Y-118741143D01*
X94976774Y-118864664D01*
X94932500Y-118906770D01*
X94869566Y-118972112D01*
X94835662Y-119057344D01*
X94827998Y-119181230D01*
X94843785Y-119362534D01*
X94853587Y-119437591D01*
X94879605Y-119564737D01*
X94917703Y-119623981D01*
X94954731Y-119634000D01*
X95040447Y-119659508D01*
X95127768Y-119714015D01*
X95190613Y-119754400D01*
X95268435Y-119775605D01*
X95384049Y-119780657D01*
X95560272Y-119772581D01*
X95566375Y-119772190D01*
X95741639Y-119758044D01*
X95856291Y-119737993D01*
X95934367Y-119704437D01*
X95999904Y-119649775D01*
X96020197Y-119628675D01*
X96152954Y-119529855D01*
X96265538Y-119507000D01*
X96408021Y-119544100D01*
X96526261Y-119639578D01*
X96595782Y-119769697D01*
X96604667Y-119835902D01*
X96642096Y-119945359D01*
X96736709Y-120027934D01*
X96861992Y-120069520D01*
X96991430Y-120056010D01*
X97006594Y-120049739D01*
X97067141Y-120021197D01*
X97099116Y-119990769D01*
X97106060Y-119937355D01*
X97091512Y-119839855D01*
X97064489Y-119704560D01*
X97026802Y-119562337D01*
X96985181Y-119479432D01*
X96979006Y-119475659D01*
X96979006Y-119238361D01*
X97065030Y-119229155D01*
X97087951Y-119213611D01*
X97144113Y-119133162D01*
X97155000Y-119083666D01*
X97124463Y-118996087D01*
X97087951Y-118953722D01*
X97001993Y-118924570D01*
X96924986Y-118962700D01*
X96882226Y-119052318D01*
X96879833Y-119083666D01*
X96908842Y-119184601D01*
X96979006Y-119238361D01*
X96979006Y-119475659D01*
X96961016Y-119464666D01*
X96862979Y-119428050D01*
X96763911Y-119334911D01*
X96685408Y-119210312D01*
X96652139Y-119106170D01*
X96621591Y-118991487D01*
X96561380Y-118928103D01*
X96482818Y-118894901D01*
X96383501Y-118869482D01*
X96313122Y-118885980D01*
X96231750Y-118955148D01*
X96221601Y-118965244D01*
X96083543Y-119061134D01*
X95978632Y-119083666D01*
X95966383Y-119080732D01*
X95966383Y-118872000D01*
X96065468Y-118839987D01*
X96115528Y-118763626D01*
X96107851Y-118672430D01*
X96045803Y-118602958D01*
X95945771Y-118582774D01*
X95852690Y-118626752D01*
X95815804Y-118681079D01*
X95820795Y-118768470D01*
X95881869Y-118843087D01*
X95966383Y-118872000D01*
X95966383Y-119080732D01*
X95840607Y-119050599D01*
X95709984Y-118967217D01*
X95621101Y-118857250D01*
X95609483Y-118828562D01*
X95581625Y-118780832D01*
X95522510Y-118755411D01*
X95410705Y-118745850D01*
X95331814Y-118745000D01*
X95197686Y-118738508D01*
X95106877Y-118721585D01*
X95080667Y-118702666D01*
X95118967Y-118679604D01*
X95217876Y-118664229D01*
X95316343Y-118660333D01*
X95459626Y-118654874D01*
X95554210Y-118629093D01*
X95635834Y-118568884D01*
X95691758Y-118512166D01*
X95843571Y-118399668D01*
X96000463Y-118366849D01*
X96148242Y-118410942D01*
X96272712Y-118529184D01*
X96331219Y-118636752D01*
X96420244Y-118759165D01*
X96548015Y-118828868D01*
X96688679Y-118837793D01*
X96807309Y-118785345D01*
X96951998Y-118712526D01*
X97094650Y-118724105D01*
X97236642Y-118820211D01*
X97242923Y-118826410D01*
X97345836Y-118974541D01*
X97364424Y-119125895D01*
X97298693Y-119276142D01*
X97242343Y-119341502D01*
X97175521Y-119412273D01*
X97142534Y-119472210D01*
X97137903Y-119549444D01*
X97156149Y-119672111D01*
X97166713Y-119729829D01*
X97208429Y-119903024D01*
X97266605Y-120024735D01*
X97354536Y-120125832D01*
X97439620Y-120223982D01*
X97488812Y-120314466D01*
X97493667Y-120340750D01*
X97509215Y-120398010D01*
X97571477Y-120410627D01*
X97618155Y-120405399D01*
X97734631Y-120413444D01*
X97841299Y-120485966D01*
X97850988Y-120495473D01*
X97940235Y-120631723D01*
X97948840Y-120772808D01*
X97876402Y-120905525D01*
X97863908Y-120918607D01*
X97792935Y-121032700D01*
X97802151Y-121158870D01*
X97858589Y-121262669D01*
X97904718Y-121371410D01*
X97917000Y-121456373D01*
X97887592Y-121557318D01*
X97816271Y-121659585D01*
X97728392Y-121732859D01*
X97670855Y-121750666D01*
X97648679Y-121769397D01*
X97648679Y-121519886D01*
X97696075Y-121488032D01*
X97705333Y-121454333D01*
X97674855Y-121399133D01*
X97665925Y-121392641D01*
X97615741Y-121395391D01*
X97588930Y-121446284D01*
X97599927Y-121497357D01*
X97648679Y-121519886D01*
X97648679Y-121769397D01*
X97629266Y-121785795D01*
X97620667Y-121830150D01*
X97598003Y-121909464D01*
X97546861Y-121969576D01*
X97492508Y-121984475D01*
X97479040Y-121975929D01*
X97478537Y-121924249D01*
X97512296Y-121854431D01*
X97547737Y-121784207D01*
X97531690Y-121728286D01*
X97470111Y-121663756D01*
X97393263Y-121556263D01*
X97366667Y-121454333D01*
X97399246Y-121342840D01*
X97479180Y-121238026D01*
X97579763Y-121169498D01*
X97633978Y-121158000D01*
X97694985Y-121127334D01*
X97705333Y-121094500D01*
X97669851Y-121042828D01*
X97641917Y-121036364D01*
X97641917Y-120812634D01*
X97711386Y-120784020D01*
X97741271Y-120717473D01*
X97739726Y-120703531D01*
X97690909Y-120632880D01*
X97651802Y-120615607D01*
X97580538Y-120634974D01*
X97544141Y-120700277D01*
X97560462Y-120774515D01*
X97569867Y-120785466D01*
X97641917Y-120812634D01*
X97641917Y-121036364D01*
X97618742Y-121031000D01*
X97525967Y-120998882D01*
X97422044Y-120920273D01*
X97338529Y-120821787D01*
X97314712Y-120774595D01*
X97279616Y-120736257D01*
X97234391Y-120774940D01*
X97183308Y-120884231D01*
X97159923Y-120960491D01*
X97159923Y-120556396D01*
X97216994Y-120524249D01*
X97269585Y-120434149D01*
X97255573Y-120331169D01*
X97184270Y-120252157D01*
X97114243Y-120230725D01*
X97054007Y-120278159D01*
X97045463Y-120289348D01*
X96996884Y-120402624D01*
X97029958Y-120497711D01*
X97077368Y-120537174D01*
X97159923Y-120556396D01*
X97159923Y-120960491D01*
X97133424Y-121046908D01*
X97099711Y-121189174D01*
X97091348Y-121278114D01*
X97108348Y-121341191D01*
X97133575Y-121382144D01*
X97183683Y-121491901D01*
X97197333Y-121572842D01*
X97164883Y-121672634D01*
X97084687Y-121781581D01*
X96982479Y-121872595D01*
X96883993Y-121918586D01*
X96873701Y-121919470D01*
X96873701Y-121681809D01*
X96934565Y-121651323D01*
X96976399Y-121577387D01*
X96949003Y-121491363D01*
X96891211Y-121438422D01*
X96817784Y-121417482D01*
X96743875Y-121466315D01*
X96743762Y-121466428D01*
X96699370Y-121551737D01*
X96719322Y-121628758D01*
X96783979Y-121678458D01*
X96873701Y-121681809D01*
X96873701Y-121919470D01*
X96867548Y-121920000D01*
X96790167Y-121955445D01*
X96701424Y-122048749D01*
X96678774Y-122080897D01*
X96615550Y-122185846D01*
X96598781Y-122252792D01*
X96622755Y-122310418D01*
X96630816Y-122321821D01*
X96685324Y-122458846D01*
X96657521Y-122602085D01*
X96565590Y-122727590D01*
X96417751Y-122830581D01*
X96357768Y-122837972D01*
X96357768Y-122629169D01*
X96426867Y-122588866D01*
X96474880Y-122498046D01*
X96438557Y-122408994D01*
X96412913Y-122384626D01*
X96331526Y-122359844D01*
X96235131Y-122379570D01*
X96159859Y-122430942D01*
X96139000Y-122482126D01*
X96173751Y-122574507D01*
X96257117Y-122627394D01*
X96357768Y-122629169D01*
X96357768Y-122837972D01*
X96266898Y-122849169D01*
X96116426Y-122783377D01*
X96047820Y-122724333D01*
X95902072Y-122620731D01*
X95758622Y-122599196D01*
X95624408Y-122659881D01*
X95569135Y-122713750D01*
X95486787Y-122789649D01*
X95389878Y-122823501D01*
X95308749Y-122828055D01*
X95308749Y-122631793D01*
X95400497Y-122595399D01*
X95457770Y-122508451D01*
X95430966Y-122417051D01*
X95410867Y-122394133D01*
X95322149Y-122347024D01*
X95224092Y-122350377D01*
X95139972Y-122392346D01*
X95093066Y-122461084D01*
X95106650Y-122544746D01*
X95108611Y-122547965D01*
X95194553Y-122615940D01*
X95308749Y-122631793D01*
X95308749Y-122828055D01*
X95271167Y-122830166D01*
X95134795Y-122820477D01*
X95043286Y-122780970D01*
X94967359Y-122706962D01*
X94886998Y-122573686D01*
X94878378Y-122467959D01*
X94871210Y-122367693D01*
X94800476Y-122296013D01*
X94786937Y-122287682D01*
X94684763Y-122215801D01*
X94589841Y-122131058D01*
X94516719Y-122049726D01*
X94479944Y-121988077D01*
X94494064Y-121962383D01*
X94496063Y-121962333D01*
X94577611Y-121992530D01*
X94614575Y-122025322D01*
X94684301Y-122088582D01*
X94788793Y-122163367D01*
X94809461Y-122176448D01*
X94906770Y-122230534D01*
X94970416Y-122239200D01*
X95036016Y-122205696D01*
X95046955Y-122198126D01*
X95192066Y-122141729D01*
X95352682Y-122147229D01*
X95502521Y-122206437D01*
X95615303Y-122311167D01*
X95652517Y-122386771D01*
X95710431Y-122456318D01*
X95802333Y-122473681D01*
X95897166Y-122440876D01*
X95960944Y-122366739D01*
X96065996Y-122228685D01*
X96216046Y-122151493D01*
X96370270Y-122144379D01*
X96472294Y-122151231D01*
X96537209Y-122116275D01*
X96596242Y-122030605D01*
X96677249Y-121893307D01*
X96577458Y-121777293D01*
X96492959Y-121633499D01*
X96492317Y-121493037D01*
X96575796Y-121351659D01*
X96606017Y-121319470D01*
X96710994Y-121233173D01*
X96806912Y-121205862D01*
X96860050Y-121209566D01*
X96945794Y-121212920D01*
X96992862Y-121175316D01*
X97027797Y-121076590D01*
X97060860Y-120936510D01*
X97056928Y-120842180D01*
X97006643Y-120759323D01*
X96916393Y-120668464D01*
X96824561Y-120574623D01*
X96783679Y-120499147D01*
X96779790Y-120406033D01*
X96787961Y-120337182D01*
X96799482Y-120219847D01*
X96783515Y-120156134D01*
X96727603Y-120116341D01*
X96688150Y-120099177D01*
X96583870Y-120069535D01*
X96498852Y-120091387D01*
X96458239Y-120115801D01*
X96345215Y-120167205D01*
X96252095Y-120184333D01*
X96252022Y-120184311D01*
X96252022Y-119963839D01*
X96306098Y-119948838D01*
X96324919Y-119934135D01*
X96386045Y-119863141D01*
X96369367Y-119799739D01*
X96327375Y-119759237D01*
X96262634Y-119727106D01*
X96200356Y-119766168D01*
X96199961Y-119766562D01*
X96160255Y-119824981D01*
X96182235Y-119887717D01*
X96197505Y-119909494D01*
X96252022Y-119963839D01*
X96252022Y-120184311D01*
X96165964Y-120157408D01*
X96064271Y-120091954D01*
X95975745Y-120010950D01*
X95929116Y-119937376D01*
X95927333Y-119924560D01*
X95888350Y-119907582D01*
X95784754Y-119894797D01*
X95636575Y-119888367D01*
X95588667Y-119888000D01*
X95419749Y-119889845D01*
X95318496Y-119898141D01*
X95267937Y-119917033D01*
X95251099Y-119950665D01*
X95250000Y-119970690D01*
X95218054Y-120054280D01*
X95147581Y-120129440D01*
X95045162Y-120205500D01*
X95221180Y-120537235D01*
X95323167Y-120716915D01*
X95407786Y-120833398D01*
X95487792Y-120902613D01*
X95531858Y-120925234D01*
X95671281Y-121021034D01*
X95746243Y-121152740D01*
X95752265Y-121300106D01*
X95684862Y-121442883D01*
X95654091Y-121477424D01*
X95520482Y-121565661D01*
X95436137Y-121568188D01*
X95436137Y-121364365D01*
X95487830Y-121352440D01*
X95537514Y-121298270D01*
X95536770Y-121220049D01*
X95493740Y-121154869D01*
X95440500Y-121136833D01*
X95369612Y-121166777D01*
X95350980Y-121233126D01*
X95369787Y-121332737D01*
X95436137Y-121364365D01*
X95436137Y-121568188D01*
X95382750Y-121569788D01*
X95244458Y-121490016D01*
X95204655Y-121451109D01*
X95130514Y-121380332D01*
X95061202Y-121347407D01*
X94974647Y-121351958D01*
X94848779Y-121393609D01*
X94729316Y-121442995D01*
X94624976Y-121496940D01*
X94583035Y-121553633D01*
X94581621Y-121620460D01*
X94559861Y-121733659D01*
X94541443Y-121757984D01*
X94541443Y-121377336D01*
X94636332Y-121358353D01*
X94784794Y-121311632D01*
X94801169Y-121306135D01*
X94974002Y-121239858D01*
X95085714Y-121173679D01*
X95158687Y-121093697D01*
X95168785Y-121077833D01*
X95231058Y-120991192D01*
X95281171Y-120947572D01*
X95287191Y-120946333D01*
X95286480Y-120911534D01*
X95252973Y-120818066D01*
X95193040Y-120682326D01*
X95150230Y-120593799D01*
X95071720Y-120442002D01*
X95005816Y-120325650D01*
X94961936Y-120260831D01*
X94950676Y-120252938D01*
X94927307Y-120247781D01*
X94927307Y-120005146D01*
X95001506Y-119986540D01*
X95038235Y-119933635D01*
X95038333Y-119930333D01*
X95004357Y-119878060D01*
X94971988Y-119859883D01*
X94893734Y-119858096D01*
X94842971Y-119900197D01*
X94844151Y-119960855D01*
X94857688Y-119978288D01*
X94927307Y-120005146D01*
X94927307Y-120247781D01*
X94897806Y-120241269D01*
X94811944Y-120194763D01*
X94724234Y-120133856D01*
X94665823Y-120078982D01*
X94657333Y-120060477D01*
X94621017Y-120053375D01*
X94525229Y-120072133D01*
X94389711Y-120112714D01*
X94371583Y-120118904D01*
X94181788Y-120185217D01*
X94058962Y-120231345D01*
X93989919Y-120264374D01*
X93961477Y-120291394D01*
X93960449Y-120319491D01*
X93966327Y-120336764D01*
X93966881Y-120432476D01*
X93924252Y-120546560D01*
X93922411Y-120549116D01*
X93922411Y-120146789D01*
X94010918Y-120130290D01*
X94144311Y-120087079D01*
X94241248Y-120052176D01*
X94392147Y-120000617D01*
X94507500Y-119967884D01*
X94568938Y-119958920D01*
X94574324Y-119962528D01*
X94589717Y-119949803D01*
X94625737Y-119878819D01*
X94636053Y-119855601D01*
X94693227Y-119755871D01*
X94753024Y-119696008D01*
X94758979Y-119693249D01*
X94799442Y-119654488D01*
X94785717Y-119574398D01*
X94781916Y-119564142D01*
X94755764Y-119452782D01*
X94741955Y-119311292D01*
X94741352Y-119281994D01*
X94733083Y-119140834D01*
X94713534Y-119091911D01*
X94713534Y-118775248D01*
X94785082Y-118762433D01*
X94825888Y-118712198D01*
X94826667Y-118702666D01*
X94792690Y-118650394D01*
X94760321Y-118632217D01*
X94679954Y-118630525D01*
X94640331Y-118680048D01*
X94654823Y-118740939D01*
X94713534Y-118775248D01*
X94713534Y-119091911D01*
X94697105Y-119050795D01*
X94614710Y-118978808D01*
X94546055Y-118936803D01*
X94471167Y-118897267D01*
X94405193Y-118881348D01*
X94321039Y-118888962D01*
X94191605Y-118920028D01*
X94133862Y-118935540D01*
X93979584Y-118981703D01*
X93884225Y-119026722D01*
X93823690Y-119086120D01*
X93779473Y-119163882D01*
X93675792Y-119302910D01*
X93564246Y-119380000D01*
X93481837Y-119421553D01*
X93444053Y-119466931D01*
X93439575Y-119544231D01*
X93453382Y-119655166D01*
X93472152Y-119803345D01*
X93485315Y-119933779D01*
X93488136Y-119975356D01*
X93506016Y-120054074D01*
X93562595Y-120069852D01*
X93583406Y-120066629D01*
X93685334Y-120073387D01*
X93791738Y-120111253D01*
X93856712Y-120139476D01*
X93922411Y-120146789D01*
X93922411Y-120549116D01*
X93856753Y-120640284D01*
X93807776Y-120672084D01*
X93772179Y-120690551D01*
X93763591Y-120726370D01*
X93785948Y-120795674D01*
X93843182Y-120914596D01*
X93888125Y-121001575D01*
X93968646Y-121152135D01*
X94026235Y-121241586D01*
X94075828Y-121284545D01*
X94132358Y-121295633D01*
X94185004Y-121292161D01*
X94313223Y-121301171D01*
X94418302Y-121340546D01*
X94476607Y-121370696D01*
X94541443Y-121377336D01*
X94541443Y-121757984D01*
X94481919Y-121836601D01*
X94370036Y-121916091D01*
X94246454Y-121958931D01*
X94224617Y-121957578D01*
X94224617Y-121740114D01*
X94284385Y-121718864D01*
X94295375Y-121710096D01*
X94349609Y-121651064D01*
X94361000Y-121623666D01*
X94332212Y-121573357D01*
X94295375Y-121537237D01*
X94233035Y-121506230D01*
X94171074Y-121541778D01*
X94159304Y-121553220D01*
X94111842Y-121612734D01*
X94128710Y-121661672D01*
X94159304Y-121694113D01*
X94224617Y-121740114D01*
X94224617Y-121957578D01*
X94133415Y-121951924D01*
X94079806Y-121918206D01*
X94023698Y-121903052D01*
X93982998Y-121937554D01*
X93953704Y-122000557D01*
X93983085Y-122075544D01*
X93997492Y-122096934D01*
X94049115Y-122206228D01*
X94064666Y-122291177D01*
X94028204Y-122404999D01*
X93937668Y-122511218D01*
X93821339Y-122582564D01*
X93747250Y-122597316D01*
X93747250Y-122378967D01*
X93816719Y-122350353D01*
X93846604Y-122283806D01*
X93845059Y-122269864D01*
X93796242Y-122199213D01*
X93757136Y-122181941D01*
X93685871Y-122201307D01*
X93649475Y-122266610D01*
X93665795Y-122340848D01*
X93675200Y-122351800D01*
X93747250Y-122378967D01*
X93747250Y-122597316D01*
X93747167Y-122597333D01*
X93624917Y-122560469D01*
X93513991Y-122468479D01*
X93442290Y-122349264D01*
X93429666Y-122279833D01*
X93461069Y-122171947D01*
X93538244Y-122064093D01*
X93635647Y-121985187D01*
X93710159Y-121962333D01*
X93825911Y-121926216D01*
X93896558Y-121830122D01*
X93909049Y-121692437D01*
X93907770Y-121683904D01*
X93905879Y-121558577D01*
X93935643Y-121477938D01*
X93954166Y-121432524D01*
X93944499Y-121360724D01*
X93902224Y-121246612D01*
X93824707Y-121077977D01*
X93746437Y-120926672D01*
X93675099Y-120809700D01*
X93639907Y-120766678D01*
X93639907Y-120519049D01*
X93699927Y-120471660D01*
X93707727Y-120461426D01*
X93746937Y-120390834D01*
X93725420Y-120336306D01*
X93704453Y-120313977D01*
X93632394Y-120272521D01*
X93566456Y-120295498D01*
X93500196Y-120370586D01*
X93516030Y-120450331D01*
X93569729Y-120497219D01*
X93639907Y-120519049D01*
X93639907Y-120766678D01*
X93621976Y-120744756D01*
X93607481Y-120737230D01*
X93532757Y-120716994D01*
X93433175Y-120672981D01*
X93334071Y-120635213D01*
X93262856Y-120650113D01*
X93244329Y-120662397D01*
X93201241Y-120708984D01*
X93201409Y-120774085D01*
X93227780Y-120853593D01*
X93256630Y-120955055D01*
X93246591Y-121041126D01*
X93193449Y-121153140D01*
X93151158Y-121236540D01*
X93134624Y-121304583D01*
X93149704Y-121375504D01*
X93202252Y-121467541D01*
X93298124Y-121598928D01*
X93364315Y-121685310D01*
X93436848Y-121792997D01*
X93484873Y-121889127D01*
X93503504Y-121957564D01*
X93487858Y-121982175D01*
X93447293Y-121959395D01*
X93398328Y-121904186D01*
X93317809Y-121798679D01*
X93221020Y-121663113D01*
X93195012Y-121625346D01*
X93087569Y-121476245D01*
X93009721Y-121390513D01*
X92950227Y-121357352D01*
X92917331Y-121358534D01*
X92858167Y-121356573D01*
X92858167Y-121158000D01*
X92936901Y-121126817D01*
X93012648Y-121056416D01*
X93048576Y-120981522D01*
X93048667Y-120978393D01*
X93022595Y-120913413D01*
X92978605Y-120854417D01*
X92904033Y-120794228D01*
X92854629Y-120777000D01*
X92774231Y-120810482D01*
X92699907Y-120886466D01*
X92667667Y-120967500D01*
X92701354Y-121050914D01*
X92778003Y-121126602D01*
X92858167Y-121158000D01*
X92858167Y-121356573D01*
X92782963Y-121354080D01*
X92648062Y-121287207D01*
X92535114Y-121176974D01*
X92466605Y-121042440D01*
X92456000Y-120967500D01*
X92492885Y-120817132D01*
G36*
X95866652Y-103823297D02*
G01*
X95922373Y-103808402D01*
X96030725Y-103802437D01*
X96207408Y-103801334D01*
X96216193Y-103801333D01*
X96404685Y-103804124D01*
X96524419Y-103814235D01*
X96591175Y-103834273D01*
X96620731Y-103866848D01*
X96621304Y-103868296D01*
X96643646Y-103933671D01*
X96647000Y-103949350D01*
X96608281Y-103959768D01*
X96505992Y-103974350D01*
X96360936Y-103990204D01*
X96336030Y-103992583D01*
X96128326Y-104008413D01*
X95989933Y-104007707D01*
X95906611Y-103987639D01*
X95864124Y-103945381D01*
X95850306Y-103896151D01*
X95847863Y-103851190D01*
X95866652Y-103823297D01*
G37*
X95866652Y-103823297D02*
X95922373Y-103808402D01*
X96030725Y-103802437D01*
X96207408Y-103801334D01*
X96216193Y-103801333D01*
X96404685Y-103804124D01*
X96524419Y-103814235D01*
X96591175Y-103834273D01*
X96620731Y-103866848D01*
X96621304Y-103868296D01*
X96643646Y-103933671D01*
X96647000Y-103949350D01*
X96608281Y-103959768D01*
X96505992Y-103974350D01*
X96360936Y-103990204D01*
X96336030Y-103992583D01*
X96128326Y-104008413D01*
X95989933Y-104007707D01*
X95906611Y-103987639D01*
X95864124Y-103945381D01*
X95850306Y-103896151D01*
X95847863Y-103851190D01*
X95866652Y-103823297D01*
G36*
X96657583Y-105593707D02*
G01*
X96929723Y-105603228D01*
X97202253Y-105611354D01*
X97451331Y-105617469D01*
X97653111Y-105620958D01*
X97737083Y-105621537D01*
X97896275Y-105625135D01*
X98016170Y-105634604D01*
X98077409Y-105648154D01*
X98081422Y-105653416D01*
X98067705Y-105717601D01*
X98055976Y-105765354D01*
X98040136Y-105802007D01*
X98004691Y-105823554D01*
X97933274Y-105832022D01*
X97809518Y-105829439D01*
X97626970Y-105818489D01*
X97429370Y-105808448D01*
X97176848Y-105800061D01*
X96899145Y-105794096D01*
X96626002Y-105791323D01*
X96572917Y-105791219D01*
X95927333Y-105791000D01*
X95927333Y-105566007D01*
X96657583Y-105593707D01*
G37*
X96657583Y-105593707D02*
X96929723Y-105603228D01*
X97202253Y-105611354D01*
X97451331Y-105617469D01*
X97653111Y-105620958D01*
X97737083Y-105621537D01*
X97896275Y-105625135D01*
X98016170Y-105634604D01*
X98077409Y-105648154D01*
X98081422Y-105653416D01*
X98067705Y-105717601D01*
X98055976Y-105765354D01*
X98040136Y-105802007D01*
X98004691Y-105823554D01*
X97933274Y-105832022D01*
X97809518Y-105829439D01*
X97626970Y-105818489D01*
X97429370Y-105808448D01*
X97176848Y-105800061D01*
X96899145Y-105794096D01*
X96626002Y-105791323D01*
X96572917Y-105791219D01*
X95927333Y-105791000D01*
X95927333Y-105566007D01*
X96657583Y-105593707D01*
G36*
X95080667Y-95504000D02*
G01*
X95080667Y-99060000D01*
X94064667Y-99060000D01*
X94064667Y-95504000D01*
X95080667Y-95504000D01*
G37*
X95080667Y-95504000D02*
X95080667Y-99060000D01*
X94064667Y-99060000D01*
X94064667Y-95504000D01*
X95080667Y-95504000D01*
G36*
X96520000Y-95504000D02*
G01*
X96520000Y-99017666D01*
X95504000Y-99017666D01*
X95504000Y-95504000D01*
X96520000Y-95504000D01*
G37*
X96520000Y-95504000D02*
X96520000Y-99017666D01*
X95504000Y-99017666D01*
X95504000Y-95504000D01*
X96520000Y-95504000D01*
G36*
X93115752Y-112432682D02*
G01*
X93249018Y-112248010D01*
X93451873Y-112092810D01*
X93460133Y-112088083D01*
X93530800Y-112056700D01*
X93623146Y-112035287D01*
X93753240Y-112022158D01*
X93937151Y-112015628D01*
X94166448Y-112014000D01*
X94742000Y-112014000D01*
X94742000Y-111444492D01*
X94745644Y-111168062D01*
X94758545Y-110961084D01*
X94783656Y-110808582D01*
X94823932Y-110695575D01*
X94882325Y-110607085D01*
X94913904Y-110572677D01*
X95066608Y-110445402D01*
X95224906Y-110380611D01*
X95419107Y-110363000D01*
X95573462Y-110371196D01*
X95683926Y-110404409D01*
X95790412Y-110475578D01*
X95806334Y-110488532D01*
X95915647Y-110589280D01*
X95994104Y-110694054D01*
X96046568Y-110819122D01*
X96077904Y-110980752D01*
X96092978Y-111195214D01*
X96096667Y-111459481D01*
X96096667Y-112014000D01*
X96651185Y-112014000D01*
X96930091Y-112018190D01*
X97140712Y-112034048D01*
X97299162Y-112066506D01*
X97421554Y-112120497D01*
X97524002Y-112200951D01*
X97621088Y-112310865D01*
X97701006Y-112429082D01*
X97738499Y-112545279D01*
X97747667Y-112698589D01*
X97729442Y-112891736D01*
X97677732Y-113026306D01*
X97676154Y-113028593D01*
X97581507Y-113152001D01*
X97486134Y-113241713D01*
X97374507Y-113302960D01*
X97231096Y-113340968D01*
X97040375Y-113360968D01*
X96786815Y-113368186D01*
X96666175Y-113368666D01*
X96096667Y-113368666D01*
X96096667Y-113944218D01*
X96094701Y-114191500D01*
X96087679Y-114370252D01*
X96073917Y-114496542D01*
X96051728Y-114586439D01*
X96022583Y-114650533D01*
X95867950Y-114857097D01*
X95684015Y-114993378D01*
X95481695Y-115056241D01*
X95271904Y-115042550D01*
X95065559Y-114949171D01*
X95041428Y-114932375D01*
X94932141Y-114843330D01*
X94852687Y-114748295D01*
X94798513Y-114632201D01*
X94765066Y-114479980D01*
X94747792Y-114276564D01*
X94742137Y-114006884D01*
X94742000Y-113941526D01*
X94742000Y-113368666D01*
X94159917Y-113368601D01*
X93874466Y-113364508D01*
X93658368Y-113349089D01*
X93496559Y-113317527D01*
X93373973Y-113265002D01*
X93275547Y-113186694D01*
X93186218Y-113077786D01*
X93167609Y-113051166D01*
X93071634Y-112845498D01*
X93055486Y-112635591D01*
X93115752Y-112432682D01*
G37*
X93115752Y-112432682D02*
X93249018Y-112248010D01*
X93451873Y-112092810D01*
X93460133Y-112088083D01*
X93530800Y-112056700D01*
X93623146Y-112035287D01*
X93753240Y-112022158D01*
X93937151Y-112015628D01*
X94166448Y-112014000D01*
X94742000Y-112014000D01*
X94742000Y-111444492D01*
X94745644Y-111168062D01*
X94758545Y-110961084D01*
X94783656Y-110808582D01*
X94823932Y-110695575D01*
X94882325Y-110607085D01*
X94913904Y-110572677D01*
X95066608Y-110445402D01*
X95224906Y-110380611D01*
X95419107Y-110363000D01*
X95573462Y-110371196D01*
X95683926Y-110404409D01*
X95790412Y-110475578D01*
X95806334Y-110488532D01*
X95915647Y-110589280D01*
X95994104Y-110694054D01*
X96046568Y-110819122D01*
X96077904Y-110980752D01*
X96092978Y-111195214D01*
X96096667Y-111459481D01*
X96096667Y-112014000D01*
X96651185Y-112014000D01*
X96930091Y-112018190D01*
X97140712Y-112034048D01*
X97299162Y-112066506D01*
X97421554Y-112120497D01*
X97524002Y-112200951D01*
X97621088Y-112310865D01*
X97701006Y-112429082D01*
X97738499Y-112545279D01*
X97747667Y-112698589D01*
X97729442Y-112891736D01*
X97677732Y-113026306D01*
X97676154Y-113028593D01*
X97581507Y-113152001D01*
X97486134Y-113241713D01*
X97374507Y-113302960D01*
X97231096Y-113340968D01*
X97040375Y-113360968D01*
X96786815Y-113368186D01*
X96666175Y-113368666D01*
X96096667Y-113368666D01*
X96096667Y-113944218D01*
X96094701Y-114191500D01*
X96087679Y-114370252D01*
X96073917Y-114496542D01*
X96051728Y-114586439D01*
X96022583Y-114650533D01*
X95867950Y-114857097D01*
X95684015Y-114993378D01*
X95481695Y-115056241D01*
X95271904Y-115042550D01*
X95065559Y-114949171D01*
X95041428Y-114932375D01*
X94932141Y-114843330D01*
X94852687Y-114748295D01*
X94798513Y-114632201D01*
X94765066Y-114479980D01*
X94747792Y-114276564D01*
X94742137Y-114006884D01*
X94742000Y-113941526D01*
X94742000Y-113368666D01*
X94159917Y-113368601D01*
X93874466Y-113364508D01*
X93658368Y-113349089D01*
X93496559Y-113317527D01*
X93373973Y-113265002D01*
X93275547Y-113186694D01*
X93186218Y-113077786D01*
X93167609Y-113051166D01*
X93071634Y-112845498D01*
X93055486Y-112635591D01*
X93115752Y-112432682D01*
G36*
X91759945Y-119938417D02*
G01*
X91894587Y-119433100D01*
X92106858Y-118948702D01*
X92289983Y-118643500D01*
X92629917Y-118207441D01*
X93021046Y-117837010D01*
X93466192Y-117530159D01*
X93968179Y-117284843D01*
X94348794Y-117150495D01*
X94506250Y-117105083D01*
X94644267Y-117073592D01*
X94784900Y-117053539D01*
X94950208Y-117042439D01*
X95162245Y-117037809D01*
X95355833Y-117037087D01*
X95614890Y-117038591D01*
X95811401Y-117044767D01*
X95967462Y-117058111D01*
X96105164Y-117081121D01*
X96246603Y-117116293D01*
X96365103Y-117151142D01*
X96902501Y-117352156D01*
X97381163Y-117611241D01*
X97807687Y-117932615D01*
X98181893Y-118312569D01*
X98348486Y-118534875D01*
X98519019Y-118810517D01*
X98678591Y-119111211D01*
X98812303Y-119408674D01*
X98905253Y-119674621D01*
X98911497Y-119697500D01*
X98940340Y-119848522D01*
X98965426Y-120056570D01*
X98985310Y-120296808D01*
X98998548Y-120544398D01*
X99003693Y-120774504D01*
X98999303Y-120962292D01*
X98990292Y-121052166D01*
X98871495Y-121542204D01*
X98678733Y-122024207D01*
X98421794Y-122480385D01*
X98110465Y-122892948D01*
X97811167Y-123195353D01*
X97417717Y-123492930D01*
X96967990Y-123745486D01*
X96483370Y-123941713D01*
X96287167Y-124001180D01*
X95992854Y-124059319D01*
X95646589Y-124091850D01*
X95355833Y-124097312D01*
X95355833Y-123881345D01*
X95609228Y-123879459D01*
X95802032Y-123871918D01*
X95958273Y-123855902D01*
X96101980Y-123828590D01*
X96257182Y-123787160D01*
X96321349Y-123767986D01*
X96842374Y-123568632D01*
X97311977Y-123305025D01*
X97726186Y-122981376D01*
X98081029Y-122601897D01*
X98372533Y-122170800D01*
X98596726Y-121692297D01*
X98743147Y-121200333D01*
X98782610Y-120921756D01*
X98793197Y-120594757D01*
X98776131Y-120250046D01*
X98732638Y-119918336D01*
X98683114Y-119695468D01*
X98513527Y-119232906D01*
X98266195Y-118789351D01*
X97947537Y-118374600D01*
X97580477Y-118012628D01*
X97396317Y-117875964D01*
X97155566Y-117729371D01*
X96883208Y-117585587D01*
X96604229Y-117457351D01*
X96343612Y-117357401D01*
X96223667Y-117320841D01*
X96028268Y-117283836D01*
X95775709Y-117258426D01*
X95490855Y-117244903D01*
X95198571Y-117243557D01*
X94923724Y-117254680D01*
X94691178Y-117278562D01*
X94572667Y-117301526D01*
X94043194Y-117477126D01*
X93560022Y-117722965D01*
X93118926Y-118041339D01*
X92970317Y-118173500D01*
X92613618Y-118561748D01*
X92329802Y-118984649D01*
X92118906Y-119434266D01*
X91980967Y-119902661D01*
X91916020Y-120381897D01*
X91924103Y-120864037D01*
X92005251Y-121341144D01*
X92159502Y-121805280D01*
X92386890Y-122248509D01*
X92687454Y-122662893D01*
X92948452Y-122938234D01*
X93280610Y-123222925D01*
X93618709Y-123447417D01*
X93989018Y-123626827D01*
X94390317Y-123767986D01*
X94555689Y-123815266D01*
X94700804Y-123847400D01*
X94849692Y-123867208D01*
X95026379Y-123877513D01*
X95254896Y-123881134D01*
X95355833Y-123881345D01*
X95355833Y-124097312D01*
X95277114Y-124098791D01*
X94913172Y-124080158D01*
X94583506Y-124035970D01*
X94424500Y-124000047D01*
X93888535Y-123813386D01*
X93398779Y-123556831D01*
X92958004Y-123232006D01*
X92707403Y-122993765D01*
X92466536Y-122725594D01*
X92277247Y-122473740D01*
X92119522Y-122209324D01*
X92012411Y-121990894D01*
X91829163Y-121490892D01*
X91726494Y-120976212D01*
X91703668Y-120455754D01*
X91759945Y-119938417D01*
G37*
X91759945Y-119938417D02*
X91894587Y-119433100D01*
X92106858Y-118948702D01*
X92289983Y-118643500D01*
X92629917Y-118207441D01*
X93021046Y-117837010D01*
X93466192Y-117530159D01*
X93968179Y-117284843D01*
X94348794Y-117150495D01*
X94506250Y-117105083D01*
X94644267Y-117073592D01*
X94784900Y-117053539D01*
X94950208Y-117042439D01*
X95162245Y-117037809D01*
X95355833Y-117037087D01*
X95614890Y-117038591D01*
X95811401Y-117044767D01*
X95967462Y-117058111D01*
X96105164Y-117081121D01*
X96246603Y-117116293D01*
X96365103Y-117151142D01*
X96902501Y-117352156D01*
X97381163Y-117611241D01*
X97807687Y-117932615D01*
X98181893Y-118312569D01*
X98348486Y-118534875D01*
X98519019Y-118810517D01*
X98678591Y-119111211D01*
X98812303Y-119408674D01*
X98905253Y-119674621D01*
X98911497Y-119697500D01*
X98940340Y-119848522D01*
X98965426Y-120056570D01*
X98985310Y-120296808D01*
X98998548Y-120544398D01*
X99003693Y-120774504D01*
X98999303Y-120962292D01*
X98990292Y-121052166D01*
X98871495Y-121542204D01*
X98678733Y-122024207D01*
X98421794Y-122480385D01*
X98110465Y-122892948D01*
X97811167Y-123195353D01*
X97417717Y-123492930D01*
X96967990Y-123745486D01*
X96483370Y-123941713D01*
X96287167Y-124001180D01*
X95992854Y-124059319D01*
X95646589Y-124091850D01*
X95355833Y-124097312D01*
X95355833Y-123881345D01*
X95609228Y-123879459D01*
X95802032Y-123871918D01*
X95958273Y-123855902D01*
X96101980Y-123828590D01*
X96257182Y-123787160D01*
X96321349Y-123767986D01*
X96842374Y-123568632D01*
X97311977Y-123305025D01*
X97726186Y-122981376D01*
X98081029Y-122601897D01*
X98372533Y-122170800D01*
X98596726Y-121692297D01*
X98743147Y-121200333D01*
X98782610Y-120921756D01*
X98793197Y-120594757D01*
X98776131Y-120250046D01*
X98732638Y-119918336D01*
X98683114Y-119695468D01*
X98513527Y-119232906D01*
X98266195Y-118789351D01*
X97947537Y-118374600D01*
X97580477Y-118012628D01*
X97396317Y-117875964D01*
X97155566Y-117729371D01*
X96883208Y-117585587D01*
X96604229Y-117457351D01*
X96343612Y-117357401D01*
X96223667Y-117320841D01*
X96028268Y-117283836D01*
X95775709Y-117258426D01*
X95490855Y-117244903D01*
X95198571Y-117243557D01*
X94923724Y-117254680D01*
X94691178Y-117278562D01*
X94572667Y-117301526D01*
X94043194Y-117477126D01*
X93560022Y-117722965D01*
X93118926Y-118041339D01*
X92970317Y-118173500D01*
X92613618Y-118561748D01*
X92329802Y-118984649D01*
X92118906Y-119434266D01*
X91980967Y-119902661D01*
X91916020Y-120381897D01*
X91924103Y-120864037D01*
X92005251Y-121341144D01*
X92159502Y-121805280D01*
X92386890Y-122248509D01*
X92687454Y-122662893D01*
X92948452Y-122938234D01*
X93280610Y-123222925D01*
X93618709Y-123447417D01*
X93989018Y-123626827D01*
X94390317Y-123767986D01*
X94555689Y-123815266D01*
X94700804Y-123847400D01*
X94849692Y-123867208D01*
X95026379Y-123877513D01*
X95254896Y-123881134D01*
X95355833Y-123881345D01*
X95355833Y-124097312D01*
X95277114Y-124098791D01*
X94913172Y-124080158D01*
X94583506Y-124035970D01*
X94424500Y-124000047D01*
X93888535Y-123813386D01*
X93398779Y-123556831D01*
X92958004Y-123232006D01*
X92707403Y-122993765D01*
X92466536Y-122725594D01*
X92277247Y-122473740D01*
X92119522Y-122209324D01*
X92012411Y-121990894D01*
X91829163Y-121490892D01*
X91726494Y-120976212D01*
X91703668Y-120455754D01*
X91759945Y-119938417D01*
G36*
X91171034Y-105581262D02*
G01*
X91231126Y-105522355D01*
X91335836Y-105464526D01*
X91355991Y-105454586D01*
X91567000Y-105351006D01*
X91567000Y-104789473D01*
X91355333Y-104690333D01*
X91243647Y-104633703D01*
X91177021Y-104578217D01*
X91149223Y-104503965D01*
X91154020Y-104391042D01*
X91185178Y-104219538D01*
X91194188Y-104175664D01*
X91244709Y-103931065D01*
X91437604Y-103905842D01*
X91566256Y-103888873D01*
X91663359Y-103875805D01*
X91685442Y-103872726D01*
X91730474Y-103832621D01*
X91792622Y-103736160D01*
X91849120Y-103623972D01*
X91957856Y-103383110D01*
X91801144Y-103191864D01*
X91710361Y-103065174D01*
X91672511Y-102974627D01*
X91676161Y-102945893D01*
X91715444Y-102882466D01*
X91784486Y-102774591D01*
X91848479Y-102676071D01*
X91989069Y-102460975D01*
X92246996Y-102523986D01*
X92504924Y-102586997D01*
X92677627Y-102414294D01*
X92850331Y-102241591D01*
X92787319Y-101983663D01*
X92724308Y-101725735D01*
X92939404Y-101585146D01*
X93063743Y-101504515D01*
X93164218Y-101440497D01*
X93209226Y-101412828D01*
X93275358Y-101420022D01*
X93384613Y-101483695D01*
X93455198Y-101537811D01*
X93646443Y-101694522D01*
X93887305Y-101585891D01*
X94024751Y-101517950D01*
X94100590Y-101460304D01*
X94133436Y-101396174D01*
X94139345Y-101358713D01*
X94157928Y-101180571D01*
X94181435Y-101067986D01*
X94222938Y-101002240D01*
X94295506Y-100964616D01*
X94412210Y-100936397D01*
X94437974Y-100931066D01*
X94622261Y-100895744D01*
X94744396Y-100885820D01*
X94824738Y-100907701D01*
X94883644Y-100967793D01*
X94941473Y-101072503D01*
X94951413Y-101092658D01*
X95054993Y-101303666D01*
X95616527Y-101303666D01*
X95715667Y-101092000D01*
X95772296Y-100980313D01*
X95827783Y-100913688D01*
X95902034Y-100885890D01*
X96014958Y-100890686D01*
X96186462Y-100921844D01*
X96230336Y-100930854D01*
X96474934Y-100981375D01*
X96500157Y-101174271D01*
X96517127Y-101302922D01*
X96530194Y-101400026D01*
X96533274Y-101422109D01*
X96573378Y-101467140D01*
X96669840Y-101529289D01*
X96782028Y-101585787D01*
X97022890Y-101694522D01*
X97214135Y-101537811D01*
X97340826Y-101447028D01*
X97431373Y-101409177D01*
X97460107Y-101412828D01*
X97523533Y-101452111D01*
X97631409Y-101521152D01*
X97729929Y-101585146D01*
X97945025Y-101725735D01*
X97882014Y-101983663D01*
X97819002Y-102241591D01*
X97991706Y-102414294D01*
X98164409Y-102586997D01*
X98422337Y-102523986D01*
X98680264Y-102460975D01*
X98820854Y-102676071D01*
X98901485Y-102800410D01*
X98965503Y-102900885D01*
X98993172Y-102945893D01*
X98985978Y-103012025D01*
X98922305Y-103121280D01*
X98868189Y-103191864D01*
X98711477Y-103383110D01*
X98820213Y-103623972D01*
X98885403Y-103751379D01*
X98946122Y-103841650D01*
X98983891Y-103872726D01*
X99057287Y-103882754D01*
X99177484Y-103898723D01*
X99231729Y-103905842D01*
X99424624Y-103931065D01*
X99475145Y-104175664D01*
X99510905Y-104361529D01*
X99521573Y-104484763D01*
X99500915Y-104565272D01*
X99442697Y-104622964D01*
X99340688Y-104677748D01*
X99314000Y-104690333D01*
X99102333Y-104789473D01*
X99102333Y-105351006D01*
X99313342Y-105454586D01*
X99427850Y-105518283D01*
X99495447Y-105585025D01*
X99521736Y-105674215D01*
X99512320Y-105805252D01*
X99472801Y-105997538D01*
X99471621Y-106002666D01*
X99442937Y-106119281D01*
X99420766Y-106195486D01*
X99414841Y-106209169D01*
X99369188Y-106222206D01*
X99264843Y-106239117D01*
X99165496Y-106251503D01*
X98929055Y-106277833D01*
X98820266Y-106518695D01*
X98711477Y-106759556D01*
X98868189Y-106950802D01*
X98958972Y-107077493D01*
X98996822Y-107168040D01*
X98993172Y-107196774D01*
X98953889Y-107260200D01*
X98884847Y-107368075D01*
X98820854Y-107466596D01*
X98680264Y-107681692D01*
X98422337Y-107618680D01*
X98295765Y-107587759D01*
X98295765Y-106595333D01*
X98406314Y-106587590D01*
X98464237Y-106550344D01*
X98501150Y-106462566D01*
X98502624Y-106457750D01*
X98554157Y-106269723D01*
X98606646Y-106047229D01*
X98654457Y-105817720D01*
X98691951Y-105608648D01*
X98713494Y-105447465D01*
X98715568Y-105420583D01*
X98707184Y-105356064D01*
X98655796Y-105329584D01*
X98573167Y-105325333D01*
X98473619Y-105318253D01*
X98432789Y-105282343D01*
X98425000Y-105198333D01*
X98425000Y-105071333D01*
X95631000Y-105071333D01*
X95631000Y-105174484D01*
X95615889Y-105248481D01*
X95554207Y-105282192D01*
X95493417Y-105290901D01*
X95355833Y-105304166D01*
X95334667Y-105602267D01*
X95334667Y-104732666D01*
X95504000Y-104732666D01*
X95615389Y-104725202D01*
X95664455Y-104695946D01*
X95673333Y-104651800D01*
X95682895Y-104611037D01*
X95722512Y-104583868D01*
X95808583Y-104565297D01*
X95957507Y-104550325D01*
X96022583Y-104545371D01*
X96167909Y-104537498D01*
X96380225Y-104529695D01*
X96641856Y-104522428D01*
X96935127Y-104516159D01*
X97242363Y-104511352D01*
X97377290Y-104509821D01*
X98382747Y-104499833D01*
X98382707Y-104616250D01*
X98392842Y-104696014D01*
X98440520Y-104727672D01*
X98523778Y-104732666D01*
X98611240Y-104730902D01*
X98669603Y-104717098D01*
X98701197Y-104678490D01*
X98708356Y-104602312D01*
X98693410Y-104475800D01*
X98658692Y-104286188D01*
X98631041Y-104145452D01*
X98586200Y-103918072D01*
X97902350Y-103933786D01*
X97647801Y-103939235D01*
X97465512Y-103941170D01*
X97343103Y-103938295D01*
X97268197Y-103929311D01*
X97228414Y-103912922D01*
X97211377Y-103887831D01*
X97205832Y-103860811D01*
X97205275Y-103821321D01*
X97226607Y-103794236D01*
X97284211Y-103775758D01*
X97392467Y-103762083D01*
X97565759Y-103749411D01*
X97646334Y-103744394D01*
X97862797Y-103732500D01*
X98074796Y-103723158D01*
X98251420Y-103717629D01*
X98326320Y-103716666D01*
X98553136Y-103716666D01*
X98483814Y-103557916D01*
X98433226Y-103430238D01*
X98397308Y-103318819D01*
X98393449Y-103302892D01*
X98383418Y-103267092D01*
X98363115Y-103241726D01*
X98319993Y-103225284D01*
X98241505Y-103216259D01*
X98115107Y-103213141D01*
X97928252Y-103214419D01*
X97689619Y-103218226D01*
X97006833Y-103229833D01*
X97020125Y-103367416D01*
X97021339Y-103462100D01*
X96988167Y-103499384D01*
X96928238Y-103505000D01*
X96848163Y-103486309D01*
X96804856Y-103414702D01*
X96793832Y-103371924D01*
X96764603Y-103238847D01*
X96356552Y-103265871D01*
X96139781Y-103278270D01*
X95918216Y-103287729D01*
X95730002Y-103292713D01*
X95680553Y-103293114D01*
X95574761Y-103293200D01*
X95574761Y-102866635D01*
X95754835Y-102860994D01*
X95992304Y-102849506D01*
X96295816Y-102832412D01*
X96674019Y-102809953D01*
X96731667Y-102806500D01*
X97018727Y-102789310D01*
X97276560Y-102773888D01*
X97493518Y-102760931D01*
X97657953Y-102751132D01*
X97758219Y-102745188D01*
X97784285Y-102743678D01*
X97775157Y-102712763D01*
X97731681Y-102639137D01*
X97730393Y-102637166D01*
X97686513Y-102562856D01*
X97698512Y-102535315D01*
X97767857Y-102531333D01*
X97849142Y-102521686D01*
X97865900Y-102486641D01*
X97816808Y-102417045D01*
X97740283Y-102340722D01*
X97526120Y-102151128D01*
X97347762Y-102019427D01*
X97210954Y-101949562D01*
X97155000Y-101938919D01*
X97047815Y-101916515D01*
X96925224Y-101862451D01*
X96910560Y-101853842D01*
X96824658Y-101811671D01*
X96721085Y-101785849D01*
X96577615Y-101772897D01*
X96372020Y-101769333D01*
X96370810Y-101769333D01*
X96198230Y-101770604D01*
X96062875Y-101774018D01*
X95983156Y-101778979D01*
X95969667Y-101782312D01*
X95996185Y-101817421D01*
X96065526Y-101896560D01*
X96157269Y-101996745D01*
X96344872Y-102198199D01*
X96689173Y-102189098D01*
X96881664Y-102188796D01*
X97006565Y-102201592D01*
X97080248Y-102229658D01*
X97096671Y-102243195D01*
X97114866Y-102270120D01*
X97099139Y-102289864D01*
X97037900Y-102304750D01*
X96919557Y-102317104D01*
X96732516Y-102329248D01*
X96642788Y-102334197D01*
X96391318Y-102345780D01*
X96122567Y-102355000D01*
X95874160Y-102360708D01*
X95731676Y-102362000D01*
X95543801Y-102360126D01*
X95422757Y-102352217D01*
X95350752Y-102334844D01*
X95309989Y-102304579D01*
X95292333Y-102277333D01*
X95274182Y-102234419D01*
X95286838Y-102209166D01*
X95345388Y-102196906D01*
X95464920Y-102192972D01*
X95566010Y-102192666D01*
X95718162Y-102188065D01*
X95830869Y-102175888D01*
X95883496Y-102158578D01*
X95885000Y-102154911D01*
X95860437Y-102102787D01*
X95797584Y-102010660D01*
X95747417Y-101945429D01*
X95609833Y-101773703D01*
X95175917Y-101771518D01*
X94951243Y-101775337D01*
X94808025Y-101789937D01*
X94743651Y-101816008D01*
X94755515Y-101854240D01*
X94784333Y-101875166D01*
X94825990Y-101928773D01*
X94794711Y-101971433D01*
X94742000Y-101981000D01*
X94674325Y-101998981D01*
X94664980Y-102058788D01*
X94713764Y-102169218D01*
X94736866Y-102208836D01*
X94805744Y-102343802D01*
X94864468Y-102491349D01*
X94867149Y-102499583D01*
X94910436Y-102604788D01*
X94966060Y-102649839D01*
X95042524Y-102658333D01*
X95151805Y-102683085D01*
X95215369Y-102764166D01*
X95232666Y-102798680D01*
X95255474Y-102825897D01*
X95292440Y-102846060D01*
X95352211Y-102859409D01*
X95443436Y-102866187D01*
X95574761Y-102866635D01*
X95574761Y-103293200D01*
X95412606Y-103293333D01*
X95440500Y-103420333D01*
X95452684Y-103508726D01*
X95420339Y-103542271D01*
X95338030Y-103547333D01*
X95268908Y-103547963D01*
X95229083Y-103560688D01*
X95215504Y-103601763D01*
X95225117Y-103687442D01*
X95254867Y-103833980D01*
X95270431Y-103907182D01*
X95304143Y-104107170D01*
X95327218Y-104321932D01*
X95333931Y-104468083D01*
X95334667Y-104732666D01*
X95334667Y-105602267D01*
X95328781Y-105685166D01*
X95310471Y-105883128D01*
X95285683Y-106072972D01*
X95258967Y-106221355D01*
X95251432Y-106252150D01*
X95226334Y-106390965D01*
X95251782Y-106470161D01*
X95338065Y-106504601D01*
X95429917Y-106510018D01*
X95515639Y-106496630D01*
X95544773Y-106439697D01*
X95546333Y-106404833D01*
X95544138Y-106373493D01*
X95543102Y-106348374D01*
X95551546Y-106329145D01*
X95577794Y-106315476D01*
X95630167Y-106307035D01*
X95716987Y-106303491D01*
X95846578Y-106304511D01*
X96027261Y-106309767D01*
X96267358Y-106318924D01*
X96575192Y-106331654D01*
X96959085Y-106347624D01*
X96971144Y-106348120D01*
X98205455Y-106398875D01*
X98168109Y-106497104D01*
X98150904Y-106560348D01*
X98176810Y-106588286D01*
X98264399Y-106595210D01*
X98295765Y-106595333D01*
X98295765Y-107587759D01*
X98164409Y-107555669D01*
X97819002Y-107901076D01*
X97882014Y-108159003D01*
X97945025Y-108416931D01*
X97729929Y-108557520D01*
X97605590Y-108638151D01*
X97505115Y-108702170D01*
X97460107Y-108729838D01*
X97393950Y-108722666D01*
X97284737Y-108659019D01*
X97214654Y-108605280D01*
X97033912Y-108457176D01*
X97033912Y-108288666D01*
X97221456Y-108159633D01*
X97326185Y-108080661D01*
X97394259Y-108016060D01*
X97409000Y-107990299D01*
X97368362Y-107975668D01*
X97253172Y-107963806D01*
X97073517Y-107955282D01*
X96839484Y-107950666D01*
X96695837Y-107950000D01*
X96421255Y-107948238D01*
X96141321Y-107943385D01*
X95881976Y-107936092D01*
X95669164Y-107927012D01*
X95592619Y-107922313D01*
X95411208Y-107908007D01*
X95301700Y-107894163D01*
X95251427Y-107877211D01*
X95247720Y-107853576D01*
X95266766Y-107830424D01*
X95294395Y-107811329D01*
X95340258Y-107797478D01*
X95414114Y-107788734D01*
X95525717Y-107784957D01*
X95684825Y-107786009D01*
X95901194Y-107791752D01*
X96184580Y-107802049D01*
X96465234Y-107813435D01*
X97599500Y-107860647D01*
X97758250Y-107706232D01*
X97853367Y-107609492D01*
X97904308Y-107539722D01*
X97903994Y-107492462D01*
X97845346Y-107463258D01*
X97721285Y-107447652D01*
X97524733Y-107441186D01*
X97334917Y-107439691D01*
X97077232Y-107436567D01*
X96802145Y-107429622D01*
X96523082Y-107419587D01*
X96253471Y-107407196D01*
X96006738Y-107393178D01*
X95796309Y-107378266D01*
X95635611Y-107363191D01*
X95538070Y-107348685D01*
X95515439Y-107340550D01*
X95500961Y-107310651D01*
X95529329Y-107288108D01*
X95607143Y-107272557D01*
X95741006Y-107263632D01*
X95937518Y-107260969D01*
X96203281Y-107264201D01*
X96544898Y-107272965D01*
X96668167Y-107276777D01*
X96972749Y-107287093D01*
X97255982Y-107297824D01*
X97504793Y-107308388D01*
X97706112Y-107318196D01*
X97846867Y-107326666D01*
X97908792Y-107332325D01*
X97994124Y-107337659D01*
X98055938Y-107312158D01*
X98118539Y-107239688D01*
X98172897Y-107157023D01*
X98238401Y-107046583D01*
X98276340Y-106968328D01*
X98280319Y-106944542D01*
X98235279Y-106937954D01*
X98116918Y-106927953D01*
X97936480Y-106915285D01*
X97705210Y-106900695D01*
X97434350Y-106884931D01*
X97148381Y-106869429D01*
X96830246Y-106852517D01*
X96522715Y-106835698D01*
X96241255Y-106819854D01*
X96001332Y-106805866D01*
X95818414Y-106794616D01*
X95725139Y-106788299D01*
X95565678Y-106778172D01*
X95469591Y-106780291D01*
X95415908Y-106799524D01*
X95383659Y-106840739D01*
X95369094Y-106870946D01*
X95299996Y-106954993D01*
X95199824Y-106976333D01*
X95121290Y-106987562D01*
X95066254Y-107032519D01*
X95022623Y-107128107D01*
X94980225Y-107283250D01*
X94969113Y-107366489D01*
X95005500Y-107396403D01*
X95062221Y-107399666D01*
X95141719Y-107416371D01*
X95153865Y-107454179D01*
X95106164Y-107494631D01*
X95013906Y-107518526D01*
X94952992Y-107532147D01*
X94901526Y-107568175D01*
X94848253Y-107641264D01*
X94781921Y-107766073D01*
X94713244Y-107910109D01*
X94536321Y-108288666D01*
X97033912Y-108288666D01*
X97033912Y-108457176D01*
X97023927Y-108448994D01*
X96782547Y-108553178D01*
X96654535Y-108616788D01*
X96564030Y-108677594D01*
X96533274Y-108716431D01*
X96523211Y-108792599D01*
X96507190Y-108914658D01*
X96500157Y-108968395D01*
X96474934Y-109161291D01*
X96230336Y-109211812D01*
X96044470Y-109247572D01*
X95921237Y-109258240D01*
X95840728Y-109237581D01*
X95783035Y-109179364D01*
X95728252Y-109077354D01*
X95715667Y-109050666D01*
X95616527Y-108839000D01*
X95052806Y-108839000D01*
X94953667Y-109050666D01*
X94897037Y-109162353D01*
X94841550Y-109228979D01*
X94767299Y-109256777D01*
X94654375Y-109251980D01*
X94482871Y-109220822D01*
X94438997Y-109211812D01*
X94194399Y-109161291D01*
X94169176Y-108968395D01*
X94152166Y-108838586D01*
X94139092Y-108739273D01*
X94136059Y-108716431D01*
X94095665Y-108669749D01*
X94013496Y-108617232D01*
X94013496Y-108119333D01*
X94066232Y-108083117D01*
X94146267Y-107983741D01*
X94245849Y-107835117D01*
X94357223Y-107651154D01*
X94472635Y-107445763D01*
X94584333Y-107232855D01*
X94684563Y-107026339D01*
X94765571Y-106840128D01*
X94819604Y-106688130D01*
X94827560Y-106658833D01*
X94862058Y-106537931D01*
X94893052Y-106449318D01*
X94911326Y-106397620D01*
X94894788Y-106390593D01*
X94827405Y-106428236D01*
X94793132Y-106449318D01*
X94578066Y-106586339D01*
X94379161Y-106721026D01*
X94208300Y-106844546D01*
X94077362Y-106948067D01*
X93998229Y-107022755D01*
X93980000Y-107053849D01*
X93958844Y-107197645D01*
X93903685Y-107333411D01*
X93826985Y-107446121D01*
X93741206Y-107520746D01*
X93658811Y-107542261D01*
X93602218Y-107509377D01*
X93582021Y-107455161D01*
X93625728Y-107395241D01*
X93656707Y-107369453D01*
X93746309Y-107250017D01*
X93774717Y-107124866D01*
X93778406Y-107017101D01*
X93750257Y-106962501D01*
X93670682Y-106930454D01*
X93646087Y-106923850D01*
X93462149Y-106913240D01*
X93379148Y-106937390D01*
X93279715Y-106967027D01*
X93218178Y-106948970D01*
X93205061Y-106937106D01*
X93183387Y-106887000D01*
X93227186Y-106827237D01*
X93252191Y-106805816D01*
X93324443Y-106760893D01*
X93414608Y-106741871D01*
X93550606Y-106744366D01*
X93612024Y-106749318D01*
X93874167Y-106772661D01*
X94244583Y-106512538D01*
X94395562Y-106405778D01*
X94516879Y-106318594D01*
X94594295Y-106261306D01*
X94615052Y-106243958D01*
X94574939Y-106241967D01*
X94463346Y-106241527D01*
X94293446Y-106242557D01*
X94078411Y-106244978D01*
X93921515Y-106247347D01*
X93921515Y-105830364D01*
X94004644Y-105789863D01*
X94057284Y-105697095D01*
X94064667Y-105635173D01*
X94034906Y-105550333D01*
X93955250Y-105511151D01*
X93951518Y-105511153D01*
X93951518Y-104732476D01*
X94032415Y-104708125D01*
X94036444Y-104704444D01*
X94064040Y-104627198D01*
X94052602Y-104524365D01*
X94007903Y-104442202D01*
X94003198Y-104438019D01*
X93912012Y-104404884D01*
X93823458Y-104433663D01*
X93758320Y-104503571D01*
X93737382Y-104593822D01*
X93770019Y-104671198D01*
X93848634Y-104718243D01*
X93951518Y-104732476D01*
X93951518Y-105511153D01*
X93834089Y-105511230D01*
X93757923Y-105569705D01*
X93742157Y-105669636D01*
X93759918Y-105725936D01*
X93831929Y-105811441D01*
X93921515Y-105830364D01*
X93921515Y-106247347D01*
X93831885Y-106248701D01*
X93048667Y-106261902D01*
X93048667Y-104013000D01*
X93810667Y-104013000D01*
X94053924Y-104011330D01*
X94264858Y-104006690D01*
X94430153Y-103999637D01*
X94536494Y-103990726D01*
X94570813Y-103981250D01*
X94537151Y-103945689D01*
X94447752Y-103874842D01*
X94317521Y-103780089D01*
X94208537Y-103704610D01*
X93848115Y-103459719D01*
X93628752Y-103499590D01*
X93487749Y-103516277D01*
X93377207Y-103513317D01*
X93341963Y-103503375D01*
X93240529Y-103425027D01*
X93203518Y-103341032D01*
X93215582Y-103297245D01*
X93253773Y-103265846D01*
X93318176Y-103282692D01*
X93374007Y-103313362D01*
X93461048Y-103357235D01*
X93534199Y-103362089D01*
X93634744Y-103328721D01*
X93658631Y-103318845D01*
X93765190Y-103262213D01*
X93798736Y-103207771D01*
X93794118Y-103184268D01*
X93772802Y-103086755D01*
X93768333Y-103021499D01*
X93728953Y-102924287D01*
X93660912Y-102876979D01*
X93587855Y-102831795D01*
X93582912Y-102777803D01*
X93599607Y-102741865D01*
X93645724Y-102655695D01*
X93766647Y-102741799D01*
X93868880Y-102853369D01*
X93938391Y-103026599D01*
X93942330Y-103041566D01*
X93979041Y-103160319D01*
X94029172Y-103247692D01*
X94112379Y-103328237D01*
X94248320Y-103426511D01*
X94253128Y-103429791D01*
X94418104Y-103542876D01*
X94589476Y-103661291D01*
X94709816Y-103745177D01*
X94824816Y-103821564D01*
X94913610Y-103872706D01*
X94948736Y-103886000D01*
X94954733Y-103849099D01*
X94935369Y-103749093D01*
X94895342Y-103602027D01*
X94839354Y-103423948D01*
X94772101Y-103230900D01*
X94706981Y-103060500D01*
X94522731Y-102666636D01*
X94282412Y-102258260D01*
X94249464Y-102208034D01*
X94169147Y-102091905D01*
X94104616Y-102029275D01*
X94034108Y-102017300D01*
X93935857Y-102053141D01*
X93788099Y-102133954D01*
X93768333Y-102145213D01*
X93399290Y-102384868D01*
X93064092Y-102660048D01*
X92780816Y-102954525D01*
X92607324Y-103187500D01*
X92488512Y-103373249D01*
X92404771Y-103510409D01*
X92344374Y-103620948D01*
X92295593Y-103726834D01*
X92246703Y-103850035D01*
X92229987Y-103894388D01*
X92086879Y-104390388D01*
X92021785Y-104896626D01*
X92033317Y-105402597D01*
X92120085Y-105897795D01*
X92280700Y-106371715D01*
X92513772Y-106813854D01*
X92640322Y-106997500D01*
X92806773Y-107201494D01*
X93001798Y-107410449D01*
X93202984Y-107602212D01*
X93387918Y-107754629D01*
X93450833Y-107798646D01*
X93690956Y-107952053D01*
X93865341Y-108055425D01*
X93975787Y-108109787D01*
X94013496Y-108119333D01*
X94013496Y-108617232D01*
X93998522Y-108607661D01*
X93886786Y-108553178D01*
X93645406Y-108448994D01*
X93454679Y-108605280D01*
X93328180Y-108695873D01*
X93237768Y-108733528D01*
X93209226Y-108729838D01*
X93145800Y-108690556D01*
X93037924Y-108621514D01*
X92939404Y-108557520D01*
X92724308Y-108416931D01*
X92787319Y-108159003D01*
X92850331Y-107901076D01*
X92504924Y-107555669D01*
X92246996Y-107618680D01*
X91989069Y-107681692D01*
X91848479Y-107466596D01*
X91767848Y-107342257D01*
X91703830Y-107241782D01*
X91676161Y-107196774D01*
X91683355Y-107130642D01*
X91747028Y-107021386D01*
X91801144Y-106950802D01*
X91957856Y-106759556D01*
X91849224Y-106518695D01*
X91781283Y-106381249D01*
X91723637Y-106305410D01*
X91659507Y-106272564D01*
X91622046Y-106266655D01*
X91443904Y-106248072D01*
X91331319Y-106224564D01*
X91265573Y-106183062D01*
X91227949Y-106110494D01*
X91199730Y-105993789D01*
X91194399Y-105968026D01*
X91159078Y-105783739D01*
X91149154Y-105661603D01*
X91171034Y-105581262D01*
G37*
X91171034Y-105581262D02*
X91231126Y-105522355D01*
X91335836Y-105464526D01*
X91355991Y-105454586D01*
X91567000Y-105351006D01*
X91567000Y-104789473D01*
X91355333Y-104690333D01*
X91243647Y-104633703D01*
X91177021Y-104578217D01*
X91149223Y-104503965D01*
X91154020Y-104391042D01*
X91185178Y-104219538D01*
X91194188Y-104175664D01*
X91244709Y-103931065D01*
X91437604Y-103905842D01*
X91566256Y-103888873D01*
X91663359Y-103875805D01*
X91685442Y-103872726D01*
X91730474Y-103832621D01*
X91792622Y-103736160D01*
X91849120Y-103623972D01*
X91957856Y-103383110D01*
X91801144Y-103191864D01*
X91710361Y-103065174D01*
X91672511Y-102974627D01*
X91676161Y-102945893D01*
X91715444Y-102882466D01*
X91784486Y-102774591D01*
X91848479Y-102676071D01*
X91989069Y-102460975D01*
X92246996Y-102523986D01*
X92504924Y-102586997D01*
X92677627Y-102414294D01*
X92850331Y-102241591D01*
X92787319Y-101983663D01*
X92724308Y-101725735D01*
X92939404Y-101585146D01*
X93063743Y-101504515D01*
X93164218Y-101440497D01*
X93209226Y-101412828D01*
X93275358Y-101420022D01*
X93384613Y-101483695D01*
X93455198Y-101537811D01*
X93646443Y-101694522D01*
X93887305Y-101585891D01*
X94024751Y-101517950D01*
X94100590Y-101460304D01*
X94133436Y-101396174D01*
X94139345Y-101358713D01*
X94157928Y-101180571D01*
X94181435Y-101067986D01*
X94222938Y-101002240D01*
X94295506Y-100964616D01*
X94412210Y-100936397D01*
X94437974Y-100931066D01*
X94622261Y-100895744D01*
X94744396Y-100885820D01*
X94824738Y-100907701D01*
X94883644Y-100967793D01*
X94941473Y-101072503D01*
X94951413Y-101092658D01*
X95054993Y-101303666D01*
X95616527Y-101303666D01*
X95715667Y-101092000D01*
X95772296Y-100980313D01*
X95827783Y-100913688D01*
X95902034Y-100885890D01*
X96014958Y-100890686D01*
X96186462Y-100921844D01*
X96230336Y-100930854D01*
X96474934Y-100981375D01*
X96500157Y-101174271D01*
X96517127Y-101302922D01*
X96530194Y-101400026D01*
X96533274Y-101422109D01*
X96573378Y-101467140D01*
X96669840Y-101529289D01*
X96782028Y-101585787D01*
X97022890Y-101694522D01*
X97214135Y-101537811D01*
X97340826Y-101447028D01*
X97431373Y-101409177D01*
X97460107Y-101412828D01*
X97523533Y-101452111D01*
X97631409Y-101521152D01*
X97729929Y-101585146D01*
X97945025Y-101725735D01*
X97882014Y-101983663D01*
X97819002Y-102241591D01*
X97991706Y-102414294D01*
X98164409Y-102586997D01*
X98422337Y-102523986D01*
X98680264Y-102460975D01*
X98820854Y-102676071D01*
X98901485Y-102800410D01*
X98965503Y-102900885D01*
X98993172Y-102945893D01*
X98985978Y-103012025D01*
X98922305Y-103121280D01*
X98868189Y-103191864D01*
X98711477Y-103383110D01*
X98820213Y-103623972D01*
X98885403Y-103751379D01*
X98946122Y-103841650D01*
X98983891Y-103872726D01*
X99057287Y-103882754D01*
X99177484Y-103898723D01*
X99231729Y-103905842D01*
X99424624Y-103931065D01*
X99475145Y-104175664D01*
X99510905Y-104361529D01*
X99521573Y-104484763D01*
X99500915Y-104565272D01*
X99442697Y-104622964D01*
X99340688Y-104677748D01*
X99314000Y-104690333D01*
X99102333Y-104789473D01*
X99102333Y-105351006D01*
X99313342Y-105454586D01*
X99427850Y-105518283D01*
X99495447Y-105585025D01*
X99521736Y-105674215D01*
X99512320Y-105805252D01*
X99472801Y-105997538D01*
X99471621Y-106002666D01*
X99442937Y-106119281D01*
X99420766Y-106195486D01*
X99414841Y-106209169D01*
X99369188Y-106222206D01*
X99264843Y-106239117D01*
X99165496Y-106251503D01*
X98929055Y-106277833D01*
X98820266Y-106518695D01*
X98711477Y-106759556D01*
X98868189Y-106950802D01*
X98958972Y-107077493D01*
X98996822Y-107168040D01*
X98993172Y-107196774D01*
X98953889Y-107260200D01*
X98884847Y-107368075D01*
X98820854Y-107466596D01*
X98680264Y-107681692D01*
X98422337Y-107618680D01*
X98295765Y-107587759D01*
X98295765Y-106595333D01*
X98406314Y-106587590D01*
X98464237Y-106550344D01*
X98501150Y-106462566D01*
X98502624Y-106457750D01*
X98554157Y-106269723D01*
X98606646Y-106047229D01*
X98654457Y-105817720D01*
X98691951Y-105608648D01*
X98713494Y-105447465D01*
X98715568Y-105420583D01*
X98707184Y-105356064D01*
X98655796Y-105329584D01*
X98573167Y-105325333D01*
X98473619Y-105318253D01*
X98432789Y-105282343D01*
X98425000Y-105198333D01*
X98425000Y-105071333D01*
X95631000Y-105071333D01*
X95631000Y-105174484D01*
X95615889Y-105248481D01*
X95554207Y-105282192D01*
X95493417Y-105290901D01*
X95355833Y-105304166D01*
X95334667Y-105602267D01*
X95334667Y-104732666D01*
X95504000Y-104732666D01*
X95615389Y-104725202D01*
X95664455Y-104695946D01*
X95673333Y-104651800D01*
X95682895Y-104611037D01*
X95722512Y-104583868D01*
X95808583Y-104565297D01*
X95957507Y-104550325D01*
X96022583Y-104545371D01*
X96167909Y-104537498D01*
X96380225Y-104529695D01*
X96641856Y-104522428D01*
X96935127Y-104516159D01*
X97242363Y-104511352D01*
X97377290Y-104509821D01*
X98382747Y-104499833D01*
X98382707Y-104616250D01*
X98392842Y-104696014D01*
X98440520Y-104727672D01*
X98523778Y-104732666D01*
X98611240Y-104730902D01*
X98669603Y-104717098D01*
X98701197Y-104678490D01*
X98708356Y-104602312D01*
X98693410Y-104475800D01*
X98658692Y-104286188D01*
X98631041Y-104145452D01*
X98586200Y-103918072D01*
X97902350Y-103933786D01*
X97647801Y-103939235D01*
X97465512Y-103941170D01*
X97343103Y-103938295D01*
X97268197Y-103929311D01*
X97228414Y-103912922D01*
X97211377Y-103887831D01*
X97205832Y-103860811D01*
X97205275Y-103821321D01*
X97226607Y-103794236D01*
X97284211Y-103775758D01*
X97392467Y-103762083D01*
X97565759Y-103749411D01*
X97646334Y-103744394D01*
X97862797Y-103732500D01*
X98074796Y-103723158D01*
X98251420Y-103717629D01*
X98326320Y-103716666D01*
X98553136Y-103716666D01*
X98483814Y-103557916D01*
X98433226Y-103430238D01*
X98397308Y-103318819D01*
X98393449Y-103302892D01*
X98383418Y-103267092D01*
X98363115Y-103241726D01*
X98319993Y-103225284D01*
X98241505Y-103216259D01*
X98115107Y-103213141D01*
X97928252Y-103214419D01*
X97689619Y-103218226D01*
X97006833Y-103229833D01*
X97020125Y-103367416D01*
X97021339Y-103462100D01*
X96988167Y-103499384D01*
X96928238Y-103505000D01*
X96848163Y-103486309D01*
X96804856Y-103414702D01*
X96793832Y-103371924D01*
X96764603Y-103238847D01*
X96356552Y-103265871D01*
X96139781Y-103278270D01*
X95918216Y-103287729D01*
X95730002Y-103292713D01*
X95680553Y-103293114D01*
X95574761Y-103293200D01*
X95574761Y-102866635D01*
X95754835Y-102860994D01*
X95992304Y-102849506D01*
X96295816Y-102832412D01*
X96674019Y-102809953D01*
X96731667Y-102806500D01*
X97018727Y-102789310D01*
X97276560Y-102773888D01*
X97493518Y-102760931D01*
X97657953Y-102751132D01*
X97758219Y-102745188D01*
X97784285Y-102743678D01*
X97775157Y-102712763D01*
X97731681Y-102639137D01*
X97730393Y-102637166D01*
X97686513Y-102562856D01*
X97698512Y-102535315D01*
X97767857Y-102531333D01*
X97849142Y-102521686D01*
X97865900Y-102486641D01*
X97816808Y-102417045D01*
X97740283Y-102340722D01*
X97526120Y-102151128D01*
X97347762Y-102019427D01*
X97210954Y-101949562D01*
X97155000Y-101938919D01*
X97047815Y-101916515D01*
X96925224Y-101862451D01*
X96910560Y-101853842D01*
X96824658Y-101811671D01*
X96721085Y-101785849D01*
X96577615Y-101772897D01*
X96372020Y-101769333D01*
X96370810Y-101769333D01*
X96198230Y-101770604D01*
X96062875Y-101774018D01*
X95983156Y-101778979D01*
X95969667Y-101782312D01*
X95996185Y-101817421D01*
X96065526Y-101896560D01*
X96157269Y-101996745D01*
X96344872Y-102198199D01*
X96689173Y-102189098D01*
X96881664Y-102188796D01*
X97006565Y-102201592D01*
X97080248Y-102229658D01*
X97096671Y-102243195D01*
X97114866Y-102270120D01*
X97099139Y-102289864D01*
X97037900Y-102304750D01*
X96919557Y-102317104D01*
X96732516Y-102329248D01*
X96642788Y-102334197D01*
X96391318Y-102345780D01*
X96122567Y-102355000D01*
X95874160Y-102360708D01*
X95731676Y-102362000D01*
X95543801Y-102360126D01*
X95422757Y-102352217D01*
X95350752Y-102334844D01*
X95309989Y-102304579D01*
X95292333Y-102277333D01*
X95274182Y-102234419D01*
X95286838Y-102209166D01*
X95345388Y-102196906D01*
X95464920Y-102192972D01*
X95566010Y-102192666D01*
X95718162Y-102188065D01*
X95830869Y-102175888D01*
X95883496Y-102158578D01*
X95885000Y-102154911D01*
X95860437Y-102102787D01*
X95797584Y-102010660D01*
X95747417Y-101945429D01*
X95609833Y-101773703D01*
X95175917Y-101771518D01*
X94951243Y-101775337D01*
X94808025Y-101789937D01*
X94743651Y-101816008D01*
X94755515Y-101854240D01*
X94784333Y-101875166D01*
X94825990Y-101928773D01*
X94794711Y-101971433D01*
X94742000Y-101981000D01*
X94674325Y-101998981D01*
X94664980Y-102058788D01*
X94713764Y-102169218D01*
X94736866Y-102208836D01*
X94805744Y-102343802D01*
X94864468Y-102491349D01*
X94867149Y-102499583D01*
X94910436Y-102604788D01*
X94966060Y-102649839D01*
X95042524Y-102658333D01*
X95151805Y-102683085D01*
X95215369Y-102764166D01*
X95232666Y-102798680D01*
X95255474Y-102825897D01*
X95292440Y-102846060D01*
X95352211Y-102859409D01*
X95443436Y-102866187D01*
X95574761Y-102866635D01*
X95574761Y-103293200D01*
X95412606Y-103293333D01*
X95440500Y-103420333D01*
X95452684Y-103508726D01*
X95420339Y-103542271D01*
X95338030Y-103547333D01*
X95268908Y-103547963D01*
X95229083Y-103560688D01*
X95215504Y-103601763D01*
X95225117Y-103687442D01*
X95254867Y-103833980D01*
X95270431Y-103907182D01*
X95304143Y-104107170D01*
X95327218Y-104321932D01*
X95333931Y-104468083D01*
X95334667Y-104732666D01*
X95334667Y-105602267D01*
X95328781Y-105685166D01*
X95310471Y-105883128D01*
X95285683Y-106072972D01*
X95258967Y-106221355D01*
X95251432Y-106252150D01*
X95226334Y-106390965D01*
X95251782Y-106470161D01*
X95338065Y-106504601D01*
X95429917Y-106510018D01*
X95515639Y-106496630D01*
X95544773Y-106439697D01*
X95546333Y-106404833D01*
X95544138Y-106373493D01*
X95543102Y-106348374D01*
X95551546Y-106329145D01*
X95577794Y-106315476D01*
X95630167Y-106307035D01*
X95716987Y-106303491D01*
X95846578Y-106304511D01*
X96027261Y-106309767D01*
X96267358Y-106318924D01*
X96575192Y-106331654D01*
X96959085Y-106347624D01*
X96971144Y-106348120D01*
X98205455Y-106398875D01*
X98168109Y-106497104D01*
X98150904Y-106560348D01*
X98176810Y-106588286D01*
X98264399Y-106595210D01*
X98295765Y-106595333D01*
X98295765Y-107587759D01*
X98164409Y-107555669D01*
X97819002Y-107901076D01*
X97882014Y-108159003D01*
X97945025Y-108416931D01*
X97729929Y-108557520D01*
X97605590Y-108638151D01*
X97505115Y-108702170D01*
X97460107Y-108729838D01*
X97393950Y-108722666D01*
X97284737Y-108659019D01*
X97214654Y-108605280D01*
X97033912Y-108457176D01*
X97033912Y-108288666D01*
X97221456Y-108159633D01*
X97326185Y-108080661D01*
X97394259Y-108016060D01*
X97409000Y-107990299D01*
X97368362Y-107975668D01*
X97253172Y-107963806D01*
X97073517Y-107955282D01*
X96839484Y-107950666D01*
X96695837Y-107950000D01*
X96421255Y-107948238D01*
X96141321Y-107943385D01*
X95881976Y-107936092D01*
X95669164Y-107927012D01*
X95592619Y-107922313D01*
X95411208Y-107908007D01*
X95301700Y-107894163D01*
X95251427Y-107877211D01*
X95247720Y-107853576D01*
X95266766Y-107830424D01*
X95294395Y-107811329D01*
X95340258Y-107797478D01*
X95414114Y-107788734D01*
X95525717Y-107784957D01*
X95684825Y-107786009D01*
X95901194Y-107791752D01*
X96184580Y-107802049D01*
X96465234Y-107813435D01*
X97599500Y-107860647D01*
X97758250Y-107706232D01*
X97853367Y-107609492D01*
X97904308Y-107539722D01*
X97903994Y-107492462D01*
X97845346Y-107463258D01*
X97721285Y-107447652D01*
X97524733Y-107441186D01*
X97334917Y-107439691D01*
X97077232Y-107436567D01*
X96802145Y-107429622D01*
X96523082Y-107419587D01*
X96253471Y-107407196D01*
X96006738Y-107393178D01*
X95796309Y-107378266D01*
X95635611Y-107363191D01*
X95538070Y-107348685D01*
X95515439Y-107340550D01*
X95500961Y-107310651D01*
X95529329Y-107288108D01*
X95607143Y-107272557D01*
X95741006Y-107263632D01*
X95937518Y-107260969D01*
X96203281Y-107264201D01*
X96544898Y-107272965D01*
X96668167Y-107276777D01*
X96972749Y-107287093D01*
X97255982Y-107297824D01*
X97504793Y-107308388D01*
X97706112Y-107318196D01*
X97846867Y-107326666D01*
X97908792Y-107332325D01*
X97994124Y-107337659D01*
X98055938Y-107312158D01*
X98118539Y-107239688D01*
X98172897Y-107157023D01*
X98238401Y-107046583D01*
X98276340Y-106968328D01*
X98280319Y-106944542D01*
X98235279Y-106937954D01*
X98116918Y-106927953D01*
X97936480Y-106915285D01*
X97705210Y-106900695D01*
X97434350Y-106884931D01*
X97148381Y-106869429D01*
X96830246Y-106852517D01*
X96522715Y-106835698D01*
X96241255Y-106819854D01*
X96001332Y-106805866D01*
X95818414Y-106794616D01*
X95725139Y-106788299D01*
X95565678Y-106778172D01*
X95469591Y-106780291D01*
X95415908Y-106799524D01*
X95383659Y-106840739D01*
X95369094Y-106870946D01*
X95299996Y-106954993D01*
X95199824Y-106976333D01*
X95121290Y-106987562D01*
X95066254Y-107032519D01*
X95022623Y-107128107D01*
X94980225Y-107283250D01*
X94969113Y-107366489D01*
X95005500Y-107396403D01*
X95062221Y-107399666D01*
X95141719Y-107416371D01*
X95153865Y-107454179D01*
X95106164Y-107494631D01*
X95013906Y-107518526D01*
X94952992Y-107532147D01*
X94901526Y-107568175D01*
X94848253Y-107641264D01*
X94781921Y-107766073D01*
X94713244Y-107910109D01*
X94536321Y-108288666D01*
X97033912Y-108288666D01*
X97033912Y-108457176D01*
X97023927Y-108448994D01*
X96782547Y-108553178D01*
X96654535Y-108616788D01*
X96564030Y-108677594D01*
X96533274Y-108716431D01*
X96523211Y-108792599D01*
X96507190Y-108914658D01*
X96500157Y-108968395D01*
X96474934Y-109161291D01*
X96230336Y-109211812D01*
X96044470Y-109247572D01*
X95921237Y-109258240D01*
X95840728Y-109237581D01*
X95783035Y-109179364D01*
X95728252Y-109077354D01*
X95715667Y-109050666D01*
X95616527Y-108839000D01*
X95052806Y-108839000D01*
X94953667Y-109050666D01*
X94897037Y-109162353D01*
X94841550Y-109228979D01*
X94767299Y-109256777D01*
X94654375Y-109251980D01*
X94482871Y-109220822D01*
X94438997Y-109211812D01*
X94194399Y-109161291D01*
X94169176Y-108968395D01*
X94152166Y-108838586D01*
X94139092Y-108739273D01*
X94136059Y-108716431D01*
X94095665Y-108669749D01*
X94013496Y-108617232D01*
X94013496Y-108119333D01*
X94066232Y-108083117D01*
X94146267Y-107983741D01*
X94245849Y-107835117D01*
X94357223Y-107651154D01*
X94472635Y-107445763D01*
X94584333Y-107232855D01*
X94684563Y-107026339D01*
X94765571Y-106840128D01*
X94819604Y-106688130D01*
X94827560Y-106658833D01*
X94862058Y-106537931D01*
X94893052Y-106449318D01*
X94911326Y-106397620D01*
X94894788Y-106390593D01*
X94827405Y-106428236D01*
X94793132Y-106449318D01*
X94578066Y-106586339D01*
X94379161Y-106721026D01*
X94208300Y-106844546D01*
X94077362Y-106948067D01*
X93998229Y-107022755D01*
X93980000Y-107053849D01*
X93958844Y-107197645D01*
X93903685Y-107333411D01*
X93826985Y-107446121D01*
X93741206Y-107520746D01*
X93658811Y-107542261D01*
X93602218Y-107509377D01*
X93582021Y-107455161D01*
X93625728Y-107395241D01*
X93656707Y-107369453D01*
X93746309Y-107250017D01*
X93774717Y-107124866D01*
X93778406Y-107017101D01*
X93750257Y-106962501D01*
X93670682Y-106930454D01*
X93646087Y-106923850D01*
X93462149Y-106913240D01*
X93379148Y-106937390D01*
X93279715Y-106967027D01*
X93218178Y-106948970D01*
X93205061Y-106937106D01*
X93183387Y-106887000D01*
X93227186Y-106827237D01*
X93252191Y-106805816D01*
X93324443Y-106760893D01*
X93414608Y-106741871D01*
X93550606Y-106744366D01*
X93612024Y-106749318D01*
X93874167Y-106772661D01*
X94244583Y-106512538D01*
X94395562Y-106405778D01*
X94516879Y-106318594D01*
X94594295Y-106261306D01*
X94615052Y-106243958D01*
X94574939Y-106241967D01*
X94463346Y-106241527D01*
X94293446Y-106242557D01*
X94078411Y-106244978D01*
X93921515Y-106247347D01*
X93921515Y-105830364D01*
X94004644Y-105789863D01*
X94057284Y-105697095D01*
X94064667Y-105635173D01*
X94034906Y-105550333D01*
X93955250Y-105511151D01*
X93951518Y-105511153D01*
X93951518Y-104732476D01*
X94032415Y-104708125D01*
X94036444Y-104704444D01*
X94064040Y-104627198D01*
X94052602Y-104524365D01*
X94007903Y-104442202D01*
X94003198Y-104438019D01*
X93912012Y-104404884D01*
X93823458Y-104433663D01*
X93758320Y-104503571D01*
X93737382Y-104593822D01*
X93770019Y-104671198D01*
X93848634Y-104718243D01*
X93951518Y-104732476D01*
X93951518Y-105511153D01*
X93834089Y-105511230D01*
X93757923Y-105569705D01*
X93742157Y-105669636D01*
X93759918Y-105725936D01*
X93831929Y-105811441D01*
X93921515Y-105830364D01*
X93921515Y-106247347D01*
X93831885Y-106248701D01*
X93048667Y-106261902D01*
X93048667Y-104013000D01*
X93810667Y-104013000D01*
X94053924Y-104011330D01*
X94264858Y-104006690D01*
X94430153Y-103999637D01*
X94536494Y-103990726D01*
X94570813Y-103981250D01*
X94537151Y-103945689D01*
X94447752Y-103874842D01*
X94317521Y-103780089D01*
X94208537Y-103704610D01*
X93848115Y-103459719D01*
X93628752Y-103499590D01*
X93487749Y-103516277D01*
X93377207Y-103513317D01*
X93341963Y-103503375D01*
X93240529Y-103425027D01*
X93203518Y-103341032D01*
X93215582Y-103297245D01*
X93253773Y-103265846D01*
X93318176Y-103282692D01*
X93374007Y-103313362D01*
X93461048Y-103357235D01*
X93534199Y-103362089D01*
X93634744Y-103328721D01*
X93658631Y-103318845D01*
X93765190Y-103262213D01*
X93798736Y-103207771D01*
X93794118Y-103184268D01*
X93772802Y-103086755D01*
X93768333Y-103021499D01*
X93728953Y-102924287D01*
X93660912Y-102876979D01*
X93587855Y-102831795D01*
X93582912Y-102777803D01*
X93599607Y-102741865D01*
X93645724Y-102655695D01*
X93766647Y-102741799D01*
X93868880Y-102853369D01*
X93938391Y-103026599D01*
X93942330Y-103041566D01*
X93979041Y-103160319D01*
X94029172Y-103247692D01*
X94112379Y-103328237D01*
X94248320Y-103426511D01*
X94253128Y-103429791D01*
X94418104Y-103542876D01*
X94589476Y-103661291D01*
X94709816Y-103745177D01*
X94824816Y-103821564D01*
X94913610Y-103872706D01*
X94948736Y-103886000D01*
X94954733Y-103849099D01*
X94935369Y-103749093D01*
X94895342Y-103602027D01*
X94839354Y-103423948D01*
X94772101Y-103230900D01*
X94706981Y-103060500D01*
X94522731Y-102666636D01*
X94282412Y-102258260D01*
X94249464Y-102208034D01*
X94169147Y-102091905D01*
X94104616Y-102029275D01*
X94034108Y-102017300D01*
X93935857Y-102053141D01*
X93788099Y-102133954D01*
X93768333Y-102145213D01*
X93399290Y-102384868D01*
X93064092Y-102660048D01*
X92780816Y-102954525D01*
X92607324Y-103187500D01*
X92488512Y-103373249D01*
X92404771Y-103510409D01*
X92344374Y-103620948D01*
X92295593Y-103726834D01*
X92246703Y-103850035D01*
X92229987Y-103894388D01*
X92086879Y-104390388D01*
X92021785Y-104896626D01*
X92033317Y-105402597D01*
X92120085Y-105897795D01*
X92280700Y-106371715D01*
X92513772Y-106813854D01*
X92640322Y-106997500D01*
X92806773Y-107201494D01*
X93001798Y-107410449D01*
X93202984Y-107602212D01*
X93387918Y-107754629D01*
X93450833Y-107798646D01*
X93690956Y-107952053D01*
X93865341Y-108055425D01*
X93975787Y-108109787D01*
X94013496Y-108119333D01*
X94013496Y-108617232D01*
X93998522Y-108607661D01*
X93886786Y-108553178D01*
X93645406Y-108448994D01*
X93454679Y-108605280D01*
X93328180Y-108695873D01*
X93237768Y-108733528D01*
X93209226Y-108729838D01*
X93145800Y-108690556D01*
X93037924Y-108621514D01*
X92939404Y-108557520D01*
X92724308Y-108416931D01*
X92787319Y-108159003D01*
X92850331Y-107901076D01*
X92504924Y-107555669D01*
X92246996Y-107618680D01*
X91989069Y-107681692D01*
X91848479Y-107466596D01*
X91767848Y-107342257D01*
X91703830Y-107241782D01*
X91676161Y-107196774D01*
X91683355Y-107130642D01*
X91747028Y-107021386D01*
X91801144Y-106950802D01*
X91957856Y-106759556D01*
X91849224Y-106518695D01*
X91781283Y-106381249D01*
X91723637Y-106305410D01*
X91659507Y-106272564D01*
X91622046Y-106266655D01*
X91443904Y-106248072D01*
X91331319Y-106224564D01*
X91265573Y-106183062D01*
X91227949Y-106110494D01*
X91199730Y-105993789D01*
X91194399Y-105968026D01*
X91159078Y-105783739D01*
X91149154Y-105661603D01*
X91171034Y-105581262D01*
G36*
X91199928Y-90742571D02*
G01*
X91236372Y-90612287D01*
X91285296Y-90466150D01*
X91354665Y-90270213D01*
X91430414Y-90050537D01*
X91479461Y-89904776D01*
X91535658Y-89752402D01*
X91592161Y-89627144D01*
X91636829Y-89555888D01*
X91637188Y-89555526D01*
X91673595Y-89533281D01*
X91739359Y-89516755D01*
X91845372Y-89505190D01*
X92002524Y-89497827D01*
X92221705Y-89493907D01*
X92513806Y-89492672D01*
X92539549Y-89492666D01*
X93379051Y-89492666D01*
X93421678Y-89376250D01*
X93521917Y-89104667D01*
X93632776Y-88808042D01*
X93750265Y-88496699D01*
X93870391Y-88180961D01*
X93989165Y-87871153D01*
X94102595Y-87577598D01*
X94206690Y-87310621D01*
X94297460Y-87080544D01*
X94370914Y-86897693D01*
X94423061Y-86772390D01*
X94449909Y-86714961D01*
X94451101Y-86713285D01*
X94480718Y-86696617D01*
X94544198Y-86683356D01*
X94649505Y-86673168D01*
X94804604Y-86665717D01*
X95017458Y-86660667D01*
X95296033Y-86657682D01*
X95648292Y-86656427D01*
X95802153Y-86656333D01*
X97105939Y-86656333D01*
X97131884Y-86538207D01*
X97220458Y-86319080D01*
X97372379Y-86146091D01*
X97574248Y-86029617D01*
X97812670Y-85980033D01*
X97853916Y-85979000D01*
X98080490Y-86012877D01*
X98258697Y-86105190D01*
X98384041Y-86241963D01*
X98452027Y-86409218D01*
X98458161Y-86592977D01*
X98397945Y-86779265D01*
X98266887Y-86954103D01*
X98189096Y-87021169D01*
X98028876Y-87143166D01*
X97227131Y-87128245D01*
X96957717Y-87125148D01*
X96734652Y-87126425D01*
X96567818Y-87131783D01*
X96467095Y-87140925D01*
X96440943Y-87151749D01*
X96472200Y-87192701D01*
X96552097Y-87287996D01*
X96672959Y-87428752D01*
X96827115Y-87606086D01*
X97006890Y-87811116D01*
X97176078Y-88002753D01*
X97895656Y-88815333D01*
X98799434Y-88815333D01*
X98847412Y-88669959D01*
X98933540Y-88515536D01*
X99075999Y-88365891D01*
X99248488Y-88244256D01*
X99403008Y-88179164D01*
X99638611Y-88151018D01*
X99845255Y-88202088D01*
X100020072Y-88327605D01*
X100131705Y-88491865D01*
X100162295Y-88678025D01*
X100111453Y-88882234D01*
X100082108Y-88942994D01*
X99955564Y-89103361D01*
X99776611Y-89232869D01*
X99574298Y-89314794D01*
X99402203Y-89334368D01*
X99289959Y-89329181D01*
X99114224Y-89321672D01*
X98896112Y-89312719D01*
X98656736Y-89303197D01*
X98569826Y-89299814D01*
X97931485Y-89275124D01*
X97782724Y-89606145D01*
X97633962Y-89937166D01*
X97931683Y-89987400D01*
X98356600Y-90092322D01*
X98718632Y-90253445D01*
X99018851Y-90471491D01*
X99258328Y-90747183D01*
X99386841Y-90967574D01*
X99440904Y-91085926D01*
X99475405Y-91191835D01*
X99494640Y-91310345D01*
X99502899Y-91466500D01*
X99504500Y-91653862D01*
X99503058Y-91857071D01*
X99494897Y-92002812D01*
X99474260Y-92118281D01*
X99435394Y-92230669D01*
X99372544Y-92367173D01*
X99339176Y-92435068D01*
X99115425Y-92797630D01*
X98830673Y-93115499D01*
X98495959Y-93384665D01*
X98122320Y-93601117D01*
X97720795Y-93760847D01*
X97302421Y-93859844D01*
X96878235Y-93894099D01*
X96839938Y-93890946D01*
X96839938Y-93426419D01*
X97232937Y-93393366D01*
X97636068Y-93285230D01*
X97899414Y-93174875D01*
X98246271Y-92974625D01*
X98537730Y-92737190D01*
X98769096Y-92470750D01*
X98935676Y-92183484D01*
X99032775Y-91883572D01*
X99055699Y-91579195D01*
X98999754Y-91278531D01*
X98995319Y-91265253D01*
X98867778Y-91010540D01*
X98671947Y-90800407D01*
X98438757Y-90647858D01*
X98109561Y-90508262D01*
X97775759Y-90438954D01*
X97419548Y-90437820D01*
X97091500Y-90487686D01*
X96696200Y-90607309D01*
X96331409Y-90789413D01*
X96009526Y-91024840D01*
X95984818Y-91050754D01*
X95984818Y-90410929D01*
X96025560Y-90399286D01*
X96118902Y-90356235D01*
X96227032Y-90300410D01*
X96390209Y-90223324D01*
X96589869Y-90143658D01*
X96766288Y-90083910D01*
X97076076Y-89990676D01*
X97238891Y-89646421D01*
X97311202Y-89493231D01*
X97367890Y-89372572D01*
X97400616Y-89302226D01*
X97405353Y-89291583D01*
X97367490Y-89287251D01*
X97262222Y-89283777D01*
X97106808Y-89281572D01*
X96962424Y-89281000D01*
X96515848Y-89281000D01*
X96243960Y-89839592D01*
X96149093Y-90036999D01*
X96070409Y-90205545D01*
X96014099Y-90331582D01*
X95986353Y-90401460D01*
X95984818Y-90410929D01*
X95984818Y-91050754D01*
X95742951Y-91304431D01*
X95544085Y-91619029D01*
X95535450Y-91636971D01*
X95458841Y-91813428D01*
X95458764Y-91813698D01*
X95458764Y-90337626D01*
X95483996Y-90300821D01*
X95538999Y-90199821D01*
X95617404Y-90046996D01*
X95712840Y-89854717D01*
X95800333Y-89674214D01*
X95909784Y-89449630D01*
X96012280Y-89245772D01*
X96100077Y-89077559D01*
X96165429Y-88959913D01*
X96194989Y-88913922D01*
X96233378Y-88871418D01*
X96280478Y-88843268D01*
X96353126Y-88826532D01*
X96468160Y-88818269D01*
X96642419Y-88815541D01*
X96759669Y-88815333D01*
X97247193Y-88815333D01*
X97131613Y-88677750D01*
X97066853Y-88602133D01*
X96957412Y-88475949D01*
X96814585Y-88312153D01*
X96649668Y-88123699D01*
X96485751Y-87936960D01*
X96320069Y-87749559D01*
X96174546Y-87586988D01*
X96057918Y-87458841D01*
X95978926Y-87374714D01*
X95946306Y-87344203D01*
X95946008Y-87344293D01*
X95919368Y-87395317D01*
X95868011Y-87512088D01*
X95796621Y-87682679D01*
X95709881Y-87895161D01*
X95612473Y-88137604D01*
X95509079Y-88398081D01*
X95404383Y-88664662D01*
X95303068Y-88925418D01*
X95209815Y-89168421D01*
X95129309Y-89381742D01*
X95066231Y-89553452D01*
X95025264Y-89671623D01*
X95011091Y-89724325D01*
X95011279Y-89725421D01*
X95046521Y-89788540D01*
X95114675Y-89891505D01*
X95201773Y-90015209D01*
X95293850Y-90140543D01*
X95376938Y-90248401D01*
X95437071Y-90319676D01*
X95458764Y-90337626D01*
X95458764Y-91813698D01*
X95417468Y-91959008D01*
X95401914Y-92114769D01*
X95400985Y-92223166D01*
X95438306Y-92526207D01*
X95545837Y-92786418D01*
X95726227Y-93007641D01*
X95982122Y-93193715D01*
X96119418Y-93265490D01*
X96465842Y-93383942D01*
X96839938Y-93426419D01*
X96839938Y-93890946D01*
X96459276Y-93859602D01*
X96056581Y-93752344D01*
X95896896Y-93685543D01*
X95600276Y-93507517D01*
X95342799Y-93275701D01*
X95136233Y-93005094D01*
X94992343Y-92710699D01*
X94927689Y-92449853D01*
X94900183Y-92242506D01*
X94771326Y-92244393D01*
X94771326Y-91780567D01*
X94986331Y-91345700D01*
X95072123Y-91169053D01*
X95142235Y-91018762D01*
X95188920Y-90911832D01*
X95204501Y-90866790D01*
X95181810Y-90817760D01*
X95117565Y-90715629D01*
X95021319Y-90574796D01*
X94902625Y-90409661D01*
X94888542Y-90390540D01*
X94569417Y-89958333D01*
X94223417Y-89958333D01*
X94223417Y-89492607D01*
X94551500Y-89492547D01*
X95024358Y-88339024D01*
X95144311Y-88045578D01*
X95253294Y-87777391D01*
X95347283Y-87544490D01*
X95422252Y-87356907D01*
X95474179Y-87224669D01*
X95499038Y-87157807D01*
X95500608Y-87152102D01*
X95463137Y-87138449D01*
X95360119Y-87130437D01*
X95210552Y-87129173D01*
X95138046Y-87130935D01*
X94772092Y-87143166D01*
X94333712Y-88306990D01*
X94222688Y-88602099D01*
X94122004Y-88870409D01*
X94035356Y-89102016D01*
X93966441Y-89287015D01*
X93918954Y-89415502D01*
X93896591Y-89477572D01*
X93895333Y-89481740D01*
X93934272Y-89486881D01*
X94037518Y-89490704D01*
X94184712Y-89492538D01*
X94223417Y-89492607D01*
X94223417Y-89958333D01*
X93406875Y-89958333D01*
X93103088Y-89959440D01*
X92828964Y-89962563D01*
X92595312Y-89967408D01*
X92412939Y-89973679D01*
X92292652Y-89981081D01*
X92245258Y-89989318D01*
X92244938Y-89990083D01*
X92266114Y-90033759D01*
X92325260Y-90139389D01*
X92416326Y-90296603D01*
X92533266Y-90495029D01*
X92670032Y-90724298D01*
X92769544Y-90889666D01*
X93293546Y-91757500D01*
X94032436Y-91769034D01*
X94771326Y-91780567D01*
X94771326Y-92244393D01*
X94115318Y-92254003D01*
X93330452Y-92265500D01*
X93123856Y-92792984D01*
X93043816Y-92992943D01*
X92971039Y-93166719D01*
X92912697Y-93297740D01*
X92875961Y-93369435D01*
X92871946Y-93375068D01*
X92787737Y-93420158D01*
X92672569Y-93425053D01*
X92569358Y-93390923D01*
X92540558Y-93366036D01*
X92506200Y-93308527D01*
X92494036Y-93235029D01*
X92506608Y-93132840D01*
X92546457Y-92989255D01*
X92616127Y-92791569D01*
X92698280Y-92577656D01*
X92907713Y-92043146D01*
X92377850Y-91161496D01*
X91847986Y-90279846D01*
X91739243Y-90600671D01*
X91680398Y-90761810D01*
X91623318Y-90897206D01*
X91578739Y-90981790D01*
X91572400Y-90990248D01*
X91476601Y-91049153D01*
X91365209Y-91045151D01*
X91263781Y-90989329D01*
X91197876Y-90892773D01*
X91186000Y-90822650D01*
X91199928Y-90742571D01*
G37*
X91199928Y-90742571D02*
X91236372Y-90612287D01*
X91285296Y-90466150D01*
X91354665Y-90270213D01*
X91430414Y-90050537D01*
X91479461Y-89904776D01*
X91535658Y-89752402D01*
X91592161Y-89627144D01*
X91636829Y-89555888D01*
X91637188Y-89555526D01*
X91673595Y-89533281D01*
X91739359Y-89516755D01*
X91845372Y-89505190D01*
X92002524Y-89497827D01*
X92221705Y-89493907D01*
X92513806Y-89492672D01*
X92539549Y-89492666D01*
X93379051Y-89492666D01*
X93421678Y-89376250D01*
X93521917Y-89104667D01*
X93632776Y-88808042D01*
X93750265Y-88496699D01*
X93870391Y-88180961D01*
X93989165Y-87871153D01*
X94102595Y-87577598D01*
X94206690Y-87310621D01*
X94297460Y-87080544D01*
X94370914Y-86897693D01*
X94423061Y-86772390D01*
X94449909Y-86714961D01*
X94451101Y-86713285D01*
X94480718Y-86696617D01*
X94544198Y-86683356D01*
X94649505Y-86673168D01*
X94804604Y-86665717D01*
X95017458Y-86660667D01*
X95296033Y-86657682D01*
X95648292Y-86656427D01*
X95802153Y-86656333D01*
X97105939Y-86656333D01*
X97131884Y-86538207D01*
X97220458Y-86319080D01*
X97372379Y-86146091D01*
X97574248Y-86029617D01*
X97812670Y-85980033D01*
X97853916Y-85979000D01*
X98080490Y-86012877D01*
X98258697Y-86105190D01*
X98384041Y-86241963D01*
X98452027Y-86409218D01*
X98458161Y-86592977D01*
X98397945Y-86779265D01*
X98266887Y-86954103D01*
X98189096Y-87021169D01*
X98028876Y-87143166D01*
X97227131Y-87128245D01*
X96957717Y-87125148D01*
X96734652Y-87126425D01*
X96567818Y-87131783D01*
X96467095Y-87140925D01*
X96440943Y-87151749D01*
X96472200Y-87192701D01*
X96552097Y-87287996D01*
X96672959Y-87428752D01*
X96827115Y-87606086D01*
X97006890Y-87811116D01*
X97176078Y-88002753D01*
X97895656Y-88815333D01*
X98799434Y-88815333D01*
X98847412Y-88669959D01*
X98933540Y-88515536D01*
X99075999Y-88365891D01*
X99248488Y-88244256D01*
X99403008Y-88179164D01*
X99638611Y-88151018D01*
X99845255Y-88202088D01*
X100020072Y-88327605D01*
X100131705Y-88491865D01*
X100162295Y-88678025D01*
X100111453Y-88882234D01*
X100082108Y-88942994D01*
X99955564Y-89103361D01*
X99776611Y-89232869D01*
X99574298Y-89314794D01*
X99402203Y-89334368D01*
X99289959Y-89329181D01*
X99114224Y-89321672D01*
X98896112Y-89312719D01*
X98656736Y-89303197D01*
X98569826Y-89299814D01*
X97931485Y-89275124D01*
X97782724Y-89606145D01*
X97633962Y-89937166D01*
X97931683Y-89987400D01*
X98356600Y-90092322D01*
X98718632Y-90253445D01*
X99018851Y-90471491D01*
X99258328Y-90747183D01*
X99386841Y-90967574D01*
X99440904Y-91085926D01*
X99475405Y-91191835D01*
X99494640Y-91310345D01*
X99502899Y-91466500D01*
X99504500Y-91653862D01*
X99503058Y-91857071D01*
X99494897Y-92002812D01*
X99474260Y-92118281D01*
X99435394Y-92230669D01*
X99372544Y-92367173D01*
X99339176Y-92435068D01*
X99115425Y-92797630D01*
X98830673Y-93115499D01*
X98495959Y-93384665D01*
X98122320Y-93601117D01*
X97720795Y-93760847D01*
X97302421Y-93859844D01*
X96878235Y-93894099D01*
X96839938Y-93890946D01*
X96839938Y-93426419D01*
X97232937Y-93393366D01*
X97636068Y-93285230D01*
X97899414Y-93174875D01*
X98246271Y-92974625D01*
X98537730Y-92737190D01*
X98769096Y-92470750D01*
X98935676Y-92183484D01*
X99032775Y-91883572D01*
X99055699Y-91579195D01*
X98999754Y-91278531D01*
X98995319Y-91265253D01*
X98867778Y-91010540D01*
X98671947Y-90800407D01*
X98438757Y-90647858D01*
X98109561Y-90508262D01*
X97775759Y-90438954D01*
X97419548Y-90437820D01*
X97091500Y-90487686D01*
X96696200Y-90607309D01*
X96331409Y-90789413D01*
X96009526Y-91024840D01*
X95984818Y-91050754D01*
X95984818Y-90410929D01*
X96025560Y-90399286D01*
X96118902Y-90356235D01*
X96227032Y-90300410D01*
X96390209Y-90223324D01*
X96589869Y-90143658D01*
X96766288Y-90083910D01*
X97076076Y-89990676D01*
X97238891Y-89646421D01*
X97311202Y-89493231D01*
X97367890Y-89372572D01*
X97400616Y-89302226D01*
X97405353Y-89291583D01*
X97367490Y-89287251D01*
X97262222Y-89283777D01*
X97106808Y-89281572D01*
X96962424Y-89281000D01*
X96515848Y-89281000D01*
X96243960Y-89839592D01*
X96149093Y-90036999D01*
X96070409Y-90205545D01*
X96014099Y-90331582D01*
X95986353Y-90401460D01*
X95984818Y-90410929D01*
X95984818Y-91050754D01*
X95742951Y-91304431D01*
X95544085Y-91619029D01*
X95535450Y-91636971D01*
X95458841Y-91813428D01*
X95458764Y-91813698D01*
X95458764Y-90337626D01*
X95483996Y-90300821D01*
X95538999Y-90199821D01*
X95617404Y-90046996D01*
X95712840Y-89854717D01*
X95800333Y-89674214D01*
X95909784Y-89449630D01*
X96012280Y-89245772D01*
X96100077Y-89077559D01*
X96165429Y-88959913D01*
X96194989Y-88913922D01*
X96233378Y-88871418D01*
X96280478Y-88843268D01*
X96353126Y-88826532D01*
X96468160Y-88818269D01*
X96642419Y-88815541D01*
X96759669Y-88815333D01*
X97247193Y-88815333D01*
X97131613Y-88677750D01*
X97066853Y-88602133D01*
X96957412Y-88475949D01*
X96814585Y-88312153D01*
X96649668Y-88123699D01*
X96485751Y-87936960D01*
X96320069Y-87749559D01*
X96174546Y-87586988D01*
X96057918Y-87458841D01*
X95978926Y-87374714D01*
X95946306Y-87344203D01*
X95946008Y-87344293D01*
X95919368Y-87395317D01*
X95868011Y-87512088D01*
X95796621Y-87682679D01*
X95709881Y-87895161D01*
X95612473Y-88137604D01*
X95509079Y-88398081D01*
X95404383Y-88664662D01*
X95303068Y-88925418D01*
X95209815Y-89168421D01*
X95129309Y-89381742D01*
X95066231Y-89553452D01*
X95025264Y-89671623D01*
X95011091Y-89724325D01*
X95011279Y-89725421D01*
X95046521Y-89788540D01*
X95114675Y-89891505D01*
X95201773Y-90015209D01*
X95293850Y-90140543D01*
X95376938Y-90248401D01*
X95437071Y-90319676D01*
X95458764Y-90337626D01*
X95458764Y-91813698D01*
X95417468Y-91959008D01*
X95401914Y-92114769D01*
X95400985Y-92223166D01*
X95438306Y-92526207D01*
X95545837Y-92786418D01*
X95726227Y-93007641D01*
X95982122Y-93193715D01*
X96119418Y-93265490D01*
X96465842Y-93383942D01*
X96839938Y-93426419D01*
X96839938Y-93890946D01*
X96459276Y-93859602D01*
X96056581Y-93752344D01*
X95896896Y-93685543D01*
X95600276Y-93507517D01*
X95342799Y-93275701D01*
X95136233Y-93005094D01*
X94992343Y-92710699D01*
X94927689Y-92449853D01*
X94900183Y-92242506D01*
X94771326Y-92244393D01*
X94771326Y-91780567D01*
X94986331Y-91345700D01*
X95072123Y-91169053D01*
X95142235Y-91018762D01*
X95188920Y-90911832D01*
X95204501Y-90866790D01*
X95181810Y-90817760D01*
X95117565Y-90715629D01*
X95021319Y-90574796D01*
X94902625Y-90409661D01*
X94888542Y-90390540D01*
X94569417Y-89958333D01*
X94223417Y-89958333D01*
X94223417Y-89492607D01*
X94551500Y-89492547D01*
X95024358Y-88339024D01*
X95144311Y-88045578D01*
X95253294Y-87777391D01*
X95347283Y-87544490D01*
X95422252Y-87356907D01*
X95474179Y-87224669D01*
X95499038Y-87157807D01*
X95500608Y-87152102D01*
X95463137Y-87138449D01*
X95360119Y-87130437D01*
X95210552Y-87129173D01*
X95138046Y-87130935D01*
X94772092Y-87143166D01*
X94333712Y-88306990D01*
X94222688Y-88602099D01*
X94122004Y-88870409D01*
X94035356Y-89102016D01*
X93966441Y-89287015D01*
X93918954Y-89415502D01*
X93896591Y-89477572D01*
X93895333Y-89481740D01*
X93934272Y-89486881D01*
X94037518Y-89490704D01*
X94184712Y-89492538D01*
X94223417Y-89492607D01*
X94223417Y-89958333D01*
X93406875Y-89958333D01*
X93103088Y-89959440D01*
X92828964Y-89962563D01*
X92595312Y-89967408D01*
X92412939Y-89973679D01*
X92292652Y-89981081D01*
X92245258Y-89989318D01*
X92244938Y-89990083D01*
X92266114Y-90033759D01*
X92325260Y-90139389D01*
X92416326Y-90296603D01*
X92533266Y-90495029D01*
X92670032Y-90724298D01*
X92769544Y-90889666D01*
X93293546Y-91757500D01*
X94032436Y-91769034D01*
X94771326Y-91780567D01*
X94771326Y-92244393D01*
X94115318Y-92254003D01*
X93330452Y-92265500D01*
X93123856Y-92792984D01*
X93043816Y-92992943D01*
X92971039Y-93166719D01*
X92912697Y-93297740D01*
X92875961Y-93369435D01*
X92871946Y-93375068D01*
X92787737Y-93420158D01*
X92672569Y-93425053D01*
X92569358Y-93390923D01*
X92540558Y-93366036D01*
X92506200Y-93308527D01*
X92494036Y-93235029D01*
X92506608Y-93132840D01*
X92546457Y-92989255D01*
X92616127Y-92791569D01*
X92698280Y-92577656D01*
X92907713Y-92043146D01*
X92377850Y-91161496D01*
X91847986Y-90279846D01*
X91739243Y-90600671D01*
X91680398Y-90761810D01*
X91623318Y-90897206D01*
X91578739Y-90981790D01*
X91572400Y-90990248D01*
X91476601Y-91049153D01*
X91365209Y-91045151D01*
X91263781Y-90989329D01*
X91197876Y-90892773D01*
X91186000Y-90822650D01*
X91199928Y-90742571D01*
D12*
X150324000Y-98254000D02*
X151384000Y-98254000D01*
X150324000Y-99314000D02*
X150324000Y-98254000D01*
X152384000Y-98254000D02*
X154444000Y-98254000D01*
X152384000Y-100314000D02*
X152384000Y-98254000D01*
X150324000Y-100314000D02*
X152384000Y-100314000D01*
X154444000Y-98254000D02*
X154444000Y-106374000D01*
X150324000Y-100314000D02*
X150324000Y-106374000D01*
X150324000Y-106374000D02*
X154444000Y-106374000D01*
X150324000Y-109684000D02*
X151384000Y-109684000D01*
X150324000Y-110744000D02*
X150324000Y-109684000D01*
X152384000Y-109684000D02*
X154444000Y-109684000D01*
X152384000Y-111744000D02*
X152384000Y-109684000D01*
X150324000Y-111744000D02*
X152384000Y-111744000D01*
X154444000Y-109684000D02*
X154444000Y-117804000D01*
X150324000Y-111744000D02*
X150324000Y-117804000D01*
X150324000Y-117804000D02*
X154444000Y-117804000D01*
X145228000Y-98238000D02*
X146558000Y-98238000D01*
X145228000Y-99568000D02*
X145228000Y-98238000D01*
X145228000Y-100838000D02*
X147888000Y-100838000D01*
X147888000Y-100838000D02*
X147888000Y-105978000D01*
X145228000Y-100838000D02*
X145228000Y-105978000D01*
X145228000Y-105978000D02*
X147888000Y-105978000D01*
X145228000Y-109922000D02*
X146558000Y-109922000D01*
X145228000Y-111252000D02*
X145228000Y-109922000D01*
X145228000Y-112522000D02*
X147888000Y-112522000D01*
X147888000Y-112522000D02*
X147888000Y-117662000D01*
X145228000Y-112522000D02*
X145228000Y-117662000D01*
X145228000Y-117662000D02*
X147888000Y-117662000D01*
X129727000Y-106095000D02*
X129032000Y-106095000D01*
X129727000Y-105410000D02*
X129727000Y-106095000D01*
X128423724Y-104725000D02*
X128337000Y-104725000D01*
X129727000Y-104725000D02*
X129640276Y-104725000D01*
X128337000Y-104725000D02*
X128337000Y-104850000D01*
X129727000Y-104725000D02*
X129727000Y-104850000D01*
X129727000Y-104725000D02*
X128337000Y-104725000D01*
X123885000Y-113969000D02*
X123190000Y-113969000D01*
X123885000Y-113284000D02*
X123885000Y-113969000D01*
X122581724Y-112599000D02*
X122495000Y-112599000D01*
X123885000Y-112599000D02*
X123798276Y-112599000D01*
X122495000Y-112599000D02*
X122495000Y-112724000D01*
X123885000Y-112599000D02*
X123885000Y-112724000D01*
X123885000Y-112599000D02*
X122495000Y-112599000D01*
X102256000Y-108930064D02*
X102256000Y-107725936D01*
X100436000Y-108930064D02*
X100436000Y-107725936D01*
X155000000Y-125222000D02*
X155000000Y-126552000D01*
X155000000Y-126552000D02*
X153670000Y-126552000D01*
X152400000Y-126552000D02*
X139640000Y-126552000D01*
X139640000Y-123892000D02*
X139640000Y-126552000D01*
X152400000Y-123892000D02*
X139640000Y-123892000D01*
X152400000Y-123892000D02*
X152400000Y-126552000D01*
X116780000Y-125222000D02*
X116780000Y-123892000D01*
X116780000Y-123892000D02*
X118110000Y-123892000D01*
X119380000Y-123892000D02*
X137220000Y-123892000D01*
X137220000Y-126552000D02*
X137220000Y-123892000D01*
X119380000Y-126552000D02*
X137220000Y-126552000D01*
X119380000Y-126552000D02*
X119380000Y-123892000D01*
X133156000Y-82550000D02*
X133156000Y-83880000D01*
X133156000Y-83880000D02*
X131826000Y-83880000D01*
X130556000Y-83880000D02*
X107636000Y-83880000D01*
X107636000Y-81220000D02*
X107636000Y-83880000D01*
X130556000Y-81220000D02*
X107636000Y-81220000D01*
X130556000Y-81220000D02*
X130556000Y-83880000D01*
X155000000Y-82550000D02*
X155000000Y-83880000D01*
X155000000Y-83880000D02*
X153670000Y-83880000D01*
X152400000Y-83880000D02*
X134560000Y-83880000D01*
X134560000Y-81220000D02*
X134560000Y-83880000D01*
X152400000Y-81220000D02*
X134560000Y-81220000D01*
X152400000Y-81220000D02*
X152400000Y-83880000D01*
D13*
X138493500Y-104241600D02*
X138493500Y-103987600D01*
X138874500Y-104241600D02*
X138493500Y-104241600D01*
X138874500Y-103987600D02*
X138874500Y-104241600D01*
X138493500Y-103987600D02*
X138874500Y-103987600D01*
X132918200Y-105829100D02*
X132918200Y-110070900D01*
X141909800Y-110070900D02*
X141909800Y-105829100D01*
X119443500Y-111659599D02*
X119443500Y-111913599D01*
X119062500Y-111659599D02*
X119443500Y-111659599D01*
X119062500Y-111913599D02*
X119062500Y-111659599D01*
X119443500Y-111913599D02*
X119062500Y-111913599D01*
X127505000Y-110527000D02*
X127505000Y-105373000D01*
X117351000Y-105373000D02*
X117351000Y-110527000D01*
X112826800Y-108153200D02*
G75*
G03X112826800Y-108762800I0J-304800D01*
G01*
X107378500Y-112166400D02*
X107378500Y-112420400D01*
X106997500Y-112166400D02*
X107378500Y-112166400D01*
X106997500Y-112420400D02*
X106997500Y-112166400D01*
X107378500Y-112420400D02*
X106997500Y-112420400D01*
X112826800Y-109750503D02*
X112826800Y-107165497D01*
X104089200Y-107165497D02*
X104089200Y-109750503D01*
D10*
X156059142Y-105742952D02*
X156106761Y-105790571D01*
X156154380Y-105933428D01*
X156154380Y-106028666D01*
X156106761Y-106171523D01*
X156011523Y-106266761D01*
X155916285Y-106314380D01*
X155725809Y-106362000D01*
X155582952Y-106362000D01*
X155392476Y-106314380D01*
X155297238Y-106266761D01*
X155202000Y-106171523D01*
X155154380Y-106028666D01*
X155154380Y-105933428D01*
X155202000Y-105790571D01*
X155249619Y-105742952D01*
X156154380Y-105171523D02*
X156106761Y-105266761D01*
X156059142Y-105314380D01*
X155963904Y-105362000D01*
X155678190Y-105362000D01*
X155582952Y-105314380D01*
X155535333Y-105266761D01*
X155487714Y-105171523D01*
X155487714Y-105028666D01*
X155535333Y-104933428D01*
X155582952Y-104885809D01*
X155678190Y-104838190D01*
X155963904Y-104838190D01*
X156059142Y-104885809D01*
X156106761Y-104933428D01*
X156154380Y-105028666D01*
X156154380Y-105171523D01*
X155487714Y-104409619D02*
X156154380Y-104409619D01*
X155582952Y-104409619D02*
X155535333Y-104362000D01*
X155487714Y-104266761D01*
X155487714Y-104123904D01*
X155535333Y-104028666D01*
X155630571Y-103981047D01*
X156154380Y-103981047D01*
X155487714Y-103647714D02*
X155487714Y-103266761D01*
X155154380Y-103504857D02*
X156011523Y-103504857D01*
X156106761Y-103457238D01*
X156154380Y-103362000D01*
X156154380Y-103266761D01*
X156154380Y-102933428D02*
X155487714Y-102933428D01*
X155678190Y-102933428D02*
X155582952Y-102885809D01*
X155535333Y-102838190D01*
X155487714Y-102742952D01*
X155487714Y-102647714D01*
X156154380Y-102171523D02*
X156106761Y-102266761D01*
X156059142Y-102314380D01*
X155963904Y-102362000D01*
X155678190Y-102362000D01*
X155582952Y-102314380D01*
X155535333Y-102266761D01*
X155487714Y-102171523D01*
X155487714Y-102028666D01*
X155535333Y-101933428D01*
X155582952Y-101885809D01*
X155678190Y-101838190D01*
X155963904Y-101838190D01*
X156059142Y-101885809D01*
X156106761Y-101933428D01*
X156154380Y-102028666D01*
X156154380Y-102171523D01*
X156154380Y-101266761D02*
X156106761Y-101362000D01*
X156011523Y-101409619D01*
X155154380Y-101409619D01*
X156154380Y-100742952D02*
X156106761Y-100838190D01*
X156011523Y-100885809D01*
X155154380Y-100885809D01*
X156106761Y-99981047D02*
X156154380Y-100076285D01*
X156154380Y-100266761D01*
X156106761Y-100362000D01*
X156011523Y-100409619D01*
X155630571Y-100409619D01*
X155535333Y-100362000D01*
X155487714Y-100266761D01*
X155487714Y-100076285D01*
X155535333Y-99981047D01*
X155630571Y-99933428D01*
X155725809Y-99933428D01*
X155821047Y-100409619D01*
X156154380Y-99504857D02*
X155487714Y-99504857D01*
X155678190Y-99504857D02*
X155582952Y-99457238D01*
X155535333Y-99409619D01*
X155487714Y-99314380D01*
X155487714Y-99219142D01*
X156154380Y-98362000D02*
X156154380Y-98933428D01*
X156154380Y-98647714D02*
X155154380Y-98647714D01*
X155297238Y-98742952D01*
X155392476Y-98838190D01*
X155440095Y-98933428D01*
X155154380Y-116974571D02*
X155868666Y-116974571D01*
X156011523Y-117022190D01*
X156106761Y-117117428D01*
X156154380Y-117260285D01*
X156154380Y-117355523D01*
X156154380Y-116355523D02*
X156106761Y-116450761D01*
X156059142Y-116498380D01*
X155963904Y-116546000D01*
X155678190Y-116546000D01*
X155582952Y-116498380D01*
X155535333Y-116450761D01*
X155487714Y-116355523D01*
X155487714Y-116212666D01*
X155535333Y-116117428D01*
X155582952Y-116069809D01*
X155678190Y-116022190D01*
X155963904Y-116022190D01*
X156059142Y-116069809D01*
X156106761Y-116117428D01*
X156154380Y-116212666D01*
X156154380Y-116355523D01*
X155487714Y-115688857D02*
X156154380Y-115450761D01*
X155487714Y-115212666D02*
X156154380Y-115450761D01*
X156392476Y-115546000D01*
X156440095Y-115593619D01*
X156487714Y-115688857D01*
X156106761Y-114879333D02*
X156154380Y-114784095D01*
X156154380Y-114593619D01*
X156106761Y-114498380D01*
X156011523Y-114450761D01*
X155963904Y-114450761D01*
X155868666Y-114498380D01*
X155821047Y-114593619D01*
X155821047Y-114736476D01*
X155773428Y-114831714D01*
X155678190Y-114879333D01*
X155630571Y-114879333D01*
X155535333Y-114831714D01*
X155487714Y-114736476D01*
X155487714Y-114593619D01*
X155535333Y-114498380D01*
X155487714Y-114165047D02*
X155487714Y-113784095D01*
X155154380Y-114022190D02*
X156011523Y-114022190D01*
X156106761Y-113974571D01*
X156154380Y-113879333D01*
X156154380Y-113784095D01*
X156154380Y-113450761D02*
X155487714Y-113450761D01*
X155154380Y-113450761D02*
X155202000Y-113498380D01*
X155249619Y-113450761D01*
X155202000Y-113403142D01*
X155154380Y-113450761D01*
X155249619Y-113450761D01*
X156106761Y-112546000D02*
X156154380Y-112641238D01*
X156154380Y-112831714D01*
X156106761Y-112926952D01*
X156059142Y-112974571D01*
X155963904Y-113022190D01*
X155678190Y-113022190D01*
X155582952Y-112974571D01*
X155535333Y-112926952D01*
X155487714Y-112831714D01*
X155487714Y-112641238D01*
X155535333Y-112546000D01*
X156154380Y-112117428D02*
X155154380Y-112117428D01*
X155773428Y-112022190D02*
X156154380Y-111736476D01*
X155487714Y-111736476D02*
X155868666Y-112117428D01*
X156154380Y-110784095D02*
X156154380Y-111355523D01*
X156154380Y-111069809D02*
X155154380Y-111069809D01*
X155297238Y-111165047D01*
X155392476Y-111260285D01*
X155440095Y-111355523D01*
X146224666Y-96690380D02*
X146224666Y-97404666D01*
X146177047Y-97547523D01*
X146081809Y-97642761D01*
X145938952Y-97690380D01*
X145843714Y-97690380D01*
X146843714Y-97118952D02*
X146748476Y-97071333D01*
X146700857Y-97023714D01*
X146653238Y-96928476D01*
X146653238Y-96880857D01*
X146700857Y-96785619D01*
X146748476Y-96738000D01*
X146843714Y-96690380D01*
X147034190Y-96690380D01*
X147129428Y-96738000D01*
X147177047Y-96785619D01*
X147224666Y-96880857D01*
X147224666Y-96928476D01*
X147177047Y-97023714D01*
X147129428Y-97071333D01*
X147034190Y-97118952D01*
X146843714Y-97118952D01*
X146748476Y-97166571D01*
X146700857Y-97214190D01*
X146653238Y-97309428D01*
X146653238Y-97499904D01*
X146700857Y-97595142D01*
X146748476Y-97642761D01*
X146843714Y-97690380D01*
X147034190Y-97690380D01*
X147129428Y-97642761D01*
X147177047Y-97595142D01*
X147224666Y-97499904D01*
X147224666Y-97309428D01*
X147177047Y-97214190D01*
X147129428Y-97166571D01*
X147034190Y-97118952D01*
X146224666Y-108374380D02*
X146224666Y-109088666D01*
X146177047Y-109231523D01*
X146081809Y-109326761D01*
X145938952Y-109374380D01*
X145843714Y-109374380D01*
X146605619Y-108374380D02*
X147272285Y-108374380D01*
X146843714Y-109374380D01*
X130476666Y-104862380D02*
X130476666Y-105576666D01*
X130429047Y-105719523D01*
X130333809Y-105814761D01*
X130190952Y-105862380D01*
X130095714Y-105862380D01*
X131381428Y-104862380D02*
X131190952Y-104862380D01*
X131095714Y-104910000D01*
X131048095Y-104957619D01*
X130952857Y-105100476D01*
X130905238Y-105290952D01*
X130905238Y-105671904D01*
X130952857Y-105767142D01*
X131000476Y-105814761D01*
X131095714Y-105862380D01*
X131286190Y-105862380D01*
X131381428Y-105814761D01*
X131429047Y-105767142D01*
X131476666Y-105671904D01*
X131476666Y-105433809D01*
X131429047Y-105338571D01*
X131381428Y-105290952D01*
X131286190Y-105243333D01*
X131095714Y-105243333D01*
X131000476Y-105290952D01*
X130952857Y-105338571D01*
X130905238Y-105433809D01*
X125142666Y-112736380D02*
X125142666Y-113450666D01*
X125095047Y-113593523D01*
X124999809Y-113688761D01*
X124856952Y-113736380D01*
X124761714Y-113736380D01*
X126095047Y-112736380D02*
X125618857Y-112736380D01*
X125571238Y-113212571D01*
X125618857Y-113164952D01*
X125714095Y-113117333D01*
X125952190Y-113117333D01*
X126047428Y-113164952D01*
X126095047Y-113212571D01*
X126142666Y-113307809D01*
X126142666Y-113545904D01*
X126095047Y-113641142D01*
X126047428Y-113688761D01*
X125952190Y-113736380D01*
X125714095Y-113736380D01*
X125618857Y-113688761D01*
X125571238Y-113641142D01*
X101798380Y-111672666D02*
X101322190Y-112006000D01*
X101798380Y-112244095D02*
X100798380Y-112244095D01*
X100798380Y-111863142D01*
X100846000Y-111767904D01*
X100893619Y-111720285D01*
X100988857Y-111672666D01*
X101131714Y-111672666D01*
X101226952Y-111720285D01*
X101274571Y-111767904D01*
X101322190Y-111863142D01*
X101322190Y-112244095D01*
X101798380Y-110720285D02*
X101798380Y-111291714D01*
X101798380Y-111006000D02*
X100798380Y-111006000D01*
X100941238Y-111101238D01*
X101036476Y-111196476D01*
X101084095Y-111291714D01*
X155408380Y-126317333D02*
X156122666Y-126317333D01*
X156265523Y-126364952D01*
X156360761Y-126460190D01*
X156408380Y-126603047D01*
X156408380Y-126698285D01*
X155741714Y-125412571D02*
X156408380Y-125412571D01*
X155360761Y-125650666D02*
X156075047Y-125888761D01*
X156075047Y-125269714D01*
X114792380Y-125555333D02*
X115506666Y-125555333D01*
X115649523Y-125602952D01*
X115744761Y-125698190D01*
X115792380Y-125841047D01*
X115792380Y-125936285D01*
X114792380Y-125174380D02*
X114792380Y-124555333D01*
X115173333Y-124888666D01*
X115173333Y-124745809D01*
X115220952Y-124650571D01*
X115268571Y-124602952D01*
X115363809Y-124555333D01*
X115601904Y-124555333D01*
X115697142Y-124602952D01*
X115744761Y-124650571D01*
X115792380Y-124745809D01*
X115792380Y-125031523D01*
X115744761Y-125126761D01*
X115697142Y-125174380D01*
X106386380Y-82883333D02*
X107100666Y-82883333D01*
X107243523Y-82930952D01*
X107338761Y-83026190D01*
X107386380Y-83169047D01*
X107386380Y-83264285D01*
X106481619Y-82454761D02*
X106434000Y-82407142D01*
X106386380Y-82311904D01*
X106386380Y-82073809D01*
X106434000Y-81978571D01*
X106481619Y-81930952D01*
X106576857Y-81883333D01*
X106672095Y-81883333D01*
X106814952Y-81930952D01*
X107386380Y-82502380D01*
X107386380Y-81883333D01*
X133310380Y-82883333D02*
X134024666Y-82883333D01*
X134167523Y-82930952D01*
X134262761Y-83026190D01*
X134310380Y-83169047D01*
X134310380Y-83264285D01*
X134310380Y-81883333D02*
X134310380Y-82454761D01*
X134310380Y-82169047D02*
X133310380Y-82169047D01*
X133453238Y-82264285D01*
X133548476Y-82359523D01*
X133596095Y-82454761D01*
X136080666Y-113736380D02*
X136080666Y-112736380D01*
X136414000Y-113450666D01*
X136747333Y-112736380D01*
X136747333Y-113736380D01*
X137223523Y-112736380D02*
X137223523Y-113545904D01*
X137271142Y-113641142D01*
X137318761Y-113688761D01*
X137414000Y-113736380D01*
X137604476Y-113736380D01*
X137699714Y-113688761D01*
X137747333Y-113641142D01*
X137794952Y-113545904D01*
X137794952Y-112736380D01*
X138175904Y-112736380D02*
X138842571Y-113736380D01*
X138842571Y-112736380D02*
X138175904Y-113736380D01*
X132175904Y-103576380D02*
X132175904Y-102576380D01*
X132509238Y-103290666D01*
X132842571Y-102576380D01*
X132842571Y-103576380D01*
X133271142Y-103290666D02*
X133747333Y-103290666D01*
X133175904Y-103576380D02*
X133509238Y-102576380D01*
X133842571Y-103576380D01*
X134080666Y-102576380D02*
X134747333Y-103576380D01*
X134747333Y-102576380D02*
X134080666Y-103576380D01*
X135556857Y-102909714D02*
X135556857Y-103576380D01*
X135318761Y-102528761D02*
X135080666Y-103243047D01*
X135699714Y-103243047D01*
X136556857Y-102576380D02*
X136080666Y-102576380D01*
X136033047Y-103052571D01*
X136080666Y-103004952D01*
X136175904Y-102957333D01*
X136414000Y-102957333D01*
X136509238Y-103004952D01*
X136556857Y-103052571D01*
X136604476Y-103147809D01*
X136604476Y-103385904D01*
X136556857Y-103481142D01*
X136509238Y-103528761D01*
X136414000Y-103576380D01*
X136175904Y-103576380D01*
X136080666Y-103528761D01*
X136033047Y-103481142D01*
X137556857Y-103576380D02*
X136985428Y-103576380D01*
X137271142Y-103576380D02*
X137271142Y-102576380D01*
X137175904Y-102719238D01*
X137080666Y-102814476D01*
X136985428Y-102862095D01*
X138033047Y-103576380D02*
X138223523Y-103576380D01*
X138318761Y-103528761D01*
X138366380Y-103481142D01*
X138461619Y-103338285D01*
X138509238Y-103147809D01*
X138509238Y-102766857D01*
X138461619Y-102671619D01*
X138414000Y-102624000D01*
X138318761Y-102576380D01*
X138128285Y-102576380D01*
X138033047Y-102624000D01*
X137985428Y-102671619D01*
X137937809Y-102766857D01*
X137937809Y-103004952D01*
X137985428Y-103100190D01*
X138033047Y-103147809D01*
X138128285Y-103195428D01*
X138318761Y-103195428D01*
X138414000Y-103147809D01*
X138461619Y-103100190D01*
X138509238Y-103004952D01*
X139509238Y-103481142D02*
X139461619Y-103528761D01*
X139318761Y-103576380D01*
X139223523Y-103576380D01*
X139080666Y-103528761D01*
X138985428Y-103433523D01*
X138937809Y-103338285D01*
X138890190Y-103147809D01*
X138890190Y-103004952D01*
X138937809Y-102814476D01*
X138985428Y-102719238D01*
X139080666Y-102624000D01*
X139223523Y-102576380D01*
X139318761Y-102576380D01*
X139461619Y-102624000D01*
X139509238Y-102671619D01*
X139890190Y-103528761D02*
X140033047Y-103576380D01*
X140271142Y-103576380D01*
X140366380Y-103528761D01*
X140414000Y-103481142D01*
X140461619Y-103385904D01*
X140461619Y-103290666D01*
X140414000Y-103195428D01*
X140366380Y-103147809D01*
X140271142Y-103100190D01*
X140080666Y-103052571D01*
X139985428Y-103004952D01*
X139937809Y-102957333D01*
X139890190Y-102862095D01*
X139890190Y-102766857D01*
X139937809Y-102671619D01*
X139985428Y-102624000D01*
X140080666Y-102576380D01*
X140318761Y-102576380D01*
X140461619Y-102624000D01*
X140890190Y-103576380D02*
X140890190Y-102576380D01*
X141128285Y-102576380D01*
X141271142Y-102624000D01*
X141366380Y-102719238D01*
X141414000Y-102814476D01*
X141461619Y-103004952D01*
X141461619Y-103147809D01*
X141414000Y-103338285D01*
X141366380Y-103433523D01*
X141271142Y-103528761D01*
X141128285Y-103576380D01*
X140890190Y-103576380D01*
X141890190Y-103195428D02*
X142652095Y-103195428D01*
X142271142Y-103576380D02*
X142271142Y-102814476D01*
X131379980Y-110667800D02*
X131618076Y-110667800D01*
X131522838Y-110905895D02*
X131618076Y-110667800D01*
X131522838Y-110429704D01*
X131808552Y-110810657D02*
X131618076Y-110667800D01*
X131808552Y-110524942D01*
X131379980Y-110667800D02*
X131618076Y-110667800D01*
X131522838Y-110905895D02*
X131618076Y-110667800D01*
X131522838Y-110429704D01*
X131808552Y-110810657D02*
X131618076Y-110667800D01*
X131808552Y-110524942D01*
X116276761Y-113736380D02*
X116276761Y-112736380D01*
X116514857Y-112736380D01*
X116657714Y-112784000D01*
X116752952Y-112879238D01*
X116800571Y-112974476D01*
X116848190Y-113164952D01*
X116848190Y-113307809D01*
X116800571Y-113498285D01*
X116752952Y-113593523D01*
X116657714Y-113688761D01*
X116514857Y-113736380D01*
X116276761Y-113736380D01*
X117276761Y-113736380D02*
X117276761Y-113069714D01*
X117276761Y-112736380D02*
X117229142Y-112784000D01*
X117276761Y-112831619D01*
X117324380Y-112784000D01*
X117276761Y-112736380D01*
X117276761Y-112831619D01*
X118181523Y-113069714D02*
X118181523Y-113879238D01*
X118133904Y-113974476D01*
X118086285Y-114022095D01*
X117991047Y-114069714D01*
X117848190Y-114069714D01*
X117752952Y-114022095D01*
X118181523Y-113688761D02*
X118086285Y-113736380D01*
X117895809Y-113736380D01*
X117800571Y-113688761D01*
X117752952Y-113641142D01*
X117705333Y-113545904D01*
X117705333Y-113260190D01*
X117752952Y-113164952D01*
X117800571Y-113117333D01*
X117895809Y-113069714D01*
X118086285Y-113069714D01*
X118181523Y-113117333D01*
X118657714Y-113736380D02*
X118657714Y-113069714D01*
X118657714Y-112736380D02*
X118610095Y-112784000D01*
X118657714Y-112831619D01*
X118705333Y-112784000D01*
X118657714Y-112736380D01*
X118657714Y-112831619D01*
X119133904Y-113736380D02*
X119133904Y-112736380D01*
X119514857Y-112736380D01*
X119610095Y-112784000D01*
X119657714Y-112831619D01*
X119705333Y-112926857D01*
X119705333Y-113069714D01*
X119657714Y-113164952D01*
X119610095Y-113212571D01*
X119514857Y-113260190D01*
X119133904Y-113260190D01*
X120324380Y-112736380D02*
X120514857Y-112736380D01*
X120610095Y-112784000D01*
X120705333Y-112879238D01*
X120752952Y-113069714D01*
X120752952Y-113403047D01*
X120705333Y-113593523D01*
X120610095Y-113688761D01*
X120514857Y-113736380D01*
X120324380Y-113736380D01*
X120229142Y-113688761D01*
X120133904Y-113593523D01*
X120086285Y-113403047D01*
X120086285Y-113069714D01*
X120133904Y-112879238D01*
X120229142Y-112784000D01*
X120324380Y-112736380D01*
X121038666Y-112736380D02*
X121610095Y-112736380D01*
X121324380Y-113736380D02*
X121324380Y-112736380D01*
X117356571Y-103290666D02*
X117832761Y-103290666D01*
X117261333Y-103576380D02*
X117594666Y-102576380D01*
X117928000Y-103576380D01*
X118261333Y-103576380D02*
X118261333Y-102576380D01*
X118499428Y-102576380D01*
X118642285Y-102624000D01*
X118737523Y-102719238D01*
X118785142Y-102814476D01*
X118832761Y-103004952D01*
X118832761Y-103147809D01*
X118785142Y-103338285D01*
X118737523Y-103433523D01*
X118642285Y-103528761D01*
X118499428Y-103576380D01*
X118261333Y-103576380D01*
X119737523Y-102576380D02*
X119261333Y-102576380D01*
X119213714Y-103052571D01*
X119261333Y-103004952D01*
X119356571Y-102957333D01*
X119594666Y-102957333D01*
X119689904Y-103004952D01*
X119737523Y-103052571D01*
X119785142Y-103147809D01*
X119785142Y-103385904D01*
X119737523Y-103481142D01*
X119689904Y-103528761D01*
X119594666Y-103576380D01*
X119356571Y-103576380D01*
X119261333Y-103528761D01*
X119213714Y-103481142D01*
X120166095Y-102671619D02*
X120213714Y-102624000D01*
X120308952Y-102576380D01*
X120547047Y-102576380D01*
X120642285Y-102624000D01*
X120689904Y-102671619D01*
X120737523Y-102766857D01*
X120737523Y-102862095D01*
X120689904Y-103004952D01*
X120118476Y-103576380D01*
X120737523Y-103576380D01*
X121594666Y-102909714D02*
X121594666Y-103576380D01*
X121356571Y-102528761D02*
X121118476Y-103243047D01*
X121737523Y-103243047D01*
X122070857Y-102671619D02*
X122118476Y-102624000D01*
X122213714Y-102576380D01*
X122451809Y-102576380D01*
X122547047Y-102624000D01*
X122594666Y-102671619D01*
X122642285Y-102766857D01*
X122642285Y-102862095D01*
X122594666Y-103004952D01*
X122023238Y-103576380D01*
X122642285Y-103576380D01*
X123404190Y-103052571D02*
X123547047Y-103100190D01*
X123594666Y-103147809D01*
X123642285Y-103243047D01*
X123642285Y-103385904D01*
X123594666Y-103481142D01*
X123547047Y-103528761D01*
X123451809Y-103576380D01*
X123070857Y-103576380D01*
X123070857Y-102576380D01*
X123404190Y-102576380D01*
X123499428Y-102624000D01*
X123547047Y-102671619D01*
X123594666Y-102766857D01*
X123594666Y-102862095D01*
X123547047Y-102957333D01*
X123499428Y-103004952D01*
X123404190Y-103052571D01*
X123070857Y-103052571D01*
X124642285Y-103576380D02*
X124308952Y-103100190D01*
X124070857Y-103576380D02*
X124070857Y-102576380D01*
X124451809Y-102576380D01*
X124547047Y-102624000D01*
X124594666Y-102671619D01*
X124642285Y-102766857D01*
X124642285Y-102909714D01*
X124594666Y-103004952D01*
X124547047Y-103052571D01*
X124451809Y-103100190D01*
X124070857Y-103100190D01*
X124975619Y-102576380D02*
X125642285Y-102576380D01*
X124975619Y-103576380D01*
X125642285Y-103576380D01*
X126547047Y-103576380D02*
X125975619Y-103576380D01*
X126261333Y-103576380D02*
X126261333Y-102576380D01*
X126166095Y-102719238D01*
X126070857Y-102814476D01*
X125975619Y-102862095D01*
X127166095Y-102576380D02*
X127261333Y-102576380D01*
X127356571Y-102624000D01*
X127404190Y-102671619D01*
X127451809Y-102766857D01*
X127499428Y-102957333D01*
X127499428Y-103195428D01*
X127451809Y-103385904D01*
X127404190Y-103481142D01*
X127356571Y-103528761D01*
X127261333Y-103576380D01*
X127166095Y-103576380D01*
X127070857Y-103528761D01*
X127023238Y-103481142D01*
X126975619Y-103385904D01*
X126928000Y-103195428D01*
X126928000Y-102957333D01*
X126975619Y-102766857D01*
X127023238Y-102671619D01*
X127070857Y-102624000D01*
X127166095Y-102576380D01*
X128029180Y-105231000D02*
X128267276Y-105231000D01*
X128172038Y-105469095D02*
X128267276Y-105231000D01*
X128172038Y-104992904D01*
X128457752Y-105373857D02*
X128267276Y-105231000D01*
X128457752Y-105088142D01*
X128029180Y-105231000D02*
X128267276Y-105231000D01*
X128172038Y-105469095D02*
X128267276Y-105231000D01*
X128172038Y-104992904D01*
X128457752Y-105373857D02*
X128267276Y-105231000D01*
X128457752Y-105088142D01*
X105140476Y-113736380D02*
X104664285Y-113736380D01*
X104664285Y-112736380D01*
X105378571Y-113069714D02*
X105616666Y-113736380D01*
X105854761Y-113069714D01*
X106378571Y-113736380D02*
X106283333Y-113688761D01*
X106235714Y-113593523D01*
X106235714Y-112736380D01*
X106711904Y-113688761D02*
X106854761Y-113736380D01*
X107092857Y-113736380D01*
X107188095Y-113688761D01*
X107235714Y-113641142D01*
X107283333Y-113545904D01*
X107283333Y-113450666D01*
X107235714Y-113355428D01*
X107188095Y-113307809D01*
X107092857Y-113260190D01*
X106902380Y-113212571D01*
X106807142Y-113164952D01*
X106759523Y-113117333D01*
X106711904Y-113022095D01*
X106711904Y-112926857D01*
X106759523Y-112831619D01*
X106807142Y-112784000D01*
X106902380Y-112736380D01*
X107140476Y-112736380D01*
X107283333Y-112784000D01*
X107711904Y-113736380D02*
X107711904Y-112736380D01*
X108140476Y-113736380D02*
X108140476Y-113212571D01*
X108092857Y-113117333D01*
X107997619Y-113069714D01*
X107854761Y-113069714D01*
X107759523Y-113117333D01*
X107711904Y-113164952D01*
X108616666Y-113736380D02*
X108616666Y-113069714D01*
X108616666Y-112736380D02*
X108569047Y-112784000D01*
X108616666Y-112831619D01*
X108664285Y-112784000D01*
X108616666Y-112736380D01*
X108616666Y-112831619D01*
X108950000Y-113069714D02*
X109330952Y-113069714D01*
X109092857Y-113736380D02*
X109092857Y-112879238D01*
X109140476Y-112784000D01*
X109235714Y-112736380D01*
X109330952Y-112736380D01*
X109521428Y-113069714D02*
X109902380Y-113069714D01*
X109664285Y-112736380D02*
X109664285Y-113593523D01*
X109711904Y-113688761D01*
X109807142Y-113736380D01*
X109902380Y-113736380D01*
X110616666Y-113688761D02*
X110521428Y-113736380D01*
X110330952Y-113736380D01*
X110235714Y-113688761D01*
X110188095Y-113593523D01*
X110188095Y-113212571D01*
X110235714Y-113117333D01*
X110330952Y-113069714D01*
X110521428Y-113069714D01*
X110616666Y-113117333D01*
X110664285Y-113212571D01*
X110664285Y-113307809D01*
X110188095Y-113403047D01*
X111092857Y-113736380D02*
X111092857Y-113069714D01*
X111092857Y-113260190D02*
X111140476Y-113164952D01*
X111188095Y-113117333D01*
X111283333Y-113069714D01*
X111378571Y-113069714D01*
X103862761Y-103338380D02*
X104434190Y-103338380D01*
X104148476Y-104338380D02*
X104148476Y-103338380D01*
X104672285Y-103338380D02*
X105338952Y-104338380D01*
X105338952Y-103338380D02*
X104672285Y-104338380D01*
X105672285Y-104290761D02*
X105815142Y-104338380D01*
X106053238Y-104338380D01*
X106148476Y-104290761D01*
X106196095Y-104243142D01*
X106243714Y-104147904D01*
X106243714Y-104052666D01*
X106196095Y-103957428D01*
X106148476Y-103909809D01*
X106053238Y-103862190D01*
X105862761Y-103814571D01*
X105767523Y-103766952D01*
X105719904Y-103719333D01*
X105672285Y-103624095D01*
X105672285Y-103528857D01*
X105719904Y-103433619D01*
X105767523Y-103386000D01*
X105862761Y-103338380D01*
X106100857Y-103338380D01*
X106243714Y-103386000D01*
X106862761Y-103338380D02*
X106958000Y-103338380D01*
X107053238Y-103386000D01*
X107100857Y-103433619D01*
X107148476Y-103528857D01*
X107196095Y-103719333D01*
X107196095Y-103957428D01*
X107148476Y-104147904D01*
X107100857Y-104243142D01*
X107053238Y-104290761D01*
X106958000Y-104338380D01*
X106862761Y-104338380D01*
X106767523Y-104290761D01*
X106719904Y-104243142D01*
X106672285Y-104147904D01*
X106624666Y-103957428D01*
X106624666Y-103719333D01*
X106672285Y-103528857D01*
X106719904Y-103433619D01*
X106767523Y-103386000D01*
X106862761Y-103338380D01*
X108148476Y-104338380D02*
X107577047Y-104338380D01*
X107862761Y-104338380D02*
X107862761Y-103338380D01*
X107767523Y-103481238D01*
X107672285Y-103576476D01*
X107577047Y-103624095D01*
X108767523Y-103338380D02*
X108862761Y-103338380D01*
X108958000Y-103386000D01*
X109005619Y-103433619D01*
X109053238Y-103528857D01*
X109100857Y-103719333D01*
X109100857Y-103957428D01*
X109053238Y-104147904D01*
X109005619Y-104243142D01*
X108958000Y-104290761D01*
X108862761Y-104338380D01*
X108767523Y-104338380D01*
X108672285Y-104290761D01*
X108624666Y-104243142D01*
X108577047Y-104147904D01*
X108529428Y-103957428D01*
X108529428Y-103719333D01*
X108577047Y-103528857D01*
X108624666Y-103433619D01*
X108672285Y-103386000D01*
X108767523Y-103338380D01*
X109958000Y-103671714D02*
X109958000Y-104338380D01*
X109719904Y-103290761D02*
X109481809Y-104005047D01*
X110100857Y-104005047D01*
X110481809Y-103814571D02*
X110815142Y-103814571D01*
X110958000Y-104338380D02*
X110481809Y-104338380D01*
X110481809Y-103338380D01*
X110958000Y-103338380D01*
X111386571Y-104338380D02*
X111386571Y-103338380D01*
X111624666Y-103338380D01*
X111767523Y-103386000D01*
X111862761Y-103481238D01*
X111910380Y-103576476D01*
X111958000Y-103766952D01*
X111958000Y-103909809D01*
X111910380Y-104100285D01*
X111862761Y-104195523D01*
X111767523Y-104290761D01*
X111624666Y-104338380D01*
X111386571Y-104338380D01*
X112958000Y-104338380D02*
X112624666Y-103862190D01*
X112386571Y-104338380D02*
X112386571Y-103338380D01*
X112767523Y-103338380D01*
X112862761Y-103386000D01*
X112910380Y-103433619D01*
X112958000Y-103528857D01*
X112958000Y-103671714D01*
X112910380Y-103766952D01*
X112862761Y-103814571D01*
X112767523Y-103862190D01*
X112386571Y-103862190D01*
X113422180Y-105740200D02*
X113660276Y-105740200D01*
X113565038Y-105978295D02*
X113660276Y-105740200D01*
X113565038Y-105502104D01*
X113850752Y-105883057D02*
X113660276Y-105740200D01*
X113850752Y-105597342D01*
X113422180Y-105740200D02*
X113660276Y-105740200D01*
X113565038Y-105978295D02*
X113660276Y-105740200D01*
X113565038Y-105502104D01*
X113850752Y-105883057D02*
X113660276Y-105740200D01*
X113850752Y-105597342D01*
M02*
