G04 #@! TF.GenerationSoftware,KiCad,Pcbnew,(5.1.5)-3*
G04 #@! TF.CreationDate,2021-04-03T19:56:23-04:00*
G04 #@! TF.ProjectId,JoystickCtrlV2,4a6f7973-7469-4636-9b43-74726c56322e,rev?*
G04 #@! TF.SameCoordinates,Original*
G04 #@! TF.FileFunction,Soldermask,Bot*
G04 #@! TF.FilePolarity,Negative*
%FSLAX46Y46*%
G04 Gerber Fmt 4.6, Leading zero omitted, Abs format (unit mm)*
G04 Created by KiCad (PCBNEW (5.1.5)-3) date 2021-04-03 19:56:23*
%MOMM*%
%LPD*%
G04 APERTURE LIST*
%ADD10C,0.100000*%
G04 APERTURE END LIST*
D10*
G36*
X104515256Y-126407298D02*
G01*
X104621579Y-126428447D01*
X104922042Y-126552903D01*
X105192451Y-126733585D01*
X105422415Y-126963549D01*
X105603097Y-127233958D01*
X105702327Y-127473519D01*
X105727553Y-127534422D01*
X105791000Y-127853389D01*
X105791000Y-128178611D01*
X105773969Y-128264229D01*
X105727553Y-128497579D01*
X105603097Y-128798042D01*
X105422415Y-129068451D01*
X105192451Y-129298415D01*
X104922042Y-129479097D01*
X104621579Y-129603553D01*
X104515256Y-129624702D01*
X104302611Y-129667000D01*
X103977389Y-129667000D01*
X103764744Y-129624702D01*
X103658421Y-129603553D01*
X103357958Y-129479097D01*
X103087549Y-129298415D01*
X102857585Y-129068451D01*
X102676903Y-128798042D01*
X102552447Y-128497579D01*
X102506031Y-128264229D01*
X102489000Y-128178611D01*
X102489000Y-127853389D01*
X102552447Y-127534422D01*
X102577674Y-127473519D01*
X102676903Y-127233958D01*
X102857585Y-126963549D01*
X103087549Y-126733585D01*
X103357958Y-126552903D01*
X103658421Y-126428447D01*
X103764744Y-126407298D01*
X103977389Y-126365000D01*
X104302611Y-126365000D01*
X104515256Y-126407298D01*
G37*
G36*
X118961000Y-128867000D02*
G01*
X117259000Y-128867000D01*
X117259000Y-127165000D01*
X118961000Y-127165000D01*
X118961000Y-128867000D01*
G37*
G36*
X151378228Y-127197703D02*
G01*
X151533100Y-127261853D01*
X151672481Y-127354985D01*
X151791015Y-127473519D01*
X151884147Y-127612900D01*
X151948297Y-127767772D01*
X151981000Y-127932184D01*
X151981000Y-128099816D01*
X151948297Y-128264228D01*
X151884147Y-128419100D01*
X151791015Y-128558481D01*
X151672481Y-128677015D01*
X151533100Y-128770147D01*
X151378228Y-128834297D01*
X151213816Y-128867000D01*
X151046184Y-128867000D01*
X150881772Y-128834297D01*
X150726900Y-128770147D01*
X150587519Y-128677015D01*
X150468985Y-128558481D01*
X150375853Y-128419100D01*
X150311703Y-128264228D01*
X150279000Y-128099816D01*
X150279000Y-127932184D01*
X150311703Y-127767772D01*
X150375853Y-127612900D01*
X150468985Y-127473519D01*
X150587519Y-127354985D01*
X150726900Y-127261853D01*
X150881772Y-127197703D01*
X151046184Y-127165000D01*
X151213816Y-127165000D01*
X151378228Y-127197703D01*
G37*
G36*
X148838228Y-127197703D02*
G01*
X148993100Y-127261853D01*
X149132481Y-127354985D01*
X149251015Y-127473519D01*
X149344147Y-127612900D01*
X149408297Y-127767772D01*
X149441000Y-127932184D01*
X149441000Y-128099816D01*
X149408297Y-128264228D01*
X149344147Y-128419100D01*
X149251015Y-128558481D01*
X149132481Y-128677015D01*
X148993100Y-128770147D01*
X148838228Y-128834297D01*
X148673816Y-128867000D01*
X148506184Y-128867000D01*
X148341772Y-128834297D01*
X148186900Y-128770147D01*
X148047519Y-128677015D01*
X147928985Y-128558481D01*
X147835853Y-128419100D01*
X147771703Y-128264228D01*
X147739000Y-128099816D01*
X147739000Y-127932184D01*
X147771703Y-127767772D01*
X147835853Y-127612900D01*
X147928985Y-127473519D01*
X148047519Y-127354985D01*
X148186900Y-127261853D01*
X148341772Y-127197703D01*
X148506184Y-127165000D01*
X148673816Y-127165000D01*
X148838228Y-127197703D01*
G37*
G36*
X146298228Y-127197703D02*
G01*
X146453100Y-127261853D01*
X146592481Y-127354985D01*
X146711015Y-127473519D01*
X146804147Y-127612900D01*
X146868297Y-127767772D01*
X146901000Y-127932184D01*
X146901000Y-128099816D01*
X146868297Y-128264228D01*
X146804147Y-128419100D01*
X146711015Y-128558481D01*
X146592481Y-128677015D01*
X146453100Y-128770147D01*
X146298228Y-128834297D01*
X146133816Y-128867000D01*
X145966184Y-128867000D01*
X145801772Y-128834297D01*
X145646900Y-128770147D01*
X145507519Y-128677015D01*
X145388985Y-128558481D01*
X145295853Y-128419100D01*
X145231703Y-128264228D01*
X145199000Y-128099816D01*
X145199000Y-127932184D01*
X145231703Y-127767772D01*
X145295853Y-127612900D01*
X145388985Y-127473519D01*
X145507519Y-127354985D01*
X145646900Y-127261853D01*
X145801772Y-127197703D01*
X145966184Y-127165000D01*
X146133816Y-127165000D01*
X146298228Y-127197703D01*
G37*
G36*
X143758228Y-127197703D02*
G01*
X143913100Y-127261853D01*
X144052481Y-127354985D01*
X144171015Y-127473519D01*
X144264147Y-127612900D01*
X144328297Y-127767772D01*
X144361000Y-127932184D01*
X144361000Y-128099816D01*
X144328297Y-128264228D01*
X144264147Y-128419100D01*
X144171015Y-128558481D01*
X144052481Y-128677015D01*
X143913100Y-128770147D01*
X143758228Y-128834297D01*
X143593816Y-128867000D01*
X143426184Y-128867000D01*
X143261772Y-128834297D01*
X143106900Y-128770147D01*
X142967519Y-128677015D01*
X142848985Y-128558481D01*
X142755853Y-128419100D01*
X142691703Y-128264228D01*
X142659000Y-128099816D01*
X142659000Y-127932184D01*
X142691703Y-127767772D01*
X142755853Y-127612900D01*
X142848985Y-127473519D01*
X142967519Y-127354985D01*
X143106900Y-127261853D01*
X143261772Y-127197703D01*
X143426184Y-127165000D01*
X143593816Y-127165000D01*
X143758228Y-127197703D01*
G37*
G36*
X141218228Y-127197703D02*
G01*
X141373100Y-127261853D01*
X141512481Y-127354985D01*
X141631015Y-127473519D01*
X141724147Y-127612900D01*
X141788297Y-127767772D01*
X141821000Y-127932184D01*
X141821000Y-128099816D01*
X141788297Y-128264228D01*
X141724147Y-128419100D01*
X141631015Y-128558481D01*
X141512481Y-128677015D01*
X141373100Y-128770147D01*
X141218228Y-128834297D01*
X141053816Y-128867000D01*
X140886184Y-128867000D01*
X140721772Y-128834297D01*
X140566900Y-128770147D01*
X140427519Y-128677015D01*
X140308985Y-128558481D01*
X140215853Y-128419100D01*
X140151703Y-128264228D01*
X140119000Y-128099816D01*
X140119000Y-127932184D01*
X140151703Y-127767772D01*
X140215853Y-127612900D01*
X140308985Y-127473519D01*
X140427519Y-127354985D01*
X140566900Y-127261853D01*
X140721772Y-127197703D01*
X140886184Y-127165000D01*
X141053816Y-127165000D01*
X141218228Y-127197703D01*
G37*
G36*
X136138228Y-127197703D02*
G01*
X136293100Y-127261853D01*
X136432481Y-127354985D01*
X136551015Y-127473519D01*
X136644147Y-127612900D01*
X136708297Y-127767772D01*
X136741000Y-127932184D01*
X136741000Y-128099816D01*
X136708297Y-128264228D01*
X136644147Y-128419100D01*
X136551015Y-128558481D01*
X136432481Y-128677015D01*
X136293100Y-128770147D01*
X136138228Y-128834297D01*
X135973816Y-128867000D01*
X135806184Y-128867000D01*
X135641772Y-128834297D01*
X135486900Y-128770147D01*
X135347519Y-128677015D01*
X135228985Y-128558481D01*
X135135853Y-128419100D01*
X135071703Y-128264228D01*
X135039000Y-128099816D01*
X135039000Y-127932184D01*
X135071703Y-127767772D01*
X135135853Y-127612900D01*
X135228985Y-127473519D01*
X135347519Y-127354985D01*
X135486900Y-127261853D01*
X135641772Y-127197703D01*
X135806184Y-127165000D01*
X135973816Y-127165000D01*
X136138228Y-127197703D01*
G37*
G36*
X131058228Y-127197703D02*
G01*
X131213100Y-127261853D01*
X131352481Y-127354985D01*
X131471015Y-127473519D01*
X131564147Y-127612900D01*
X131628297Y-127767772D01*
X131661000Y-127932184D01*
X131661000Y-128099816D01*
X131628297Y-128264228D01*
X131564147Y-128419100D01*
X131471015Y-128558481D01*
X131352481Y-128677015D01*
X131213100Y-128770147D01*
X131058228Y-128834297D01*
X130893816Y-128867000D01*
X130726184Y-128867000D01*
X130561772Y-128834297D01*
X130406900Y-128770147D01*
X130267519Y-128677015D01*
X130148985Y-128558481D01*
X130055853Y-128419100D01*
X129991703Y-128264228D01*
X129959000Y-128099816D01*
X129959000Y-127932184D01*
X129991703Y-127767772D01*
X130055853Y-127612900D01*
X130148985Y-127473519D01*
X130267519Y-127354985D01*
X130406900Y-127261853D01*
X130561772Y-127197703D01*
X130726184Y-127165000D01*
X130893816Y-127165000D01*
X131058228Y-127197703D01*
G37*
G36*
X128518228Y-127197703D02*
G01*
X128673100Y-127261853D01*
X128812481Y-127354985D01*
X128931015Y-127473519D01*
X129024147Y-127612900D01*
X129088297Y-127767772D01*
X129121000Y-127932184D01*
X129121000Y-128099816D01*
X129088297Y-128264228D01*
X129024147Y-128419100D01*
X128931015Y-128558481D01*
X128812481Y-128677015D01*
X128673100Y-128770147D01*
X128518228Y-128834297D01*
X128353816Y-128867000D01*
X128186184Y-128867000D01*
X128021772Y-128834297D01*
X127866900Y-128770147D01*
X127727519Y-128677015D01*
X127608985Y-128558481D01*
X127515853Y-128419100D01*
X127451703Y-128264228D01*
X127419000Y-128099816D01*
X127419000Y-127932184D01*
X127451703Y-127767772D01*
X127515853Y-127612900D01*
X127608985Y-127473519D01*
X127727519Y-127354985D01*
X127866900Y-127261853D01*
X128021772Y-127197703D01*
X128186184Y-127165000D01*
X128353816Y-127165000D01*
X128518228Y-127197703D01*
G37*
G36*
X125978228Y-127197703D02*
G01*
X126133100Y-127261853D01*
X126272481Y-127354985D01*
X126391015Y-127473519D01*
X126484147Y-127612900D01*
X126548297Y-127767772D01*
X126581000Y-127932184D01*
X126581000Y-128099816D01*
X126548297Y-128264228D01*
X126484147Y-128419100D01*
X126391015Y-128558481D01*
X126272481Y-128677015D01*
X126133100Y-128770147D01*
X125978228Y-128834297D01*
X125813816Y-128867000D01*
X125646184Y-128867000D01*
X125481772Y-128834297D01*
X125326900Y-128770147D01*
X125187519Y-128677015D01*
X125068985Y-128558481D01*
X124975853Y-128419100D01*
X124911703Y-128264228D01*
X124879000Y-128099816D01*
X124879000Y-127932184D01*
X124911703Y-127767772D01*
X124975853Y-127612900D01*
X125068985Y-127473519D01*
X125187519Y-127354985D01*
X125326900Y-127261853D01*
X125481772Y-127197703D01*
X125646184Y-127165000D01*
X125813816Y-127165000D01*
X125978228Y-127197703D01*
G37*
G36*
X123438228Y-127197703D02*
G01*
X123593100Y-127261853D01*
X123732481Y-127354985D01*
X123851015Y-127473519D01*
X123944147Y-127612900D01*
X124008297Y-127767772D01*
X124041000Y-127932184D01*
X124041000Y-128099816D01*
X124008297Y-128264228D01*
X123944147Y-128419100D01*
X123851015Y-128558481D01*
X123732481Y-128677015D01*
X123593100Y-128770147D01*
X123438228Y-128834297D01*
X123273816Y-128867000D01*
X123106184Y-128867000D01*
X122941772Y-128834297D01*
X122786900Y-128770147D01*
X122647519Y-128677015D01*
X122528985Y-128558481D01*
X122435853Y-128419100D01*
X122371703Y-128264228D01*
X122339000Y-128099816D01*
X122339000Y-127932184D01*
X122371703Y-127767772D01*
X122435853Y-127612900D01*
X122528985Y-127473519D01*
X122647519Y-127354985D01*
X122786900Y-127261853D01*
X122941772Y-127197703D01*
X123106184Y-127165000D01*
X123273816Y-127165000D01*
X123438228Y-127197703D01*
G37*
G36*
X120898228Y-127197703D02*
G01*
X121053100Y-127261853D01*
X121192481Y-127354985D01*
X121311015Y-127473519D01*
X121404147Y-127612900D01*
X121468297Y-127767772D01*
X121501000Y-127932184D01*
X121501000Y-128099816D01*
X121468297Y-128264228D01*
X121404147Y-128419100D01*
X121311015Y-128558481D01*
X121192481Y-128677015D01*
X121053100Y-128770147D01*
X120898228Y-128834297D01*
X120733816Y-128867000D01*
X120566184Y-128867000D01*
X120401772Y-128834297D01*
X120246900Y-128770147D01*
X120107519Y-128677015D01*
X119988985Y-128558481D01*
X119895853Y-128419100D01*
X119831703Y-128264228D01*
X119799000Y-128099816D01*
X119799000Y-127932184D01*
X119831703Y-127767772D01*
X119895853Y-127612900D01*
X119988985Y-127473519D01*
X120107519Y-127354985D01*
X120246900Y-127261853D01*
X120401772Y-127197703D01*
X120566184Y-127165000D01*
X120733816Y-127165000D01*
X120898228Y-127197703D01*
G37*
G36*
X153918228Y-127197703D02*
G01*
X154073100Y-127261853D01*
X154212481Y-127354985D01*
X154331015Y-127473519D01*
X154424147Y-127612900D01*
X154488297Y-127767772D01*
X154521000Y-127932184D01*
X154521000Y-128099816D01*
X154488297Y-128264228D01*
X154424147Y-128419100D01*
X154331015Y-128558481D01*
X154212481Y-128677015D01*
X154073100Y-128770147D01*
X153918228Y-128834297D01*
X153753816Y-128867000D01*
X153586184Y-128867000D01*
X153421772Y-128834297D01*
X153266900Y-128770147D01*
X153127519Y-128677015D01*
X153008985Y-128558481D01*
X152915853Y-128419100D01*
X152851703Y-128264228D01*
X152819000Y-128099816D01*
X152819000Y-127932184D01*
X152851703Y-127767772D01*
X152915853Y-127612900D01*
X153008985Y-127473519D01*
X153127519Y-127354985D01*
X153266900Y-127261853D01*
X153421772Y-127197703D01*
X153586184Y-127165000D01*
X153753816Y-127165000D01*
X153918228Y-127197703D01*
G37*
G36*
X133598228Y-127197703D02*
G01*
X133753100Y-127261853D01*
X133892481Y-127354985D01*
X134011015Y-127473519D01*
X134104147Y-127612900D01*
X134168297Y-127767772D01*
X134201000Y-127932184D01*
X134201000Y-128099816D01*
X134168297Y-128264228D01*
X134104147Y-128419100D01*
X134011015Y-128558481D01*
X133892481Y-128677015D01*
X133753100Y-128770147D01*
X133598228Y-128834297D01*
X133433816Y-128867000D01*
X133266184Y-128867000D01*
X133101772Y-128834297D01*
X132946900Y-128770147D01*
X132807519Y-128677015D01*
X132688985Y-128558481D01*
X132595853Y-128419100D01*
X132531703Y-128264228D01*
X132499000Y-128099816D01*
X132499000Y-127932184D01*
X132531703Y-127767772D01*
X132595853Y-127612900D01*
X132688985Y-127473519D01*
X132807519Y-127354985D01*
X132946900Y-127261853D01*
X133101772Y-127197703D01*
X133266184Y-127165000D01*
X133433816Y-127165000D01*
X133598228Y-127197703D01*
G37*
G36*
X123303512Y-124325927D02*
G01*
X123452812Y-124355624D01*
X123616784Y-124423544D01*
X123764354Y-124522147D01*
X123889853Y-124647646D01*
X123988456Y-124795216D01*
X124056376Y-124959188D01*
X124091000Y-125133259D01*
X124091000Y-125310741D01*
X124056376Y-125484812D01*
X123988456Y-125648784D01*
X123889853Y-125796354D01*
X123764354Y-125921853D01*
X123616784Y-126020456D01*
X123452812Y-126088376D01*
X123303512Y-126118073D01*
X123278742Y-126123000D01*
X123101258Y-126123000D01*
X123076488Y-126118073D01*
X122927188Y-126088376D01*
X122763216Y-126020456D01*
X122615646Y-125921853D01*
X122490147Y-125796354D01*
X122391544Y-125648784D01*
X122323624Y-125484812D01*
X122289000Y-125310741D01*
X122289000Y-125133259D01*
X122323624Y-124959188D01*
X122391544Y-124795216D01*
X122490147Y-124647646D01*
X122615646Y-124522147D01*
X122763216Y-124423544D01*
X122927188Y-124355624D01*
X123076488Y-124325927D01*
X123101258Y-124321000D01*
X123278742Y-124321000D01*
X123303512Y-124325927D01*
G37*
G36*
X119011000Y-126123000D02*
G01*
X117209000Y-126123000D01*
X117209000Y-124321000D01*
X119011000Y-124321000D01*
X119011000Y-126123000D01*
G37*
G36*
X120763512Y-124325927D02*
G01*
X120912812Y-124355624D01*
X121076784Y-124423544D01*
X121224354Y-124522147D01*
X121349853Y-124647646D01*
X121448456Y-124795216D01*
X121516376Y-124959188D01*
X121551000Y-125133259D01*
X121551000Y-125310741D01*
X121516376Y-125484812D01*
X121448456Y-125648784D01*
X121349853Y-125796354D01*
X121224354Y-125921853D01*
X121076784Y-126020456D01*
X120912812Y-126088376D01*
X120763512Y-126118073D01*
X120738742Y-126123000D01*
X120561258Y-126123000D01*
X120536488Y-126118073D01*
X120387188Y-126088376D01*
X120223216Y-126020456D01*
X120075646Y-125921853D01*
X119950147Y-125796354D01*
X119851544Y-125648784D01*
X119783624Y-125484812D01*
X119749000Y-125310741D01*
X119749000Y-125133259D01*
X119783624Y-124959188D01*
X119851544Y-124795216D01*
X119950147Y-124647646D01*
X120075646Y-124522147D01*
X120223216Y-124423544D01*
X120387188Y-124355624D01*
X120536488Y-124325927D01*
X120561258Y-124321000D01*
X120738742Y-124321000D01*
X120763512Y-124325927D01*
G37*
G36*
X141083512Y-124325927D02*
G01*
X141232812Y-124355624D01*
X141396784Y-124423544D01*
X141544354Y-124522147D01*
X141669853Y-124647646D01*
X141768456Y-124795216D01*
X141836376Y-124959188D01*
X141871000Y-125133259D01*
X141871000Y-125310741D01*
X141836376Y-125484812D01*
X141768456Y-125648784D01*
X141669853Y-125796354D01*
X141544354Y-125921853D01*
X141396784Y-126020456D01*
X141232812Y-126088376D01*
X141083512Y-126118073D01*
X141058742Y-126123000D01*
X140881258Y-126123000D01*
X140856488Y-126118073D01*
X140707188Y-126088376D01*
X140543216Y-126020456D01*
X140395646Y-125921853D01*
X140270147Y-125796354D01*
X140171544Y-125648784D01*
X140103624Y-125484812D01*
X140069000Y-125310741D01*
X140069000Y-125133259D01*
X140103624Y-124959188D01*
X140171544Y-124795216D01*
X140270147Y-124647646D01*
X140395646Y-124522147D01*
X140543216Y-124423544D01*
X140707188Y-124355624D01*
X140856488Y-124325927D01*
X140881258Y-124321000D01*
X141058742Y-124321000D01*
X141083512Y-124325927D01*
G37*
G36*
X143623512Y-124325927D02*
G01*
X143772812Y-124355624D01*
X143936784Y-124423544D01*
X144084354Y-124522147D01*
X144209853Y-124647646D01*
X144308456Y-124795216D01*
X144376376Y-124959188D01*
X144411000Y-125133259D01*
X144411000Y-125310741D01*
X144376376Y-125484812D01*
X144308456Y-125648784D01*
X144209853Y-125796354D01*
X144084354Y-125921853D01*
X143936784Y-126020456D01*
X143772812Y-126088376D01*
X143623512Y-126118073D01*
X143598742Y-126123000D01*
X143421258Y-126123000D01*
X143396488Y-126118073D01*
X143247188Y-126088376D01*
X143083216Y-126020456D01*
X142935646Y-125921853D01*
X142810147Y-125796354D01*
X142711544Y-125648784D01*
X142643624Y-125484812D01*
X142609000Y-125310741D01*
X142609000Y-125133259D01*
X142643624Y-124959188D01*
X142711544Y-124795216D01*
X142810147Y-124647646D01*
X142935646Y-124522147D01*
X143083216Y-124423544D01*
X143247188Y-124355624D01*
X143396488Y-124325927D01*
X143421258Y-124321000D01*
X143598742Y-124321000D01*
X143623512Y-124325927D01*
G37*
G36*
X146163512Y-124325927D02*
G01*
X146312812Y-124355624D01*
X146476784Y-124423544D01*
X146624354Y-124522147D01*
X146749853Y-124647646D01*
X146848456Y-124795216D01*
X146916376Y-124959188D01*
X146951000Y-125133259D01*
X146951000Y-125310741D01*
X146916376Y-125484812D01*
X146848456Y-125648784D01*
X146749853Y-125796354D01*
X146624354Y-125921853D01*
X146476784Y-126020456D01*
X146312812Y-126088376D01*
X146163512Y-126118073D01*
X146138742Y-126123000D01*
X145961258Y-126123000D01*
X145936488Y-126118073D01*
X145787188Y-126088376D01*
X145623216Y-126020456D01*
X145475646Y-125921853D01*
X145350147Y-125796354D01*
X145251544Y-125648784D01*
X145183624Y-125484812D01*
X145149000Y-125310741D01*
X145149000Y-125133259D01*
X145183624Y-124959188D01*
X145251544Y-124795216D01*
X145350147Y-124647646D01*
X145475646Y-124522147D01*
X145623216Y-124423544D01*
X145787188Y-124355624D01*
X145936488Y-124325927D01*
X145961258Y-124321000D01*
X146138742Y-124321000D01*
X146163512Y-124325927D01*
G37*
G36*
X148703512Y-124325927D02*
G01*
X148852812Y-124355624D01*
X149016784Y-124423544D01*
X149164354Y-124522147D01*
X149289853Y-124647646D01*
X149388456Y-124795216D01*
X149456376Y-124959188D01*
X149491000Y-125133259D01*
X149491000Y-125310741D01*
X149456376Y-125484812D01*
X149388456Y-125648784D01*
X149289853Y-125796354D01*
X149164354Y-125921853D01*
X149016784Y-126020456D01*
X148852812Y-126088376D01*
X148703512Y-126118073D01*
X148678742Y-126123000D01*
X148501258Y-126123000D01*
X148476488Y-126118073D01*
X148327188Y-126088376D01*
X148163216Y-126020456D01*
X148015646Y-125921853D01*
X147890147Y-125796354D01*
X147791544Y-125648784D01*
X147723624Y-125484812D01*
X147689000Y-125310741D01*
X147689000Y-125133259D01*
X147723624Y-124959188D01*
X147791544Y-124795216D01*
X147890147Y-124647646D01*
X148015646Y-124522147D01*
X148163216Y-124423544D01*
X148327188Y-124355624D01*
X148476488Y-124325927D01*
X148501258Y-124321000D01*
X148678742Y-124321000D01*
X148703512Y-124325927D01*
G37*
G36*
X154571000Y-126123000D02*
G01*
X152769000Y-126123000D01*
X152769000Y-124321000D01*
X154571000Y-124321000D01*
X154571000Y-126123000D01*
G37*
G36*
X136003512Y-124325927D02*
G01*
X136152812Y-124355624D01*
X136316784Y-124423544D01*
X136464354Y-124522147D01*
X136589853Y-124647646D01*
X136688456Y-124795216D01*
X136756376Y-124959188D01*
X136791000Y-125133259D01*
X136791000Y-125310741D01*
X136756376Y-125484812D01*
X136688456Y-125648784D01*
X136589853Y-125796354D01*
X136464354Y-125921853D01*
X136316784Y-126020456D01*
X136152812Y-126088376D01*
X136003512Y-126118073D01*
X135978742Y-126123000D01*
X135801258Y-126123000D01*
X135776488Y-126118073D01*
X135627188Y-126088376D01*
X135463216Y-126020456D01*
X135315646Y-125921853D01*
X135190147Y-125796354D01*
X135091544Y-125648784D01*
X135023624Y-125484812D01*
X134989000Y-125310741D01*
X134989000Y-125133259D01*
X135023624Y-124959188D01*
X135091544Y-124795216D01*
X135190147Y-124647646D01*
X135315646Y-124522147D01*
X135463216Y-124423544D01*
X135627188Y-124355624D01*
X135776488Y-124325927D01*
X135801258Y-124321000D01*
X135978742Y-124321000D01*
X136003512Y-124325927D01*
G37*
G36*
X133463512Y-124325927D02*
G01*
X133612812Y-124355624D01*
X133776784Y-124423544D01*
X133924354Y-124522147D01*
X134049853Y-124647646D01*
X134148456Y-124795216D01*
X134216376Y-124959188D01*
X134251000Y-125133259D01*
X134251000Y-125310741D01*
X134216376Y-125484812D01*
X134148456Y-125648784D01*
X134049853Y-125796354D01*
X133924354Y-125921853D01*
X133776784Y-126020456D01*
X133612812Y-126088376D01*
X133463512Y-126118073D01*
X133438742Y-126123000D01*
X133261258Y-126123000D01*
X133236488Y-126118073D01*
X133087188Y-126088376D01*
X132923216Y-126020456D01*
X132775646Y-125921853D01*
X132650147Y-125796354D01*
X132551544Y-125648784D01*
X132483624Y-125484812D01*
X132449000Y-125310741D01*
X132449000Y-125133259D01*
X132483624Y-124959188D01*
X132551544Y-124795216D01*
X132650147Y-124647646D01*
X132775646Y-124522147D01*
X132923216Y-124423544D01*
X133087188Y-124355624D01*
X133236488Y-124325927D01*
X133261258Y-124321000D01*
X133438742Y-124321000D01*
X133463512Y-124325927D01*
G37*
G36*
X130923512Y-124325927D02*
G01*
X131072812Y-124355624D01*
X131236784Y-124423544D01*
X131384354Y-124522147D01*
X131509853Y-124647646D01*
X131608456Y-124795216D01*
X131676376Y-124959188D01*
X131711000Y-125133259D01*
X131711000Y-125310741D01*
X131676376Y-125484812D01*
X131608456Y-125648784D01*
X131509853Y-125796354D01*
X131384354Y-125921853D01*
X131236784Y-126020456D01*
X131072812Y-126088376D01*
X130923512Y-126118073D01*
X130898742Y-126123000D01*
X130721258Y-126123000D01*
X130696488Y-126118073D01*
X130547188Y-126088376D01*
X130383216Y-126020456D01*
X130235646Y-125921853D01*
X130110147Y-125796354D01*
X130011544Y-125648784D01*
X129943624Y-125484812D01*
X129909000Y-125310741D01*
X129909000Y-125133259D01*
X129943624Y-124959188D01*
X130011544Y-124795216D01*
X130110147Y-124647646D01*
X130235646Y-124522147D01*
X130383216Y-124423544D01*
X130547188Y-124355624D01*
X130696488Y-124325927D01*
X130721258Y-124321000D01*
X130898742Y-124321000D01*
X130923512Y-124325927D01*
G37*
G36*
X128383512Y-124325927D02*
G01*
X128532812Y-124355624D01*
X128696784Y-124423544D01*
X128844354Y-124522147D01*
X128969853Y-124647646D01*
X129068456Y-124795216D01*
X129136376Y-124959188D01*
X129171000Y-125133259D01*
X129171000Y-125310741D01*
X129136376Y-125484812D01*
X129068456Y-125648784D01*
X128969853Y-125796354D01*
X128844354Y-125921853D01*
X128696784Y-126020456D01*
X128532812Y-126088376D01*
X128383512Y-126118073D01*
X128358742Y-126123000D01*
X128181258Y-126123000D01*
X128156488Y-126118073D01*
X128007188Y-126088376D01*
X127843216Y-126020456D01*
X127695646Y-125921853D01*
X127570147Y-125796354D01*
X127471544Y-125648784D01*
X127403624Y-125484812D01*
X127369000Y-125310741D01*
X127369000Y-125133259D01*
X127403624Y-124959188D01*
X127471544Y-124795216D01*
X127570147Y-124647646D01*
X127695646Y-124522147D01*
X127843216Y-124423544D01*
X128007188Y-124355624D01*
X128156488Y-124325927D01*
X128181258Y-124321000D01*
X128358742Y-124321000D01*
X128383512Y-124325927D01*
G37*
G36*
X125843512Y-124325927D02*
G01*
X125992812Y-124355624D01*
X126156784Y-124423544D01*
X126304354Y-124522147D01*
X126429853Y-124647646D01*
X126528456Y-124795216D01*
X126596376Y-124959188D01*
X126631000Y-125133259D01*
X126631000Y-125310741D01*
X126596376Y-125484812D01*
X126528456Y-125648784D01*
X126429853Y-125796354D01*
X126304354Y-125921853D01*
X126156784Y-126020456D01*
X125992812Y-126088376D01*
X125843512Y-126118073D01*
X125818742Y-126123000D01*
X125641258Y-126123000D01*
X125616488Y-126118073D01*
X125467188Y-126088376D01*
X125303216Y-126020456D01*
X125155646Y-125921853D01*
X125030147Y-125796354D01*
X124931544Y-125648784D01*
X124863624Y-125484812D01*
X124829000Y-125310741D01*
X124829000Y-125133259D01*
X124863624Y-124959188D01*
X124931544Y-124795216D01*
X125030147Y-124647646D01*
X125155646Y-124522147D01*
X125303216Y-124423544D01*
X125467188Y-124355624D01*
X125616488Y-124325927D01*
X125641258Y-124321000D01*
X125818742Y-124321000D01*
X125843512Y-124325927D01*
G37*
G36*
X151243512Y-124325927D02*
G01*
X151392812Y-124355624D01*
X151556784Y-124423544D01*
X151704354Y-124522147D01*
X151829853Y-124647646D01*
X151928456Y-124795216D01*
X151996376Y-124959188D01*
X152031000Y-125133259D01*
X152031000Y-125310741D01*
X151996376Y-125484812D01*
X151928456Y-125648784D01*
X151829853Y-125796354D01*
X151704354Y-125921853D01*
X151556784Y-126020456D01*
X151392812Y-126088376D01*
X151243512Y-126118073D01*
X151218742Y-126123000D01*
X151041258Y-126123000D01*
X151016488Y-126118073D01*
X150867188Y-126088376D01*
X150703216Y-126020456D01*
X150555646Y-125921853D01*
X150430147Y-125796354D01*
X150331544Y-125648784D01*
X150263624Y-125484812D01*
X150229000Y-125310741D01*
X150229000Y-125133259D01*
X150263624Y-124959188D01*
X150331544Y-124795216D01*
X150430147Y-124647646D01*
X150555646Y-124522147D01*
X150703216Y-124423544D01*
X150867188Y-124355624D01*
X151016488Y-124325927D01*
X151041258Y-124321000D01*
X151218742Y-124321000D01*
X151243512Y-124325927D01*
G37*
G36*
X156585256Y-121327298D02*
G01*
X156691579Y-121348447D01*
X156992042Y-121472903D01*
X157262451Y-121653585D01*
X157492415Y-121883549D01*
X157673097Y-122153958D01*
X157797553Y-122454421D01*
X157861000Y-122773391D01*
X157861000Y-123098609D01*
X157797553Y-123417579D01*
X157673097Y-123718042D01*
X157492415Y-123988451D01*
X157262451Y-124218415D01*
X156992042Y-124399097D01*
X156691579Y-124523553D01*
X156585256Y-124544702D01*
X156372611Y-124587000D01*
X156047389Y-124587000D01*
X155834744Y-124544702D01*
X155728421Y-124523553D01*
X155427958Y-124399097D01*
X155157549Y-124218415D01*
X154927585Y-123988451D01*
X154746903Y-123718042D01*
X154622447Y-123417579D01*
X154559000Y-123098609D01*
X154559000Y-122773391D01*
X154622447Y-122454421D01*
X154746903Y-122153958D01*
X154927585Y-121883549D01*
X155157549Y-121653585D01*
X155427958Y-121472903D01*
X155728421Y-121348447D01*
X155834744Y-121327298D01*
X156047389Y-121285000D01*
X156372611Y-121285000D01*
X156585256Y-121327298D01*
G37*
G36*
X151595766Y-116045899D02*
G01*
X151727888Y-116100626D01*
X151727890Y-116100627D01*
X151846798Y-116180079D01*
X151947921Y-116281202D01*
X151947922Y-116281204D01*
X152027374Y-116400112D01*
X152082101Y-116532234D01*
X152110000Y-116672494D01*
X152110000Y-116815506D01*
X152082101Y-116955766D01*
X152027374Y-117087888D01*
X152027373Y-117087890D01*
X151947921Y-117206798D01*
X151846798Y-117307921D01*
X151727890Y-117387373D01*
X151727889Y-117387374D01*
X151727888Y-117387374D01*
X151595766Y-117442101D01*
X151455506Y-117470000D01*
X151312494Y-117470000D01*
X151172234Y-117442101D01*
X151040112Y-117387374D01*
X151040111Y-117387374D01*
X151040110Y-117387373D01*
X150921202Y-117307921D01*
X150820079Y-117206798D01*
X150740627Y-117087890D01*
X150740626Y-117087888D01*
X150685899Y-116955766D01*
X150658000Y-116815506D01*
X150658000Y-116672494D01*
X150685899Y-116532234D01*
X150740626Y-116400112D01*
X150820078Y-116281204D01*
X150820079Y-116281202D01*
X150921202Y-116180079D01*
X151040110Y-116100627D01*
X151040112Y-116100626D01*
X151172234Y-116045899D01*
X151312494Y-116018000D01*
X151455506Y-116018000D01*
X151595766Y-116045899D01*
G37*
G36*
X153595766Y-116045899D02*
G01*
X153727888Y-116100626D01*
X153727890Y-116100627D01*
X153846798Y-116180079D01*
X153947921Y-116281202D01*
X153947922Y-116281204D01*
X154027374Y-116400112D01*
X154082101Y-116532234D01*
X154110000Y-116672494D01*
X154110000Y-116815506D01*
X154082101Y-116955766D01*
X154027374Y-117087888D01*
X154027373Y-117087890D01*
X153947921Y-117206798D01*
X153846798Y-117307921D01*
X153727890Y-117387373D01*
X153727889Y-117387374D01*
X153727888Y-117387374D01*
X153595766Y-117442101D01*
X153455506Y-117470000D01*
X153312494Y-117470000D01*
X153172234Y-117442101D01*
X153040112Y-117387374D01*
X153040111Y-117387374D01*
X153040110Y-117387373D01*
X152921202Y-117307921D01*
X152820079Y-117206798D01*
X152740627Y-117087890D01*
X152740626Y-117087888D01*
X152685899Y-116955766D01*
X152658000Y-116815506D01*
X152658000Y-116672494D01*
X152685899Y-116532234D01*
X152740626Y-116400112D01*
X152820078Y-116281204D01*
X152820079Y-116281202D01*
X152921202Y-116180079D01*
X153040110Y-116100627D01*
X153040112Y-116100626D01*
X153172234Y-116045899D01*
X153312494Y-116018000D01*
X153455506Y-116018000D01*
X153595766Y-116045899D01*
G37*
G36*
X146671512Y-115435927D02*
G01*
X146820812Y-115465624D01*
X146984784Y-115533544D01*
X147132354Y-115632147D01*
X147257853Y-115757646D01*
X147356456Y-115905216D01*
X147424376Y-116069188D01*
X147459000Y-116243259D01*
X147459000Y-116420741D01*
X147424376Y-116594812D01*
X147356456Y-116758784D01*
X147257853Y-116906354D01*
X147132354Y-117031853D01*
X146984784Y-117130456D01*
X146820812Y-117198376D01*
X146671512Y-117228073D01*
X146646742Y-117233000D01*
X146469258Y-117233000D01*
X146444488Y-117228073D01*
X146295188Y-117198376D01*
X146131216Y-117130456D01*
X145983646Y-117031853D01*
X145858147Y-116906354D01*
X145759544Y-116758784D01*
X145691624Y-116594812D01*
X145657000Y-116420741D01*
X145657000Y-116243259D01*
X145691624Y-116069188D01*
X145759544Y-115905216D01*
X145858147Y-115757646D01*
X145983646Y-115632147D01*
X146131216Y-115533544D01*
X146295188Y-115465624D01*
X146444488Y-115435927D01*
X146469258Y-115431000D01*
X146646742Y-115431000D01*
X146671512Y-115435927D01*
G37*
G36*
X151595766Y-114045899D02*
G01*
X151727888Y-114100626D01*
X151727890Y-114100627D01*
X151846798Y-114180079D01*
X151947921Y-114281202D01*
X151947922Y-114281204D01*
X152027374Y-114400112D01*
X152082101Y-114532234D01*
X152110000Y-114672494D01*
X152110000Y-114815506D01*
X152082101Y-114955766D01*
X152027374Y-115087888D01*
X152027373Y-115087890D01*
X151947921Y-115206798D01*
X151846798Y-115307921D01*
X151727890Y-115387373D01*
X151727889Y-115387374D01*
X151727888Y-115387374D01*
X151595766Y-115442101D01*
X151455506Y-115470000D01*
X151312494Y-115470000D01*
X151172234Y-115442101D01*
X151040112Y-115387374D01*
X151040111Y-115387374D01*
X151040110Y-115387373D01*
X150921202Y-115307921D01*
X150820079Y-115206798D01*
X150740627Y-115087890D01*
X150740626Y-115087888D01*
X150685899Y-114955766D01*
X150658000Y-114815506D01*
X150658000Y-114672494D01*
X150685899Y-114532234D01*
X150740626Y-114400112D01*
X150820078Y-114281204D01*
X150820079Y-114281202D01*
X150921202Y-114180079D01*
X151040110Y-114100627D01*
X151040112Y-114100626D01*
X151172234Y-114045899D01*
X151312494Y-114018000D01*
X151455506Y-114018000D01*
X151595766Y-114045899D01*
G37*
G36*
X153595766Y-114045899D02*
G01*
X153727888Y-114100626D01*
X153727890Y-114100627D01*
X153846798Y-114180079D01*
X153947921Y-114281202D01*
X153947922Y-114281204D01*
X154027374Y-114400112D01*
X154082101Y-114532234D01*
X154110000Y-114672494D01*
X154110000Y-114815506D01*
X154082101Y-114955766D01*
X154027374Y-115087888D01*
X154027373Y-115087890D01*
X153947921Y-115206798D01*
X153846798Y-115307921D01*
X153727890Y-115387373D01*
X153727889Y-115387374D01*
X153727888Y-115387374D01*
X153595766Y-115442101D01*
X153455506Y-115470000D01*
X153312494Y-115470000D01*
X153172234Y-115442101D01*
X153040112Y-115387374D01*
X153040111Y-115387374D01*
X153040110Y-115387373D01*
X152921202Y-115307921D01*
X152820079Y-115206798D01*
X152740627Y-115087890D01*
X152740626Y-115087888D01*
X152685899Y-114955766D01*
X152658000Y-114815506D01*
X152658000Y-114672494D01*
X152685899Y-114532234D01*
X152740626Y-114400112D01*
X152820078Y-114281204D01*
X152820079Y-114281202D01*
X152921202Y-114180079D01*
X153040110Y-114100627D01*
X153040112Y-114100626D01*
X153172234Y-114045899D01*
X153312494Y-114018000D01*
X153455506Y-114018000D01*
X153595766Y-114045899D01*
G37*
G36*
X146671512Y-112895927D02*
G01*
X146820812Y-112925624D01*
X146984784Y-112993544D01*
X147132354Y-113092147D01*
X147257853Y-113217646D01*
X147356456Y-113365216D01*
X147424376Y-113529188D01*
X147459000Y-113703259D01*
X147459000Y-113880741D01*
X147424376Y-114054812D01*
X147356456Y-114218784D01*
X147257853Y-114366354D01*
X147132354Y-114491853D01*
X146984784Y-114590456D01*
X146820812Y-114658376D01*
X146671512Y-114688073D01*
X146646742Y-114693000D01*
X146469258Y-114693000D01*
X146444488Y-114688073D01*
X146295188Y-114658376D01*
X146131216Y-114590456D01*
X145983646Y-114491853D01*
X145858147Y-114366354D01*
X145759544Y-114218784D01*
X145691624Y-114054812D01*
X145657000Y-113880741D01*
X145657000Y-113703259D01*
X145691624Y-113529188D01*
X145759544Y-113365216D01*
X145858147Y-113217646D01*
X145983646Y-113092147D01*
X146131216Y-112993544D01*
X146295188Y-112925624D01*
X146444488Y-112895927D01*
X146469258Y-112891000D01*
X146646742Y-112891000D01*
X146671512Y-112895927D01*
G37*
G36*
X123666000Y-113760000D02*
G01*
X122714000Y-113760000D01*
X122714000Y-112808000D01*
X123666000Y-112808000D01*
X123666000Y-113760000D01*
G37*
G36*
X153595766Y-112045899D02*
G01*
X153727888Y-112100626D01*
X153727890Y-112100627D01*
X153846798Y-112180079D01*
X153947921Y-112281202D01*
X153947922Y-112281204D01*
X154027374Y-112400112D01*
X154082101Y-112532234D01*
X154110000Y-112672494D01*
X154110000Y-112815506D01*
X154082101Y-112955766D01*
X154027374Y-113087888D01*
X154027373Y-113087890D01*
X153947921Y-113206798D01*
X153846798Y-113307921D01*
X153727890Y-113387373D01*
X153727889Y-113387374D01*
X153727888Y-113387374D01*
X153595766Y-113442101D01*
X153455506Y-113470000D01*
X153312494Y-113470000D01*
X153172234Y-113442101D01*
X153040112Y-113387374D01*
X153040111Y-113387374D01*
X153040110Y-113387373D01*
X152921202Y-113307921D01*
X152820079Y-113206798D01*
X152740627Y-113087890D01*
X152740626Y-113087888D01*
X152685899Y-112955766D01*
X152658000Y-112815506D01*
X152658000Y-112672494D01*
X152685899Y-112532234D01*
X152740626Y-112400112D01*
X152820078Y-112281204D01*
X152820079Y-112281202D01*
X152921202Y-112180079D01*
X153040110Y-112100627D01*
X153040112Y-112100626D01*
X153172234Y-112045899D01*
X153312494Y-112018000D01*
X153455506Y-112018000D01*
X153595766Y-112045899D01*
G37*
G36*
X151595766Y-112045899D02*
G01*
X151727888Y-112100626D01*
X151727890Y-112100627D01*
X151846798Y-112180079D01*
X151947921Y-112281202D01*
X151947922Y-112281204D01*
X152027374Y-112400112D01*
X152082101Y-112532234D01*
X152110000Y-112672494D01*
X152110000Y-112815506D01*
X152082101Y-112955766D01*
X152027374Y-113087888D01*
X152027373Y-113087890D01*
X151947921Y-113206798D01*
X151846798Y-113307921D01*
X151727890Y-113387373D01*
X151727889Y-113387374D01*
X151727888Y-113387374D01*
X151595766Y-113442101D01*
X151455506Y-113470000D01*
X151312494Y-113470000D01*
X151172234Y-113442101D01*
X151040112Y-113387374D01*
X151040111Y-113387374D01*
X151040110Y-113387373D01*
X150921202Y-113307921D01*
X150820079Y-113206798D01*
X150740627Y-113087890D01*
X150740626Y-113087888D01*
X150685899Y-112955766D01*
X150658000Y-112815506D01*
X150658000Y-112672494D01*
X150685899Y-112532234D01*
X150740626Y-112400112D01*
X150820078Y-112281204D01*
X150820079Y-112281202D01*
X150921202Y-112180079D01*
X151040110Y-112100627D01*
X151040112Y-112100626D01*
X151172234Y-112045899D01*
X151312494Y-112018000D01*
X151455506Y-112018000D01*
X151595766Y-112045899D01*
G37*
G36*
X147459000Y-112153000D02*
G01*
X145657000Y-112153000D01*
X145657000Y-110351000D01*
X147459000Y-110351000D01*
X147459000Y-112153000D01*
G37*
G36*
X153595766Y-110045899D02*
G01*
X153727888Y-110100626D01*
X153727890Y-110100627D01*
X153846798Y-110180079D01*
X153947921Y-110281202D01*
X154027373Y-110400110D01*
X154027374Y-110400112D01*
X154082101Y-110532234D01*
X154110000Y-110672494D01*
X154110000Y-110815506D01*
X154082101Y-110955766D01*
X154027374Y-111087888D01*
X154027373Y-111087890D01*
X153947921Y-111206798D01*
X153846798Y-111307921D01*
X153727890Y-111387373D01*
X153727889Y-111387374D01*
X153727888Y-111387374D01*
X153595766Y-111442101D01*
X153455506Y-111470000D01*
X153312494Y-111470000D01*
X153172234Y-111442101D01*
X153040112Y-111387374D01*
X153040111Y-111387374D01*
X153040110Y-111387373D01*
X152921202Y-111307921D01*
X152820079Y-111206798D01*
X152740627Y-111087890D01*
X152740626Y-111087888D01*
X152685899Y-110955766D01*
X152658000Y-110815506D01*
X152658000Y-110672494D01*
X152685899Y-110532234D01*
X152740626Y-110400112D01*
X152740627Y-110400110D01*
X152820079Y-110281202D01*
X152921202Y-110180079D01*
X153040110Y-110100627D01*
X153040112Y-110100626D01*
X153172234Y-110045899D01*
X153312494Y-110018000D01*
X153455506Y-110018000D01*
X153595766Y-110045899D01*
G37*
G36*
X152110000Y-111470000D02*
G01*
X150658000Y-111470000D01*
X150658000Y-110018000D01*
X152110000Y-110018000D01*
X152110000Y-111470000D01*
G37*
G36*
X151595766Y-104615899D02*
G01*
X151727888Y-104670626D01*
X151727890Y-104670627D01*
X151846798Y-104750079D01*
X151947921Y-104851202D01*
X151987751Y-104910812D01*
X152027374Y-104970112D01*
X152082101Y-105102234D01*
X152110000Y-105242494D01*
X152110000Y-105385506D01*
X152082101Y-105525766D01*
X152027374Y-105657888D01*
X152027373Y-105657890D01*
X151947921Y-105776798D01*
X151846798Y-105877921D01*
X151727890Y-105957373D01*
X151727889Y-105957374D01*
X151727888Y-105957374D01*
X151595766Y-106012101D01*
X151455506Y-106040000D01*
X151312494Y-106040000D01*
X151172234Y-106012101D01*
X151040112Y-105957374D01*
X151040111Y-105957374D01*
X151040110Y-105957373D01*
X150921202Y-105877921D01*
X150820079Y-105776798D01*
X150740627Y-105657890D01*
X150740626Y-105657888D01*
X150685899Y-105525766D01*
X150658000Y-105385506D01*
X150658000Y-105242494D01*
X150685899Y-105102234D01*
X150740626Y-104970112D01*
X150780249Y-104910812D01*
X150820079Y-104851202D01*
X150921202Y-104750079D01*
X151040110Y-104670627D01*
X151040112Y-104670626D01*
X151172234Y-104615899D01*
X151312494Y-104588000D01*
X151455506Y-104588000D01*
X151595766Y-104615899D01*
G37*
G36*
X153595766Y-104615899D02*
G01*
X153727888Y-104670626D01*
X153727890Y-104670627D01*
X153846798Y-104750079D01*
X153947921Y-104851202D01*
X153987751Y-104910812D01*
X154027374Y-104970112D01*
X154082101Y-105102234D01*
X154110000Y-105242494D01*
X154110000Y-105385506D01*
X154082101Y-105525766D01*
X154027374Y-105657888D01*
X154027373Y-105657890D01*
X153947921Y-105776798D01*
X153846798Y-105877921D01*
X153727890Y-105957373D01*
X153727889Y-105957374D01*
X153727888Y-105957374D01*
X153595766Y-106012101D01*
X153455506Y-106040000D01*
X153312494Y-106040000D01*
X153172234Y-106012101D01*
X153040112Y-105957374D01*
X153040111Y-105957374D01*
X153040110Y-105957373D01*
X152921202Y-105877921D01*
X152820079Y-105776798D01*
X152740627Y-105657890D01*
X152740626Y-105657888D01*
X152685899Y-105525766D01*
X152658000Y-105385506D01*
X152658000Y-105242494D01*
X152685899Y-105102234D01*
X152740626Y-104970112D01*
X152780249Y-104910812D01*
X152820079Y-104851202D01*
X152921202Y-104750079D01*
X153040110Y-104670627D01*
X153040112Y-104670626D01*
X153172234Y-104615899D01*
X153312494Y-104588000D01*
X153455506Y-104588000D01*
X153595766Y-104615899D01*
G37*
G36*
X129508000Y-105886000D02*
G01*
X128556000Y-105886000D01*
X128556000Y-104934000D01*
X129508000Y-104934000D01*
X129508000Y-105886000D01*
G37*
G36*
X146671512Y-103751927D02*
G01*
X146820812Y-103781624D01*
X146984784Y-103849544D01*
X147132354Y-103948147D01*
X147257853Y-104073646D01*
X147356456Y-104221216D01*
X147424376Y-104385188D01*
X147459000Y-104559259D01*
X147459000Y-104736741D01*
X147424376Y-104910812D01*
X147356456Y-105074784D01*
X147257853Y-105222354D01*
X147132354Y-105347853D01*
X146984784Y-105446456D01*
X146820812Y-105514376D01*
X146671512Y-105544073D01*
X146646742Y-105549000D01*
X146469258Y-105549000D01*
X146444488Y-105544073D01*
X146295188Y-105514376D01*
X146131216Y-105446456D01*
X145983646Y-105347853D01*
X145858147Y-105222354D01*
X145759544Y-105074784D01*
X145691624Y-104910812D01*
X145657000Y-104736741D01*
X145657000Y-104559259D01*
X145691624Y-104385188D01*
X145759544Y-104221216D01*
X145858147Y-104073646D01*
X145983646Y-103948147D01*
X146131216Y-103849544D01*
X146295188Y-103781624D01*
X146444488Y-103751927D01*
X146469258Y-103747000D01*
X146646742Y-103747000D01*
X146671512Y-103751927D01*
G37*
G36*
X151595766Y-102615899D02*
G01*
X151727888Y-102670626D01*
X151727890Y-102670627D01*
X151846798Y-102750079D01*
X151947921Y-102851202D01*
X152027373Y-102970110D01*
X152027374Y-102970112D01*
X152082101Y-103102234D01*
X152110000Y-103242494D01*
X152110000Y-103385506D01*
X152082101Y-103525766D01*
X152027374Y-103657888D01*
X152027373Y-103657890D01*
X151947921Y-103776798D01*
X151846798Y-103877921D01*
X151727890Y-103957373D01*
X151727889Y-103957374D01*
X151727888Y-103957374D01*
X151595766Y-104012101D01*
X151455506Y-104040000D01*
X151312494Y-104040000D01*
X151172234Y-104012101D01*
X151040112Y-103957374D01*
X151040111Y-103957374D01*
X151040110Y-103957373D01*
X150921202Y-103877921D01*
X150820079Y-103776798D01*
X150740627Y-103657890D01*
X150740626Y-103657888D01*
X150685899Y-103525766D01*
X150658000Y-103385506D01*
X150658000Y-103242494D01*
X150685899Y-103102234D01*
X150740626Y-102970112D01*
X150740627Y-102970110D01*
X150820079Y-102851202D01*
X150921202Y-102750079D01*
X151040110Y-102670627D01*
X151040112Y-102670626D01*
X151172234Y-102615899D01*
X151312494Y-102588000D01*
X151455506Y-102588000D01*
X151595766Y-102615899D01*
G37*
G36*
X153595766Y-102615899D02*
G01*
X153727888Y-102670626D01*
X153727890Y-102670627D01*
X153846798Y-102750079D01*
X153947921Y-102851202D01*
X154027373Y-102970110D01*
X154027374Y-102970112D01*
X154082101Y-103102234D01*
X154110000Y-103242494D01*
X154110000Y-103385506D01*
X154082101Y-103525766D01*
X154027374Y-103657888D01*
X154027373Y-103657890D01*
X153947921Y-103776798D01*
X153846798Y-103877921D01*
X153727890Y-103957373D01*
X153727889Y-103957374D01*
X153727888Y-103957374D01*
X153595766Y-104012101D01*
X153455506Y-104040000D01*
X153312494Y-104040000D01*
X153172234Y-104012101D01*
X153040112Y-103957374D01*
X153040111Y-103957374D01*
X153040110Y-103957373D01*
X152921202Y-103877921D01*
X152820079Y-103776798D01*
X152740627Y-103657890D01*
X152740626Y-103657888D01*
X152685899Y-103525766D01*
X152658000Y-103385506D01*
X152658000Y-103242494D01*
X152685899Y-103102234D01*
X152740626Y-102970112D01*
X152740627Y-102970110D01*
X152820079Y-102851202D01*
X152921202Y-102750079D01*
X153040110Y-102670627D01*
X153040112Y-102670626D01*
X153172234Y-102615899D01*
X153312494Y-102588000D01*
X153455506Y-102588000D01*
X153595766Y-102615899D01*
G37*
G36*
X146671512Y-101211927D02*
G01*
X146820812Y-101241624D01*
X146984784Y-101309544D01*
X147132354Y-101408147D01*
X147257853Y-101533646D01*
X147356456Y-101681216D01*
X147424376Y-101845188D01*
X147459000Y-102019259D01*
X147459000Y-102196741D01*
X147424376Y-102370812D01*
X147356456Y-102534784D01*
X147257853Y-102682354D01*
X147132354Y-102807853D01*
X146984784Y-102906456D01*
X146820812Y-102974376D01*
X146671512Y-103004073D01*
X146646742Y-103009000D01*
X146469258Y-103009000D01*
X146444488Y-103004073D01*
X146295188Y-102974376D01*
X146131216Y-102906456D01*
X145983646Y-102807853D01*
X145858147Y-102682354D01*
X145759544Y-102534784D01*
X145691624Y-102370812D01*
X145657000Y-102196741D01*
X145657000Y-102019259D01*
X145691624Y-101845188D01*
X145759544Y-101681216D01*
X145858147Y-101533646D01*
X145983646Y-101408147D01*
X146131216Y-101309544D01*
X146295188Y-101241624D01*
X146444488Y-101211927D01*
X146469258Y-101207000D01*
X146646742Y-101207000D01*
X146671512Y-101211927D01*
G37*
G36*
X153595766Y-100615899D02*
G01*
X153727888Y-100670626D01*
X153727890Y-100670627D01*
X153846798Y-100750079D01*
X153947921Y-100851202D01*
X153947922Y-100851204D01*
X154027374Y-100970112D01*
X154082101Y-101102234D01*
X154110000Y-101242494D01*
X154110000Y-101385506D01*
X154082101Y-101525766D01*
X154027374Y-101657888D01*
X154027373Y-101657890D01*
X153947921Y-101776798D01*
X153846798Y-101877921D01*
X153727890Y-101957373D01*
X153727889Y-101957374D01*
X153727888Y-101957374D01*
X153595766Y-102012101D01*
X153455506Y-102040000D01*
X153312494Y-102040000D01*
X153172234Y-102012101D01*
X153040112Y-101957374D01*
X153040111Y-101957374D01*
X153040110Y-101957373D01*
X152921202Y-101877921D01*
X152820079Y-101776798D01*
X152740627Y-101657890D01*
X152740626Y-101657888D01*
X152685899Y-101525766D01*
X152658000Y-101385506D01*
X152658000Y-101242494D01*
X152685899Y-101102234D01*
X152740626Y-100970112D01*
X152820078Y-100851204D01*
X152820079Y-100851202D01*
X152921202Y-100750079D01*
X153040110Y-100670627D01*
X153040112Y-100670626D01*
X153172234Y-100615899D01*
X153312494Y-100588000D01*
X153455506Y-100588000D01*
X153595766Y-100615899D01*
G37*
G36*
X151595766Y-100615899D02*
G01*
X151727888Y-100670626D01*
X151727890Y-100670627D01*
X151846798Y-100750079D01*
X151947921Y-100851202D01*
X151947922Y-100851204D01*
X152027374Y-100970112D01*
X152082101Y-101102234D01*
X152110000Y-101242494D01*
X152110000Y-101385506D01*
X152082101Y-101525766D01*
X152027374Y-101657888D01*
X152027373Y-101657890D01*
X151947921Y-101776798D01*
X151846798Y-101877921D01*
X151727890Y-101957373D01*
X151727889Y-101957374D01*
X151727888Y-101957374D01*
X151595766Y-102012101D01*
X151455506Y-102040000D01*
X151312494Y-102040000D01*
X151172234Y-102012101D01*
X151040112Y-101957374D01*
X151040111Y-101957374D01*
X151040110Y-101957373D01*
X150921202Y-101877921D01*
X150820079Y-101776798D01*
X150740627Y-101657890D01*
X150740626Y-101657888D01*
X150685899Y-101525766D01*
X150658000Y-101385506D01*
X150658000Y-101242494D01*
X150685899Y-101102234D01*
X150740626Y-100970112D01*
X150820078Y-100851204D01*
X150820079Y-100851202D01*
X150921202Y-100750079D01*
X151040110Y-100670627D01*
X151040112Y-100670626D01*
X151172234Y-100615899D01*
X151312494Y-100588000D01*
X151455506Y-100588000D01*
X151595766Y-100615899D01*
G37*
G36*
X147459000Y-100469000D02*
G01*
X145657000Y-100469000D01*
X145657000Y-98667000D01*
X147459000Y-98667000D01*
X147459000Y-100469000D01*
G37*
G36*
X152110000Y-100040000D02*
G01*
X150658000Y-100040000D01*
X150658000Y-98588000D01*
X152110000Y-98588000D01*
X152110000Y-100040000D01*
G37*
G36*
X153595766Y-98615899D02*
G01*
X153719134Y-98667000D01*
X153727890Y-98670627D01*
X153846798Y-98750079D01*
X153947921Y-98851202D01*
X153947922Y-98851204D01*
X154027374Y-98970112D01*
X154082101Y-99102234D01*
X154110000Y-99242494D01*
X154110000Y-99385506D01*
X154082101Y-99525766D01*
X154027374Y-99657888D01*
X154027373Y-99657890D01*
X153947921Y-99776798D01*
X153846798Y-99877921D01*
X153727890Y-99957373D01*
X153727889Y-99957374D01*
X153727888Y-99957374D01*
X153595766Y-100012101D01*
X153455506Y-100040000D01*
X153312494Y-100040000D01*
X153172234Y-100012101D01*
X153040112Y-99957374D01*
X153040111Y-99957374D01*
X153040110Y-99957373D01*
X152921202Y-99877921D01*
X152820079Y-99776798D01*
X152740627Y-99657890D01*
X152740626Y-99657888D01*
X152685899Y-99525766D01*
X152658000Y-99385506D01*
X152658000Y-99242494D01*
X152685899Y-99102234D01*
X152740626Y-98970112D01*
X152820078Y-98851204D01*
X152820079Y-98851202D01*
X152921202Y-98750079D01*
X153040110Y-98670627D01*
X153048866Y-98667000D01*
X153172234Y-98615899D01*
X153312494Y-98588000D01*
X153455506Y-98588000D01*
X153595766Y-98615899D01*
G37*
G36*
X156585256Y-93387298D02*
G01*
X156691579Y-93408447D01*
X156992042Y-93532903D01*
X157262451Y-93713585D01*
X157492415Y-93943549D01*
X157673097Y-94213958D01*
X157797553Y-94514421D01*
X157861000Y-94833391D01*
X157861000Y-95158609D01*
X157797553Y-95477579D01*
X157673097Y-95778042D01*
X157492415Y-96048451D01*
X157262451Y-96278415D01*
X156992042Y-96459097D01*
X156691579Y-96583553D01*
X156585256Y-96604702D01*
X156372611Y-96647000D01*
X156047389Y-96647000D01*
X155834744Y-96604702D01*
X155728421Y-96583553D01*
X155427958Y-96459097D01*
X155157549Y-96278415D01*
X154927585Y-96048451D01*
X154746903Y-95778042D01*
X154622447Y-95477579D01*
X154559000Y-95158609D01*
X154559000Y-94833391D01*
X154622447Y-94514421D01*
X154746903Y-94213958D01*
X154927585Y-93943549D01*
X155157549Y-93713585D01*
X155427958Y-93532903D01*
X155728421Y-93408447D01*
X155834744Y-93387298D01*
X156047389Y-93345000D01*
X156372611Y-93345000D01*
X156585256Y-93387298D01*
G37*
G36*
X132727000Y-83451000D02*
G01*
X130925000Y-83451000D01*
X130925000Y-81649000D01*
X132727000Y-81649000D01*
X132727000Y-83451000D01*
G37*
G36*
X121779512Y-81653927D02*
G01*
X121928812Y-81683624D01*
X122092784Y-81751544D01*
X122240354Y-81850147D01*
X122365853Y-81975646D01*
X122464456Y-82123216D01*
X122532376Y-82287188D01*
X122567000Y-82461259D01*
X122567000Y-82638741D01*
X122532376Y-82812812D01*
X122464456Y-82976784D01*
X122365853Y-83124354D01*
X122240354Y-83249853D01*
X122092784Y-83348456D01*
X121928812Y-83416376D01*
X121779512Y-83446073D01*
X121754742Y-83451000D01*
X121577258Y-83451000D01*
X121552488Y-83446073D01*
X121403188Y-83416376D01*
X121239216Y-83348456D01*
X121091646Y-83249853D01*
X120966147Y-83124354D01*
X120867544Y-82976784D01*
X120799624Y-82812812D01*
X120765000Y-82638741D01*
X120765000Y-82461259D01*
X120799624Y-82287188D01*
X120867544Y-82123216D01*
X120966147Y-81975646D01*
X121091646Y-81850147D01*
X121239216Y-81751544D01*
X121403188Y-81683624D01*
X121552488Y-81653927D01*
X121577258Y-81649000D01*
X121754742Y-81649000D01*
X121779512Y-81653927D01*
G37*
G36*
X109079512Y-81653927D02*
G01*
X109228812Y-81683624D01*
X109392784Y-81751544D01*
X109540354Y-81850147D01*
X109665853Y-81975646D01*
X109764456Y-82123216D01*
X109832376Y-82287188D01*
X109867000Y-82461259D01*
X109867000Y-82638741D01*
X109832376Y-82812812D01*
X109764456Y-82976784D01*
X109665853Y-83124354D01*
X109540354Y-83249853D01*
X109392784Y-83348456D01*
X109228812Y-83416376D01*
X109079512Y-83446073D01*
X109054742Y-83451000D01*
X108877258Y-83451000D01*
X108852488Y-83446073D01*
X108703188Y-83416376D01*
X108539216Y-83348456D01*
X108391646Y-83249853D01*
X108266147Y-83124354D01*
X108167544Y-82976784D01*
X108099624Y-82812812D01*
X108065000Y-82638741D01*
X108065000Y-82461259D01*
X108099624Y-82287188D01*
X108167544Y-82123216D01*
X108266147Y-81975646D01*
X108391646Y-81850147D01*
X108539216Y-81751544D01*
X108703188Y-81683624D01*
X108852488Y-81653927D01*
X108877258Y-81649000D01*
X109054742Y-81649000D01*
X109079512Y-81653927D01*
G37*
G36*
X129399512Y-81653927D02*
G01*
X129548812Y-81683624D01*
X129712784Y-81751544D01*
X129860354Y-81850147D01*
X129985853Y-81975646D01*
X130084456Y-82123216D01*
X130152376Y-82287188D01*
X130187000Y-82461259D01*
X130187000Y-82638741D01*
X130152376Y-82812812D01*
X130084456Y-82976784D01*
X129985853Y-83124354D01*
X129860354Y-83249853D01*
X129712784Y-83348456D01*
X129548812Y-83416376D01*
X129399512Y-83446073D01*
X129374742Y-83451000D01*
X129197258Y-83451000D01*
X129172488Y-83446073D01*
X129023188Y-83416376D01*
X128859216Y-83348456D01*
X128711646Y-83249853D01*
X128586147Y-83124354D01*
X128487544Y-82976784D01*
X128419624Y-82812812D01*
X128385000Y-82638741D01*
X128385000Y-82461259D01*
X128419624Y-82287188D01*
X128487544Y-82123216D01*
X128586147Y-81975646D01*
X128711646Y-81850147D01*
X128859216Y-81751544D01*
X129023188Y-81683624D01*
X129172488Y-81653927D01*
X129197258Y-81649000D01*
X129374742Y-81649000D01*
X129399512Y-81653927D01*
G37*
G36*
X126859512Y-81653927D02*
G01*
X127008812Y-81683624D01*
X127172784Y-81751544D01*
X127320354Y-81850147D01*
X127445853Y-81975646D01*
X127544456Y-82123216D01*
X127612376Y-82287188D01*
X127647000Y-82461259D01*
X127647000Y-82638741D01*
X127612376Y-82812812D01*
X127544456Y-82976784D01*
X127445853Y-83124354D01*
X127320354Y-83249853D01*
X127172784Y-83348456D01*
X127008812Y-83416376D01*
X126859512Y-83446073D01*
X126834742Y-83451000D01*
X126657258Y-83451000D01*
X126632488Y-83446073D01*
X126483188Y-83416376D01*
X126319216Y-83348456D01*
X126171646Y-83249853D01*
X126046147Y-83124354D01*
X125947544Y-82976784D01*
X125879624Y-82812812D01*
X125845000Y-82638741D01*
X125845000Y-82461259D01*
X125879624Y-82287188D01*
X125947544Y-82123216D01*
X126046147Y-81975646D01*
X126171646Y-81850147D01*
X126319216Y-81751544D01*
X126483188Y-81683624D01*
X126632488Y-81653927D01*
X126657258Y-81649000D01*
X126834742Y-81649000D01*
X126859512Y-81653927D01*
G37*
G36*
X124319512Y-81653927D02*
G01*
X124468812Y-81683624D01*
X124632784Y-81751544D01*
X124780354Y-81850147D01*
X124905853Y-81975646D01*
X125004456Y-82123216D01*
X125072376Y-82287188D01*
X125107000Y-82461259D01*
X125107000Y-82638741D01*
X125072376Y-82812812D01*
X125004456Y-82976784D01*
X124905853Y-83124354D01*
X124780354Y-83249853D01*
X124632784Y-83348456D01*
X124468812Y-83416376D01*
X124319512Y-83446073D01*
X124294742Y-83451000D01*
X124117258Y-83451000D01*
X124092488Y-83446073D01*
X123943188Y-83416376D01*
X123779216Y-83348456D01*
X123631646Y-83249853D01*
X123506147Y-83124354D01*
X123407544Y-82976784D01*
X123339624Y-82812812D01*
X123305000Y-82638741D01*
X123305000Y-82461259D01*
X123339624Y-82287188D01*
X123407544Y-82123216D01*
X123506147Y-81975646D01*
X123631646Y-81850147D01*
X123779216Y-81751544D01*
X123943188Y-81683624D01*
X124092488Y-81653927D01*
X124117258Y-81649000D01*
X124294742Y-81649000D01*
X124319512Y-81653927D01*
G37*
G36*
X119239512Y-81653927D02*
G01*
X119388812Y-81683624D01*
X119552784Y-81751544D01*
X119700354Y-81850147D01*
X119825853Y-81975646D01*
X119924456Y-82123216D01*
X119992376Y-82287188D01*
X120027000Y-82461259D01*
X120027000Y-82638741D01*
X119992376Y-82812812D01*
X119924456Y-82976784D01*
X119825853Y-83124354D01*
X119700354Y-83249853D01*
X119552784Y-83348456D01*
X119388812Y-83416376D01*
X119239512Y-83446073D01*
X119214742Y-83451000D01*
X119037258Y-83451000D01*
X119012488Y-83446073D01*
X118863188Y-83416376D01*
X118699216Y-83348456D01*
X118551646Y-83249853D01*
X118426147Y-83124354D01*
X118327544Y-82976784D01*
X118259624Y-82812812D01*
X118225000Y-82638741D01*
X118225000Y-82461259D01*
X118259624Y-82287188D01*
X118327544Y-82123216D01*
X118426147Y-81975646D01*
X118551646Y-81850147D01*
X118699216Y-81751544D01*
X118863188Y-81683624D01*
X119012488Y-81653927D01*
X119037258Y-81649000D01*
X119214742Y-81649000D01*
X119239512Y-81653927D01*
G37*
G36*
X116699512Y-81653927D02*
G01*
X116848812Y-81683624D01*
X117012784Y-81751544D01*
X117160354Y-81850147D01*
X117285853Y-81975646D01*
X117384456Y-82123216D01*
X117452376Y-82287188D01*
X117487000Y-82461259D01*
X117487000Y-82638741D01*
X117452376Y-82812812D01*
X117384456Y-82976784D01*
X117285853Y-83124354D01*
X117160354Y-83249853D01*
X117012784Y-83348456D01*
X116848812Y-83416376D01*
X116699512Y-83446073D01*
X116674742Y-83451000D01*
X116497258Y-83451000D01*
X116472488Y-83446073D01*
X116323188Y-83416376D01*
X116159216Y-83348456D01*
X116011646Y-83249853D01*
X115886147Y-83124354D01*
X115787544Y-82976784D01*
X115719624Y-82812812D01*
X115685000Y-82638741D01*
X115685000Y-82461259D01*
X115719624Y-82287188D01*
X115787544Y-82123216D01*
X115886147Y-81975646D01*
X116011646Y-81850147D01*
X116159216Y-81751544D01*
X116323188Y-81683624D01*
X116472488Y-81653927D01*
X116497258Y-81649000D01*
X116674742Y-81649000D01*
X116699512Y-81653927D01*
G37*
G36*
X111619512Y-81653927D02*
G01*
X111768812Y-81683624D01*
X111932784Y-81751544D01*
X112080354Y-81850147D01*
X112205853Y-81975646D01*
X112304456Y-82123216D01*
X112372376Y-82287188D01*
X112407000Y-82461259D01*
X112407000Y-82638741D01*
X112372376Y-82812812D01*
X112304456Y-82976784D01*
X112205853Y-83124354D01*
X112080354Y-83249853D01*
X111932784Y-83348456D01*
X111768812Y-83416376D01*
X111619512Y-83446073D01*
X111594742Y-83451000D01*
X111417258Y-83451000D01*
X111392488Y-83446073D01*
X111243188Y-83416376D01*
X111079216Y-83348456D01*
X110931646Y-83249853D01*
X110806147Y-83124354D01*
X110707544Y-82976784D01*
X110639624Y-82812812D01*
X110605000Y-82638741D01*
X110605000Y-82461259D01*
X110639624Y-82287188D01*
X110707544Y-82123216D01*
X110806147Y-81975646D01*
X110931646Y-81850147D01*
X111079216Y-81751544D01*
X111243188Y-81683624D01*
X111392488Y-81653927D01*
X111417258Y-81649000D01*
X111594742Y-81649000D01*
X111619512Y-81653927D01*
G37*
G36*
X138543512Y-81653927D02*
G01*
X138692812Y-81683624D01*
X138856784Y-81751544D01*
X139004354Y-81850147D01*
X139129853Y-81975646D01*
X139228456Y-82123216D01*
X139296376Y-82287188D01*
X139331000Y-82461259D01*
X139331000Y-82638741D01*
X139296376Y-82812812D01*
X139228456Y-82976784D01*
X139129853Y-83124354D01*
X139004354Y-83249853D01*
X138856784Y-83348456D01*
X138692812Y-83416376D01*
X138543512Y-83446073D01*
X138518742Y-83451000D01*
X138341258Y-83451000D01*
X138316488Y-83446073D01*
X138167188Y-83416376D01*
X138003216Y-83348456D01*
X137855646Y-83249853D01*
X137730147Y-83124354D01*
X137631544Y-82976784D01*
X137563624Y-82812812D01*
X137529000Y-82638741D01*
X137529000Y-82461259D01*
X137563624Y-82287188D01*
X137631544Y-82123216D01*
X137730147Y-81975646D01*
X137855646Y-81850147D01*
X138003216Y-81751544D01*
X138167188Y-81683624D01*
X138316488Y-81653927D01*
X138341258Y-81649000D01*
X138518742Y-81649000D01*
X138543512Y-81653927D01*
G37*
G36*
X141083512Y-81653927D02*
G01*
X141232812Y-81683624D01*
X141396784Y-81751544D01*
X141544354Y-81850147D01*
X141669853Y-81975646D01*
X141768456Y-82123216D01*
X141836376Y-82287188D01*
X141871000Y-82461259D01*
X141871000Y-82638741D01*
X141836376Y-82812812D01*
X141768456Y-82976784D01*
X141669853Y-83124354D01*
X141544354Y-83249853D01*
X141396784Y-83348456D01*
X141232812Y-83416376D01*
X141083512Y-83446073D01*
X141058742Y-83451000D01*
X140881258Y-83451000D01*
X140856488Y-83446073D01*
X140707188Y-83416376D01*
X140543216Y-83348456D01*
X140395646Y-83249853D01*
X140270147Y-83124354D01*
X140171544Y-82976784D01*
X140103624Y-82812812D01*
X140069000Y-82638741D01*
X140069000Y-82461259D01*
X140103624Y-82287188D01*
X140171544Y-82123216D01*
X140270147Y-81975646D01*
X140395646Y-81850147D01*
X140543216Y-81751544D01*
X140707188Y-81683624D01*
X140856488Y-81653927D01*
X140881258Y-81649000D01*
X141058742Y-81649000D01*
X141083512Y-81653927D01*
G37*
G36*
X143623512Y-81653927D02*
G01*
X143772812Y-81683624D01*
X143936784Y-81751544D01*
X144084354Y-81850147D01*
X144209853Y-81975646D01*
X144308456Y-82123216D01*
X144376376Y-82287188D01*
X144411000Y-82461259D01*
X144411000Y-82638741D01*
X144376376Y-82812812D01*
X144308456Y-82976784D01*
X144209853Y-83124354D01*
X144084354Y-83249853D01*
X143936784Y-83348456D01*
X143772812Y-83416376D01*
X143623512Y-83446073D01*
X143598742Y-83451000D01*
X143421258Y-83451000D01*
X143396488Y-83446073D01*
X143247188Y-83416376D01*
X143083216Y-83348456D01*
X142935646Y-83249853D01*
X142810147Y-83124354D01*
X142711544Y-82976784D01*
X142643624Y-82812812D01*
X142609000Y-82638741D01*
X142609000Y-82461259D01*
X142643624Y-82287188D01*
X142711544Y-82123216D01*
X142810147Y-81975646D01*
X142935646Y-81850147D01*
X143083216Y-81751544D01*
X143247188Y-81683624D01*
X143396488Y-81653927D01*
X143421258Y-81649000D01*
X143598742Y-81649000D01*
X143623512Y-81653927D01*
G37*
G36*
X146163512Y-81653927D02*
G01*
X146312812Y-81683624D01*
X146476784Y-81751544D01*
X146624354Y-81850147D01*
X146749853Y-81975646D01*
X146848456Y-82123216D01*
X146916376Y-82287188D01*
X146951000Y-82461259D01*
X146951000Y-82638741D01*
X146916376Y-82812812D01*
X146848456Y-82976784D01*
X146749853Y-83124354D01*
X146624354Y-83249853D01*
X146476784Y-83348456D01*
X146312812Y-83416376D01*
X146163512Y-83446073D01*
X146138742Y-83451000D01*
X145961258Y-83451000D01*
X145936488Y-83446073D01*
X145787188Y-83416376D01*
X145623216Y-83348456D01*
X145475646Y-83249853D01*
X145350147Y-83124354D01*
X145251544Y-82976784D01*
X145183624Y-82812812D01*
X145149000Y-82638741D01*
X145149000Y-82461259D01*
X145183624Y-82287188D01*
X145251544Y-82123216D01*
X145350147Y-81975646D01*
X145475646Y-81850147D01*
X145623216Y-81751544D01*
X145787188Y-81683624D01*
X145936488Y-81653927D01*
X145961258Y-81649000D01*
X146138742Y-81649000D01*
X146163512Y-81653927D01*
G37*
G36*
X148703512Y-81653927D02*
G01*
X148852812Y-81683624D01*
X149016784Y-81751544D01*
X149164354Y-81850147D01*
X149289853Y-81975646D01*
X149388456Y-82123216D01*
X149456376Y-82287188D01*
X149491000Y-82461259D01*
X149491000Y-82638741D01*
X149456376Y-82812812D01*
X149388456Y-82976784D01*
X149289853Y-83124354D01*
X149164354Y-83249853D01*
X149016784Y-83348456D01*
X148852812Y-83416376D01*
X148703512Y-83446073D01*
X148678742Y-83451000D01*
X148501258Y-83451000D01*
X148476488Y-83446073D01*
X148327188Y-83416376D01*
X148163216Y-83348456D01*
X148015646Y-83249853D01*
X147890147Y-83124354D01*
X147791544Y-82976784D01*
X147723624Y-82812812D01*
X147689000Y-82638741D01*
X147689000Y-82461259D01*
X147723624Y-82287188D01*
X147791544Y-82123216D01*
X147890147Y-81975646D01*
X148015646Y-81850147D01*
X148163216Y-81751544D01*
X148327188Y-81683624D01*
X148476488Y-81653927D01*
X148501258Y-81649000D01*
X148678742Y-81649000D01*
X148703512Y-81653927D01*
G37*
G36*
X151243512Y-81653927D02*
G01*
X151392812Y-81683624D01*
X151556784Y-81751544D01*
X151704354Y-81850147D01*
X151829853Y-81975646D01*
X151928456Y-82123216D01*
X151996376Y-82287188D01*
X152031000Y-82461259D01*
X152031000Y-82638741D01*
X151996376Y-82812812D01*
X151928456Y-82976784D01*
X151829853Y-83124354D01*
X151704354Y-83249853D01*
X151556784Y-83348456D01*
X151392812Y-83416376D01*
X151243512Y-83446073D01*
X151218742Y-83451000D01*
X151041258Y-83451000D01*
X151016488Y-83446073D01*
X150867188Y-83416376D01*
X150703216Y-83348456D01*
X150555646Y-83249853D01*
X150430147Y-83124354D01*
X150331544Y-82976784D01*
X150263624Y-82812812D01*
X150229000Y-82638741D01*
X150229000Y-82461259D01*
X150263624Y-82287188D01*
X150331544Y-82123216D01*
X150430147Y-81975646D01*
X150555646Y-81850147D01*
X150703216Y-81751544D01*
X150867188Y-81683624D01*
X151016488Y-81653927D01*
X151041258Y-81649000D01*
X151218742Y-81649000D01*
X151243512Y-81653927D01*
G37*
G36*
X154571000Y-83451000D02*
G01*
X152769000Y-83451000D01*
X152769000Y-81649000D01*
X154571000Y-81649000D01*
X154571000Y-83451000D01*
G37*
G36*
X114159512Y-81653927D02*
G01*
X114308812Y-81683624D01*
X114472784Y-81751544D01*
X114620354Y-81850147D01*
X114745853Y-81975646D01*
X114844456Y-82123216D01*
X114912376Y-82287188D01*
X114947000Y-82461259D01*
X114947000Y-82638741D01*
X114912376Y-82812812D01*
X114844456Y-82976784D01*
X114745853Y-83124354D01*
X114620354Y-83249853D01*
X114472784Y-83348456D01*
X114308812Y-83416376D01*
X114159512Y-83446073D01*
X114134742Y-83451000D01*
X113957258Y-83451000D01*
X113932488Y-83446073D01*
X113783188Y-83416376D01*
X113619216Y-83348456D01*
X113471646Y-83249853D01*
X113346147Y-83124354D01*
X113247544Y-82976784D01*
X113179624Y-82812812D01*
X113145000Y-82638741D01*
X113145000Y-82461259D01*
X113179624Y-82287188D01*
X113247544Y-82123216D01*
X113346147Y-81975646D01*
X113471646Y-81850147D01*
X113619216Y-81751544D01*
X113783188Y-81683624D01*
X113932488Y-81653927D01*
X113957258Y-81649000D01*
X114134742Y-81649000D01*
X114159512Y-81653927D01*
G37*
G36*
X136003512Y-81653927D02*
G01*
X136152812Y-81683624D01*
X136316784Y-81751544D01*
X136464354Y-81850147D01*
X136589853Y-81975646D01*
X136688456Y-82123216D01*
X136756376Y-82287188D01*
X136791000Y-82461259D01*
X136791000Y-82638741D01*
X136756376Y-82812812D01*
X136688456Y-82976784D01*
X136589853Y-83124354D01*
X136464354Y-83249853D01*
X136316784Y-83348456D01*
X136152812Y-83416376D01*
X136003512Y-83446073D01*
X135978742Y-83451000D01*
X135801258Y-83451000D01*
X135776488Y-83446073D01*
X135627188Y-83416376D01*
X135463216Y-83348456D01*
X135315646Y-83249853D01*
X135190147Y-83124354D01*
X135091544Y-82976784D01*
X135023624Y-82812812D01*
X134989000Y-82638741D01*
X134989000Y-82461259D01*
X135023624Y-82287188D01*
X135091544Y-82123216D01*
X135190147Y-81975646D01*
X135315646Y-81850147D01*
X135463216Y-81751544D01*
X135627188Y-81683624D01*
X135776488Y-81653927D01*
X135801258Y-81649000D01*
X135978742Y-81649000D01*
X136003512Y-81653927D01*
G37*
G36*
X105785256Y-78147298D02*
G01*
X105891579Y-78168447D01*
X106192042Y-78292903D01*
X106462451Y-78473585D01*
X106692415Y-78703549D01*
X106873097Y-78973958D01*
X106972327Y-79213519D01*
X106997553Y-79274422D01*
X107061000Y-79593389D01*
X107061000Y-79918611D01*
X107043969Y-80004229D01*
X106997553Y-80237579D01*
X106873097Y-80538042D01*
X106692415Y-80808451D01*
X106462451Y-81038415D01*
X106192042Y-81219097D01*
X105891579Y-81343553D01*
X105785256Y-81364702D01*
X105572611Y-81407000D01*
X105247389Y-81407000D01*
X105034744Y-81364702D01*
X104928421Y-81343553D01*
X104627958Y-81219097D01*
X104357549Y-81038415D01*
X104127585Y-80808451D01*
X103946903Y-80538042D01*
X103822447Y-80237579D01*
X103776031Y-80004229D01*
X103759000Y-79918611D01*
X103759000Y-79593389D01*
X103822447Y-79274422D01*
X103847674Y-79213519D01*
X103946903Y-78973958D01*
X104127585Y-78703549D01*
X104357549Y-78473585D01*
X104627958Y-78292903D01*
X104928421Y-78168447D01*
X105034744Y-78147298D01*
X105247389Y-78105000D01*
X105572611Y-78105000D01*
X105785256Y-78147298D01*
G37*
G36*
X121918228Y-78937703D02*
G01*
X122073100Y-79001853D01*
X122212481Y-79094985D01*
X122331015Y-79213519D01*
X122424147Y-79352900D01*
X122488297Y-79507772D01*
X122521000Y-79672184D01*
X122521000Y-79839816D01*
X122488297Y-80004228D01*
X122424147Y-80159100D01*
X122331015Y-80298481D01*
X122212481Y-80417015D01*
X122073100Y-80510147D01*
X121918228Y-80574297D01*
X121753816Y-80607000D01*
X121586184Y-80607000D01*
X121421772Y-80574297D01*
X121266900Y-80510147D01*
X121127519Y-80417015D01*
X121008985Y-80298481D01*
X120915853Y-80159100D01*
X120851703Y-80004228D01*
X120819000Y-79839816D01*
X120819000Y-79672184D01*
X120851703Y-79507772D01*
X120915853Y-79352900D01*
X121008985Y-79213519D01*
X121127519Y-79094985D01*
X121266900Y-79001853D01*
X121421772Y-78937703D01*
X121586184Y-78905000D01*
X121753816Y-78905000D01*
X121918228Y-78937703D01*
G37*
G36*
X119378228Y-78937703D02*
G01*
X119533100Y-79001853D01*
X119672481Y-79094985D01*
X119791015Y-79213519D01*
X119884147Y-79352900D01*
X119948297Y-79507772D01*
X119981000Y-79672184D01*
X119981000Y-79839816D01*
X119948297Y-80004228D01*
X119884147Y-80159100D01*
X119791015Y-80298481D01*
X119672481Y-80417015D01*
X119533100Y-80510147D01*
X119378228Y-80574297D01*
X119213816Y-80607000D01*
X119046184Y-80607000D01*
X118881772Y-80574297D01*
X118726900Y-80510147D01*
X118587519Y-80417015D01*
X118468985Y-80298481D01*
X118375853Y-80159100D01*
X118311703Y-80004228D01*
X118279000Y-79839816D01*
X118279000Y-79672184D01*
X118311703Y-79507772D01*
X118375853Y-79352900D01*
X118468985Y-79213519D01*
X118587519Y-79094985D01*
X118726900Y-79001853D01*
X118881772Y-78937703D01*
X119046184Y-78905000D01*
X119213816Y-78905000D01*
X119378228Y-78937703D01*
G37*
G36*
X116838228Y-78937703D02*
G01*
X116993100Y-79001853D01*
X117132481Y-79094985D01*
X117251015Y-79213519D01*
X117344147Y-79352900D01*
X117408297Y-79507772D01*
X117441000Y-79672184D01*
X117441000Y-79839816D01*
X117408297Y-80004228D01*
X117344147Y-80159100D01*
X117251015Y-80298481D01*
X117132481Y-80417015D01*
X116993100Y-80510147D01*
X116838228Y-80574297D01*
X116673816Y-80607000D01*
X116506184Y-80607000D01*
X116341772Y-80574297D01*
X116186900Y-80510147D01*
X116047519Y-80417015D01*
X115928985Y-80298481D01*
X115835853Y-80159100D01*
X115771703Y-80004228D01*
X115739000Y-79839816D01*
X115739000Y-79672184D01*
X115771703Y-79507772D01*
X115835853Y-79352900D01*
X115928985Y-79213519D01*
X116047519Y-79094985D01*
X116186900Y-79001853D01*
X116341772Y-78937703D01*
X116506184Y-78905000D01*
X116673816Y-78905000D01*
X116838228Y-78937703D01*
G37*
G36*
X114298228Y-78937703D02*
G01*
X114453100Y-79001853D01*
X114592481Y-79094985D01*
X114711015Y-79213519D01*
X114804147Y-79352900D01*
X114868297Y-79507772D01*
X114901000Y-79672184D01*
X114901000Y-79839816D01*
X114868297Y-80004228D01*
X114804147Y-80159100D01*
X114711015Y-80298481D01*
X114592481Y-80417015D01*
X114453100Y-80510147D01*
X114298228Y-80574297D01*
X114133816Y-80607000D01*
X113966184Y-80607000D01*
X113801772Y-80574297D01*
X113646900Y-80510147D01*
X113507519Y-80417015D01*
X113388985Y-80298481D01*
X113295853Y-80159100D01*
X113231703Y-80004228D01*
X113199000Y-79839816D01*
X113199000Y-79672184D01*
X113231703Y-79507772D01*
X113295853Y-79352900D01*
X113388985Y-79213519D01*
X113507519Y-79094985D01*
X113646900Y-79001853D01*
X113801772Y-78937703D01*
X113966184Y-78905000D01*
X114133816Y-78905000D01*
X114298228Y-78937703D01*
G37*
G36*
X111758228Y-78937703D02*
G01*
X111913100Y-79001853D01*
X112052481Y-79094985D01*
X112171015Y-79213519D01*
X112264147Y-79352900D01*
X112328297Y-79507772D01*
X112361000Y-79672184D01*
X112361000Y-79839816D01*
X112328297Y-80004228D01*
X112264147Y-80159100D01*
X112171015Y-80298481D01*
X112052481Y-80417015D01*
X111913100Y-80510147D01*
X111758228Y-80574297D01*
X111593816Y-80607000D01*
X111426184Y-80607000D01*
X111261772Y-80574297D01*
X111106900Y-80510147D01*
X110967519Y-80417015D01*
X110848985Y-80298481D01*
X110755853Y-80159100D01*
X110691703Y-80004228D01*
X110659000Y-79839816D01*
X110659000Y-79672184D01*
X110691703Y-79507772D01*
X110755853Y-79352900D01*
X110848985Y-79213519D01*
X110967519Y-79094985D01*
X111106900Y-79001853D01*
X111261772Y-78937703D01*
X111426184Y-78905000D01*
X111593816Y-78905000D01*
X111758228Y-78937703D01*
G37*
G36*
X109218228Y-78937703D02*
G01*
X109373100Y-79001853D01*
X109512481Y-79094985D01*
X109631015Y-79213519D01*
X109724147Y-79352900D01*
X109788297Y-79507772D01*
X109821000Y-79672184D01*
X109821000Y-79839816D01*
X109788297Y-80004228D01*
X109724147Y-80159100D01*
X109631015Y-80298481D01*
X109512481Y-80417015D01*
X109373100Y-80510147D01*
X109218228Y-80574297D01*
X109053816Y-80607000D01*
X108886184Y-80607000D01*
X108721772Y-80574297D01*
X108566900Y-80510147D01*
X108427519Y-80417015D01*
X108308985Y-80298481D01*
X108215853Y-80159100D01*
X108151703Y-80004228D01*
X108119000Y-79839816D01*
X108119000Y-79672184D01*
X108151703Y-79507772D01*
X108215853Y-79352900D01*
X108308985Y-79213519D01*
X108427519Y-79094985D01*
X108566900Y-79001853D01*
X108721772Y-78937703D01*
X108886184Y-78905000D01*
X109053816Y-78905000D01*
X109218228Y-78937703D01*
G37*
G36*
X124458228Y-78937703D02*
G01*
X124613100Y-79001853D01*
X124752481Y-79094985D01*
X124871015Y-79213519D01*
X124964147Y-79352900D01*
X125028297Y-79507772D01*
X125061000Y-79672184D01*
X125061000Y-79839816D01*
X125028297Y-80004228D01*
X124964147Y-80159100D01*
X124871015Y-80298481D01*
X124752481Y-80417015D01*
X124613100Y-80510147D01*
X124458228Y-80574297D01*
X124293816Y-80607000D01*
X124126184Y-80607000D01*
X123961772Y-80574297D01*
X123806900Y-80510147D01*
X123667519Y-80417015D01*
X123548985Y-80298481D01*
X123455853Y-80159100D01*
X123391703Y-80004228D01*
X123359000Y-79839816D01*
X123359000Y-79672184D01*
X123391703Y-79507772D01*
X123455853Y-79352900D01*
X123548985Y-79213519D01*
X123667519Y-79094985D01*
X123806900Y-79001853D01*
X123961772Y-78937703D01*
X124126184Y-78905000D01*
X124293816Y-78905000D01*
X124458228Y-78937703D01*
G37*
G36*
X126998228Y-78937703D02*
G01*
X127153100Y-79001853D01*
X127292481Y-79094985D01*
X127411015Y-79213519D01*
X127504147Y-79352900D01*
X127568297Y-79507772D01*
X127601000Y-79672184D01*
X127601000Y-79839816D01*
X127568297Y-80004228D01*
X127504147Y-80159100D01*
X127411015Y-80298481D01*
X127292481Y-80417015D01*
X127153100Y-80510147D01*
X126998228Y-80574297D01*
X126833816Y-80607000D01*
X126666184Y-80607000D01*
X126501772Y-80574297D01*
X126346900Y-80510147D01*
X126207519Y-80417015D01*
X126088985Y-80298481D01*
X125995853Y-80159100D01*
X125931703Y-80004228D01*
X125899000Y-79839816D01*
X125899000Y-79672184D01*
X125931703Y-79507772D01*
X125995853Y-79352900D01*
X126088985Y-79213519D01*
X126207519Y-79094985D01*
X126346900Y-79001853D01*
X126501772Y-78937703D01*
X126666184Y-78905000D01*
X126833816Y-78905000D01*
X126998228Y-78937703D01*
G37*
G36*
X129538228Y-78937703D02*
G01*
X129693100Y-79001853D01*
X129832481Y-79094985D01*
X129951015Y-79213519D01*
X130044147Y-79352900D01*
X130108297Y-79507772D01*
X130141000Y-79672184D01*
X130141000Y-79839816D01*
X130108297Y-80004228D01*
X130044147Y-80159100D01*
X129951015Y-80298481D01*
X129832481Y-80417015D01*
X129693100Y-80510147D01*
X129538228Y-80574297D01*
X129373816Y-80607000D01*
X129206184Y-80607000D01*
X129041772Y-80574297D01*
X128886900Y-80510147D01*
X128747519Y-80417015D01*
X128628985Y-80298481D01*
X128535853Y-80159100D01*
X128471703Y-80004228D01*
X128439000Y-79839816D01*
X128439000Y-79672184D01*
X128471703Y-79507772D01*
X128535853Y-79352900D01*
X128628985Y-79213519D01*
X128747519Y-79094985D01*
X128886900Y-79001853D01*
X129041772Y-78937703D01*
X129206184Y-78905000D01*
X129373816Y-78905000D01*
X129538228Y-78937703D01*
G37*
G36*
X132078228Y-78937703D02*
G01*
X132233100Y-79001853D01*
X132372481Y-79094985D01*
X132491015Y-79213519D01*
X132584147Y-79352900D01*
X132648297Y-79507772D01*
X132681000Y-79672184D01*
X132681000Y-79839816D01*
X132648297Y-80004228D01*
X132584147Y-80159100D01*
X132491015Y-80298481D01*
X132372481Y-80417015D01*
X132233100Y-80510147D01*
X132078228Y-80574297D01*
X131913816Y-80607000D01*
X131746184Y-80607000D01*
X131581772Y-80574297D01*
X131426900Y-80510147D01*
X131287519Y-80417015D01*
X131168985Y-80298481D01*
X131075853Y-80159100D01*
X131011703Y-80004228D01*
X130979000Y-79839816D01*
X130979000Y-79672184D01*
X131011703Y-79507772D01*
X131075853Y-79352900D01*
X131168985Y-79213519D01*
X131287519Y-79094985D01*
X131426900Y-79001853D01*
X131581772Y-78937703D01*
X131746184Y-78905000D01*
X131913816Y-78905000D01*
X132078228Y-78937703D01*
G37*
G36*
X136138228Y-78937703D02*
G01*
X136293100Y-79001853D01*
X136432481Y-79094985D01*
X136551015Y-79213519D01*
X136644147Y-79352900D01*
X136708297Y-79507772D01*
X136741000Y-79672184D01*
X136741000Y-79839816D01*
X136708297Y-80004228D01*
X136644147Y-80159100D01*
X136551015Y-80298481D01*
X136432481Y-80417015D01*
X136293100Y-80510147D01*
X136138228Y-80574297D01*
X135973816Y-80607000D01*
X135806184Y-80607000D01*
X135641772Y-80574297D01*
X135486900Y-80510147D01*
X135347519Y-80417015D01*
X135228985Y-80298481D01*
X135135853Y-80159100D01*
X135071703Y-80004228D01*
X135039000Y-79839816D01*
X135039000Y-79672184D01*
X135071703Y-79507772D01*
X135135853Y-79352900D01*
X135228985Y-79213519D01*
X135347519Y-79094985D01*
X135486900Y-79001853D01*
X135641772Y-78937703D01*
X135806184Y-78905000D01*
X135973816Y-78905000D01*
X136138228Y-78937703D01*
G37*
G36*
X138678228Y-78937703D02*
G01*
X138833100Y-79001853D01*
X138972481Y-79094985D01*
X139091015Y-79213519D01*
X139184147Y-79352900D01*
X139248297Y-79507772D01*
X139281000Y-79672184D01*
X139281000Y-79839816D01*
X139248297Y-80004228D01*
X139184147Y-80159100D01*
X139091015Y-80298481D01*
X138972481Y-80417015D01*
X138833100Y-80510147D01*
X138678228Y-80574297D01*
X138513816Y-80607000D01*
X138346184Y-80607000D01*
X138181772Y-80574297D01*
X138026900Y-80510147D01*
X137887519Y-80417015D01*
X137768985Y-80298481D01*
X137675853Y-80159100D01*
X137611703Y-80004228D01*
X137579000Y-79839816D01*
X137579000Y-79672184D01*
X137611703Y-79507772D01*
X137675853Y-79352900D01*
X137768985Y-79213519D01*
X137887519Y-79094985D01*
X138026900Y-79001853D01*
X138181772Y-78937703D01*
X138346184Y-78905000D01*
X138513816Y-78905000D01*
X138678228Y-78937703D01*
G37*
G36*
X143758228Y-78937703D02*
G01*
X143913100Y-79001853D01*
X144052481Y-79094985D01*
X144171015Y-79213519D01*
X144264147Y-79352900D01*
X144328297Y-79507772D01*
X144361000Y-79672184D01*
X144361000Y-79839816D01*
X144328297Y-80004228D01*
X144264147Y-80159100D01*
X144171015Y-80298481D01*
X144052481Y-80417015D01*
X143913100Y-80510147D01*
X143758228Y-80574297D01*
X143593816Y-80607000D01*
X143426184Y-80607000D01*
X143261772Y-80574297D01*
X143106900Y-80510147D01*
X142967519Y-80417015D01*
X142848985Y-80298481D01*
X142755853Y-80159100D01*
X142691703Y-80004228D01*
X142659000Y-79839816D01*
X142659000Y-79672184D01*
X142691703Y-79507772D01*
X142755853Y-79352900D01*
X142848985Y-79213519D01*
X142967519Y-79094985D01*
X143106900Y-79001853D01*
X143261772Y-78937703D01*
X143426184Y-78905000D01*
X143593816Y-78905000D01*
X143758228Y-78937703D01*
G37*
G36*
X146298228Y-78937703D02*
G01*
X146453100Y-79001853D01*
X146592481Y-79094985D01*
X146711015Y-79213519D01*
X146804147Y-79352900D01*
X146868297Y-79507772D01*
X146901000Y-79672184D01*
X146901000Y-79839816D01*
X146868297Y-80004228D01*
X146804147Y-80159100D01*
X146711015Y-80298481D01*
X146592481Y-80417015D01*
X146453100Y-80510147D01*
X146298228Y-80574297D01*
X146133816Y-80607000D01*
X145966184Y-80607000D01*
X145801772Y-80574297D01*
X145646900Y-80510147D01*
X145507519Y-80417015D01*
X145388985Y-80298481D01*
X145295853Y-80159100D01*
X145231703Y-80004228D01*
X145199000Y-79839816D01*
X145199000Y-79672184D01*
X145231703Y-79507772D01*
X145295853Y-79352900D01*
X145388985Y-79213519D01*
X145507519Y-79094985D01*
X145646900Y-79001853D01*
X145801772Y-78937703D01*
X145966184Y-78905000D01*
X146133816Y-78905000D01*
X146298228Y-78937703D01*
G37*
G36*
X148838228Y-78937703D02*
G01*
X148993100Y-79001853D01*
X149132481Y-79094985D01*
X149251015Y-79213519D01*
X149344147Y-79352900D01*
X149408297Y-79507772D01*
X149441000Y-79672184D01*
X149441000Y-79839816D01*
X149408297Y-80004228D01*
X149344147Y-80159100D01*
X149251015Y-80298481D01*
X149132481Y-80417015D01*
X148993100Y-80510147D01*
X148838228Y-80574297D01*
X148673816Y-80607000D01*
X148506184Y-80607000D01*
X148341772Y-80574297D01*
X148186900Y-80510147D01*
X148047519Y-80417015D01*
X147928985Y-80298481D01*
X147835853Y-80159100D01*
X147771703Y-80004228D01*
X147739000Y-79839816D01*
X147739000Y-79672184D01*
X147771703Y-79507772D01*
X147835853Y-79352900D01*
X147928985Y-79213519D01*
X148047519Y-79094985D01*
X148186900Y-79001853D01*
X148341772Y-78937703D01*
X148506184Y-78905000D01*
X148673816Y-78905000D01*
X148838228Y-78937703D01*
G37*
G36*
X151378228Y-78937703D02*
G01*
X151533100Y-79001853D01*
X151672481Y-79094985D01*
X151791015Y-79213519D01*
X151884147Y-79352900D01*
X151948297Y-79507772D01*
X151981000Y-79672184D01*
X151981000Y-79839816D01*
X151948297Y-80004228D01*
X151884147Y-80159100D01*
X151791015Y-80298481D01*
X151672481Y-80417015D01*
X151533100Y-80510147D01*
X151378228Y-80574297D01*
X151213816Y-80607000D01*
X151046184Y-80607000D01*
X150881772Y-80574297D01*
X150726900Y-80510147D01*
X150587519Y-80417015D01*
X150468985Y-80298481D01*
X150375853Y-80159100D01*
X150311703Y-80004228D01*
X150279000Y-79839816D01*
X150279000Y-79672184D01*
X150311703Y-79507772D01*
X150375853Y-79352900D01*
X150468985Y-79213519D01*
X150587519Y-79094985D01*
X150726900Y-79001853D01*
X150881772Y-78937703D01*
X151046184Y-78905000D01*
X151213816Y-78905000D01*
X151378228Y-78937703D01*
G37*
G36*
X153918228Y-78937703D02*
G01*
X154073100Y-79001853D01*
X154212481Y-79094985D01*
X154331015Y-79213519D01*
X154424147Y-79352900D01*
X154488297Y-79507772D01*
X154521000Y-79672184D01*
X154521000Y-79839816D01*
X154488297Y-80004228D01*
X154424147Y-80159100D01*
X154331015Y-80298481D01*
X154212481Y-80417015D01*
X154073100Y-80510147D01*
X153918228Y-80574297D01*
X153753816Y-80607000D01*
X153586184Y-80607000D01*
X153421772Y-80574297D01*
X153266900Y-80510147D01*
X153127519Y-80417015D01*
X153008985Y-80298481D01*
X152915853Y-80159100D01*
X152851703Y-80004228D01*
X152819000Y-79839816D01*
X152819000Y-79672184D01*
X152851703Y-79507772D01*
X152915853Y-79352900D01*
X153008985Y-79213519D01*
X153127519Y-79094985D01*
X153266900Y-79001853D01*
X153421772Y-78937703D01*
X153586184Y-78905000D01*
X153753816Y-78905000D01*
X153918228Y-78937703D01*
G37*
G36*
X141218228Y-78937703D02*
G01*
X141373100Y-79001853D01*
X141512481Y-79094985D01*
X141631015Y-79213519D01*
X141724147Y-79352900D01*
X141788297Y-79507772D01*
X141821000Y-79672184D01*
X141821000Y-79839816D01*
X141788297Y-80004228D01*
X141724147Y-80159100D01*
X141631015Y-80298481D01*
X141512481Y-80417015D01*
X141373100Y-80510147D01*
X141218228Y-80574297D01*
X141053816Y-80607000D01*
X140886184Y-80607000D01*
X140721772Y-80574297D01*
X140566900Y-80510147D01*
X140427519Y-80417015D01*
X140308985Y-80298481D01*
X140215853Y-80159100D01*
X140151703Y-80004228D01*
X140119000Y-79839816D01*
X140119000Y-79672184D01*
X140151703Y-79507772D01*
X140215853Y-79352900D01*
X140308985Y-79213519D01*
X140427519Y-79094985D01*
X140566900Y-79001853D01*
X140721772Y-78937703D01*
X140886184Y-78905000D01*
X141053816Y-78905000D01*
X141218228Y-78937703D01*
G37*
M02*
