G04 #@! TF.GenerationSoftware,KiCad,Pcbnew,(5.1.5)-3*
G04 #@! TF.CreationDate,2021-04-03T19:56:23-04:00*
G04 #@! TF.ProjectId,JoystickCtrlV2,4a6f7973-7469-4636-9b43-74726c56322e,rev?*
G04 #@! TF.SameCoordinates,Original*
G04 #@! TF.FileFunction,Copper,L2,Bot*
G04 #@! TF.FilePolarity,Positive*
%FSLAX46Y46*%
G04 Gerber Fmt 4.6, Leading zero omitted, Abs format (unit mm)*
G04 Created by KiCad (PCBNEW (5.1.5)-3) date 2021-04-03 19:56:23*
%MOMM*%
%LPD*%
G04 APERTURE LIST*
%ADD10O,1.350000X1.350000*%
%ADD11R,1.350000X1.350000*%
%ADD12O,1.700000X1.700000*%
%ADD13R,1.700000X1.700000*%
%ADD14R,0.850000X0.850000*%
%ADD15O,1.600000X1.600000*%
%ADD16R,1.600000X1.600000*%
%ADD17C,0.800000*%
%ADD18C,0.500000*%
G04 APERTURE END LIST*
D10*
X153384000Y-105314000D03*
X151384000Y-105314000D03*
X153384000Y-103314000D03*
X151384000Y-103314000D03*
X153384000Y-101314000D03*
X151384000Y-101314000D03*
X153384000Y-99314000D03*
D11*
X151384000Y-99314000D03*
D10*
X153384000Y-116744000D03*
X151384000Y-116744000D03*
X153384000Y-114744000D03*
X151384000Y-114744000D03*
X153384000Y-112744000D03*
X151384000Y-112744000D03*
X153384000Y-110744000D03*
D11*
X151384000Y-110744000D03*
D12*
X146558000Y-104648000D03*
X146558000Y-102108000D03*
D13*
X146558000Y-99568000D03*
D12*
X146558000Y-116332000D03*
X146558000Y-113792000D03*
D13*
X146558000Y-111252000D03*
D14*
X129032000Y-105410000D03*
X123190000Y-113284000D03*
D15*
X151130000Y-79756000D03*
X153670000Y-79756000D03*
X114050000Y-79756000D03*
X153670000Y-128016000D03*
X116590000Y-79756000D03*
X151130000Y-128016000D03*
X119130000Y-79756000D03*
X148590000Y-128016000D03*
X121670000Y-79756000D03*
X146050000Y-128016000D03*
X124210000Y-79756000D03*
X143510000Y-128016000D03*
X126750000Y-79756000D03*
X140970000Y-128016000D03*
X129290000Y-79756000D03*
X135890000Y-128016000D03*
X131830000Y-79756000D03*
X133350000Y-128016000D03*
X135890000Y-79756000D03*
X130810000Y-128016000D03*
X138430000Y-79756000D03*
X128270000Y-128016000D03*
X140970000Y-79756000D03*
X125730000Y-128016000D03*
X143510000Y-79756000D03*
X123190000Y-128016000D03*
X146050000Y-79756000D03*
X120650000Y-128016000D03*
X148590000Y-79756000D03*
D16*
X118110000Y-128016000D03*
D15*
X111510000Y-79756000D03*
X108970000Y-79756000D03*
D12*
X140970000Y-125222000D03*
X143510000Y-125222000D03*
X146050000Y-125222000D03*
X148590000Y-125222000D03*
X151130000Y-125222000D03*
D13*
X153670000Y-125222000D03*
D12*
X135890000Y-125222000D03*
X133350000Y-125222000D03*
X130810000Y-125222000D03*
X128270000Y-125222000D03*
X125730000Y-125222000D03*
X123190000Y-125222000D03*
X120650000Y-125222000D03*
D13*
X118110000Y-125222000D03*
D12*
X108966000Y-82550000D03*
X111506000Y-82550000D03*
X114046000Y-82550000D03*
X116586000Y-82550000D03*
X119126000Y-82550000D03*
X121666000Y-82550000D03*
X124206000Y-82550000D03*
X126746000Y-82550000D03*
X129286000Y-82550000D03*
D13*
X131826000Y-82550000D03*
D12*
X135890000Y-82550000D03*
X138430000Y-82550000D03*
X140970000Y-82550000D03*
X143510000Y-82550000D03*
X146050000Y-82550000D03*
X148590000Y-82550000D03*
X151130000Y-82550000D03*
D13*
X153670000Y-82550000D03*
D17*
X131826000Y-107950000D03*
X132225999Y-115170001D03*
X155194000Y-110490000D03*
X134366000Y-103632000D03*
X134874000Y-115316000D03*
X120396000Y-113284000D03*
X103378000Y-108458000D03*
X112268000Y-102870000D03*
X129540000Y-113030000D03*
X121920000Y-113284000D03*
X144272000Y-97536000D03*
X121920000Y-102108000D03*
X120650000Y-102108000D03*
X127000000Y-103124000D03*
X114554000Y-109474000D03*
X107188000Y-108458000D03*
X108458000Y-103124000D03*
D18*
X132225999Y-108349999D02*
X132225999Y-115170001D01*
X131826000Y-107950000D02*
X132225999Y-108349999D01*
X154940000Y-119634000D02*
X136398000Y-119634000D01*
X155194000Y-110490000D02*
X156210000Y-111506000D01*
X136398000Y-119634000D02*
X130810000Y-125222000D01*
X156210000Y-118364000D02*
X154940000Y-119634000D01*
X156210000Y-111506000D02*
X156210000Y-118364000D01*
X134366000Y-103632000D02*
X134874000Y-104140000D01*
X134874000Y-104140000D02*
X134874000Y-115316000D01*
X129960001Y-124372001D02*
X130810000Y-125222000D01*
X120250001Y-114662001D02*
X129960001Y-124372001D01*
X120396000Y-113284000D02*
X120250001Y-113429999D01*
X120250001Y-113429999D02*
X120250001Y-114662001D01*
X103378000Y-108458000D02*
X103378000Y-104902000D01*
X116586000Y-91694000D02*
X116586000Y-82550000D01*
X103378000Y-104902000D02*
X116586000Y-91694000D01*
X128270000Y-125222000D02*
X122428000Y-119380000D01*
X122428000Y-119380000D02*
X115570000Y-112522000D01*
X115570000Y-112522000D02*
X112268000Y-109220000D01*
X112268000Y-109220000D02*
X112268000Y-102870000D01*
X151384000Y-106426000D02*
X152400000Y-107442000D01*
X155194000Y-106680000D02*
X155194000Y-101124000D01*
X155194000Y-101124000D02*
X153384000Y-99314000D01*
X151384000Y-105314000D02*
X151384000Y-106426000D01*
X152400000Y-107442000D02*
X154432000Y-107442000D01*
X154432000Y-107442000D02*
X155194000Y-106680000D01*
X153384000Y-101314000D02*
X151384000Y-103314000D01*
X151384000Y-101314000D02*
X149066000Y-103632000D01*
X149066000Y-110490000D02*
X151416000Y-112840000D01*
X149066000Y-103632000D02*
X149066000Y-110490000D01*
X151416000Y-112840000D02*
X149352000Y-114904000D01*
X149352000Y-114904000D02*
X149352000Y-118110000D01*
X149352000Y-118110000D02*
X148844000Y-118618000D01*
X129540000Y-113030000D02*
X129540000Y-116840000D01*
X129540000Y-116840000D02*
X131318000Y-118618000D01*
X148844000Y-118618000D02*
X131318000Y-118618000D01*
X151384000Y-101314000D02*
X147606000Y-97536000D01*
X147606000Y-97536000D02*
X144272000Y-97536000D01*
X126688315Y-118618000D02*
X131318000Y-118618000D01*
X121920000Y-113849685D02*
X126688315Y-118618000D01*
X121920000Y-113284000D02*
X121920000Y-113849685D01*
X151416000Y-109665000D02*
X152115000Y-108966000D01*
X151416000Y-110840000D02*
X151416000Y-109665000D01*
X152115000Y-108966000D02*
X154940000Y-108966000D01*
X154940000Y-108966000D02*
X156464000Y-107442000D01*
X156464000Y-107442000D02*
X156464000Y-99314000D01*
X156464000Y-99314000D02*
X154432000Y-97282000D01*
X151384000Y-98139000D02*
X151384000Y-99314000D01*
X152241000Y-97282000D02*
X151384000Y-98139000D01*
X154432000Y-97282000D02*
X152241000Y-97282000D01*
X149257000Y-96012000D02*
X151384000Y-98139000D01*
X120650000Y-102108000D02*
X121920000Y-100838000D01*
X126746000Y-96012000D02*
X121920000Y-100838000D01*
X127254000Y-96012000D02*
X126746000Y-96012000D01*
X121920000Y-102108000D02*
X121920000Y-100838000D01*
X127000000Y-103124000D02*
X127399999Y-102724001D01*
X127399999Y-96120001D02*
X127508000Y-96012000D01*
X127254000Y-96012000D02*
X127508000Y-96012000D01*
X127399999Y-102724001D02*
X127399999Y-96120001D01*
X127508000Y-96012000D02*
X149257000Y-96012000D01*
X120650000Y-102108000D02*
X120250001Y-102507999D01*
X120250001Y-102507999D02*
X114554000Y-108204000D01*
X114554000Y-108204000D02*
X114554000Y-109474000D01*
X151416000Y-117888000D02*
X151416000Y-116840000D01*
X155194000Y-112618000D02*
X155194000Y-118110000D01*
X155194000Y-118110000D02*
X154686000Y-118618000D01*
X154686000Y-118618000D02*
X152146000Y-118618000D01*
X153416000Y-110840000D02*
X155194000Y-112618000D01*
X152146000Y-118618000D02*
X151416000Y-117888000D01*
X153416000Y-112840000D02*
X151416000Y-114840000D01*
X124206000Y-83752081D02*
X124206000Y-82550000D01*
X124206000Y-89673998D02*
X124206000Y-83752081D01*
X107188000Y-106691998D02*
X124206000Y-89673998D01*
X107188000Y-108458000D02*
X107188000Y-106691998D01*
X121666000Y-89916000D02*
X121666000Y-82550000D01*
X108458000Y-103124000D02*
X121666000Y-89916000D01*
M02*
