G04 #@! TF.GenerationSoftware,KiCad,Pcbnew,(5.1.5)-3*
G04 #@! TF.CreationDate,2021-04-03T19:56:23-04:00*
G04 #@! TF.ProjectId,JoystickCtrlV2,4a6f7973-7469-4636-9b43-74726c56322e,rev?*
G04 #@! TF.SameCoordinates,Original*
G04 #@! TF.FileFunction,Copper,L1,Top*
G04 #@! TF.FilePolarity,Positive*
%FSLAX46Y46*%
G04 Gerber Fmt 4.6, Leading zero omitted, Abs format (unit mm)*
G04 Created by KiCad (PCBNEW (5.1.5)-3) date 2021-04-03 19:56:23*
%MOMM*%
%LPD*%
G04 APERTURE LIST*
%ADD10O,1.350000X1.350000*%
%ADD11R,1.350000X1.350000*%
%ADD12O,1.700000X1.700000*%
%ADD13R,1.700000X1.700000*%
%ADD14R,0.850000X0.850000*%
%ADD15C,0.100000*%
%ADD16O,1.600000X1.600000*%
%ADD17R,1.600000X1.600000*%
%ADD18R,0.533400X1.981200*%
%ADD19R,0.560800X1.981200*%
%ADD20R,0.558800X1.981200*%
%ADD21C,0.800000*%
%ADD22C,0.500000*%
G04 APERTURE END LIST*
D10*
X153384000Y-105314000D03*
X151384000Y-105314000D03*
X153384000Y-103314000D03*
X151384000Y-103314000D03*
X153384000Y-101314000D03*
X151384000Y-101314000D03*
X153384000Y-99314000D03*
D11*
X151384000Y-99314000D03*
D10*
X153384000Y-116744000D03*
X151384000Y-116744000D03*
X153384000Y-114744000D03*
X151384000Y-114744000D03*
X153384000Y-112744000D03*
X151384000Y-112744000D03*
X153384000Y-110744000D03*
D11*
X151384000Y-110744000D03*
D12*
X146558000Y-104648000D03*
X146558000Y-102108000D03*
D13*
X146558000Y-99568000D03*
D12*
X146558000Y-116332000D03*
X146558000Y-113792000D03*
D13*
X146558000Y-111252000D03*
D14*
X129032000Y-105410000D03*
X123190000Y-113284000D03*
G04 #@! TA.AperFunction,SMDPad,CuDef*
D15*
G36*
X101995504Y-106304204D02*
G01*
X102019773Y-106307804D01*
X102043571Y-106313765D01*
X102066671Y-106322030D01*
X102088849Y-106332520D01*
X102109893Y-106345133D01*
X102129598Y-106359747D01*
X102147777Y-106376223D01*
X102164253Y-106394402D01*
X102178867Y-106414107D01*
X102191480Y-106435151D01*
X102201970Y-106457329D01*
X102210235Y-106480429D01*
X102216196Y-106504227D01*
X102219796Y-106528496D01*
X102221000Y-106553000D01*
X102221000Y-107303000D01*
X102219796Y-107327504D01*
X102216196Y-107351773D01*
X102210235Y-107375571D01*
X102201970Y-107398671D01*
X102191480Y-107420849D01*
X102178867Y-107441893D01*
X102164253Y-107461598D01*
X102147777Y-107479777D01*
X102129598Y-107496253D01*
X102109893Y-107510867D01*
X102088849Y-107523480D01*
X102066671Y-107533970D01*
X102043571Y-107542235D01*
X102019773Y-107548196D01*
X101995504Y-107551796D01*
X101971000Y-107553000D01*
X100721000Y-107553000D01*
X100696496Y-107551796D01*
X100672227Y-107548196D01*
X100648429Y-107542235D01*
X100625329Y-107533970D01*
X100603151Y-107523480D01*
X100582107Y-107510867D01*
X100562402Y-107496253D01*
X100544223Y-107479777D01*
X100527747Y-107461598D01*
X100513133Y-107441893D01*
X100500520Y-107420849D01*
X100490030Y-107398671D01*
X100481765Y-107375571D01*
X100475804Y-107351773D01*
X100472204Y-107327504D01*
X100471000Y-107303000D01*
X100471000Y-106553000D01*
X100472204Y-106528496D01*
X100475804Y-106504227D01*
X100481765Y-106480429D01*
X100490030Y-106457329D01*
X100500520Y-106435151D01*
X100513133Y-106414107D01*
X100527747Y-106394402D01*
X100544223Y-106376223D01*
X100562402Y-106359747D01*
X100582107Y-106345133D01*
X100603151Y-106332520D01*
X100625329Y-106322030D01*
X100648429Y-106313765D01*
X100672227Y-106307804D01*
X100696496Y-106304204D01*
X100721000Y-106303000D01*
X101971000Y-106303000D01*
X101995504Y-106304204D01*
G37*
G04 #@! TD.AperFunction*
G04 #@! TA.AperFunction,SMDPad,CuDef*
G36*
X101995504Y-109104204D02*
G01*
X102019773Y-109107804D01*
X102043571Y-109113765D01*
X102066671Y-109122030D01*
X102088849Y-109132520D01*
X102109893Y-109145133D01*
X102129598Y-109159747D01*
X102147777Y-109176223D01*
X102164253Y-109194402D01*
X102178867Y-109214107D01*
X102191480Y-109235151D01*
X102201970Y-109257329D01*
X102210235Y-109280429D01*
X102216196Y-109304227D01*
X102219796Y-109328496D01*
X102221000Y-109353000D01*
X102221000Y-110103000D01*
X102219796Y-110127504D01*
X102216196Y-110151773D01*
X102210235Y-110175571D01*
X102201970Y-110198671D01*
X102191480Y-110220849D01*
X102178867Y-110241893D01*
X102164253Y-110261598D01*
X102147777Y-110279777D01*
X102129598Y-110296253D01*
X102109893Y-110310867D01*
X102088849Y-110323480D01*
X102066671Y-110333970D01*
X102043571Y-110342235D01*
X102019773Y-110348196D01*
X101995504Y-110351796D01*
X101971000Y-110353000D01*
X100721000Y-110353000D01*
X100696496Y-110351796D01*
X100672227Y-110348196D01*
X100648429Y-110342235D01*
X100625329Y-110333970D01*
X100603151Y-110323480D01*
X100582107Y-110310867D01*
X100562402Y-110296253D01*
X100544223Y-110279777D01*
X100527747Y-110261598D01*
X100513133Y-110241893D01*
X100500520Y-110220849D01*
X100490030Y-110198671D01*
X100481765Y-110175571D01*
X100475804Y-110151773D01*
X100472204Y-110127504D01*
X100471000Y-110103000D01*
X100471000Y-109353000D01*
X100472204Y-109328496D01*
X100475804Y-109304227D01*
X100481765Y-109280429D01*
X100490030Y-109257329D01*
X100500520Y-109235151D01*
X100513133Y-109214107D01*
X100527747Y-109194402D01*
X100544223Y-109176223D01*
X100562402Y-109159747D01*
X100582107Y-109145133D01*
X100603151Y-109132520D01*
X100625329Y-109122030D01*
X100648429Y-109113765D01*
X100672227Y-109107804D01*
X100696496Y-109104204D01*
X100721000Y-109103000D01*
X101971000Y-109103000D01*
X101995504Y-109104204D01*
G37*
G04 #@! TD.AperFunction*
D16*
X151130000Y-79756000D03*
X153670000Y-79756000D03*
X114050000Y-79756000D03*
X153670000Y-128016000D03*
X116590000Y-79756000D03*
X151130000Y-128016000D03*
X119130000Y-79756000D03*
X148590000Y-128016000D03*
X121670000Y-79756000D03*
X146050000Y-128016000D03*
X124210000Y-79756000D03*
X143510000Y-128016000D03*
X126750000Y-79756000D03*
X140970000Y-128016000D03*
X129290000Y-79756000D03*
X135890000Y-128016000D03*
X131830000Y-79756000D03*
X133350000Y-128016000D03*
X135890000Y-79756000D03*
X130810000Y-128016000D03*
X138430000Y-79756000D03*
X128270000Y-128016000D03*
X140970000Y-79756000D03*
X125730000Y-128016000D03*
X143510000Y-79756000D03*
X123190000Y-128016000D03*
X146050000Y-79756000D03*
X120650000Y-128016000D03*
X148590000Y-79756000D03*
D17*
X118110000Y-128016000D03*
D16*
X111510000Y-79756000D03*
X108970000Y-79756000D03*
D12*
X140970000Y-125222000D03*
X143510000Y-125222000D03*
X146050000Y-125222000D03*
X148590000Y-125222000D03*
X151130000Y-125222000D03*
D13*
X153670000Y-125222000D03*
D12*
X135890000Y-125222000D03*
X133350000Y-125222000D03*
X130810000Y-125222000D03*
X128270000Y-125222000D03*
X125730000Y-125222000D03*
X123190000Y-125222000D03*
X120650000Y-125222000D03*
D13*
X118110000Y-125222000D03*
D12*
X108966000Y-82550000D03*
X111506000Y-82550000D03*
X114046000Y-82550000D03*
X116586000Y-82550000D03*
X119126000Y-82550000D03*
X121666000Y-82550000D03*
X124206000Y-82550000D03*
X126746000Y-82550000D03*
X129286000Y-82550000D03*
D13*
X131826000Y-82550000D03*
D12*
X135890000Y-82550000D03*
X138430000Y-82550000D03*
X140970000Y-82550000D03*
X143510000Y-82550000D03*
X146050000Y-82550000D03*
X148590000Y-82550000D03*
X151130000Y-82550000D03*
D13*
X153670000Y-82550000D03*
D18*
X133604000Y-105486200D03*
X134874000Y-105486200D03*
X136144000Y-105486200D03*
X137414000Y-105486200D03*
X138684000Y-105486200D03*
X139954000Y-105486200D03*
X141224000Y-105486200D03*
X141224000Y-110413800D03*
X139954000Y-110413800D03*
X138684000Y-110413800D03*
X137414000Y-110413800D03*
X136144000Y-110413800D03*
X134874000Y-110413800D03*
X133604000Y-110413800D03*
D19*
X126873000Y-110414999D03*
X125603000Y-110414999D03*
X124333000Y-110414999D03*
X123063000Y-110414999D03*
X121793000Y-110414999D03*
X120523000Y-110414999D03*
X119253000Y-110414999D03*
X117983000Y-110414999D03*
X117983000Y-105485001D03*
X119253000Y-105485001D03*
X120523000Y-105485001D03*
X121793000Y-105485001D03*
X123063000Y-105485001D03*
X124333000Y-105485001D03*
X125603000Y-105485001D03*
X126873000Y-105485001D03*
D20*
X112268000Y-110921800D03*
X110998000Y-110921800D03*
X109728000Y-110921800D03*
X108458000Y-110921800D03*
X107188000Y-110921800D03*
X105918000Y-110921800D03*
X104648000Y-110921800D03*
X104648000Y-105994200D03*
X105918000Y-105994200D03*
X107188000Y-105994200D03*
X108458000Y-105994200D03*
X109728000Y-105994200D03*
X110998000Y-105994200D03*
X112268000Y-105994200D03*
D21*
X131826000Y-107950000D03*
X132225999Y-115170001D03*
X155194000Y-110490000D03*
X134366000Y-103632000D03*
X134874000Y-115316000D03*
X120396000Y-113284000D03*
X103378000Y-108458000D03*
X112268000Y-102870000D03*
X129540000Y-113030000D03*
X121920000Y-113284000D03*
X144272000Y-97536000D03*
X121920000Y-102108000D03*
X120650000Y-102108000D03*
X127000000Y-103124000D03*
X114554000Y-109474000D03*
X107188000Y-108458000D03*
X108458000Y-103124000D03*
D22*
X151130000Y-79756000D02*
X151130000Y-82550000D01*
X153670000Y-79756000D02*
X153670000Y-82550000D01*
X114050000Y-82546000D02*
X114046000Y-82550000D01*
X114050000Y-79756000D02*
X114050000Y-82546000D01*
X153670000Y-125222000D02*
X153670000Y-128016000D01*
X151130000Y-125222000D02*
X151130000Y-128016000D01*
X119130000Y-82546000D02*
X119126000Y-82550000D01*
X119130000Y-79756000D02*
X119130000Y-82546000D01*
X148590000Y-125222000D02*
X148590000Y-128016000D01*
X146050000Y-125222000D02*
X146050000Y-128016000D01*
X143510000Y-125222000D02*
X143510000Y-128016000D01*
X126750000Y-82546000D02*
X126746000Y-82550000D01*
X126750000Y-79756000D02*
X126750000Y-82546000D01*
X140970000Y-125222000D02*
X140970000Y-128016000D01*
X129290000Y-82546000D02*
X129286000Y-82550000D01*
X129290000Y-79756000D02*
X129290000Y-82546000D01*
X135890000Y-125222000D02*
X135890000Y-128016000D01*
X131830000Y-82546000D02*
X131826000Y-82550000D01*
X131830000Y-79756000D02*
X131830000Y-82546000D01*
X135890000Y-79756000D02*
X135890000Y-82550000D01*
X138430000Y-79756000D02*
X138430000Y-82550000D01*
X140970000Y-79756000D02*
X140970000Y-82550000D01*
X125730000Y-125222000D02*
X125730000Y-128016000D01*
X143510000Y-79756000D02*
X143510000Y-82550000D01*
X123190000Y-125222000D02*
X123190000Y-128016000D01*
X146050000Y-79756000D02*
X146050000Y-82550000D01*
X120650000Y-125222000D02*
X120650000Y-128016000D01*
X148590000Y-79756000D02*
X148590000Y-82550000D01*
X132837300Y-110413800D02*
X131826000Y-109402500D01*
X133604000Y-110413800D02*
X132837300Y-110413800D01*
X132765800Y-105486200D02*
X133604000Y-105486200D01*
X131826000Y-106426000D02*
X132765800Y-105486200D01*
X131826000Y-107696000D02*
X131826000Y-107950000D01*
X131826000Y-107696000D02*
X131826000Y-106426000D01*
X131826000Y-109402500D02*
X131826000Y-107696000D01*
X108458000Y-112412400D02*
X108458000Y-110921800D01*
X111215601Y-115170001D02*
X108458000Y-112412400D01*
X132225999Y-115170001D02*
X111215601Y-115170001D01*
X116590000Y-82546000D02*
X116586000Y-82550000D01*
X116590000Y-79756000D02*
X116590000Y-82546000D01*
X133350000Y-125222000D02*
X133350000Y-128016000D01*
X104648000Y-103632000D02*
X104648000Y-105994200D01*
X103632000Y-102616000D02*
X104648000Y-103632000D01*
X102616000Y-102616000D02*
X103632000Y-102616000D01*
X101346000Y-106928000D02*
X101346000Y-103886000D01*
X101346000Y-103886000D02*
X102616000Y-102616000D01*
X130810000Y-125222000D02*
X130810000Y-128016000D01*
X154058999Y-103988999D02*
X154058999Y-104020999D01*
X153384000Y-103314000D02*
X154058999Y-103988999D01*
X154058999Y-104020999D02*
X155194000Y-105156000D01*
X155194000Y-113062000D02*
X153416000Y-114840000D01*
X155194000Y-110490000D02*
X155194000Y-113062000D01*
X155194000Y-105156000D02*
X155194000Y-110490000D01*
X134874000Y-105486200D02*
X134874000Y-104140000D01*
X134874000Y-104140000D02*
X134366000Y-103632000D01*
X130810000Y-119380000D02*
X130810000Y-125222000D01*
X134874000Y-115316000D02*
X130810000Y-119380000D01*
X120523000Y-110414999D02*
X120523000Y-113157000D01*
X120523000Y-113157000D02*
X120396000Y-113284000D01*
X119253000Y-110414999D02*
X119253000Y-113157000D01*
X119380000Y-113284000D02*
X120396000Y-113284000D01*
X119253000Y-113157000D02*
X119380000Y-113284000D01*
X117983000Y-111905599D02*
X118364000Y-112286599D01*
X117983000Y-110414999D02*
X117983000Y-111905599D01*
X118382599Y-112286599D02*
X119253000Y-113157000D01*
X118364000Y-112286599D02*
X118382599Y-112286599D01*
X104648000Y-105994200D02*
X104648000Y-107188000D01*
X104648000Y-107188000D02*
X103378000Y-108458000D01*
X128270000Y-125222000D02*
X128270000Y-128016000D01*
X112268000Y-102870000D02*
X112268000Y-105994200D01*
X110998000Y-83058000D02*
X111506000Y-82550000D01*
X110998000Y-105994200D02*
X110998000Y-83058000D01*
X111510000Y-82546000D02*
X111506000Y-82550000D01*
X111510000Y-79756000D02*
X111510000Y-82546000D01*
X109728000Y-83312000D02*
X108966000Y-82550000D01*
X109728000Y-105994200D02*
X109728000Y-83312000D01*
X108966000Y-79760000D02*
X108970000Y-79756000D01*
X108966000Y-82550000D02*
X108966000Y-79760000D01*
X146558000Y-102108000D02*
X149098000Y-99568000D01*
X149098000Y-99568000D02*
X149098000Y-98044000D01*
X149098000Y-98044000D02*
X149860000Y-97282000D01*
X149860000Y-97282000D02*
X152400000Y-97282000D01*
X153384000Y-98266000D02*
X153384000Y-99314000D01*
X152400000Y-97282000D02*
X153384000Y-98266000D01*
X139954000Y-103995600D02*
X139954000Y-105486200D01*
X141841600Y-102108000D02*
X139954000Y-103995600D01*
X146558000Y-102108000D02*
X141841600Y-102108000D01*
X150429406Y-103314000D02*
X149098000Y-104645406D01*
X151384000Y-103314000D02*
X150429406Y-103314000D01*
X149098000Y-111252000D02*
X146558000Y-113792000D01*
X149098000Y-104645406D02*
X149098000Y-111252000D01*
X139954000Y-111904400D02*
X139954000Y-110413800D01*
X141841600Y-113792000D02*
X139954000Y-111904400D01*
X146558000Y-113792000D02*
X141841600Y-113792000D01*
X123063000Y-107654399D02*
X123063000Y-106975601D01*
X123063000Y-106975601D02*
X123063000Y-105485001D01*
X124333000Y-108924399D02*
X123063000Y-107654399D01*
X124333000Y-110414999D02*
X124333000Y-108924399D01*
X135018400Y-113030000D02*
X129540000Y-113030000D01*
X136144000Y-110413800D02*
X136144000Y-111904400D01*
X136144000Y-111904400D02*
X135018400Y-113030000D01*
X121920000Y-110541999D02*
X121793000Y-110414999D01*
X121793000Y-113157000D02*
X121920000Y-113284000D01*
X121793000Y-110414999D02*
X121793000Y-113157000D01*
X123063000Y-103994401D02*
X123063000Y-105485001D01*
X129521401Y-97536000D02*
X123063000Y-103994401D01*
X144272000Y-97536000D02*
X129521401Y-97536000D01*
X126873000Y-108924399D02*
X126873000Y-110414999D01*
X126873000Y-108245601D02*
X126873000Y-108924399D01*
X125603000Y-106975601D02*
X126873000Y-108245601D01*
X125603000Y-105485001D02*
X125603000Y-106975601D01*
X134874000Y-110413800D02*
X134874000Y-111137700D01*
X133743700Y-112268000D02*
X133390898Y-112268000D01*
X131826000Y-112268000D02*
X133743700Y-112268000D01*
X130556000Y-110998000D02*
X131826000Y-112268000D01*
X134510400Y-102362000D02*
X132334000Y-102362000D01*
X136144000Y-105486200D02*
X136144000Y-103995600D01*
X136144000Y-103995600D02*
X134510400Y-102362000D01*
X132334000Y-102362000D02*
X130556000Y-104140000D01*
X134874000Y-111904400D02*
X134874000Y-110413800D01*
X134510400Y-112268000D02*
X134874000Y-111904400D01*
X133743700Y-112268000D02*
X134510400Y-112268000D01*
X130480999Y-110414999D02*
X126873000Y-110414999D01*
X130556000Y-110490000D02*
X130480999Y-110414999D01*
X130556000Y-110490000D02*
X130556000Y-110998000D01*
X130556000Y-104140000D02*
X130556000Y-110490000D01*
X121793000Y-105485001D02*
X121793000Y-102235000D01*
X121793000Y-102235000D02*
X121920000Y-102108000D01*
X120523000Y-105485001D02*
X120523000Y-102235000D01*
X120523000Y-102235000D02*
X120650000Y-102108000D01*
X125603000Y-105485001D02*
X125603000Y-104521000D01*
X125603000Y-104521000D02*
X127000000Y-103124000D01*
X113715800Y-109474000D02*
X112268000Y-110921800D01*
X114554000Y-109474000D02*
X113715800Y-109474000D01*
X146558000Y-98218000D02*
X146558000Y-99568000D01*
X151416000Y-116840000D02*
X151416000Y-117888000D01*
X154686000Y-118618000D02*
X156464000Y-116840000D01*
X151416000Y-117888000D02*
X152146000Y-118618000D01*
X152146000Y-118618000D02*
X154686000Y-118618000D01*
X156464000Y-99314000D02*
X153162000Y-96012000D01*
X148764000Y-96012000D02*
X146558000Y-98218000D01*
X153162000Y-96012000D02*
X148764000Y-96012000D01*
X138684000Y-103995600D02*
X138684000Y-105486200D01*
X143111600Y-99568000D02*
X138684000Y-103995600D01*
X146558000Y-99568000D02*
X143111600Y-99568000D01*
X156464000Y-116840000D02*
X156464000Y-99314000D01*
X148050000Y-114840000D02*
X151416000Y-114840000D01*
X146558000Y-116332000D02*
X148050000Y-114840000D01*
X138684000Y-111904400D02*
X138684000Y-110413800D01*
X146558000Y-116332000D02*
X145708001Y-117181999D01*
X143961599Y-117181999D02*
X138684000Y-111904400D01*
X145708001Y-117181999D02*
X143961599Y-117181999D01*
X104648000Y-112412400D02*
X103776400Y-113284000D01*
X104648000Y-110921800D02*
X104648000Y-112412400D01*
X103776400Y-113284000D02*
X102362000Y-113284000D01*
X101346000Y-112268000D02*
X101346000Y-109728000D01*
X102362000Y-113284000D02*
X101346000Y-112268000D01*
X124210000Y-82546000D02*
X124206000Y-82550000D01*
X124210000Y-79756000D02*
X124210000Y-82546000D01*
X105621200Y-108458000D02*
X107188000Y-108458000D01*
X104648000Y-110921800D02*
X104648000Y-109431200D01*
X104648000Y-109431200D02*
X105621200Y-108458000D01*
X117983000Y-106807000D02*
X117983000Y-105485001D01*
X110998000Y-110921800D02*
X110998000Y-110210600D01*
X110998000Y-110210600D02*
X112242600Y-108966000D01*
X112242600Y-108966000D02*
X112268000Y-108966000D01*
X112268000Y-108966000D02*
X113284000Y-107950000D01*
X116840000Y-107950000D02*
X117983000Y-106807000D01*
X113284000Y-107950000D02*
X116840000Y-107950000D01*
X119253000Y-106975601D02*
X112690601Y-113538000D01*
X119253000Y-105485001D02*
X119253000Y-106975601D01*
X109728000Y-112412400D02*
X109728000Y-110921800D01*
X110853600Y-113538000D02*
X109728000Y-112412400D01*
X112690601Y-113538000D02*
X110853600Y-113538000D01*
X121670000Y-82546000D02*
X121666000Y-82550000D01*
X121670000Y-79756000D02*
X121670000Y-82546000D01*
X108458000Y-105994200D02*
X108458000Y-103124000D01*
X146558000Y-104648000D02*
X144018000Y-107188000D01*
X137625200Y-107188000D02*
X137414000Y-106976800D01*
X137414000Y-106976800D02*
X137414000Y-105486200D01*
X144018000Y-107188000D02*
X137625200Y-107188000D01*
X137414000Y-103995600D02*
X135018400Y-101600000D01*
X137414000Y-105486200D02*
X137414000Y-103995600D01*
X124333000Y-103994401D02*
X124333000Y-105485001D01*
X126727401Y-101600000D02*
X124333000Y-103994401D01*
X135018400Y-101600000D02*
X126727401Y-101600000D01*
X146558000Y-109902000D02*
X144860000Y-108204000D01*
X146558000Y-111252000D02*
X146558000Y-109902000D01*
X137414000Y-108923200D02*
X137414000Y-110413800D01*
X138133200Y-108204000D02*
X137414000Y-108923200D01*
X144860000Y-108204000D02*
X138133200Y-108204000D01*
X137414000Y-111904400D02*
X137414000Y-110413800D01*
X135272400Y-114046000D02*
X137414000Y-111904400D01*
X127743401Y-114046000D02*
X135272400Y-114046000D01*
X125603000Y-110414999D02*
X125603000Y-111905599D01*
X125603000Y-111905599D02*
X127743401Y-114046000D01*
X123063000Y-113157000D02*
X123190000Y-113284000D01*
X123063000Y-110414999D02*
X123063000Y-113157000D01*
X128956999Y-105485001D02*
X129032000Y-105410000D01*
X126873000Y-105485001D02*
X128956999Y-105485001D01*
M02*
