%TF.GenerationSoftware,KiCad,Pcbnew,(5.1.9)-1*%
%TF.CreationDate,2021-01-31T19:48:36-05:00*%
%TF.ProjectId,JoystickCtrl,4a6f7973-7469-4636-9b43-74726c2e6b69,rev?*%
%TF.SameCoordinates,Original*%
%TF.FileFunction,Legend,Bot*%
%TF.FilePolarity,Positive*%
%FSLAX46Y46*%
G04 Gerber Fmt 4.6, Leading zero omitted, Abs format (unit mm)*
G04 Created by KiCad (PCBNEW (5.1.9)-1) date 2021-01-31 19:48:36*
%MOMM*%
%LPD*%
G01*
G04 APERTURE LIST*
%ADD10C,0.120000*%
%ADD11C,0.150000*%
G04 APERTURE END LIST*
D10*
%TO.C,A1*%
X183010000Y-90420000D02*
X183010000Y-123190000D01*
X183010000Y-123190000D02*
X180470000Y-125730000D01*
X180470000Y-125730000D02*
X180470000Y-128400000D01*
X180470000Y-128400000D02*
X114170000Y-128400000D01*
X114170000Y-128400000D02*
X114170000Y-125220000D01*
X114170000Y-125220000D02*
X112270000Y-125220000D01*
X112270000Y-125220000D02*
X112270000Y-116080000D01*
X112270000Y-116080000D02*
X114170000Y-116080000D01*
X114170000Y-116080000D02*
X114170000Y-96010000D01*
X114170000Y-96010000D02*
X107820000Y-96010000D01*
X107820000Y-96010000D02*
X107820000Y-84330000D01*
X107820000Y-84330000D02*
X114170000Y-84330000D01*
X114170000Y-84330000D02*
X114170000Y-74800000D01*
X114170000Y-74800000D02*
X178820000Y-74800000D01*
X178820000Y-74800000D02*
X180470000Y-76450000D01*
X180470000Y-76450000D02*
X180470000Y-87880000D01*
X180470000Y-87880000D02*
X183010000Y-90420000D01*
D11*
X144224285Y-129706666D02*
X143748095Y-129706666D01*
X144319523Y-129992380D02*
X143986190Y-128992380D01*
X143652857Y-129992380D01*
X142795714Y-129992380D02*
X143367142Y-129992380D01*
X143081428Y-129992380D02*
X143081428Y-128992380D01*
X143176666Y-129135238D01*
X143271904Y-129230476D01*
X143367142Y-129278095D01*
%TD*%
M02*
