M48
; DRILL file {KiCad (5.1.9)-1} date 01/31/21 19:49:57
; FORMAT={-:-/ absolute / inch / decimal}
; #@! TF.CreationDate,2021-01-31T19:49:57-05:00
; #@! TF.GenerationSoftware,Kicad,Pcbnew,(5.1.9)-1
; #@! TF.FileFunction,Plated,1,2,PTH
FMAT,2
INCH
T1C0.0157
T2C0.0315
T3C0.0394
%
G90
G05
T1
X5.7835Y-3.5
X6.185Y-3.6024
X6.189Y-3.8268
X6.2677Y-3.4409
X6.4488Y-3.8386
X6.5454Y-3.7492
X6.5715Y-3.5657
X6.5787Y-3.7283
X6.5798Y-3.6486
X6.622Y-3.689
X6.6654Y-3.8081
X6.7008Y-3.6585
X6.7323Y-3.5657
X6.8465Y-3.874
T2
X5.9Y-3.8
X5.9Y-4.2
X6.1Y-3.8
X6.1Y-4.2
X6.45Y-3.25
X6.45Y-3.55
X6.7717Y-3.2638
X6.7717Y-3.3425
X6.7717Y-3.4213
X6.7717Y-3.5
X6.7795Y-3.9606
X6.7795Y-4.0394
X6.7795Y-4.1181
X6.7795Y-4.1969
X6.8504Y-3.2638
X6.8504Y-3.3425
X6.8504Y-3.4213
X6.8504Y-3.5
X6.8583Y-3.9606
X6.8583Y-4.0394
X6.8583Y-4.1181
X6.8583Y-4.1969
T3
X5.2402Y-3.05
X5.3402Y-3.05
X5.4402Y-3.05
X5.5402Y-3.05
X5.6Y-4.95
X5.6402Y-3.05
X5.7Y-4.95
X5.7402Y-3.05
X5.8Y-4.95
X5.8402Y-3.05
X5.9Y-4.95
X5.9402Y-3.05
X6.0Y-4.95
X6.0402Y-3.05
X6.1Y-4.95
X6.1402Y-3.05
X6.2Y-4.95
X6.3Y-3.05
X6.3Y-4.95
X6.4Y-3.05
X6.5Y-3.05
X6.5Y-4.95
X6.6Y-3.05
X6.6Y-4.95
X6.7Y-3.05
X6.7Y-4.95
X6.8Y-3.05
X6.8Y-4.95
X6.9Y-3.05
X6.9Y-4.95
X7.0Y-3.05
X7.0Y-4.95
T0
M30
