%TF.GenerationSoftware,KiCad,Pcbnew,(5.1.9)-1*%
%TF.CreationDate,2021-02-03T21:02:23-05:00*%
%TF.ProjectId,JoystickCtrl,4a6f7973-7469-4636-9b43-74726c2e6b69,rev?*%
%TF.SameCoordinates,Original*%
%TF.FileFunction,Soldermask,Top*%
%TF.FilePolarity,Negative*%
%FSLAX46Y46*%
G04 Gerber Fmt 4.6, Leading zero omitted, Abs format (unit mm)*
G04 Created by KiCad (PCBNEW (5.1.9)-1) date 2021-02-03 21:02:23*
%MOMM*%
%LPD*%
G01*
G04 APERTURE LIST*
%ADD10O,1.350000X1.350000*%
%ADD11R,1.350000X1.350000*%
%ADD12R,0.977900X0.304800*%
%ADD13C,3.200000*%
%ADD14O,1.600000X1.600000*%
%ADD15R,1.600000X1.600000*%
%ADD16C,1.600000*%
G04 APERTURE END LIST*
D10*
%TO.C,Joystick1*%
X172200000Y-100600000D03*
X174200000Y-100600000D03*
X172200000Y-102600000D03*
X174200000Y-102600000D03*
X172200000Y-104600000D03*
X174200000Y-104600000D03*
X172200000Y-106600000D03*
D11*
X174200000Y-106600000D03*
%TD*%
D10*
%TO.C,Controller1*%
X172000000Y-82900000D03*
X174000000Y-82900000D03*
X172000000Y-84900000D03*
X174000000Y-84900000D03*
X172000000Y-86900000D03*
X174000000Y-86900000D03*
X172000000Y-88900000D03*
D11*
X174000000Y-88900000D03*
%TD*%
D12*
%TO.C,MUX1*%
X174263050Y-93500001D03*
X174263050Y-94000000D03*
X174263050Y-94500002D03*
X174263050Y-95000000D03*
X174263050Y-95500000D03*
X174263050Y-96000001D03*
X174263050Y-96500000D03*
X174263050Y-97000002D03*
X171176950Y-96999999D03*
X171176950Y-96500000D03*
X171176950Y-95999998D03*
X171176950Y-95500000D03*
X171176950Y-95000000D03*
X171176950Y-94499999D03*
X171176950Y-94000000D03*
X171176950Y-93499998D03*
%TD*%
D13*
%TO.C,A1*%
X180340000Y-120650000D03*
X180340000Y-92710000D03*
X129540000Y-77470000D03*
X128270000Y-125730000D03*
D14*
X175260000Y-77470000D03*
X177800000Y-77470000D03*
X138180000Y-77470000D03*
X177800000Y-125730000D03*
X140720000Y-77470000D03*
X175260000Y-125730000D03*
X143260000Y-77470000D03*
X172720000Y-125730000D03*
X145800000Y-77470000D03*
X170180000Y-125730000D03*
X148340000Y-77470000D03*
X167640000Y-125730000D03*
X150880000Y-77470000D03*
X165100000Y-125730000D03*
X153420000Y-77470000D03*
X160020000Y-125730000D03*
X155960000Y-77470000D03*
X157480000Y-125730000D03*
X160020000Y-77470000D03*
X154940000Y-125730000D03*
X162560000Y-77470000D03*
X152400000Y-125730000D03*
X165100000Y-77470000D03*
X149860000Y-125730000D03*
X167640000Y-77470000D03*
X147320000Y-125730000D03*
X170180000Y-77470000D03*
X144780000Y-125730000D03*
X172720000Y-77470000D03*
D15*
X142240000Y-125730000D03*
D14*
X135640000Y-77470000D03*
X133100000Y-77470000D03*
%TD*%
%TO.C,R2*%
X149860000Y-96520000D03*
D16*
X149860000Y-106680000D03*
%TD*%
D14*
%TO.C,R1*%
X154940000Y-106680000D03*
D16*
X154940000Y-96520000D03*
%TD*%
D14*
%TO.C,SW1*%
X163830000Y-82550000D03*
D15*
X163830000Y-90170000D03*
%TD*%
%TO.C,DigiPOT1*%
G36*
G01*
X150900000Y-91290000D02*
X150900000Y-91590000D01*
G75*
G02*
X150750000Y-91740000I-150000J0D01*
G01*
X149100000Y-91740000D01*
G75*
G02*
X148950000Y-91590000I0J150000D01*
G01*
X148950000Y-91290000D01*
G75*
G02*
X149100000Y-91140000I150000J0D01*
G01*
X150750000Y-91140000D01*
G75*
G02*
X150900000Y-91290000I0J-150000D01*
G01*
G37*
G36*
G01*
X150900000Y-90020000D02*
X150900000Y-90320000D01*
G75*
G02*
X150750000Y-90470000I-150000J0D01*
G01*
X149100000Y-90470000D01*
G75*
G02*
X148950000Y-90320000I0J150000D01*
G01*
X148950000Y-90020000D01*
G75*
G02*
X149100000Y-89870000I150000J0D01*
G01*
X150750000Y-89870000D01*
G75*
G02*
X150900000Y-90020000I0J-150000D01*
G01*
G37*
G36*
G01*
X150900000Y-88750000D02*
X150900000Y-89050000D01*
G75*
G02*
X150750000Y-89200000I-150000J0D01*
G01*
X149100000Y-89200000D01*
G75*
G02*
X148950000Y-89050000I0J150000D01*
G01*
X148950000Y-88750000D01*
G75*
G02*
X149100000Y-88600000I150000J0D01*
G01*
X150750000Y-88600000D01*
G75*
G02*
X150900000Y-88750000I0J-150000D01*
G01*
G37*
G36*
G01*
X150900000Y-87480000D02*
X150900000Y-87780000D01*
G75*
G02*
X150750000Y-87930000I-150000J0D01*
G01*
X149100000Y-87930000D01*
G75*
G02*
X148950000Y-87780000I0J150000D01*
G01*
X148950000Y-87480000D01*
G75*
G02*
X149100000Y-87330000I150000J0D01*
G01*
X150750000Y-87330000D01*
G75*
G02*
X150900000Y-87480000I0J-150000D01*
G01*
G37*
G36*
G01*
X150900000Y-86210000D02*
X150900000Y-86510000D01*
G75*
G02*
X150750000Y-86660000I-150000J0D01*
G01*
X149100000Y-86660000D01*
G75*
G02*
X148950000Y-86510000I0J150000D01*
G01*
X148950000Y-86210000D01*
G75*
G02*
X149100000Y-86060000I150000J0D01*
G01*
X150750000Y-86060000D01*
G75*
G02*
X150900000Y-86210000I0J-150000D01*
G01*
G37*
G36*
G01*
X150900000Y-84940000D02*
X150900000Y-85240000D01*
G75*
G02*
X150750000Y-85390000I-150000J0D01*
G01*
X149100000Y-85390000D01*
G75*
G02*
X148950000Y-85240000I0J150000D01*
G01*
X148950000Y-84940000D01*
G75*
G02*
X149100000Y-84790000I150000J0D01*
G01*
X150750000Y-84790000D01*
G75*
G02*
X150900000Y-84940000I0J-150000D01*
G01*
G37*
G36*
G01*
X150900000Y-83670000D02*
X150900000Y-83970000D01*
G75*
G02*
X150750000Y-84120000I-150000J0D01*
G01*
X149100000Y-84120000D01*
G75*
G02*
X148950000Y-83970000I0J150000D01*
G01*
X148950000Y-83670000D01*
G75*
G02*
X149100000Y-83520000I150000J0D01*
G01*
X150750000Y-83520000D01*
G75*
G02*
X150900000Y-83670000I0J-150000D01*
G01*
G37*
G36*
G01*
X155850000Y-83670000D02*
X155850000Y-83970000D01*
G75*
G02*
X155700000Y-84120000I-150000J0D01*
G01*
X154050000Y-84120000D01*
G75*
G02*
X153900000Y-83970000I0J150000D01*
G01*
X153900000Y-83670000D01*
G75*
G02*
X154050000Y-83520000I150000J0D01*
G01*
X155700000Y-83520000D01*
G75*
G02*
X155850000Y-83670000I0J-150000D01*
G01*
G37*
G36*
G01*
X155850000Y-84940000D02*
X155850000Y-85240000D01*
G75*
G02*
X155700000Y-85390000I-150000J0D01*
G01*
X154050000Y-85390000D01*
G75*
G02*
X153900000Y-85240000I0J150000D01*
G01*
X153900000Y-84940000D01*
G75*
G02*
X154050000Y-84790000I150000J0D01*
G01*
X155700000Y-84790000D01*
G75*
G02*
X155850000Y-84940000I0J-150000D01*
G01*
G37*
G36*
G01*
X155850000Y-86210000D02*
X155850000Y-86510000D01*
G75*
G02*
X155700000Y-86660000I-150000J0D01*
G01*
X154050000Y-86660000D01*
G75*
G02*
X153900000Y-86510000I0J150000D01*
G01*
X153900000Y-86210000D01*
G75*
G02*
X154050000Y-86060000I150000J0D01*
G01*
X155700000Y-86060000D01*
G75*
G02*
X155850000Y-86210000I0J-150000D01*
G01*
G37*
G36*
G01*
X155850000Y-87480000D02*
X155850000Y-87780000D01*
G75*
G02*
X155700000Y-87930000I-150000J0D01*
G01*
X154050000Y-87930000D01*
G75*
G02*
X153900000Y-87780000I0J150000D01*
G01*
X153900000Y-87480000D01*
G75*
G02*
X154050000Y-87330000I150000J0D01*
G01*
X155700000Y-87330000D01*
G75*
G02*
X155850000Y-87480000I0J-150000D01*
G01*
G37*
G36*
G01*
X155850000Y-88750000D02*
X155850000Y-89050000D01*
G75*
G02*
X155700000Y-89200000I-150000J0D01*
G01*
X154050000Y-89200000D01*
G75*
G02*
X153900000Y-89050000I0J150000D01*
G01*
X153900000Y-88750000D01*
G75*
G02*
X154050000Y-88600000I150000J0D01*
G01*
X155700000Y-88600000D01*
G75*
G02*
X155850000Y-88750000I0J-150000D01*
G01*
G37*
G36*
G01*
X155850000Y-90020000D02*
X155850000Y-90320000D01*
G75*
G02*
X155700000Y-90470000I-150000J0D01*
G01*
X154050000Y-90470000D01*
G75*
G02*
X153900000Y-90320000I0J150000D01*
G01*
X153900000Y-90020000D01*
G75*
G02*
X154050000Y-89870000I150000J0D01*
G01*
X155700000Y-89870000D01*
G75*
G02*
X155850000Y-90020000I0J-150000D01*
G01*
G37*
G36*
G01*
X155850000Y-91290000D02*
X155850000Y-91590000D01*
G75*
G02*
X155700000Y-91740000I-150000J0D01*
G01*
X154050000Y-91740000D01*
G75*
G02*
X153900000Y-91590000I0J150000D01*
G01*
X153900000Y-91290000D01*
G75*
G02*
X154050000Y-91140000I150000J0D01*
G01*
X155700000Y-91140000D01*
G75*
G02*
X155850000Y-91290000I0J-150000D01*
G01*
G37*
%TD*%
M02*
