%TF.GenerationSoftware,KiCad,Pcbnew,(5.1.9)-1*%
%TF.CreationDate,2021-02-03T21:02:23-05:00*%
%TF.ProjectId,JoystickCtrl,4a6f7973-7469-4636-9b43-74726c2e6b69,rev?*%
%TF.SameCoordinates,Original*%
%TF.FileFunction,Legend,Top*%
%TF.FilePolarity,Positive*%
%FSLAX46Y46*%
G04 Gerber Fmt 4.6, Leading zero omitted, Abs format (unit mm)*
G04 Created by KiCad (PCBNEW (5.1.9)-1) date 2021-02-03 21:02:23*
%MOMM*%
%LPD*%
G01*
G04 APERTURE LIST*
%ADD10C,0.150000*%
%ADD11C,0.010000*%
%ADD12C,0.120000*%
%ADD13C,0.152400*%
G04 APERTURE END LIST*
D10*
X176278690Y-122597619D02*
X176278690Y-121883333D01*
X176326309Y-121740476D01*
X176421547Y-121645238D01*
X176564404Y-121597619D01*
X176659642Y-121597619D01*
X175659642Y-121597619D02*
X175754880Y-121645238D01*
X175802500Y-121692857D01*
X175850119Y-121788095D01*
X175850119Y-122073809D01*
X175802500Y-122169047D01*
X175754880Y-122216666D01*
X175659642Y-122264285D01*
X175516785Y-122264285D01*
X175421547Y-122216666D01*
X175373928Y-122169047D01*
X175326309Y-122073809D01*
X175326309Y-121788095D01*
X175373928Y-121692857D01*
X175421547Y-121645238D01*
X175516785Y-121597619D01*
X175659642Y-121597619D01*
X174992976Y-122264285D02*
X174754880Y-121597619D01*
X174516785Y-122264285D02*
X174754880Y-121597619D01*
X174850119Y-121359523D01*
X174897738Y-121311904D01*
X174992976Y-121264285D01*
X174183452Y-121645238D02*
X174088214Y-121597619D01*
X173897738Y-121597619D01*
X173802500Y-121645238D01*
X173754880Y-121740476D01*
X173754880Y-121788095D01*
X173802500Y-121883333D01*
X173897738Y-121930952D01*
X174040595Y-121930952D01*
X174135833Y-121978571D01*
X174183452Y-122073809D01*
X174183452Y-122121428D01*
X174135833Y-122216666D01*
X174040595Y-122264285D01*
X173897738Y-122264285D01*
X173802500Y-122216666D01*
X173469166Y-122264285D02*
X173088214Y-122264285D01*
X173326309Y-122597619D02*
X173326309Y-121740476D01*
X173278690Y-121645238D01*
X173183452Y-121597619D01*
X173088214Y-121597619D01*
X172754880Y-121597619D02*
X172754880Y-122264285D01*
X172754880Y-122597619D02*
X172802500Y-122550000D01*
X172754880Y-122502380D01*
X172707261Y-122550000D01*
X172754880Y-122597619D01*
X172754880Y-122502380D01*
X171850119Y-121645238D02*
X171945357Y-121597619D01*
X172135833Y-121597619D01*
X172231071Y-121645238D01*
X172278690Y-121692857D01*
X172326309Y-121788095D01*
X172326309Y-122073809D01*
X172278690Y-122169047D01*
X172231071Y-122216666D01*
X172135833Y-122264285D01*
X171945357Y-122264285D01*
X171850119Y-122216666D01*
X171421547Y-121597619D02*
X171421547Y-122597619D01*
X171326309Y-121978571D02*
X171040595Y-121597619D01*
X171040595Y-122264285D02*
X171421547Y-121883333D01*
X169278690Y-121692857D02*
X169326309Y-121645238D01*
X169469166Y-121597619D01*
X169564404Y-121597619D01*
X169707261Y-121645238D01*
X169802500Y-121740476D01*
X169850119Y-121835714D01*
X169897738Y-122026190D01*
X169897738Y-122169047D01*
X169850119Y-122359523D01*
X169802500Y-122454761D01*
X169707261Y-122550000D01*
X169564404Y-122597619D01*
X169469166Y-122597619D01*
X169326309Y-122550000D01*
X169278690Y-122502380D01*
X168707261Y-121597619D02*
X168802500Y-121645238D01*
X168850119Y-121692857D01*
X168897738Y-121788095D01*
X168897738Y-122073809D01*
X168850119Y-122169047D01*
X168802500Y-122216666D01*
X168707261Y-122264285D01*
X168564404Y-122264285D01*
X168469166Y-122216666D01*
X168421547Y-122169047D01*
X168373928Y-122073809D01*
X168373928Y-121788095D01*
X168421547Y-121692857D01*
X168469166Y-121645238D01*
X168564404Y-121597619D01*
X168707261Y-121597619D01*
X167945357Y-122264285D02*
X167945357Y-121597619D01*
X167945357Y-122169047D02*
X167897738Y-122216666D01*
X167802500Y-122264285D01*
X167659642Y-122264285D01*
X167564404Y-122216666D01*
X167516785Y-122121428D01*
X167516785Y-121597619D01*
X167183452Y-122264285D02*
X166802500Y-122264285D01*
X167040595Y-122597619D02*
X167040595Y-121740476D01*
X166992976Y-121645238D01*
X166897738Y-121597619D01*
X166802500Y-121597619D01*
X166469166Y-121597619D02*
X166469166Y-122264285D01*
X166469166Y-122073809D02*
X166421547Y-122169047D01*
X166373928Y-122216666D01*
X166278690Y-122264285D01*
X166183452Y-122264285D01*
X165707261Y-121597619D02*
X165802500Y-121645238D01*
X165850119Y-121692857D01*
X165897738Y-121788095D01*
X165897738Y-122073809D01*
X165850119Y-122169047D01*
X165802500Y-122216666D01*
X165707261Y-122264285D01*
X165564404Y-122264285D01*
X165469166Y-122216666D01*
X165421547Y-122169047D01*
X165373928Y-122073809D01*
X165373928Y-121788095D01*
X165421547Y-121692857D01*
X165469166Y-121645238D01*
X165564404Y-121597619D01*
X165707261Y-121597619D01*
X164802500Y-121597619D02*
X164897738Y-121645238D01*
X164945357Y-121740476D01*
X164945357Y-122597619D01*
X164278690Y-121597619D02*
X164373928Y-121645238D01*
X164421547Y-121740476D01*
X164421547Y-122597619D01*
X163516785Y-121645238D02*
X163612023Y-121597619D01*
X163802500Y-121597619D01*
X163897738Y-121645238D01*
X163945357Y-121740476D01*
X163945357Y-122121428D01*
X163897738Y-122216666D01*
X163802500Y-122264285D01*
X163612023Y-122264285D01*
X163516785Y-122216666D01*
X163469166Y-122121428D01*
X163469166Y-122026190D01*
X163945357Y-121930952D01*
X163040595Y-121597619D02*
X163040595Y-122264285D01*
X163040595Y-122073809D02*
X162992976Y-122169047D01*
X162945357Y-122216666D01*
X162850119Y-122264285D01*
X162754880Y-122264285D01*
X161754880Y-122264285D02*
X161516785Y-121597619D01*
X161278690Y-122264285D01*
X160373928Y-121597619D02*
X160945357Y-121597619D01*
X160659642Y-121597619D02*
X160659642Y-122597619D01*
X160754880Y-122454761D01*
X160850119Y-122359523D01*
X160945357Y-122311904D01*
X176564404Y-119947619D02*
X176564404Y-120947619D01*
X176231071Y-120233333D01*
X175897738Y-120947619D01*
X175897738Y-119947619D01*
X174992976Y-119947619D02*
X174992976Y-120471428D01*
X175040595Y-120566666D01*
X175135833Y-120614285D01*
X175326309Y-120614285D01*
X175421547Y-120566666D01*
X174992976Y-119995238D02*
X175088214Y-119947619D01*
X175326309Y-119947619D01*
X175421547Y-119995238D01*
X175469166Y-120090476D01*
X175469166Y-120185714D01*
X175421547Y-120280952D01*
X175326309Y-120328571D01*
X175088214Y-120328571D01*
X174992976Y-120376190D01*
X174088214Y-119947619D02*
X174088214Y-120947619D01*
X174088214Y-119995238D02*
X174183452Y-119947619D01*
X174373928Y-119947619D01*
X174469166Y-119995238D01*
X174516785Y-120042857D01*
X174564404Y-120138095D01*
X174564404Y-120423809D01*
X174516785Y-120519047D01*
X174469166Y-120566666D01*
X174373928Y-120614285D01*
X174183452Y-120614285D01*
X174088214Y-120566666D01*
X173231071Y-119995238D02*
X173326309Y-119947619D01*
X173516785Y-119947619D01*
X173612023Y-119995238D01*
X173659642Y-120090476D01*
X173659642Y-120471428D01*
X173612023Y-120566666D01*
X173516785Y-120614285D01*
X173326309Y-120614285D01*
X173231071Y-120566666D01*
X173183452Y-120471428D01*
X173183452Y-120376190D01*
X173659642Y-120280952D01*
X171659642Y-120471428D02*
X171516785Y-120423809D01*
X171469166Y-120376190D01*
X171421547Y-120280952D01*
X171421547Y-120138095D01*
X171469166Y-120042857D01*
X171516785Y-119995238D01*
X171612023Y-119947619D01*
X171992976Y-119947619D01*
X171992976Y-120947619D01*
X171659642Y-120947619D01*
X171564404Y-120900000D01*
X171516785Y-120852380D01*
X171469166Y-120757142D01*
X171469166Y-120661904D01*
X171516785Y-120566666D01*
X171564404Y-120519047D01*
X171659642Y-120471428D01*
X171992976Y-120471428D01*
X171088214Y-120614285D02*
X170850119Y-119947619D01*
X170612023Y-120614285D02*
X170850119Y-119947619D01*
X170945357Y-119709523D01*
X170992976Y-119661904D01*
X171088214Y-119614285D01*
X170231071Y-120042857D02*
X170183452Y-119995238D01*
X170231071Y-119947619D01*
X170278690Y-119995238D01*
X170231071Y-120042857D01*
X170231071Y-119947619D01*
X170231071Y-120566666D02*
X170183452Y-120519047D01*
X170231071Y-120471428D01*
X170278690Y-120519047D01*
X170231071Y-120566666D01*
X170231071Y-120471428D01*
X169040595Y-119995238D02*
X168897738Y-119947619D01*
X168659642Y-119947619D01*
X168564404Y-119995238D01*
X168516785Y-120042857D01*
X168469166Y-120138095D01*
X168469166Y-120233333D01*
X168516785Y-120328571D01*
X168564404Y-120376190D01*
X168659642Y-120423809D01*
X168850119Y-120471428D01*
X168945357Y-120519047D01*
X168992976Y-120566666D01*
X169040595Y-120661904D01*
X169040595Y-120757142D01*
X168992976Y-120852380D01*
X168945357Y-120900000D01*
X168850119Y-120947619D01*
X168612023Y-120947619D01*
X168469166Y-120900000D01*
X168040595Y-119947619D02*
X168040595Y-120614285D01*
X168040595Y-120947619D02*
X168088214Y-120900000D01*
X168040595Y-120852380D01*
X167992976Y-120900000D01*
X168040595Y-120947619D01*
X168040595Y-120852380D01*
X167135833Y-119947619D02*
X167135833Y-120947619D01*
X167135833Y-119995238D02*
X167231071Y-119947619D01*
X167421547Y-119947619D01*
X167516785Y-119995238D01*
X167564404Y-120042857D01*
X167612023Y-120138095D01*
X167612023Y-120423809D01*
X167564404Y-120519047D01*
X167516785Y-120566666D01*
X167421547Y-120614285D01*
X167231071Y-120614285D01*
X167135833Y-120566666D01*
X165897738Y-119947619D02*
X165897738Y-120947619D01*
X165659642Y-120947619D01*
X165516785Y-120900000D01*
X165421547Y-120804761D01*
X165373928Y-120709523D01*
X165326309Y-120519047D01*
X165326309Y-120376190D01*
X165373928Y-120185714D01*
X165421547Y-120090476D01*
X165516785Y-119995238D01*
X165659642Y-119947619D01*
X165897738Y-119947619D01*
X164469166Y-119947619D02*
X164469166Y-120471428D01*
X164516785Y-120566666D01*
X164612023Y-120614285D01*
X164802500Y-120614285D01*
X164897738Y-120566666D01*
X164469166Y-119995238D02*
X164564404Y-119947619D01*
X164802500Y-119947619D01*
X164897738Y-119995238D01*
X164945357Y-120090476D01*
X164945357Y-120185714D01*
X164897738Y-120280952D01*
X164802500Y-120328571D01*
X164564404Y-120328571D01*
X164469166Y-120376190D01*
X164088214Y-120614285D02*
X163850119Y-119947619D01*
X163612023Y-120614285D01*
X163231071Y-119947619D02*
X163231071Y-120614285D01*
X163231071Y-120947619D02*
X163278690Y-120900000D01*
X163231071Y-120852380D01*
X163183452Y-120900000D01*
X163231071Y-120947619D01*
X163231071Y-120852380D01*
X162802500Y-119995238D02*
X162707261Y-119947619D01*
X162516785Y-119947619D01*
X162421547Y-119995238D01*
X162373928Y-120090476D01*
X162373928Y-120138095D01*
X162421547Y-120233333D01*
X162516785Y-120280952D01*
X162659642Y-120280952D01*
X162754880Y-120328571D01*
X162802500Y-120423809D01*
X162802500Y-120471428D01*
X162754880Y-120566666D01*
X162659642Y-120614285D01*
X162516785Y-120614285D01*
X162421547Y-120566666D01*
X176564404Y-118297619D02*
X176564404Y-119297619D01*
X176231071Y-118583333D01*
X175897738Y-119297619D01*
X175897738Y-118297619D01*
X175469166Y-118345238D02*
X175326309Y-118297619D01*
X175088214Y-118297619D01*
X174992976Y-118345238D01*
X174945357Y-118392857D01*
X174897738Y-118488095D01*
X174897738Y-118583333D01*
X174945357Y-118678571D01*
X174992976Y-118726190D01*
X175088214Y-118773809D01*
X175278690Y-118821428D01*
X175373928Y-118869047D01*
X175421547Y-118916666D01*
X175469166Y-119011904D01*
X175469166Y-119107142D01*
X175421547Y-119202380D01*
X175373928Y-119250000D01*
X175278690Y-119297619D01*
X175040595Y-119297619D01*
X174897738Y-119250000D01*
X174469166Y-118297619D02*
X174469166Y-119297619D01*
X174231071Y-119297619D01*
X174088214Y-119250000D01*
X173992976Y-119154761D01*
X173945357Y-119059523D01*
X173897738Y-118869047D01*
X173897738Y-118726190D01*
X173945357Y-118535714D01*
X173992976Y-118440476D01*
X174088214Y-118345238D01*
X174231071Y-118297619D01*
X174469166Y-118297619D01*
X172707261Y-118297619D02*
X172707261Y-119297619D01*
X172326309Y-119297619D01*
X172231071Y-119250000D01*
X172183452Y-119202380D01*
X172135833Y-119107142D01*
X172135833Y-118964285D01*
X172183452Y-118869047D01*
X172231071Y-118821428D01*
X172326309Y-118773809D01*
X172707261Y-118773809D01*
X171754880Y-119202380D02*
X171707261Y-119250000D01*
X171612023Y-119297619D01*
X171373928Y-119297619D01*
X171278690Y-119250000D01*
X171231071Y-119202380D01*
X171183452Y-119107142D01*
X171183452Y-119011904D01*
X171231071Y-118869047D01*
X171802500Y-118297619D01*
X171183452Y-118297619D01*
X170231071Y-118297619D02*
X170802500Y-118297619D01*
X170516785Y-118297619D02*
X170516785Y-119297619D01*
X170612023Y-119154761D01*
X170707261Y-119059523D01*
X170802500Y-119011904D01*
X169897738Y-119297619D02*
X169278690Y-119297619D01*
X169612023Y-118916666D01*
X169469166Y-118916666D01*
X169373928Y-118869047D01*
X169326309Y-118821428D01*
X169278690Y-118726190D01*
X169278690Y-118488095D01*
X169326309Y-118392857D01*
X169373928Y-118345238D01*
X169469166Y-118297619D01*
X169754880Y-118297619D01*
X169850119Y-118345238D01*
X169897738Y-118392857D01*
X168326309Y-118297619D02*
X168897738Y-118297619D01*
X168612023Y-118297619D02*
X168612023Y-119297619D01*
X168707261Y-119154761D01*
X168802500Y-119059523D01*
X168897738Y-119011904D01*
X167373928Y-118297619D02*
X167945357Y-118297619D01*
X167659642Y-118297619D02*
X167659642Y-119297619D01*
X167754880Y-119154761D01*
X167850119Y-119059523D01*
X167945357Y-119011904D01*
X171980952Y-81195238D02*
X171933333Y-81290476D01*
X171885714Y-81338095D01*
X171790476Y-81385714D01*
X171742857Y-81385714D01*
X171647619Y-81338095D01*
X171600000Y-81290476D01*
X171552380Y-81195238D01*
X171552380Y-81004761D01*
X171600000Y-80909523D01*
X171647619Y-80861904D01*
X171742857Y-80814285D01*
X171790476Y-80814285D01*
X171885714Y-80861904D01*
X171933333Y-80909523D01*
X171980952Y-81004761D01*
X171980952Y-81195238D01*
X172028571Y-81290476D01*
X172076190Y-81338095D01*
X172171428Y-81385714D01*
X172361904Y-81385714D01*
X172457142Y-81338095D01*
X172504761Y-81290476D01*
X172552380Y-81195238D01*
X172552380Y-81004761D01*
X172504761Y-80909523D01*
X172457142Y-80861904D01*
X172361904Y-80814285D01*
X172171428Y-80814285D01*
X172076190Y-80861904D01*
X172028571Y-80909523D01*
X171980952Y-81004761D01*
X173552380Y-81333333D02*
X173552380Y-80666666D01*
X174552380Y-81095238D01*
X171647619Y-90985714D02*
X171600000Y-90938095D01*
X171552380Y-90842857D01*
X171552380Y-90604761D01*
X171600000Y-90509523D01*
X171647619Y-90461904D01*
X171742857Y-90414285D01*
X171838095Y-90414285D01*
X171980952Y-90461904D01*
X172552380Y-91033333D01*
X172552380Y-90414285D01*
X174552380Y-90314285D02*
X174552380Y-90885714D01*
X174552380Y-90600000D02*
X173552380Y-90600000D01*
X173695238Y-90695238D01*
X173790476Y-90790476D01*
X173838095Y-90885714D01*
X172080952Y-98895238D02*
X172033333Y-98990476D01*
X171985714Y-99038095D01*
X171890476Y-99085714D01*
X171842857Y-99085714D01*
X171747619Y-99038095D01*
X171700000Y-98990476D01*
X171652380Y-98895238D01*
X171652380Y-98704761D01*
X171700000Y-98609523D01*
X171747619Y-98561904D01*
X171842857Y-98514285D01*
X171890476Y-98514285D01*
X171985714Y-98561904D01*
X172033333Y-98609523D01*
X172080952Y-98704761D01*
X172080952Y-98895238D01*
X172128571Y-98990476D01*
X172176190Y-99038095D01*
X172271428Y-99085714D01*
X172461904Y-99085714D01*
X172557142Y-99038095D01*
X172604761Y-98990476D01*
X172652380Y-98895238D01*
X172652380Y-98704761D01*
X172604761Y-98609523D01*
X172557142Y-98561904D01*
X172461904Y-98514285D01*
X172271428Y-98514285D01*
X172176190Y-98561904D01*
X172128571Y-98609523D01*
X172080952Y-98704761D01*
X173652380Y-99133333D02*
X173652380Y-98466666D01*
X174652380Y-98895238D01*
X171747619Y-108685714D02*
X171700000Y-108638095D01*
X171652380Y-108542857D01*
X171652380Y-108304761D01*
X171700000Y-108209523D01*
X171747619Y-108161904D01*
X171842857Y-108114285D01*
X171938095Y-108114285D01*
X172080952Y-108161904D01*
X172652380Y-108733333D01*
X172652380Y-108114285D01*
X174852380Y-108014285D02*
X174852380Y-108585714D01*
X174852380Y-108300000D02*
X173852380Y-108300000D01*
X173995238Y-108395238D01*
X174090476Y-108490476D01*
X174138095Y-108585714D01*
D11*
%TO.C,G\u002A\u002A\u002A*%
G36*
X124395928Y-87332571D02*
G01*
X124432372Y-87202287D01*
X124481296Y-87056150D01*
X124550665Y-86860213D01*
X124626414Y-86640537D01*
X124675461Y-86494776D01*
X124731658Y-86342402D01*
X124788161Y-86217144D01*
X124832829Y-86145888D01*
X124833188Y-86145526D01*
X124869595Y-86123281D01*
X124935359Y-86106755D01*
X125041372Y-86095190D01*
X125198524Y-86087827D01*
X125417705Y-86083907D01*
X125709806Y-86082672D01*
X125735549Y-86082666D01*
X126575051Y-86082666D01*
X126617678Y-85966250D01*
X126717917Y-85694667D01*
X126828776Y-85398042D01*
X126946265Y-85086699D01*
X127066391Y-84770961D01*
X127185165Y-84461153D01*
X127298595Y-84167598D01*
X127402690Y-83900621D01*
X127493460Y-83670544D01*
X127566914Y-83487693D01*
X127619061Y-83362390D01*
X127645909Y-83304961D01*
X127647101Y-83303285D01*
X127676718Y-83286617D01*
X127740198Y-83273356D01*
X127845505Y-83263168D01*
X128000604Y-83255717D01*
X128213458Y-83250667D01*
X128492033Y-83247682D01*
X128844292Y-83246427D01*
X128998153Y-83246333D01*
X130301939Y-83246333D01*
X130327884Y-83128207D01*
X130416458Y-82909080D01*
X130568379Y-82736091D01*
X130770248Y-82619617D01*
X131008670Y-82570033D01*
X131049916Y-82569000D01*
X131276490Y-82602877D01*
X131454697Y-82695190D01*
X131580041Y-82831963D01*
X131648027Y-82999218D01*
X131654161Y-83182977D01*
X131593945Y-83369265D01*
X131462887Y-83544103D01*
X131385096Y-83611169D01*
X131224876Y-83733166D01*
X130423131Y-83718245D01*
X130153717Y-83715148D01*
X129930652Y-83716425D01*
X129763818Y-83721783D01*
X129663095Y-83730925D01*
X129636943Y-83741749D01*
X129668200Y-83782701D01*
X129748097Y-83877996D01*
X129868959Y-84018752D01*
X130023115Y-84196086D01*
X130202890Y-84401116D01*
X130372078Y-84592753D01*
X131091656Y-85405333D01*
X131995434Y-85405333D01*
X132043412Y-85259959D01*
X132129540Y-85105536D01*
X132271999Y-84955891D01*
X132444488Y-84834256D01*
X132599008Y-84769164D01*
X132834611Y-84741018D01*
X133041255Y-84792088D01*
X133216072Y-84917605D01*
X133327705Y-85081865D01*
X133358295Y-85268025D01*
X133307453Y-85472234D01*
X133278108Y-85532994D01*
X133151564Y-85693361D01*
X132972611Y-85822869D01*
X132770298Y-85904794D01*
X132598203Y-85924368D01*
X132485959Y-85919181D01*
X132310224Y-85911672D01*
X132092112Y-85902719D01*
X131852736Y-85893197D01*
X131765826Y-85889814D01*
X131127485Y-85865124D01*
X130978724Y-86196145D01*
X130829962Y-86527166D01*
X131127683Y-86577400D01*
X131552600Y-86682322D01*
X131914632Y-86843445D01*
X132214851Y-87061491D01*
X132454328Y-87337183D01*
X132582841Y-87557574D01*
X132636904Y-87675926D01*
X132671405Y-87781835D01*
X132690640Y-87900345D01*
X132698899Y-88056500D01*
X132700500Y-88243862D01*
X132699058Y-88447071D01*
X132690897Y-88592812D01*
X132670260Y-88708281D01*
X132631394Y-88820669D01*
X132568544Y-88957173D01*
X132535176Y-89025068D01*
X132311425Y-89387630D01*
X132026673Y-89705499D01*
X131691959Y-89974665D01*
X131318320Y-90191117D01*
X130916795Y-90350847D01*
X130498421Y-90449844D01*
X130074235Y-90484099D01*
X130035938Y-90480946D01*
X130035938Y-90016419D01*
X130428937Y-89983366D01*
X130832068Y-89875230D01*
X131095414Y-89764875D01*
X131442271Y-89564625D01*
X131733730Y-89327190D01*
X131965096Y-89060750D01*
X132131676Y-88773484D01*
X132228775Y-88473572D01*
X132251699Y-88169195D01*
X132195754Y-87868531D01*
X132191319Y-87855253D01*
X132063778Y-87600540D01*
X131867947Y-87390407D01*
X131634757Y-87237858D01*
X131305561Y-87098262D01*
X130971759Y-87028954D01*
X130615548Y-87027820D01*
X130287500Y-87077686D01*
X129892200Y-87197309D01*
X129527409Y-87379413D01*
X129205526Y-87614840D01*
X129180818Y-87640754D01*
X129180818Y-87000929D01*
X129221560Y-86989286D01*
X129314902Y-86946235D01*
X129423032Y-86890410D01*
X129586209Y-86813324D01*
X129785869Y-86733658D01*
X129962288Y-86673910D01*
X130272076Y-86580676D01*
X130434891Y-86236421D01*
X130507202Y-86083231D01*
X130563890Y-85962572D01*
X130596616Y-85892226D01*
X130601353Y-85881583D01*
X130563490Y-85877251D01*
X130458222Y-85873777D01*
X130302808Y-85871572D01*
X130158424Y-85871000D01*
X129711848Y-85871000D01*
X129439960Y-86429592D01*
X129345093Y-86626999D01*
X129266409Y-86795545D01*
X129210099Y-86921582D01*
X129182353Y-86991460D01*
X129180818Y-87000929D01*
X129180818Y-87640754D01*
X128938951Y-87894431D01*
X128740085Y-88209029D01*
X128731450Y-88226971D01*
X128654841Y-88403428D01*
X128654764Y-88403698D01*
X128654764Y-86927626D01*
X128679996Y-86890821D01*
X128734999Y-86789821D01*
X128813404Y-86636996D01*
X128908840Y-86444717D01*
X128996333Y-86264214D01*
X129105784Y-86039630D01*
X129208280Y-85835772D01*
X129296077Y-85667559D01*
X129361429Y-85549913D01*
X129390989Y-85503922D01*
X129429378Y-85461418D01*
X129476478Y-85433268D01*
X129549126Y-85416532D01*
X129664160Y-85408269D01*
X129838419Y-85405541D01*
X129955669Y-85405333D01*
X130443193Y-85405333D01*
X130327613Y-85267750D01*
X130262853Y-85192133D01*
X130153412Y-85065949D01*
X130010585Y-84902153D01*
X129845668Y-84713699D01*
X129681751Y-84526960D01*
X129516069Y-84339559D01*
X129370546Y-84176988D01*
X129253918Y-84048841D01*
X129174926Y-83964714D01*
X129142306Y-83934203D01*
X129142008Y-83934293D01*
X129115368Y-83985317D01*
X129064011Y-84102088D01*
X128992621Y-84272679D01*
X128905881Y-84485161D01*
X128808473Y-84727604D01*
X128705079Y-84988081D01*
X128600383Y-85254662D01*
X128499068Y-85515418D01*
X128405815Y-85758421D01*
X128325309Y-85971742D01*
X128262231Y-86143452D01*
X128221264Y-86261623D01*
X128207091Y-86314325D01*
X128207279Y-86315421D01*
X128242521Y-86378540D01*
X128310675Y-86481505D01*
X128397773Y-86605209D01*
X128489850Y-86730543D01*
X128572938Y-86838401D01*
X128633071Y-86909676D01*
X128654764Y-86927626D01*
X128654764Y-88403698D01*
X128613468Y-88549008D01*
X128597914Y-88704769D01*
X128596985Y-88813166D01*
X128634306Y-89116207D01*
X128741837Y-89376418D01*
X128922227Y-89597641D01*
X129178122Y-89783715D01*
X129315418Y-89855490D01*
X129661842Y-89973942D01*
X130035938Y-90016419D01*
X130035938Y-90480946D01*
X129655276Y-90449602D01*
X129252581Y-90342344D01*
X129092896Y-90275543D01*
X128796276Y-90097517D01*
X128538799Y-89865701D01*
X128332233Y-89595094D01*
X128188343Y-89300699D01*
X128123689Y-89039853D01*
X128096183Y-88832506D01*
X127967326Y-88834393D01*
X127967326Y-88370567D01*
X128182331Y-87935700D01*
X128268123Y-87759053D01*
X128338235Y-87608762D01*
X128384920Y-87501832D01*
X128400501Y-87456790D01*
X128377810Y-87407760D01*
X128313565Y-87305629D01*
X128217319Y-87164796D01*
X128098625Y-86999661D01*
X128084542Y-86980540D01*
X127765417Y-86548333D01*
X127419417Y-86548333D01*
X127419417Y-86082607D01*
X127747500Y-86082547D01*
X128220358Y-84929024D01*
X128340311Y-84635578D01*
X128449294Y-84367391D01*
X128543283Y-84134490D01*
X128618252Y-83946907D01*
X128670179Y-83814669D01*
X128695038Y-83747807D01*
X128696608Y-83742102D01*
X128659137Y-83728449D01*
X128556119Y-83720437D01*
X128406552Y-83719173D01*
X128334046Y-83720935D01*
X127968092Y-83733166D01*
X127529712Y-84896990D01*
X127418688Y-85192099D01*
X127318004Y-85460409D01*
X127231356Y-85692016D01*
X127162441Y-85877015D01*
X127114954Y-86005502D01*
X127092591Y-86067572D01*
X127091333Y-86071740D01*
X127130272Y-86076881D01*
X127233518Y-86080704D01*
X127380712Y-86082538D01*
X127419417Y-86082607D01*
X127419417Y-86548333D01*
X126602875Y-86548333D01*
X126299088Y-86549440D01*
X126024964Y-86552563D01*
X125791312Y-86557408D01*
X125608939Y-86563679D01*
X125488652Y-86571081D01*
X125441258Y-86579318D01*
X125440938Y-86580083D01*
X125462114Y-86623759D01*
X125521260Y-86729389D01*
X125612326Y-86886603D01*
X125729266Y-87085029D01*
X125866032Y-87314298D01*
X125965544Y-87479666D01*
X126489546Y-88347500D01*
X127228436Y-88359034D01*
X127967326Y-88370567D01*
X127967326Y-88834393D01*
X127311318Y-88844003D01*
X126526452Y-88855500D01*
X126319856Y-89382984D01*
X126239816Y-89582943D01*
X126167039Y-89756719D01*
X126108697Y-89887740D01*
X126071961Y-89959435D01*
X126067946Y-89965068D01*
X125983737Y-90010158D01*
X125868569Y-90015053D01*
X125765358Y-89980923D01*
X125736558Y-89956036D01*
X125702200Y-89898527D01*
X125690036Y-89825029D01*
X125702608Y-89722840D01*
X125742457Y-89579255D01*
X125812127Y-89381569D01*
X125894280Y-89167656D01*
X126103713Y-88633146D01*
X125573850Y-87751496D01*
X125043986Y-86869846D01*
X124935243Y-87190671D01*
X124876398Y-87351810D01*
X124819318Y-87487206D01*
X124774739Y-87571790D01*
X124768400Y-87580248D01*
X124672601Y-87639153D01*
X124561209Y-87635151D01*
X124459781Y-87579329D01*
X124393876Y-87482773D01*
X124382000Y-87412650D01*
X124395928Y-87332571D01*
G37*
X124395928Y-87332571D02*
X124432372Y-87202287D01*
X124481296Y-87056150D01*
X124550665Y-86860213D01*
X124626414Y-86640537D01*
X124675461Y-86494776D01*
X124731658Y-86342402D01*
X124788161Y-86217144D01*
X124832829Y-86145888D01*
X124833188Y-86145526D01*
X124869595Y-86123281D01*
X124935359Y-86106755D01*
X125041372Y-86095190D01*
X125198524Y-86087827D01*
X125417705Y-86083907D01*
X125709806Y-86082672D01*
X125735549Y-86082666D01*
X126575051Y-86082666D01*
X126617678Y-85966250D01*
X126717917Y-85694667D01*
X126828776Y-85398042D01*
X126946265Y-85086699D01*
X127066391Y-84770961D01*
X127185165Y-84461153D01*
X127298595Y-84167598D01*
X127402690Y-83900621D01*
X127493460Y-83670544D01*
X127566914Y-83487693D01*
X127619061Y-83362390D01*
X127645909Y-83304961D01*
X127647101Y-83303285D01*
X127676718Y-83286617D01*
X127740198Y-83273356D01*
X127845505Y-83263168D01*
X128000604Y-83255717D01*
X128213458Y-83250667D01*
X128492033Y-83247682D01*
X128844292Y-83246427D01*
X128998153Y-83246333D01*
X130301939Y-83246333D01*
X130327884Y-83128207D01*
X130416458Y-82909080D01*
X130568379Y-82736091D01*
X130770248Y-82619617D01*
X131008670Y-82570033D01*
X131049916Y-82569000D01*
X131276490Y-82602877D01*
X131454697Y-82695190D01*
X131580041Y-82831963D01*
X131648027Y-82999218D01*
X131654161Y-83182977D01*
X131593945Y-83369265D01*
X131462887Y-83544103D01*
X131385096Y-83611169D01*
X131224876Y-83733166D01*
X130423131Y-83718245D01*
X130153717Y-83715148D01*
X129930652Y-83716425D01*
X129763818Y-83721783D01*
X129663095Y-83730925D01*
X129636943Y-83741749D01*
X129668200Y-83782701D01*
X129748097Y-83877996D01*
X129868959Y-84018752D01*
X130023115Y-84196086D01*
X130202890Y-84401116D01*
X130372078Y-84592753D01*
X131091656Y-85405333D01*
X131995434Y-85405333D01*
X132043412Y-85259959D01*
X132129540Y-85105536D01*
X132271999Y-84955891D01*
X132444488Y-84834256D01*
X132599008Y-84769164D01*
X132834611Y-84741018D01*
X133041255Y-84792088D01*
X133216072Y-84917605D01*
X133327705Y-85081865D01*
X133358295Y-85268025D01*
X133307453Y-85472234D01*
X133278108Y-85532994D01*
X133151564Y-85693361D01*
X132972611Y-85822869D01*
X132770298Y-85904794D01*
X132598203Y-85924368D01*
X132485959Y-85919181D01*
X132310224Y-85911672D01*
X132092112Y-85902719D01*
X131852736Y-85893197D01*
X131765826Y-85889814D01*
X131127485Y-85865124D01*
X130978724Y-86196145D01*
X130829962Y-86527166D01*
X131127683Y-86577400D01*
X131552600Y-86682322D01*
X131914632Y-86843445D01*
X132214851Y-87061491D01*
X132454328Y-87337183D01*
X132582841Y-87557574D01*
X132636904Y-87675926D01*
X132671405Y-87781835D01*
X132690640Y-87900345D01*
X132698899Y-88056500D01*
X132700500Y-88243862D01*
X132699058Y-88447071D01*
X132690897Y-88592812D01*
X132670260Y-88708281D01*
X132631394Y-88820669D01*
X132568544Y-88957173D01*
X132535176Y-89025068D01*
X132311425Y-89387630D01*
X132026673Y-89705499D01*
X131691959Y-89974665D01*
X131318320Y-90191117D01*
X130916795Y-90350847D01*
X130498421Y-90449844D01*
X130074235Y-90484099D01*
X130035938Y-90480946D01*
X130035938Y-90016419D01*
X130428937Y-89983366D01*
X130832068Y-89875230D01*
X131095414Y-89764875D01*
X131442271Y-89564625D01*
X131733730Y-89327190D01*
X131965096Y-89060750D01*
X132131676Y-88773484D01*
X132228775Y-88473572D01*
X132251699Y-88169195D01*
X132195754Y-87868531D01*
X132191319Y-87855253D01*
X132063778Y-87600540D01*
X131867947Y-87390407D01*
X131634757Y-87237858D01*
X131305561Y-87098262D01*
X130971759Y-87028954D01*
X130615548Y-87027820D01*
X130287500Y-87077686D01*
X129892200Y-87197309D01*
X129527409Y-87379413D01*
X129205526Y-87614840D01*
X129180818Y-87640754D01*
X129180818Y-87000929D01*
X129221560Y-86989286D01*
X129314902Y-86946235D01*
X129423032Y-86890410D01*
X129586209Y-86813324D01*
X129785869Y-86733658D01*
X129962288Y-86673910D01*
X130272076Y-86580676D01*
X130434891Y-86236421D01*
X130507202Y-86083231D01*
X130563890Y-85962572D01*
X130596616Y-85892226D01*
X130601353Y-85881583D01*
X130563490Y-85877251D01*
X130458222Y-85873777D01*
X130302808Y-85871572D01*
X130158424Y-85871000D01*
X129711848Y-85871000D01*
X129439960Y-86429592D01*
X129345093Y-86626999D01*
X129266409Y-86795545D01*
X129210099Y-86921582D01*
X129182353Y-86991460D01*
X129180818Y-87000929D01*
X129180818Y-87640754D01*
X128938951Y-87894431D01*
X128740085Y-88209029D01*
X128731450Y-88226971D01*
X128654841Y-88403428D01*
X128654764Y-88403698D01*
X128654764Y-86927626D01*
X128679996Y-86890821D01*
X128734999Y-86789821D01*
X128813404Y-86636996D01*
X128908840Y-86444717D01*
X128996333Y-86264214D01*
X129105784Y-86039630D01*
X129208280Y-85835772D01*
X129296077Y-85667559D01*
X129361429Y-85549913D01*
X129390989Y-85503922D01*
X129429378Y-85461418D01*
X129476478Y-85433268D01*
X129549126Y-85416532D01*
X129664160Y-85408269D01*
X129838419Y-85405541D01*
X129955669Y-85405333D01*
X130443193Y-85405333D01*
X130327613Y-85267750D01*
X130262853Y-85192133D01*
X130153412Y-85065949D01*
X130010585Y-84902153D01*
X129845668Y-84713699D01*
X129681751Y-84526960D01*
X129516069Y-84339559D01*
X129370546Y-84176988D01*
X129253918Y-84048841D01*
X129174926Y-83964714D01*
X129142306Y-83934203D01*
X129142008Y-83934293D01*
X129115368Y-83985317D01*
X129064011Y-84102088D01*
X128992621Y-84272679D01*
X128905881Y-84485161D01*
X128808473Y-84727604D01*
X128705079Y-84988081D01*
X128600383Y-85254662D01*
X128499068Y-85515418D01*
X128405815Y-85758421D01*
X128325309Y-85971742D01*
X128262231Y-86143452D01*
X128221264Y-86261623D01*
X128207091Y-86314325D01*
X128207279Y-86315421D01*
X128242521Y-86378540D01*
X128310675Y-86481505D01*
X128397773Y-86605209D01*
X128489850Y-86730543D01*
X128572938Y-86838401D01*
X128633071Y-86909676D01*
X128654764Y-86927626D01*
X128654764Y-88403698D01*
X128613468Y-88549008D01*
X128597914Y-88704769D01*
X128596985Y-88813166D01*
X128634306Y-89116207D01*
X128741837Y-89376418D01*
X128922227Y-89597641D01*
X129178122Y-89783715D01*
X129315418Y-89855490D01*
X129661842Y-89973942D01*
X130035938Y-90016419D01*
X130035938Y-90480946D01*
X129655276Y-90449602D01*
X129252581Y-90342344D01*
X129092896Y-90275543D01*
X128796276Y-90097517D01*
X128538799Y-89865701D01*
X128332233Y-89595094D01*
X128188343Y-89300699D01*
X128123689Y-89039853D01*
X128096183Y-88832506D01*
X127967326Y-88834393D01*
X127967326Y-88370567D01*
X128182331Y-87935700D01*
X128268123Y-87759053D01*
X128338235Y-87608762D01*
X128384920Y-87501832D01*
X128400501Y-87456790D01*
X128377810Y-87407760D01*
X128313565Y-87305629D01*
X128217319Y-87164796D01*
X128098625Y-86999661D01*
X128084542Y-86980540D01*
X127765417Y-86548333D01*
X127419417Y-86548333D01*
X127419417Y-86082607D01*
X127747500Y-86082547D01*
X128220358Y-84929024D01*
X128340311Y-84635578D01*
X128449294Y-84367391D01*
X128543283Y-84134490D01*
X128618252Y-83946907D01*
X128670179Y-83814669D01*
X128695038Y-83747807D01*
X128696608Y-83742102D01*
X128659137Y-83728449D01*
X128556119Y-83720437D01*
X128406552Y-83719173D01*
X128334046Y-83720935D01*
X127968092Y-83733166D01*
X127529712Y-84896990D01*
X127418688Y-85192099D01*
X127318004Y-85460409D01*
X127231356Y-85692016D01*
X127162441Y-85877015D01*
X127114954Y-86005502D01*
X127092591Y-86067572D01*
X127091333Y-86071740D01*
X127130272Y-86076881D01*
X127233518Y-86080704D01*
X127380712Y-86082538D01*
X127419417Y-86082607D01*
X127419417Y-86548333D01*
X126602875Y-86548333D01*
X126299088Y-86549440D01*
X126024964Y-86552563D01*
X125791312Y-86557408D01*
X125608939Y-86563679D01*
X125488652Y-86571081D01*
X125441258Y-86579318D01*
X125440938Y-86580083D01*
X125462114Y-86623759D01*
X125521260Y-86729389D01*
X125612326Y-86886603D01*
X125729266Y-87085029D01*
X125866032Y-87314298D01*
X125965544Y-87479666D01*
X126489546Y-88347500D01*
X127228436Y-88359034D01*
X127967326Y-88370567D01*
X127967326Y-88834393D01*
X127311318Y-88844003D01*
X126526452Y-88855500D01*
X126319856Y-89382984D01*
X126239816Y-89582943D01*
X126167039Y-89756719D01*
X126108697Y-89887740D01*
X126071961Y-89959435D01*
X126067946Y-89965068D01*
X125983737Y-90010158D01*
X125868569Y-90015053D01*
X125765358Y-89980923D01*
X125736558Y-89956036D01*
X125702200Y-89898527D01*
X125690036Y-89825029D01*
X125702608Y-89722840D01*
X125742457Y-89579255D01*
X125812127Y-89381569D01*
X125894280Y-89167656D01*
X126103713Y-88633146D01*
X125573850Y-87751496D01*
X125043986Y-86869846D01*
X124935243Y-87190671D01*
X124876398Y-87351810D01*
X124819318Y-87487206D01*
X124774739Y-87571790D01*
X124768400Y-87580248D01*
X124672601Y-87639153D01*
X124561209Y-87635151D01*
X124459781Y-87579329D01*
X124393876Y-87482773D01*
X124382000Y-87412650D01*
X124395928Y-87332571D01*
G36*
X124367034Y-102171262D02*
G01*
X124427126Y-102112355D01*
X124531836Y-102054526D01*
X124551991Y-102044586D01*
X124763000Y-101941006D01*
X124763000Y-101379473D01*
X124551333Y-101280333D01*
X124439647Y-101223703D01*
X124373021Y-101168217D01*
X124345223Y-101093965D01*
X124350020Y-100981042D01*
X124381178Y-100809538D01*
X124390188Y-100765664D01*
X124440709Y-100521065D01*
X124633604Y-100495842D01*
X124762256Y-100478873D01*
X124859359Y-100465805D01*
X124881442Y-100462726D01*
X124926474Y-100422621D01*
X124988622Y-100326160D01*
X125045120Y-100213972D01*
X125153856Y-99973110D01*
X124997144Y-99781864D01*
X124906361Y-99655174D01*
X124868511Y-99564627D01*
X124872161Y-99535893D01*
X124911444Y-99472466D01*
X124980486Y-99364591D01*
X125044479Y-99266071D01*
X125185069Y-99050975D01*
X125442996Y-99113986D01*
X125700924Y-99176997D01*
X125873627Y-99004294D01*
X126046331Y-98831591D01*
X125983319Y-98573663D01*
X125920308Y-98315735D01*
X126135404Y-98175146D01*
X126259743Y-98094515D01*
X126360218Y-98030497D01*
X126405226Y-98002828D01*
X126471358Y-98010022D01*
X126580613Y-98073695D01*
X126651198Y-98127811D01*
X126842443Y-98284522D01*
X127083305Y-98175891D01*
X127220751Y-98107950D01*
X127296590Y-98050304D01*
X127329436Y-97986174D01*
X127335345Y-97948713D01*
X127353928Y-97770571D01*
X127377435Y-97657986D01*
X127418938Y-97592240D01*
X127491506Y-97554616D01*
X127608210Y-97526397D01*
X127633974Y-97521066D01*
X127818261Y-97485744D01*
X127940396Y-97475820D01*
X128020738Y-97497701D01*
X128079644Y-97557793D01*
X128137473Y-97662503D01*
X128147413Y-97682658D01*
X128250993Y-97893666D01*
X128812527Y-97893666D01*
X128911667Y-97682000D01*
X128968296Y-97570313D01*
X129023783Y-97503688D01*
X129098034Y-97475890D01*
X129210958Y-97480686D01*
X129382462Y-97511844D01*
X129426336Y-97520854D01*
X129670934Y-97571375D01*
X129696157Y-97764271D01*
X129713127Y-97892922D01*
X129726194Y-97990026D01*
X129729274Y-98012109D01*
X129769378Y-98057140D01*
X129865840Y-98119289D01*
X129978028Y-98175787D01*
X130218890Y-98284522D01*
X130410135Y-98127811D01*
X130536826Y-98037028D01*
X130627373Y-97999177D01*
X130656107Y-98002828D01*
X130719533Y-98042111D01*
X130827409Y-98111152D01*
X130925929Y-98175146D01*
X131141025Y-98315735D01*
X131078014Y-98573663D01*
X131015002Y-98831591D01*
X131187706Y-99004294D01*
X131360409Y-99176997D01*
X131618337Y-99113986D01*
X131876264Y-99050975D01*
X132016854Y-99266071D01*
X132097485Y-99390410D01*
X132161503Y-99490885D01*
X132189172Y-99535893D01*
X132181978Y-99602025D01*
X132118305Y-99711280D01*
X132064189Y-99781864D01*
X131907477Y-99973110D01*
X132016213Y-100213972D01*
X132081403Y-100341379D01*
X132142122Y-100431650D01*
X132179891Y-100462726D01*
X132253287Y-100472754D01*
X132373484Y-100488723D01*
X132427729Y-100495842D01*
X132620624Y-100521065D01*
X132671145Y-100765664D01*
X132706905Y-100951529D01*
X132717573Y-101074763D01*
X132696915Y-101155272D01*
X132638697Y-101212964D01*
X132536688Y-101267748D01*
X132510000Y-101280333D01*
X132298333Y-101379473D01*
X132298333Y-101941006D01*
X132509342Y-102044586D01*
X132623850Y-102108283D01*
X132691447Y-102175025D01*
X132717736Y-102264215D01*
X132708320Y-102395252D01*
X132668801Y-102587538D01*
X132667621Y-102592666D01*
X132638937Y-102709281D01*
X132616766Y-102785486D01*
X132610841Y-102799169D01*
X132565188Y-102812206D01*
X132460843Y-102829117D01*
X132361496Y-102841503D01*
X132125055Y-102867833D01*
X132016266Y-103108695D01*
X131907477Y-103349556D01*
X132064189Y-103540802D01*
X132154972Y-103667493D01*
X132192822Y-103758040D01*
X132189172Y-103786774D01*
X132149889Y-103850200D01*
X132080847Y-103958075D01*
X132016854Y-104056596D01*
X131876264Y-104271692D01*
X131618337Y-104208680D01*
X131491765Y-104177759D01*
X131491765Y-103185333D01*
X131602314Y-103177590D01*
X131660237Y-103140344D01*
X131697150Y-103052566D01*
X131698624Y-103047750D01*
X131750157Y-102859723D01*
X131802646Y-102637229D01*
X131850457Y-102407720D01*
X131887951Y-102198648D01*
X131909494Y-102037465D01*
X131911568Y-102010583D01*
X131903184Y-101946064D01*
X131851796Y-101919584D01*
X131769167Y-101915333D01*
X131669619Y-101908253D01*
X131628789Y-101872343D01*
X131621000Y-101788333D01*
X131621000Y-101661333D01*
X128827000Y-101661333D01*
X128827000Y-101764484D01*
X128811889Y-101838481D01*
X128750207Y-101872192D01*
X128689417Y-101880901D01*
X128551833Y-101894166D01*
X128530667Y-102192267D01*
X128530667Y-101322666D01*
X128700000Y-101322666D01*
X128811389Y-101315202D01*
X128860455Y-101285946D01*
X128869333Y-101241800D01*
X128878895Y-101201037D01*
X128918512Y-101173868D01*
X129004583Y-101155297D01*
X129153507Y-101140325D01*
X129218583Y-101135371D01*
X129363909Y-101127498D01*
X129576225Y-101119695D01*
X129837856Y-101112428D01*
X130131127Y-101106159D01*
X130438363Y-101101352D01*
X130573290Y-101099821D01*
X131578747Y-101089833D01*
X131578707Y-101206250D01*
X131588842Y-101286014D01*
X131636520Y-101317672D01*
X131719778Y-101322666D01*
X131807240Y-101320902D01*
X131865603Y-101307098D01*
X131897197Y-101268490D01*
X131904356Y-101192312D01*
X131889410Y-101065800D01*
X131854692Y-100876188D01*
X131827041Y-100735452D01*
X131782200Y-100508072D01*
X131098350Y-100523786D01*
X130843801Y-100529235D01*
X130661512Y-100531170D01*
X130539103Y-100528295D01*
X130464197Y-100519311D01*
X130424414Y-100502922D01*
X130407377Y-100477831D01*
X130401832Y-100450811D01*
X130401275Y-100411321D01*
X130422607Y-100384236D01*
X130480211Y-100365758D01*
X130588467Y-100352083D01*
X130761759Y-100339411D01*
X130842334Y-100334394D01*
X131058797Y-100322500D01*
X131270796Y-100313158D01*
X131447420Y-100307629D01*
X131522320Y-100306666D01*
X131749136Y-100306666D01*
X131679814Y-100147916D01*
X131629226Y-100020238D01*
X131593308Y-99908819D01*
X131589449Y-99892892D01*
X131579418Y-99857092D01*
X131559115Y-99831726D01*
X131515993Y-99815284D01*
X131437505Y-99806259D01*
X131311107Y-99803141D01*
X131124252Y-99804419D01*
X130885619Y-99808226D01*
X130202833Y-99819833D01*
X130216125Y-99957416D01*
X130217339Y-100052100D01*
X130184167Y-100089384D01*
X130124238Y-100095000D01*
X130044163Y-100076309D01*
X130000856Y-100004702D01*
X129989832Y-99961924D01*
X129960603Y-99828847D01*
X129552552Y-99855871D01*
X129335781Y-99868270D01*
X129114216Y-99877729D01*
X128926002Y-99882713D01*
X128876553Y-99883114D01*
X128770761Y-99883200D01*
X128770761Y-99456635D01*
X128950835Y-99450994D01*
X129188304Y-99439506D01*
X129491816Y-99422412D01*
X129870019Y-99399953D01*
X129927667Y-99396500D01*
X130214727Y-99379310D01*
X130472560Y-99363888D01*
X130689518Y-99350931D01*
X130853953Y-99341132D01*
X130954219Y-99335188D01*
X130980285Y-99333678D01*
X130971157Y-99302763D01*
X130927681Y-99229137D01*
X130926393Y-99227166D01*
X130882513Y-99152856D01*
X130894512Y-99125315D01*
X130963857Y-99121333D01*
X131045142Y-99111686D01*
X131061900Y-99076641D01*
X131012808Y-99007045D01*
X130936283Y-98930722D01*
X130722120Y-98741128D01*
X130543762Y-98609427D01*
X130406954Y-98539562D01*
X130351000Y-98528919D01*
X130243815Y-98506515D01*
X130121224Y-98452451D01*
X130106560Y-98443842D01*
X130020658Y-98401671D01*
X129917085Y-98375849D01*
X129773615Y-98362897D01*
X129568020Y-98359333D01*
X129566810Y-98359333D01*
X129394230Y-98360604D01*
X129258875Y-98364018D01*
X129179156Y-98368979D01*
X129165667Y-98372312D01*
X129192185Y-98407421D01*
X129261526Y-98486560D01*
X129353269Y-98586745D01*
X129540872Y-98788199D01*
X129885173Y-98779098D01*
X130077664Y-98778796D01*
X130202565Y-98791592D01*
X130276248Y-98819658D01*
X130292671Y-98833195D01*
X130310866Y-98860120D01*
X130295139Y-98879864D01*
X130233900Y-98894750D01*
X130115557Y-98907104D01*
X129928516Y-98919248D01*
X129838788Y-98924197D01*
X129587318Y-98935780D01*
X129318567Y-98945000D01*
X129070160Y-98950708D01*
X128927676Y-98952000D01*
X128739801Y-98950126D01*
X128618757Y-98942217D01*
X128546752Y-98924844D01*
X128505989Y-98894579D01*
X128488333Y-98867333D01*
X128470182Y-98824419D01*
X128482838Y-98799166D01*
X128541388Y-98786906D01*
X128660920Y-98782972D01*
X128762010Y-98782666D01*
X128914162Y-98778065D01*
X129026869Y-98765888D01*
X129079496Y-98748578D01*
X129081000Y-98744911D01*
X129056437Y-98692787D01*
X128993584Y-98600660D01*
X128943417Y-98535429D01*
X128805833Y-98363703D01*
X128371917Y-98361518D01*
X128147243Y-98365337D01*
X128004025Y-98379937D01*
X127939651Y-98406008D01*
X127951515Y-98444240D01*
X127980333Y-98465166D01*
X128021990Y-98518773D01*
X127990711Y-98561433D01*
X127938000Y-98571000D01*
X127870325Y-98588981D01*
X127860980Y-98648788D01*
X127909764Y-98759218D01*
X127932866Y-98798836D01*
X128001744Y-98933802D01*
X128060468Y-99081349D01*
X128063149Y-99089583D01*
X128106436Y-99194788D01*
X128162060Y-99239839D01*
X128238524Y-99248333D01*
X128347805Y-99273085D01*
X128411369Y-99354166D01*
X128428666Y-99388680D01*
X128451474Y-99415897D01*
X128488440Y-99436060D01*
X128548211Y-99449409D01*
X128639436Y-99456187D01*
X128770761Y-99456635D01*
X128770761Y-99883200D01*
X128608606Y-99883333D01*
X128636500Y-100010333D01*
X128648684Y-100098726D01*
X128616339Y-100132271D01*
X128534030Y-100137333D01*
X128464908Y-100137963D01*
X128425083Y-100150688D01*
X128411504Y-100191763D01*
X128421117Y-100277442D01*
X128450867Y-100423980D01*
X128466431Y-100497182D01*
X128500143Y-100697170D01*
X128523218Y-100911932D01*
X128529931Y-101058083D01*
X128530667Y-101322666D01*
X128530667Y-102192267D01*
X128524781Y-102275166D01*
X128506471Y-102473128D01*
X128481683Y-102662972D01*
X128454967Y-102811355D01*
X128447432Y-102842150D01*
X128422334Y-102980965D01*
X128447782Y-103060161D01*
X128534065Y-103094601D01*
X128625917Y-103100018D01*
X128711639Y-103086630D01*
X128740773Y-103029697D01*
X128742333Y-102994833D01*
X128740138Y-102963493D01*
X128739102Y-102938374D01*
X128747546Y-102919145D01*
X128773794Y-102905476D01*
X128826167Y-102897035D01*
X128912987Y-102893491D01*
X129042578Y-102894511D01*
X129223261Y-102899767D01*
X129463358Y-102908924D01*
X129771192Y-102921654D01*
X130155085Y-102937624D01*
X130167144Y-102938120D01*
X131401455Y-102988875D01*
X131364109Y-103087104D01*
X131346904Y-103150348D01*
X131372810Y-103178286D01*
X131460399Y-103185210D01*
X131491765Y-103185333D01*
X131491765Y-104177759D01*
X131360409Y-104145669D01*
X131015002Y-104491076D01*
X131078014Y-104749003D01*
X131141025Y-105006931D01*
X130925929Y-105147520D01*
X130801590Y-105228151D01*
X130701115Y-105292170D01*
X130656107Y-105319838D01*
X130589950Y-105312666D01*
X130480737Y-105249019D01*
X130410654Y-105195280D01*
X130229912Y-105047176D01*
X130229912Y-104878666D01*
X130417456Y-104749633D01*
X130522185Y-104670661D01*
X130590259Y-104606060D01*
X130605000Y-104580299D01*
X130564362Y-104565668D01*
X130449172Y-104553806D01*
X130269517Y-104545282D01*
X130035484Y-104540666D01*
X129891837Y-104540000D01*
X129617255Y-104538238D01*
X129337321Y-104533385D01*
X129077976Y-104526092D01*
X128865164Y-104517012D01*
X128788619Y-104512313D01*
X128607208Y-104498007D01*
X128497700Y-104484163D01*
X128447427Y-104467211D01*
X128443720Y-104443576D01*
X128462766Y-104420424D01*
X128490395Y-104401329D01*
X128536258Y-104387478D01*
X128610114Y-104378734D01*
X128721717Y-104374957D01*
X128880825Y-104376009D01*
X129097194Y-104381752D01*
X129380580Y-104392049D01*
X129661234Y-104403435D01*
X130795500Y-104450647D01*
X130954250Y-104296232D01*
X131049367Y-104199492D01*
X131100308Y-104129722D01*
X131099994Y-104082462D01*
X131041346Y-104053258D01*
X130917285Y-104037652D01*
X130720733Y-104031186D01*
X130530917Y-104029691D01*
X130273232Y-104026567D01*
X129998145Y-104019622D01*
X129719082Y-104009587D01*
X129449471Y-103997196D01*
X129202738Y-103983178D01*
X128992309Y-103968266D01*
X128831611Y-103953191D01*
X128734070Y-103938685D01*
X128711439Y-103930550D01*
X128696961Y-103900651D01*
X128725329Y-103878108D01*
X128803143Y-103862557D01*
X128937006Y-103853632D01*
X129133518Y-103850969D01*
X129399281Y-103854201D01*
X129740898Y-103862965D01*
X129864167Y-103866777D01*
X130168749Y-103877093D01*
X130451982Y-103887824D01*
X130700793Y-103898388D01*
X130902112Y-103908196D01*
X131042867Y-103916666D01*
X131104792Y-103922325D01*
X131190124Y-103927659D01*
X131251938Y-103902158D01*
X131314539Y-103829688D01*
X131368897Y-103747023D01*
X131434401Y-103636583D01*
X131472340Y-103558328D01*
X131476319Y-103534542D01*
X131431279Y-103527954D01*
X131312918Y-103517953D01*
X131132480Y-103505285D01*
X130901210Y-103490695D01*
X130630350Y-103474931D01*
X130344381Y-103459429D01*
X130026246Y-103442517D01*
X129718715Y-103425698D01*
X129437255Y-103409854D01*
X129197332Y-103395866D01*
X129014414Y-103384616D01*
X128921139Y-103378299D01*
X128761678Y-103368172D01*
X128665591Y-103370291D01*
X128611908Y-103389524D01*
X128579659Y-103430739D01*
X128565094Y-103460946D01*
X128495996Y-103544993D01*
X128395824Y-103566333D01*
X128317290Y-103577562D01*
X128262254Y-103622519D01*
X128218623Y-103718107D01*
X128176225Y-103873250D01*
X128165113Y-103956489D01*
X128201500Y-103986403D01*
X128258221Y-103989666D01*
X128337719Y-104006371D01*
X128349865Y-104044179D01*
X128302164Y-104084631D01*
X128209906Y-104108526D01*
X128148992Y-104122147D01*
X128097526Y-104158175D01*
X128044253Y-104231264D01*
X127977921Y-104356073D01*
X127909244Y-104500109D01*
X127732321Y-104878666D01*
X130229912Y-104878666D01*
X130229912Y-105047176D01*
X130219927Y-105038994D01*
X129978547Y-105143178D01*
X129850535Y-105206788D01*
X129760030Y-105267594D01*
X129729274Y-105306431D01*
X129719211Y-105382599D01*
X129703190Y-105504658D01*
X129696157Y-105558395D01*
X129670934Y-105751291D01*
X129426336Y-105801812D01*
X129240470Y-105837572D01*
X129117237Y-105848240D01*
X129036728Y-105827581D01*
X128979035Y-105769364D01*
X128924252Y-105667354D01*
X128911667Y-105640666D01*
X128812527Y-105429000D01*
X128248806Y-105429000D01*
X128149667Y-105640666D01*
X128093037Y-105752353D01*
X128037550Y-105818979D01*
X127963299Y-105846777D01*
X127850375Y-105841980D01*
X127678871Y-105810822D01*
X127634997Y-105801812D01*
X127390399Y-105751291D01*
X127365176Y-105558395D01*
X127348166Y-105428586D01*
X127335092Y-105329273D01*
X127332059Y-105306431D01*
X127291665Y-105259749D01*
X127209496Y-105207232D01*
X127209496Y-104709333D01*
X127262232Y-104673117D01*
X127342267Y-104573741D01*
X127441849Y-104425117D01*
X127553223Y-104241154D01*
X127668635Y-104035763D01*
X127780333Y-103822855D01*
X127880563Y-103616339D01*
X127961571Y-103430128D01*
X128015604Y-103278130D01*
X128023560Y-103248833D01*
X128058058Y-103127931D01*
X128089052Y-103039318D01*
X128107326Y-102987620D01*
X128090788Y-102980593D01*
X128023405Y-103018236D01*
X127989132Y-103039318D01*
X127774066Y-103176339D01*
X127575161Y-103311026D01*
X127404300Y-103434546D01*
X127273362Y-103538067D01*
X127194229Y-103612755D01*
X127176000Y-103643849D01*
X127154844Y-103787645D01*
X127099685Y-103923411D01*
X127022985Y-104036121D01*
X126937206Y-104110746D01*
X126854811Y-104132261D01*
X126798218Y-104099377D01*
X126778021Y-104045161D01*
X126821728Y-103985241D01*
X126852707Y-103959453D01*
X126942309Y-103840017D01*
X126970717Y-103714866D01*
X126974406Y-103607101D01*
X126946257Y-103552501D01*
X126866682Y-103520454D01*
X126842087Y-103513850D01*
X126658149Y-103503240D01*
X126575148Y-103527390D01*
X126475715Y-103557027D01*
X126414178Y-103538970D01*
X126401061Y-103527106D01*
X126379387Y-103477000D01*
X126423186Y-103417237D01*
X126448191Y-103395816D01*
X126520443Y-103350893D01*
X126610608Y-103331871D01*
X126746606Y-103334366D01*
X126808024Y-103339318D01*
X127070167Y-103362661D01*
X127440583Y-103102538D01*
X127591562Y-102995778D01*
X127712879Y-102908594D01*
X127790295Y-102851306D01*
X127811052Y-102833958D01*
X127770939Y-102831967D01*
X127659346Y-102831527D01*
X127489446Y-102832557D01*
X127274411Y-102834978D01*
X127117515Y-102837347D01*
X127117515Y-102420364D01*
X127200644Y-102379863D01*
X127253284Y-102287095D01*
X127260667Y-102225173D01*
X127230906Y-102140333D01*
X127151250Y-102101151D01*
X127147518Y-102101153D01*
X127147518Y-101322476D01*
X127228415Y-101298125D01*
X127232444Y-101294444D01*
X127260040Y-101217198D01*
X127248602Y-101114365D01*
X127203903Y-101032202D01*
X127199198Y-101028019D01*
X127108012Y-100994884D01*
X127019458Y-101023663D01*
X126954320Y-101093571D01*
X126933382Y-101183822D01*
X126966019Y-101261198D01*
X127044634Y-101308243D01*
X127147518Y-101322476D01*
X127147518Y-102101153D01*
X127030089Y-102101230D01*
X126953923Y-102159705D01*
X126938157Y-102259636D01*
X126955918Y-102315936D01*
X127027929Y-102401441D01*
X127117515Y-102420364D01*
X127117515Y-102837347D01*
X127027885Y-102838701D01*
X126244667Y-102851902D01*
X126244667Y-100603000D01*
X127006667Y-100603000D01*
X127249924Y-100601330D01*
X127460858Y-100596690D01*
X127626153Y-100589637D01*
X127732494Y-100580726D01*
X127766813Y-100571250D01*
X127733151Y-100535689D01*
X127643752Y-100464842D01*
X127513521Y-100370089D01*
X127404537Y-100294610D01*
X127044115Y-100049719D01*
X126824752Y-100089590D01*
X126683749Y-100106277D01*
X126573207Y-100103317D01*
X126537963Y-100093375D01*
X126436529Y-100015027D01*
X126399518Y-99931032D01*
X126411582Y-99887245D01*
X126449773Y-99855846D01*
X126514176Y-99872692D01*
X126570007Y-99903362D01*
X126657048Y-99947235D01*
X126730199Y-99952089D01*
X126830744Y-99918721D01*
X126854631Y-99908845D01*
X126961190Y-99852213D01*
X126994736Y-99797771D01*
X126990118Y-99774268D01*
X126968802Y-99676755D01*
X126964333Y-99611499D01*
X126924953Y-99514287D01*
X126856912Y-99466979D01*
X126783855Y-99421795D01*
X126778912Y-99367803D01*
X126795607Y-99331865D01*
X126841724Y-99245695D01*
X126962647Y-99331799D01*
X127064880Y-99443369D01*
X127134391Y-99616599D01*
X127138330Y-99631566D01*
X127175041Y-99750319D01*
X127225172Y-99837692D01*
X127308379Y-99918237D01*
X127444320Y-100016511D01*
X127449128Y-100019791D01*
X127614104Y-100132876D01*
X127785476Y-100251291D01*
X127905816Y-100335177D01*
X128020816Y-100411564D01*
X128109610Y-100462706D01*
X128144736Y-100476000D01*
X128150733Y-100439099D01*
X128131369Y-100339093D01*
X128091342Y-100192027D01*
X128035354Y-100013948D01*
X127968101Y-99820900D01*
X127902981Y-99650500D01*
X127718731Y-99256636D01*
X127478412Y-98848260D01*
X127445464Y-98798034D01*
X127365147Y-98681905D01*
X127300616Y-98619275D01*
X127230108Y-98607300D01*
X127131857Y-98643141D01*
X126984099Y-98723954D01*
X126964333Y-98735213D01*
X126595290Y-98974868D01*
X126260092Y-99250048D01*
X125976816Y-99544525D01*
X125803324Y-99777500D01*
X125684512Y-99963249D01*
X125600771Y-100100409D01*
X125540374Y-100210948D01*
X125491593Y-100316834D01*
X125442703Y-100440035D01*
X125425987Y-100484388D01*
X125282879Y-100980388D01*
X125217785Y-101486626D01*
X125229317Y-101992597D01*
X125316085Y-102487795D01*
X125476700Y-102961715D01*
X125709772Y-103403854D01*
X125836322Y-103587500D01*
X126002773Y-103791494D01*
X126197798Y-104000449D01*
X126398984Y-104192212D01*
X126583918Y-104344629D01*
X126646833Y-104388646D01*
X126886956Y-104542053D01*
X127061341Y-104645425D01*
X127171787Y-104699787D01*
X127209496Y-104709333D01*
X127209496Y-105207232D01*
X127194522Y-105197661D01*
X127082786Y-105143178D01*
X126841406Y-105038994D01*
X126650679Y-105195280D01*
X126524180Y-105285873D01*
X126433768Y-105323528D01*
X126405226Y-105319838D01*
X126341800Y-105280556D01*
X126233924Y-105211514D01*
X126135404Y-105147520D01*
X125920308Y-105006931D01*
X125983319Y-104749003D01*
X126046331Y-104491076D01*
X125700924Y-104145669D01*
X125442996Y-104208680D01*
X125185069Y-104271692D01*
X125044479Y-104056596D01*
X124963848Y-103932257D01*
X124899830Y-103831782D01*
X124872161Y-103786774D01*
X124879355Y-103720642D01*
X124943028Y-103611386D01*
X124997144Y-103540802D01*
X125153856Y-103349556D01*
X125045224Y-103108695D01*
X124977283Y-102971249D01*
X124919637Y-102895410D01*
X124855507Y-102862564D01*
X124818046Y-102856655D01*
X124639904Y-102838072D01*
X124527319Y-102814564D01*
X124461573Y-102773062D01*
X124423949Y-102700494D01*
X124395730Y-102583789D01*
X124390399Y-102558026D01*
X124355078Y-102373739D01*
X124345154Y-102251603D01*
X124367034Y-102171262D01*
G37*
X124367034Y-102171262D02*
X124427126Y-102112355D01*
X124531836Y-102054526D01*
X124551991Y-102044586D01*
X124763000Y-101941006D01*
X124763000Y-101379473D01*
X124551333Y-101280333D01*
X124439647Y-101223703D01*
X124373021Y-101168217D01*
X124345223Y-101093965D01*
X124350020Y-100981042D01*
X124381178Y-100809538D01*
X124390188Y-100765664D01*
X124440709Y-100521065D01*
X124633604Y-100495842D01*
X124762256Y-100478873D01*
X124859359Y-100465805D01*
X124881442Y-100462726D01*
X124926474Y-100422621D01*
X124988622Y-100326160D01*
X125045120Y-100213972D01*
X125153856Y-99973110D01*
X124997144Y-99781864D01*
X124906361Y-99655174D01*
X124868511Y-99564627D01*
X124872161Y-99535893D01*
X124911444Y-99472466D01*
X124980486Y-99364591D01*
X125044479Y-99266071D01*
X125185069Y-99050975D01*
X125442996Y-99113986D01*
X125700924Y-99176997D01*
X125873627Y-99004294D01*
X126046331Y-98831591D01*
X125983319Y-98573663D01*
X125920308Y-98315735D01*
X126135404Y-98175146D01*
X126259743Y-98094515D01*
X126360218Y-98030497D01*
X126405226Y-98002828D01*
X126471358Y-98010022D01*
X126580613Y-98073695D01*
X126651198Y-98127811D01*
X126842443Y-98284522D01*
X127083305Y-98175891D01*
X127220751Y-98107950D01*
X127296590Y-98050304D01*
X127329436Y-97986174D01*
X127335345Y-97948713D01*
X127353928Y-97770571D01*
X127377435Y-97657986D01*
X127418938Y-97592240D01*
X127491506Y-97554616D01*
X127608210Y-97526397D01*
X127633974Y-97521066D01*
X127818261Y-97485744D01*
X127940396Y-97475820D01*
X128020738Y-97497701D01*
X128079644Y-97557793D01*
X128137473Y-97662503D01*
X128147413Y-97682658D01*
X128250993Y-97893666D01*
X128812527Y-97893666D01*
X128911667Y-97682000D01*
X128968296Y-97570313D01*
X129023783Y-97503688D01*
X129098034Y-97475890D01*
X129210958Y-97480686D01*
X129382462Y-97511844D01*
X129426336Y-97520854D01*
X129670934Y-97571375D01*
X129696157Y-97764271D01*
X129713127Y-97892922D01*
X129726194Y-97990026D01*
X129729274Y-98012109D01*
X129769378Y-98057140D01*
X129865840Y-98119289D01*
X129978028Y-98175787D01*
X130218890Y-98284522D01*
X130410135Y-98127811D01*
X130536826Y-98037028D01*
X130627373Y-97999177D01*
X130656107Y-98002828D01*
X130719533Y-98042111D01*
X130827409Y-98111152D01*
X130925929Y-98175146D01*
X131141025Y-98315735D01*
X131078014Y-98573663D01*
X131015002Y-98831591D01*
X131187706Y-99004294D01*
X131360409Y-99176997D01*
X131618337Y-99113986D01*
X131876264Y-99050975D01*
X132016854Y-99266071D01*
X132097485Y-99390410D01*
X132161503Y-99490885D01*
X132189172Y-99535893D01*
X132181978Y-99602025D01*
X132118305Y-99711280D01*
X132064189Y-99781864D01*
X131907477Y-99973110D01*
X132016213Y-100213972D01*
X132081403Y-100341379D01*
X132142122Y-100431650D01*
X132179891Y-100462726D01*
X132253287Y-100472754D01*
X132373484Y-100488723D01*
X132427729Y-100495842D01*
X132620624Y-100521065D01*
X132671145Y-100765664D01*
X132706905Y-100951529D01*
X132717573Y-101074763D01*
X132696915Y-101155272D01*
X132638697Y-101212964D01*
X132536688Y-101267748D01*
X132510000Y-101280333D01*
X132298333Y-101379473D01*
X132298333Y-101941006D01*
X132509342Y-102044586D01*
X132623850Y-102108283D01*
X132691447Y-102175025D01*
X132717736Y-102264215D01*
X132708320Y-102395252D01*
X132668801Y-102587538D01*
X132667621Y-102592666D01*
X132638937Y-102709281D01*
X132616766Y-102785486D01*
X132610841Y-102799169D01*
X132565188Y-102812206D01*
X132460843Y-102829117D01*
X132361496Y-102841503D01*
X132125055Y-102867833D01*
X132016266Y-103108695D01*
X131907477Y-103349556D01*
X132064189Y-103540802D01*
X132154972Y-103667493D01*
X132192822Y-103758040D01*
X132189172Y-103786774D01*
X132149889Y-103850200D01*
X132080847Y-103958075D01*
X132016854Y-104056596D01*
X131876264Y-104271692D01*
X131618337Y-104208680D01*
X131491765Y-104177759D01*
X131491765Y-103185333D01*
X131602314Y-103177590D01*
X131660237Y-103140344D01*
X131697150Y-103052566D01*
X131698624Y-103047750D01*
X131750157Y-102859723D01*
X131802646Y-102637229D01*
X131850457Y-102407720D01*
X131887951Y-102198648D01*
X131909494Y-102037465D01*
X131911568Y-102010583D01*
X131903184Y-101946064D01*
X131851796Y-101919584D01*
X131769167Y-101915333D01*
X131669619Y-101908253D01*
X131628789Y-101872343D01*
X131621000Y-101788333D01*
X131621000Y-101661333D01*
X128827000Y-101661333D01*
X128827000Y-101764484D01*
X128811889Y-101838481D01*
X128750207Y-101872192D01*
X128689417Y-101880901D01*
X128551833Y-101894166D01*
X128530667Y-102192267D01*
X128530667Y-101322666D01*
X128700000Y-101322666D01*
X128811389Y-101315202D01*
X128860455Y-101285946D01*
X128869333Y-101241800D01*
X128878895Y-101201037D01*
X128918512Y-101173868D01*
X129004583Y-101155297D01*
X129153507Y-101140325D01*
X129218583Y-101135371D01*
X129363909Y-101127498D01*
X129576225Y-101119695D01*
X129837856Y-101112428D01*
X130131127Y-101106159D01*
X130438363Y-101101352D01*
X130573290Y-101099821D01*
X131578747Y-101089833D01*
X131578707Y-101206250D01*
X131588842Y-101286014D01*
X131636520Y-101317672D01*
X131719778Y-101322666D01*
X131807240Y-101320902D01*
X131865603Y-101307098D01*
X131897197Y-101268490D01*
X131904356Y-101192312D01*
X131889410Y-101065800D01*
X131854692Y-100876188D01*
X131827041Y-100735452D01*
X131782200Y-100508072D01*
X131098350Y-100523786D01*
X130843801Y-100529235D01*
X130661512Y-100531170D01*
X130539103Y-100528295D01*
X130464197Y-100519311D01*
X130424414Y-100502922D01*
X130407377Y-100477831D01*
X130401832Y-100450811D01*
X130401275Y-100411321D01*
X130422607Y-100384236D01*
X130480211Y-100365758D01*
X130588467Y-100352083D01*
X130761759Y-100339411D01*
X130842334Y-100334394D01*
X131058797Y-100322500D01*
X131270796Y-100313158D01*
X131447420Y-100307629D01*
X131522320Y-100306666D01*
X131749136Y-100306666D01*
X131679814Y-100147916D01*
X131629226Y-100020238D01*
X131593308Y-99908819D01*
X131589449Y-99892892D01*
X131579418Y-99857092D01*
X131559115Y-99831726D01*
X131515993Y-99815284D01*
X131437505Y-99806259D01*
X131311107Y-99803141D01*
X131124252Y-99804419D01*
X130885619Y-99808226D01*
X130202833Y-99819833D01*
X130216125Y-99957416D01*
X130217339Y-100052100D01*
X130184167Y-100089384D01*
X130124238Y-100095000D01*
X130044163Y-100076309D01*
X130000856Y-100004702D01*
X129989832Y-99961924D01*
X129960603Y-99828847D01*
X129552552Y-99855871D01*
X129335781Y-99868270D01*
X129114216Y-99877729D01*
X128926002Y-99882713D01*
X128876553Y-99883114D01*
X128770761Y-99883200D01*
X128770761Y-99456635D01*
X128950835Y-99450994D01*
X129188304Y-99439506D01*
X129491816Y-99422412D01*
X129870019Y-99399953D01*
X129927667Y-99396500D01*
X130214727Y-99379310D01*
X130472560Y-99363888D01*
X130689518Y-99350931D01*
X130853953Y-99341132D01*
X130954219Y-99335188D01*
X130980285Y-99333678D01*
X130971157Y-99302763D01*
X130927681Y-99229137D01*
X130926393Y-99227166D01*
X130882513Y-99152856D01*
X130894512Y-99125315D01*
X130963857Y-99121333D01*
X131045142Y-99111686D01*
X131061900Y-99076641D01*
X131012808Y-99007045D01*
X130936283Y-98930722D01*
X130722120Y-98741128D01*
X130543762Y-98609427D01*
X130406954Y-98539562D01*
X130351000Y-98528919D01*
X130243815Y-98506515D01*
X130121224Y-98452451D01*
X130106560Y-98443842D01*
X130020658Y-98401671D01*
X129917085Y-98375849D01*
X129773615Y-98362897D01*
X129568020Y-98359333D01*
X129566810Y-98359333D01*
X129394230Y-98360604D01*
X129258875Y-98364018D01*
X129179156Y-98368979D01*
X129165667Y-98372312D01*
X129192185Y-98407421D01*
X129261526Y-98486560D01*
X129353269Y-98586745D01*
X129540872Y-98788199D01*
X129885173Y-98779098D01*
X130077664Y-98778796D01*
X130202565Y-98791592D01*
X130276248Y-98819658D01*
X130292671Y-98833195D01*
X130310866Y-98860120D01*
X130295139Y-98879864D01*
X130233900Y-98894750D01*
X130115557Y-98907104D01*
X129928516Y-98919248D01*
X129838788Y-98924197D01*
X129587318Y-98935780D01*
X129318567Y-98945000D01*
X129070160Y-98950708D01*
X128927676Y-98952000D01*
X128739801Y-98950126D01*
X128618757Y-98942217D01*
X128546752Y-98924844D01*
X128505989Y-98894579D01*
X128488333Y-98867333D01*
X128470182Y-98824419D01*
X128482838Y-98799166D01*
X128541388Y-98786906D01*
X128660920Y-98782972D01*
X128762010Y-98782666D01*
X128914162Y-98778065D01*
X129026869Y-98765888D01*
X129079496Y-98748578D01*
X129081000Y-98744911D01*
X129056437Y-98692787D01*
X128993584Y-98600660D01*
X128943417Y-98535429D01*
X128805833Y-98363703D01*
X128371917Y-98361518D01*
X128147243Y-98365337D01*
X128004025Y-98379937D01*
X127939651Y-98406008D01*
X127951515Y-98444240D01*
X127980333Y-98465166D01*
X128021990Y-98518773D01*
X127990711Y-98561433D01*
X127938000Y-98571000D01*
X127870325Y-98588981D01*
X127860980Y-98648788D01*
X127909764Y-98759218D01*
X127932866Y-98798836D01*
X128001744Y-98933802D01*
X128060468Y-99081349D01*
X128063149Y-99089583D01*
X128106436Y-99194788D01*
X128162060Y-99239839D01*
X128238524Y-99248333D01*
X128347805Y-99273085D01*
X128411369Y-99354166D01*
X128428666Y-99388680D01*
X128451474Y-99415897D01*
X128488440Y-99436060D01*
X128548211Y-99449409D01*
X128639436Y-99456187D01*
X128770761Y-99456635D01*
X128770761Y-99883200D01*
X128608606Y-99883333D01*
X128636500Y-100010333D01*
X128648684Y-100098726D01*
X128616339Y-100132271D01*
X128534030Y-100137333D01*
X128464908Y-100137963D01*
X128425083Y-100150688D01*
X128411504Y-100191763D01*
X128421117Y-100277442D01*
X128450867Y-100423980D01*
X128466431Y-100497182D01*
X128500143Y-100697170D01*
X128523218Y-100911932D01*
X128529931Y-101058083D01*
X128530667Y-101322666D01*
X128530667Y-102192267D01*
X128524781Y-102275166D01*
X128506471Y-102473128D01*
X128481683Y-102662972D01*
X128454967Y-102811355D01*
X128447432Y-102842150D01*
X128422334Y-102980965D01*
X128447782Y-103060161D01*
X128534065Y-103094601D01*
X128625917Y-103100018D01*
X128711639Y-103086630D01*
X128740773Y-103029697D01*
X128742333Y-102994833D01*
X128740138Y-102963493D01*
X128739102Y-102938374D01*
X128747546Y-102919145D01*
X128773794Y-102905476D01*
X128826167Y-102897035D01*
X128912987Y-102893491D01*
X129042578Y-102894511D01*
X129223261Y-102899767D01*
X129463358Y-102908924D01*
X129771192Y-102921654D01*
X130155085Y-102937624D01*
X130167144Y-102938120D01*
X131401455Y-102988875D01*
X131364109Y-103087104D01*
X131346904Y-103150348D01*
X131372810Y-103178286D01*
X131460399Y-103185210D01*
X131491765Y-103185333D01*
X131491765Y-104177759D01*
X131360409Y-104145669D01*
X131015002Y-104491076D01*
X131078014Y-104749003D01*
X131141025Y-105006931D01*
X130925929Y-105147520D01*
X130801590Y-105228151D01*
X130701115Y-105292170D01*
X130656107Y-105319838D01*
X130589950Y-105312666D01*
X130480737Y-105249019D01*
X130410654Y-105195280D01*
X130229912Y-105047176D01*
X130229912Y-104878666D01*
X130417456Y-104749633D01*
X130522185Y-104670661D01*
X130590259Y-104606060D01*
X130605000Y-104580299D01*
X130564362Y-104565668D01*
X130449172Y-104553806D01*
X130269517Y-104545282D01*
X130035484Y-104540666D01*
X129891837Y-104540000D01*
X129617255Y-104538238D01*
X129337321Y-104533385D01*
X129077976Y-104526092D01*
X128865164Y-104517012D01*
X128788619Y-104512313D01*
X128607208Y-104498007D01*
X128497700Y-104484163D01*
X128447427Y-104467211D01*
X128443720Y-104443576D01*
X128462766Y-104420424D01*
X128490395Y-104401329D01*
X128536258Y-104387478D01*
X128610114Y-104378734D01*
X128721717Y-104374957D01*
X128880825Y-104376009D01*
X129097194Y-104381752D01*
X129380580Y-104392049D01*
X129661234Y-104403435D01*
X130795500Y-104450647D01*
X130954250Y-104296232D01*
X131049367Y-104199492D01*
X131100308Y-104129722D01*
X131099994Y-104082462D01*
X131041346Y-104053258D01*
X130917285Y-104037652D01*
X130720733Y-104031186D01*
X130530917Y-104029691D01*
X130273232Y-104026567D01*
X129998145Y-104019622D01*
X129719082Y-104009587D01*
X129449471Y-103997196D01*
X129202738Y-103983178D01*
X128992309Y-103968266D01*
X128831611Y-103953191D01*
X128734070Y-103938685D01*
X128711439Y-103930550D01*
X128696961Y-103900651D01*
X128725329Y-103878108D01*
X128803143Y-103862557D01*
X128937006Y-103853632D01*
X129133518Y-103850969D01*
X129399281Y-103854201D01*
X129740898Y-103862965D01*
X129864167Y-103866777D01*
X130168749Y-103877093D01*
X130451982Y-103887824D01*
X130700793Y-103898388D01*
X130902112Y-103908196D01*
X131042867Y-103916666D01*
X131104792Y-103922325D01*
X131190124Y-103927659D01*
X131251938Y-103902158D01*
X131314539Y-103829688D01*
X131368897Y-103747023D01*
X131434401Y-103636583D01*
X131472340Y-103558328D01*
X131476319Y-103534542D01*
X131431279Y-103527954D01*
X131312918Y-103517953D01*
X131132480Y-103505285D01*
X130901210Y-103490695D01*
X130630350Y-103474931D01*
X130344381Y-103459429D01*
X130026246Y-103442517D01*
X129718715Y-103425698D01*
X129437255Y-103409854D01*
X129197332Y-103395866D01*
X129014414Y-103384616D01*
X128921139Y-103378299D01*
X128761678Y-103368172D01*
X128665591Y-103370291D01*
X128611908Y-103389524D01*
X128579659Y-103430739D01*
X128565094Y-103460946D01*
X128495996Y-103544993D01*
X128395824Y-103566333D01*
X128317290Y-103577562D01*
X128262254Y-103622519D01*
X128218623Y-103718107D01*
X128176225Y-103873250D01*
X128165113Y-103956489D01*
X128201500Y-103986403D01*
X128258221Y-103989666D01*
X128337719Y-104006371D01*
X128349865Y-104044179D01*
X128302164Y-104084631D01*
X128209906Y-104108526D01*
X128148992Y-104122147D01*
X128097526Y-104158175D01*
X128044253Y-104231264D01*
X127977921Y-104356073D01*
X127909244Y-104500109D01*
X127732321Y-104878666D01*
X130229912Y-104878666D01*
X130229912Y-105047176D01*
X130219927Y-105038994D01*
X129978547Y-105143178D01*
X129850535Y-105206788D01*
X129760030Y-105267594D01*
X129729274Y-105306431D01*
X129719211Y-105382599D01*
X129703190Y-105504658D01*
X129696157Y-105558395D01*
X129670934Y-105751291D01*
X129426336Y-105801812D01*
X129240470Y-105837572D01*
X129117237Y-105848240D01*
X129036728Y-105827581D01*
X128979035Y-105769364D01*
X128924252Y-105667354D01*
X128911667Y-105640666D01*
X128812527Y-105429000D01*
X128248806Y-105429000D01*
X128149667Y-105640666D01*
X128093037Y-105752353D01*
X128037550Y-105818979D01*
X127963299Y-105846777D01*
X127850375Y-105841980D01*
X127678871Y-105810822D01*
X127634997Y-105801812D01*
X127390399Y-105751291D01*
X127365176Y-105558395D01*
X127348166Y-105428586D01*
X127335092Y-105329273D01*
X127332059Y-105306431D01*
X127291665Y-105259749D01*
X127209496Y-105207232D01*
X127209496Y-104709333D01*
X127262232Y-104673117D01*
X127342267Y-104573741D01*
X127441849Y-104425117D01*
X127553223Y-104241154D01*
X127668635Y-104035763D01*
X127780333Y-103822855D01*
X127880563Y-103616339D01*
X127961571Y-103430128D01*
X128015604Y-103278130D01*
X128023560Y-103248833D01*
X128058058Y-103127931D01*
X128089052Y-103039318D01*
X128107326Y-102987620D01*
X128090788Y-102980593D01*
X128023405Y-103018236D01*
X127989132Y-103039318D01*
X127774066Y-103176339D01*
X127575161Y-103311026D01*
X127404300Y-103434546D01*
X127273362Y-103538067D01*
X127194229Y-103612755D01*
X127176000Y-103643849D01*
X127154844Y-103787645D01*
X127099685Y-103923411D01*
X127022985Y-104036121D01*
X126937206Y-104110746D01*
X126854811Y-104132261D01*
X126798218Y-104099377D01*
X126778021Y-104045161D01*
X126821728Y-103985241D01*
X126852707Y-103959453D01*
X126942309Y-103840017D01*
X126970717Y-103714866D01*
X126974406Y-103607101D01*
X126946257Y-103552501D01*
X126866682Y-103520454D01*
X126842087Y-103513850D01*
X126658149Y-103503240D01*
X126575148Y-103527390D01*
X126475715Y-103557027D01*
X126414178Y-103538970D01*
X126401061Y-103527106D01*
X126379387Y-103477000D01*
X126423186Y-103417237D01*
X126448191Y-103395816D01*
X126520443Y-103350893D01*
X126610608Y-103331871D01*
X126746606Y-103334366D01*
X126808024Y-103339318D01*
X127070167Y-103362661D01*
X127440583Y-103102538D01*
X127591562Y-102995778D01*
X127712879Y-102908594D01*
X127790295Y-102851306D01*
X127811052Y-102833958D01*
X127770939Y-102831967D01*
X127659346Y-102831527D01*
X127489446Y-102832557D01*
X127274411Y-102834978D01*
X127117515Y-102837347D01*
X127117515Y-102420364D01*
X127200644Y-102379863D01*
X127253284Y-102287095D01*
X127260667Y-102225173D01*
X127230906Y-102140333D01*
X127151250Y-102101151D01*
X127147518Y-102101153D01*
X127147518Y-101322476D01*
X127228415Y-101298125D01*
X127232444Y-101294444D01*
X127260040Y-101217198D01*
X127248602Y-101114365D01*
X127203903Y-101032202D01*
X127199198Y-101028019D01*
X127108012Y-100994884D01*
X127019458Y-101023663D01*
X126954320Y-101093571D01*
X126933382Y-101183822D01*
X126966019Y-101261198D01*
X127044634Y-101308243D01*
X127147518Y-101322476D01*
X127147518Y-102101153D01*
X127030089Y-102101230D01*
X126953923Y-102159705D01*
X126938157Y-102259636D01*
X126955918Y-102315936D01*
X127027929Y-102401441D01*
X127117515Y-102420364D01*
X127117515Y-102837347D01*
X127027885Y-102838701D01*
X126244667Y-102851902D01*
X126244667Y-100603000D01*
X127006667Y-100603000D01*
X127249924Y-100601330D01*
X127460858Y-100596690D01*
X127626153Y-100589637D01*
X127732494Y-100580726D01*
X127766813Y-100571250D01*
X127733151Y-100535689D01*
X127643752Y-100464842D01*
X127513521Y-100370089D01*
X127404537Y-100294610D01*
X127044115Y-100049719D01*
X126824752Y-100089590D01*
X126683749Y-100106277D01*
X126573207Y-100103317D01*
X126537963Y-100093375D01*
X126436529Y-100015027D01*
X126399518Y-99931032D01*
X126411582Y-99887245D01*
X126449773Y-99855846D01*
X126514176Y-99872692D01*
X126570007Y-99903362D01*
X126657048Y-99947235D01*
X126730199Y-99952089D01*
X126830744Y-99918721D01*
X126854631Y-99908845D01*
X126961190Y-99852213D01*
X126994736Y-99797771D01*
X126990118Y-99774268D01*
X126968802Y-99676755D01*
X126964333Y-99611499D01*
X126924953Y-99514287D01*
X126856912Y-99466979D01*
X126783855Y-99421795D01*
X126778912Y-99367803D01*
X126795607Y-99331865D01*
X126841724Y-99245695D01*
X126962647Y-99331799D01*
X127064880Y-99443369D01*
X127134391Y-99616599D01*
X127138330Y-99631566D01*
X127175041Y-99750319D01*
X127225172Y-99837692D01*
X127308379Y-99918237D01*
X127444320Y-100016511D01*
X127449128Y-100019791D01*
X127614104Y-100132876D01*
X127785476Y-100251291D01*
X127905816Y-100335177D01*
X128020816Y-100411564D01*
X128109610Y-100462706D01*
X128144736Y-100476000D01*
X128150733Y-100439099D01*
X128131369Y-100339093D01*
X128091342Y-100192027D01*
X128035354Y-100013948D01*
X127968101Y-99820900D01*
X127902981Y-99650500D01*
X127718731Y-99256636D01*
X127478412Y-98848260D01*
X127445464Y-98798034D01*
X127365147Y-98681905D01*
X127300616Y-98619275D01*
X127230108Y-98607300D01*
X127131857Y-98643141D01*
X126984099Y-98723954D01*
X126964333Y-98735213D01*
X126595290Y-98974868D01*
X126260092Y-99250048D01*
X125976816Y-99544525D01*
X125803324Y-99777500D01*
X125684512Y-99963249D01*
X125600771Y-100100409D01*
X125540374Y-100210948D01*
X125491593Y-100316834D01*
X125442703Y-100440035D01*
X125425987Y-100484388D01*
X125282879Y-100980388D01*
X125217785Y-101486626D01*
X125229317Y-101992597D01*
X125316085Y-102487795D01*
X125476700Y-102961715D01*
X125709772Y-103403854D01*
X125836322Y-103587500D01*
X126002773Y-103791494D01*
X126197798Y-104000449D01*
X126398984Y-104192212D01*
X126583918Y-104344629D01*
X126646833Y-104388646D01*
X126886956Y-104542053D01*
X127061341Y-104645425D01*
X127171787Y-104699787D01*
X127209496Y-104709333D01*
X127209496Y-105207232D01*
X127194522Y-105197661D01*
X127082786Y-105143178D01*
X126841406Y-105038994D01*
X126650679Y-105195280D01*
X126524180Y-105285873D01*
X126433768Y-105323528D01*
X126405226Y-105319838D01*
X126341800Y-105280556D01*
X126233924Y-105211514D01*
X126135404Y-105147520D01*
X125920308Y-105006931D01*
X125983319Y-104749003D01*
X126046331Y-104491076D01*
X125700924Y-104145669D01*
X125442996Y-104208680D01*
X125185069Y-104271692D01*
X125044479Y-104056596D01*
X124963848Y-103932257D01*
X124899830Y-103831782D01*
X124872161Y-103786774D01*
X124879355Y-103720642D01*
X124943028Y-103611386D01*
X124997144Y-103540802D01*
X125153856Y-103349556D01*
X125045224Y-103108695D01*
X124977283Y-102971249D01*
X124919637Y-102895410D01*
X124855507Y-102862564D01*
X124818046Y-102856655D01*
X124639904Y-102838072D01*
X124527319Y-102814564D01*
X124461573Y-102773062D01*
X124423949Y-102700494D01*
X124395730Y-102583789D01*
X124390399Y-102558026D01*
X124355078Y-102373739D01*
X124345154Y-102251603D01*
X124367034Y-102171262D01*
G36*
X124955945Y-116528417D02*
G01*
X125090587Y-116023100D01*
X125302858Y-115538702D01*
X125485983Y-115233500D01*
X125825917Y-114797441D01*
X126217046Y-114427010D01*
X126662192Y-114120159D01*
X127164179Y-113874843D01*
X127544794Y-113740495D01*
X127702250Y-113695083D01*
X127840267Y-113663592D01*
X127980900Y-113643539D01*
X128146208Y-113632439D01*
X128358245Y-113627809D01*
X128551833Y-113627087D01*
X128810890Y-113628591D01*
X129007401Y-113634767D01*
X129163462Y-113648111D01*
X129301164Y-113671121D01*
X129442603Y-113706293D01*
X129561103Y-113741142D01*
X130098501Y-113942156D01*
X130577163Y-114201241D01*
X131003687Y-114522615D01*
X131377893Y-114902569D01*
X131544486Y-115124875D01*
X131715019Y-115400517D01*
X131874591Y-115701211D01*
X132008303Y-115998674D01*
X132101253Y-116264621D01*
X132107497Y-116287500D01*
X132136340Y-116438522D01*
X132161426Y-116646570D01*
X132181310Y-116886808D01*
X132194548Y-117134398D01*
X132199693Y-117364504D01*
X132195303Y-117552292D01*
X132186292Y-117642166D01*
X132067495Y-118132204D01*
X131874733Y-118614207D01*
X131617794Y-119070385D01*
X131306465Y-119482948D01*
X131007167Y-119785353D01*
X130613717Y-120082930D01*
X130163990Y-120335486D01*
X129679370Y-120531713D01*
X129483167Y-120591180D01*
X129188854Y-120649319D01*
X128842589Y-120681850D01*
X128551833Y-120687312D01*
X128551833Y-120471345D01*
X128805228Y-120469459D01*
X128998032Y-120461918D01*
X129154273Y-120445902D01*
X129297980Y-120418590D01*
X129453182Y-120377160D01*
X129517349Y-120357986D01*
X130038374Y-120158632D01*
X130507977Y-119895025D01*
X130922186Y-119571376D01*
X131277029Y-119191897D01*
X131568533Y-118760800D01*
X131792726Y-118282297D01*
X131939147Y-117790333D01*
X131978610Y-117511756D01*
X131989197Y-117184757D01*
X131972131Y-116840046D01*
X131928638Y-116508336D01*
X131879114Y-116285468D01*
X131709527Y-115822906D01*
X131462195Y-115379351D01*
X131143537Y-114964600D01*
X130776477Y-114602628D01*
X130592317Y-114465964D01*
X130351566Y-114319371D01*
X130079208Y-114175587D01*
X129800229Y-114047351D01*
X129539612Y-113947401D01*
X129419667Y-113910841D01*
X129224268Y-113873836D01*
X128971709Y-113848426D01*
X128686855Y-113834903D01*
X128394571Y-113833557D01*
X128119724Y-113844680D01*
X127887178Y-113868562D01*
X127768667Y-113891526D01*
X127239194Y-114067126D01*
X126756022Y-114312965D01*
X126314926Y-114631339D01*
X126166317Y-114763500D01*
X125809618Y-115151748D01*
X125525802Y-115574649D01*
X125314906Y-116024266D01*
X125176967Y-116492661D01*
X125112020Y-116971897D01*
X125120103Y-117454037D01*
X125201251Y-117931144D01*
X125355502Y-118395280D01*
X125582890Y-118838509D01*
X125883454Y-119252893D01*
X126144452Y-119528234D01*
X126476610Y-119812925D01*
X126814709Y-120037417D01*
X127185018Y-120216827D01*
X127586317Y-120357986D01*
X127751689Y-120405266D01*
X127896804Y-120437400D01*
X128045692Y-120457208D01*
X128222379Y-120467513D01*
X128450896Y-120471134D01*
X128551833Y-120471345D01*
X128551833Y-120687312D01*
X128473114Y-120688791D01*
X128109172Y-120670158D01*
X127779506Y-120625970D01*
X127620500Y-120590047D01*
X127084535Y-120403386D01*
X126594779Y-120146831D01*
X126154004Y-119822006D01*
X125903403Y-119583765D01*
X125662536Y-119315594D01*
X125473247Y-119063740D01*
X125315522Y-118799324D01*
X125208411Y-118580894D01*
X125025163Y-118080892D01*
X124922494Y-117566212D01*
X124899668Y-117045754D01*
X124955945Y-116528417D01*
G37*
X124955945Y-116528417D02*
X125090587Y-116023100D01*
X125302858Y-115538702D01*
X125485983Y-115233500D01*
X125825917Y-114797441D01*
X126217046Y-114427010D01*
X126662192Y-114120159D01*
X127164179Y-113874843D01*
X127544794Y-113740495D01*
X127702250Y-113695083D01*
X127840267Y-113663592D01*
X127980900Y-113643539D01*
X128146208Y-113632439D01*
X128358245Y-113627809D01*
X128551833Y-113627087D01*
X128810890Y-113628591D01*
X129007401Y-113634767D01*
X129163462Y-113648111D01*
X129301164Y-113671121D01*
X129442603Y-113706293D01*
X129561103Y-113741142D01*
X130098501Y-113942156D01*
X130577163Y-114201241D01*
X131003687Y-114522615D01*
X131377893Y-114902569D01*
X131544486Y-115124875D01*
X131715019Y-115400517D01*
X131874591Y-115701211D01*
X132008303Y-115998674D01*
X132101253Y-116264621D01*
X132107497Y-116287500D01*
X132136340Y-116438522D01*
X132161426Y-116646570D01*
X132181310Y-116886808D01*
X132194548Y-117134398D01*
X132199693Y-117364504D01*
X132195303Y-117552292D01*
X132186292Y-117642166D01*
X132067495Y-118132204D01*
X131874733Y-118614207D01*
X131617794Y-119070385D01*
X131306465Y-119482948D01*
X131007167Y-119785353D01*
X130613717Y-120082930D01*
X130163990Y-120335486D01*
X129679370Y-120531713D01*
X129483167Y-120591180D01*
X129188854Y-120649319D01*
X128842589Y-120681850D01*
X128551833Y-120687312D01*
X128551833Y-120471345D01*
X128805228Y-120469459D01*
X128998032Y-120461918D01*
X129154273Y-120445902D01*
X129297980Y-120418590D01*
X129453182Y-120377160D01*
X129517349Y-120357986D01*
X130038374Y-120158632D01*
X130507977Y-119895025D01*
X130922186Y-119571376D01*
X131277029Y-119191897D01*
X131568533Y-118760800D01*
X131792726Y-118282297D01*
X131939147Y-117790333D01*
X131978610Y-117511756D01*
X131989197Y-117184757D01*
X131972131Y-116840046D01*
X131928638Y-116508336D01*
X131879114Y-116285468D01*
X131709527Y-115822906D01*
X131462195Y-115379351D01*
X131143537Y-114964600D01*
X130776477Y-114602628D01*
X130592317Y-114465964D01*
X130351566Y-114319371D01*
X130079208Y-114175587D01*
X129800229Y-114047351D01*
X129539612Y-113947401D01*
X129419667Y-113910841D01*
X129224268Y-113873836D01*
X128971709Y-113848426D01*
X128686855Y-113834903D01*
X128394571Y-113833557D01*
X128119724Y-113844680D01*
X127887178Y-113868562D01*
X127768667Y-113891526D01*
X127239194Y-114067126D01*
X126756022Y-114312965D01*
X126314926Y-114631339D01*
X126166317Y-114763500D01*
X125809618Y-115151748D01*
X125525802Y-115574649D01*
X125314906Y-116024266D01*
X125176967Y-116492661D01*
X125112020Y-116971897D01*
X125120103Y-117454037D01*
X125201251Y-117931144D01*
X125355502Y-118395280D01*
X125582890Y-118838509D01*
X125883454Y-119252893D01*
X126144452Y-119528234D01*
X126476610Y-119812925D01*
X126814709Y-120037417D01*
X127185018Y-120216827D01*
X127586317Y-120357986D01*
X127751689Y-120405266D01*
X127896804Y-120437400D01*
X128045692Y-120457208D01*
X128222379Y-120467513D01*
X128450896Y-120471134D01*
X128551833Y-120471345D01*
X128551833Y-120687312D01*
X128473114Y-120688791D01*
X128109172Y-120670158D01*
X127779506Y-120625970D01*
X127620500Y-120590047D01*
X127084535Y-120403386D01*
X126594779Y-120146831D01*
X126154004Y-119822006D01*
X125903403Y-119583765D01*
X125662536Y-119315594D01*
X125473247Y-119063740D01*
X125315522Y-118799324D01*
X125208411Y-118580894D01*
X125025163Y-118080892D01*
X124922494Y-117566212D01*
X124899668Y-117045754D01*
X124955945Y-116528417D01*
G36*
X126311752Y-109022682D02*
G01*
X126445018Y-108838010D01*
X126647873Y-108682810D01*
X126656133Y-108678083D01*
X126726800Y-108646700D01*
X126819146Y-108625287D01*
X126949240Y-108612158D01*
X127133151Y-108605628D01*
X127362448Y-108604000D01*
X127938000Y-108604000D01*
X127938000Y-108034492D01*
X127941644Y-107758062D01*
X127954545Y-107551084D01*
X127979656Y-107398582D01*
X128019932Y-107285575D01*
X128078325Y-107197085D01*
X128109904Y-107162677D01*
X128262608Y-107035402D01*
X128420906Y-106970611D01*
X128615107Y-106953000D01*
X128769462Y-106961196D01*
X128879926Y-106994409D01*
X128986412Y-107065578D01*
X129002334Y-107078532D01*
X129111647Y-107179280D01*
X129190104Y-107284054D01*
X129242568Y-107409122D01*
X129273904Y-107570752D01*
X129288978Y-107785214D01*
X129292667Y-108049481D01*
X129292667Y-108604000D01*
X129847185Y-108604000D01*
X130126091Y-108608190D01*
X130336712Y-108624048D01*
X130495162Y-108656506D01*
X130617554Y-108710497D01*
X130720002Y-108790951D01*
X130817088Y-108900865D01*
X130897006Y-109019082D01*
X130934499Y-109135279D01*
X130943667Y-109288589D01*
X130925442Y-109481736D01*
X130873732Y-109616306D01*
X130872154Y-109618593D01*
X130777507Y-109742001D01*
X130682134Y-109831713D01*
X130570507Y-109892960D01*
X130427096Y-109930968D01*
X130236375Y-109950968D01*
X129982815Y-109958186D01*
X129862175Y-109958666D01*
X129292667Y-109958666D01*
X129292667Y-110534218D01*
X129290701Y-110781500D01*
X129283679Y-110960252D01*
X129269917Y-111086542D01*
X129247728Y-111176439D01*
X129218583Y-111240533D01*
X129063950Y-111447097D01*
X128880015Y-111583378D01*
X128677695Y-111646241D01*
X128467904Y-111632550D01*
X128261559Y-111539171D01*
X128237428Y-111522375D01*
X128128141Y-111433330D01*
X128048687Y-111338295D01*
X127994513Y-111222201D01*
X127961066Y-111069980D01*
X127943792Y-110866564D01*
X127938137Y-110596884D01*
X127938000Y-110531526D01*
X127938000Y-109958666D01*
X127355917Y-109958601D01*
X127070466Y-109954508D01*
X126854368Y-109939089D01*
X126692559Y-109907527D01*
X126569973Y-109855002D01*
X126471547Y-109776694D01*
X126382218Y-109667786D01*
X126363609Y-109641166D01*
X126267634Y-109435498D01*
X126251486Y-109225591D01*
X126311752Y-109022682D01*
G37*
X126311752Y-109022682D02*
X126445018Y-108838010D01*
X126647873Y-108682810D01*
X126656133Y-108678083D01*
X126726800Y-108646700D01*
X126819146Y-108625287D01*
X126949240Y-108612158D01*
X127133151Y-108605628D01*
X127362448Y-108604000D01*
X127938000Y-108604000D01*
X127938000Y-108034492D01*
X127941644Y-107758062D01*
X127954545Y-107551084D01*
X127979656Y-107398582D01*
X128019932Y-107285575D01*
X128078325Y-107197085D01*
X128109904Y-107162677D01*
X128262608Y-107035402D01*
X128420906Y-106970611D01*
X128615107Y-106953000D01*
X128769462Y-106961196D01*
X128879926Y-106994409D01*
X128986412Y-107065578D01*
X129002334Y-107078532D01*
X129111647Y-107179280D01*
X129190104Y-107284054D01*
X129242568Y-107409122D01*
X129273904Y-107570752D01*
X129288978Y-107785214D01*
X129292667Y-108049481D01*
X129292667Y-108604000D01*
X129847185Y-108604000D01*
X130126091Y-108608190D01*
X130336712Y-108624048D01*
X130495162Y-108656506D01*
X130617554Y-108710497D01*
X130720002Y-108790951D01*
X130817088Y-108900865D01*
X130897006Y-109019082D01*
X130934499Y-109135279D01*
X130943667Y-109288589D01*
X130925442Y-109481736D01*
X130873732Y-109616306D01*
X130872154Y-109618593D01*
X130777507Y-109742001D01*
X130682134Y-109831713D01*
X130570507Y-109892960D01*
X130427096Y-109930968D01*
X130236375Y-109950968D01*
X129982815Y-109958186D01*
X129862175Y-109958666D01*
X129292667Y-109958666D01*
X129292667Y-110534218D01*
X129290701Y-110781500D01*
X129283679Y-110960252D01*
X129269917Y-111086542D01*
X129247728Y-111176439D01*
X129218583Y-111240533D01*
X129063950Y-111447097D01*
X128880015Y-111583378D01*
X128677695Y-111646241D01*
X128467904Y-111632550D01*
X128261559Y-111539171D01*
X128237428Y-111522375D01*
X128128141Y-111433330D01*
X128048687Y-111338295D01*
X127994513Y-111222201D01*
X127961066Y-111069980D01*
X127943792Y-110866564D01*
X127938137Y-110596884D01*
X127938000Y-110531526D01*
X127938000Y-109958666D01*
X127355917Y-109958601D01*
X127070466Y-109954508D01*
X126854368Y-109939089D01*
X126692559Y-109907527D01*
X126569973Y-109855002D01*
X126471547Y-109776694D01*
X126382218Y-109667786D01*
X126363609Y-109641166D01*
X126267634Y-109435498D01*
X126251486Y-109225591D01*
X126311752Y-109022682D01*
G36*
X129716000Y-92094000D02*
G01*
X129716000Y-95607666D01*
X128700000Y-95607666D01*
X128700000Y-92094000D01*
X129716000Y-92094000D01*
G37*
X129716000Y-92094000D02*
X129716000Y-95607666D01*
X128700000Y-95607666D01*
X128700000Y-92094000D01*
X129716000Y-92094000D01*
G36*
X128276667Y-92094000D02*
G01*
X128276667Y-95650000D01*
X127260667Y-95650000D01*
X127260667Y-92094000D01*
X128276667Y-92094000D01*
G37*
X128276667Y-92094000D02*
X128276667Y-95650000D01*
X127260667Y-95650000D01*
X127260667Y-92094000D01*
X128276667Y-92094000D01*
G36*
X129853583Y-102183707D02*
G01*
X130125723Y-102193228D01*
X130398253Y-102201354D01*
X130647331Y-102207469D01*
X130849111Y-102210958D01*
X130933083Y-102211537D01*
X131092275Y-102215135D01*
X131212170Y-102224604D01*
X131273409Y-102238154D01*
X131277422Y-102243416D01*
X131263705Y-102307601D01*
X131251976Y-102355354D01*
X131236136Y-102392007D01*
X131200691Y-102413554D01*
X131129274Y-102422022D01*
X131005518Y-102419439D01*
X130822970Y-102408489D01*
X130625370Y-102398448D01*
X130372848Y-102390061D01*
X130095145Y-102384096D01*
X129822002Y-102381323D01*
X129768917Y-102381219D01*
X129123333Y-102381000D01*
X129123333Y-102156007D01*
X129853583Y-102183707D01*
G37*
X129853583Y-102183707D02*
X130125723Y-102193228D01*
X130398253Y-102201354D01*
X130647331Y-102207469D01*
X130849111Y-102210958D01*
X130933083Y-102211537D01*
X131092275Y-102215135D01*
X131212170Y-102224604D01*
X131273409Y-102238154D01*
X131277422Y-102243416D01*
X131263705Y-102307601D01*
X131251976Y-102355354D01*
X131236136Y-102392007D01*
X131200691Y-102413554D01*
X131129274Y-102422022D01*
X131005518Y-102419439D01*
X130822970Y-102408489D01*
X130625370Y-102398448D01*
X130372848Y-102390061D01*
X130095145Y-102384096D01*
X129822002Y-102381323D01*
X129768917Y-102381219D01*
X129123333Y-102381000D01*
X129123333Y-102156007D01*
X129853583Y-102183707D01*
G36*
X129062652Y-100413297D02*
G01*
X129118373Y-100398402D01*
X129226725Y-100392437D01*
X129403408Y-100391334D01*
X129412193Y-100391333D01*
X129600685Y-100394124D01*
X129720419Y-100404235D01*
X129787175Y-100424273D01*
X129816731Y-100456848D01*
X129817304Y-100458296D01*
X129839646Y-100523671D01*
X129843000Y-100539350D01*
X129804281Y-100549768D01*
X129701992Y-100564350D01*
X129556936Y-100580204D01*
X129532030Y-100582583D01*
X129324326Y-100598413D01*
X129185933Y-100597707D01*
X129102611Y-100577639D01*
X129060124Y-100535381D01*
X129046306Y-100486151D01*
X129043863Y-100441190D01*
X129062652Y-100413297D01*
G37*
X129062652Y-100413297D02*
X129118373Y-100398402D01*
X129226725Y-100392437D01*
X129403408Y-100391334D01*
X129412193Y-100391333D01*
X129600685Y-100394124D01*
X129720419Y-100404235D01*
X129787175Y-100424273D01*
X129816731Y-100456848D01*
X129817304Y-100458296D01*
X129839646Y-100523671D01*
X129843000Y-100539350D01*
X129804281Y-100549768D01*
X129701992Y-100564350D01*
X129556936Y-100580204D01*
X129532030Y-100582583D01*
X129324326Y-100598413D01*
X129185933Y-100597707D01*
X129102611Y-100577639D01*
X129060124Y-100535381D01*
X129046306Y-100486151D01*
X129043863Y-100441190D01*
X129062652Y-100413297D01*
G36*
X125688885Y-117407132D02*
G01*
X125785049Y-117281358D01*
X125918751Y-117196062D01*
X126068251Y-117167131D01*
X126161420Y-117185244D01*
X126270068Y-117206965D01*
X126370436Y-117169590D01*
X126389359Y-117157612D01*
X126457811Y-117100499D01*
X126473956Y-117060297D01*
X126472757Y-117058868D01*
X126460363Y-116995549D01*
X126483630Y-116896766D01*
X126531840Y-116797890D01*
X126564167Y-116757213D01*
X126595803Y-116715853D01*
X126608053Y-116660497D01*
X126607688Y-116655917D01*
X126607688Y-115783420D01*
X126694412Y-115780636D01*
X126732039Y-115757886D01*
X126789353Y-115673610D01*
X126775521Y-115592017D01*
X126742083Y-115560939D01*
X126631682Y-115522098D01*
X126546239Y-115562123D01*
X126538113Y-115571311D01*
X126507308Y-115657370D01*
X126537909Y-115735202D01*
X126607688Y-115783420D01*
X126607688Y-116655917D01*
X126600865Y-116570300D01*
X126574188Y-116424417D01*
X126563202Y-116370670D01*
X126535053Y-116211182D01*
X126520930Y-116081400D01*
X126523265Y-116005436D01*
X126525718Y-115999167D01*
X126533219Y-115971245D01*
X126520133Y-115980015D01*
X126475488Y-115972800D01*
X126413758Y-115911139D01*
X126351061Y-115818468D01*
X126303515Y-115718225D01*
X126287000Y-115641019D01*
X126322612Y-115529981D01*
X126411583Y-115417625D01*
X126527114Y-115329895D01*
X126642407Y-115292734D01*
X126646833Y-115292666D01*
X126761494Y-115325812D01*
X126876135Y-115409622D01*
X126993090Y-115526577D01*
X127280554Y-115436847D01*
X127439180Y-115382322D01*
X127536564Y-115332177D01*
X127594164Y-115272644D01*
X127622564Y-115217392D01*
X127718516Y-115075427D01*
X127847554Y-115006474D01*
X127994923Y-115014466D01*
X128122791Y-115084072D01*
X128215251Y-115200573D01*
X128232010Y-115331143D01*
X128172774Y-115454664D01*
X128128500Y-115496770D01*
X128065566Y-115562112D01*
X128031662Y-115647344D01*
X128023998Y-115771230D01*
X128039785Y-115952534D01*
X128049587Y-116027591D01*
X128075605Y-116154737D01*
X128113703Y-116213981D01*
X128150731Y-116224000D01*
X128236447Y-116249508D01*
X128323768Y-116304015D01*
X128386613Y-116344400D01*
X128464435Y-116365605D01*
X128580049Y-116370657D01*
X128756272Y-116362581D01*
X128762375Y-116362190D01*
X128937639Y-116348044D01*
X129052291Y-116327993D01*
X129130367Y-116294437D01*
X129195904Y-116239775D01*
X129216197Y-116218675D01*
X129348954Y-116119855D01*
X129461538Y-116097000D01*
X129604021Y-116134100D01*
X129722261Y-116229578D01*
X129791782Y-116359697D01*
X129800667Y-116425902D01*
X129838096Y-116535359D01*
X129932709Y-116617934D01*
X130057992Y-116659520D01*
X130187430Y-116646010D01*
X130202594Y-116639739D01*
X130263141Y-116611197D01*
X130295116Y-116580769D01*
X130302060Y-116527355D01*
X130287512Y-116429855D01*
X130260489Y-116294560D01*
X130222802Y-116152337D01*
X130181181Y-116069432D01*
X130175006Y-116065659D01*
X130175006Y-115828361D01*
X130261030Y-115819155D01*
X130283951Y-115803611D01*
X130340113Y-115723162D01*
X130351000Y-115673666D01*
X130320463Y-115586087D01*
X130283951Y-115543722D01*
X130197993Y-115514570D01*
X130120986Y-115552700D01*
X130078226Y-115642318D01*
X130075833Y-115673666D01*
X130104842Y-115774601D01*
X130175006Y-115828361D01*
X130175006Y-116065659D01*
X130157016Y-116054666D01*
X130058979Y-116018050D01*
X129959911Y-115924911D01*
X129881408Y-115800312D01*
X129848139Y-115696170D01*
X129817591Y-115581487D01*
X129757380Y-115518103D01*
X129678818Y-115484901D01*
X129579501Y-115459482D01*
X129509122Y-115475980D01*
X129427750Y-115545148D01*
X129417601Y-115555244D01*
X129279543Y-115651134D01*
X129174632Y-115673666D01*
X129162383Y-115670732D01*
X129162383Y-115462000D01*
X129261468Y-115429987D01*
X129311528Y-115353626D01*
X129303851Y-115262430D01*
X129241803Y-115192958D01*
X129141771Y-115172774D01*
X129048690Y-115216752D01*
X129011804Y-115271079D01*
X129016795Y-115358470D01*
X129077869Y-115433087D01*
X129162383Y-115462000D01*
X129162383Y-115670732D01*
X129036607Y-115640599D01*
X128905984Y-115557217D01*
X128817101Y-115447250D01*
X128805483Y-115418562D01*
X128777625Y-115370832D01*
X128718510Y-115345411D01*
X128606705Y-115335850D01*
X128527814Y-115335000D01*
X128393686Y-115328508D01*
X128302877Y-115311585D01*
X128276667Y-115292666D01*
X128314967Y-115269604D01*
X128413876Y-115254229D01*
X128512343Y-115250333D01*
X128655626Y-115244874D01*
X128750210Y-115219093D01*
X128831834Y-115158884D01*
X128887758Y-115102166D01*
X129039571Y-114989668D01*
X129196463Y-114956849D01*
X129344242Y-115000942D01*
X129468712Y-115119184D01*
X129527219Y-115226752D01*
X129616244Y-115349165D01*
X129744015Y-115418868D01*
X129884679Y-115427793D01*
X130003309Y-115375345D01*
X130147998Y-115302526D01*
X130290650Y-115314105D01*
X130432642Y-115410211D01*
X130438923Y-115416410D01*
X130541836Y-115564541D01*
X130560424Y-115715895D01*
X130494693Y-115866142D01*
X130438343Y-115931502D01*
X130371521Y-116002273D01*
X130338534Y-116062210D01*
X130333903Y-116139444D01*
X130352149Y-116262111D01*
X130362713Y-116319829D01*
X130404429Y-116493024D01*
X130462605Y-116614735D01*
X130550536Y-116715832D01*
X130635620Y-116813982D01*
X130684812Y-116904466D01*
X130689667Y-116930750D01*
X130705215Y-116988010D01*
X130767477Y-117000627D01*
X130814155Y-116995399D01*
X130930631Y-117003444D01*
X131037299Y-117075966D01*
X131046988Y-117085473D01*
X131136235Y-117221723D01*
X131144840Y-117362808D01*
X131072402Y-117495525D01*
X131059908Y-117508607D01*
X130988935Y-117622700D01*
X130998151Y-117748870D01*
X131054589Y-117852669D01*
X131100718Y-117961410D01*
X131113000Y-118046373D01*
X131083592Y-118147318D01*
X131012271Y-118249585D01*
X130924392Y-118322859D01*
X130866855Y-118340666D01*
X130844679Y-118359397D01*
X130844679Y-118109886D01*
X130892075Y-118078032D01*
X130901333Y-118044333D01*
X130870855Y-117989133D01*
X130861925Y-117982641D01*
X130811741Y-117985391D01*
X130784930Y-118036284D01*
X130795927Y-118087357D01*
X130844679Y-118109886D01*
X130844679Y-118359397D01*
X130825266Y-118375795D01*
X130816667Y-118420150D01*
X130794003Y-118499464D01*
X130742861Y-118559576D01*
X130688508Y-118574475D01*
X130675040Y-118565929D01*
X130674537Y-118514249D01*
X130708296Y-118444431D01*
X130743737Y-118374207D01*
X130727690Y-118318286D01*
X130666111Y-118253756D01*
X130589263Y-118146263D01*
X130562667Y-118044333D01*
X130595246Y-117932840D01*
X130675180Y-117828026D01*
X130775763Y-117759498D01*
X130829978Y-117748000D01*
X130890985Y-117717334D01*
X130901333Y-117684500D01*
X130865851Y-117632828D01*
X130837917Y-117626364D01*
X130837917Y-117402634D01*
X130907386Y-117374020D01*
X130937271Y-117307473D01*
X130935726Y-117293531D01*
X130886909Y-117222880D01*
X130847802Y-117205607D01*
X130776538Y-117224974D01*
X130740141Y-117290277D01*
X130756462Y-117364515D01*
X130765867Y-117375466D01*
X130837917Y-117402634D01*
X130837917Y-117626364D01*
X130814742Y-117621000D01*
X130721967Y-117588882D01*
X130618044Y-117510273D01*
X130534529Y-117411787D01*
X130510712Y-117364595D01*
X130475616Y-117326257D01*
X130430391Y-117364940D01*
X130379308Y-117474231D01*
X130355923Y-117550491D01*
X130355923Y-117146396D01*
X130412994Y-117114249D01*
X130465585Y-117024149D01*
X130451573Y-116921169D01*
X130380270Y-116842157D01*
X130310243Y-116820725D01*
X130250007Y-116868159D01*
X130241463Y-116879348D01*
X130192884Y-116992624D01*
X130225958Y-117087711D01*
X130273368Y-117127174D01*
X130355923Y-117146396D01*
X130355923Y-117550491D01*
X130329424Y-117636908D01*
X130295711Y-117779174D01*
X130287348Y-117868114D01*
X130304348Y-117931191D01*
X130329575Y-117972144D01*
X130379683Y-118081901D01*
X130393333Y-118162842D01*
X130360883Y-118262634D01*
X130280687Y-118371581D01*
X130178479Y-118462595D01*
X130079993Y-118508586D01*
X130069701Y-118509470D01*
X130069701Y-118271809D01*
X130130565Y-118241323D01*
X130172399Y-118167387D01*
X130145003Y-118081363D01*
X130087211Y-118028422D01*
X130013784Y-118007482D01*
X129939875Y-118056315D01*
X129939762Y-118056428D01*
X129895370Y-118141737D01*
X129915322Y-118218758D01*
X129979979Y-118268458D01*
X130069701Y-118271809D01*
X130069701Y-118509470D01*
X130063548Y-118510000D01*
X129986167Y-118545445D01*
X129897424Y-118638749D01*
X129874774Y-118670897D01*
X129811550Y-118775846D01*
X129794781Y-118842792D01*
X129818755Y-118900418D01*
X129826816Y-118911821D01*
X129881324Y-119048846D01*
X129853521Y-119192085D01*
X129761590Y-119317590D01*
X129613751Y-119420581D01*
X129553768Y-119427972D01*
X129553768Y-119219169D01*
X129622867Y-119178866D01*
X129670880Y-119088046D01*
X129634557Y-118998994D01*
X129608913Y-118974626D01*
X129527526Y-118949844D01*
X129431131Y-118969570D01*
X129355859Y-119020942D01*
X129335000Y-119072126D01*
X129369751Y-119164507D01*
X129453117Y-119217394D01*
X129553768Y-119219169D01*
X129553768Y-119427972D01*
X129462898Y-119439169D01*
X129312426Y-119373377D01*
X129243820Y-119314333D01*
X129098072Y-119210731D01*
X128954622Y-119189196D01*
X128820408Y-119249881D01*
X128765135Y-119303750D01*
X128682787Y-119379649D01*
X128585878Y-119413501D01*
X128504749Y-119418055D01*
X128504749Y-119221793D01*
X128596497Y-119185399D01*
X128653770Y-119098451D01*
X128626966Y-119007051D01*
X128606867Y-118984133D01*
X128518149Y-118937024D01*
X128420092Y-118940377D01*
X128335972Y-118982346D01*
X128289066Y-119051084D01*
X128302650Y-119134746D01*
X128304611Y-119137965D01*
X128390553Y-119205940D01*
X128504749Y-119221793D01*
X128504749Y-119418055D01*
X128467167Y-119420166D01*
X128330795Y-119410477D01*
X128239286Y-119370970D01*
X128163359Y-119296962D01*
X128082998Y-119163686D01*
X128074378Y-119057959D01*
X128067210Y-118957693D01*
X127996476Y-118886013D01*
X127982937Y-118877682D01*
X127880763Y-118805801D01*
X127785841Y-118721058D01*
X127712719Y-118639726D01*
X127675944Y-118578077D01*
X127690064Y-118552383D01*
X127692063Y-118552333D01*
X127773611Y-118582530D01*
X127810575Y-118615322D01*
X127880301Y-118678582D01*
X127984793Y-118753367D01*
X128005461Y-118766448D01*
X128102770Y-118820534D01*
X128166416Y-118829200D01*
X128232016Y-118795696D01*
X128242955Y-118788126D01*
X128388066Y-118731729D01*
X128548682Y-118737229D01*
X128698521Y-118796437D01*
X128811303Y-118901167D01*
X128848517Y-118976771D01*
X128906431Y-119046318D01*
X128998333Y-119063681D01*
X129093166Y-119030876D01*
X129156944Y-118956739D01*
X129261996Y-118818685D01*
X129412046Y-118741493D01*
X129566270Y-118734379D01*
X129668294Y-118741231D01*
X129733209Y-118706275D01*
X129792242Y-118620605D01*
X129873249Y-118483307D01*
X129773458Y-118367293D01*
X129688959Y-118223499D01*
X129688317Y-118083037D01*
X129771796Y-117941659D01*
X129802017Y-117909470D01*
X129906994Y-117823173D01*
X130002912Y-117795862D01*
X130056050Y-117799566D01*
X130141794Y-117802920D01*
X130188862Y-117765316D01*
X130223797Y-117666590D01*
X130256860Y-117526510D01*
X130252928Y-117432180D01*
X130202643Y-117349323D01*
X130112393Y-117258464D01*
X130020561Y-117164623D01*
X129979679Y-117089147D01*
X129975790Y-116996033D01*
X129983961Y-116927182D01*
X129995482Y-116809847D01*
X129979515Y-116746134D01*
X129923603Y-116706341D01*
X129884150Y-116689177D01*
X129779870Y-116659535D01*
X129694852Y-116681387D01*
X129654239Y-116705801D01*
X129541215Y-116757205D01*
X129448095Y-116774333D01*
X129448022Y-116774311D01*
X129448022Y-116553839D01*
X129502098Y-116538838D01*
X129520919Y-116524135D01*
X129582045Y-116453141D01*
X129565367Y-116389739D01*
X129523375Y-116349237D01*
X129458634Y-116317106D01*
X129396356Y-116356168D01*
X129395961Y-116356562D01*
X129356255Y-116414981D01*
X129378235Y-116477717D01*
X129393505Y-116499494D01*
X129448022Y-116553839D01*
X129448022Y-116774311D01*
X129361964Y-116747408D01*
X129260271Y-116681954D01*
X129171745Y-116600950D01*
X129125116Y-116527376D01*
X129123333Y-116514560D01*
X129084350Y-116497582D01*
X128980754Y-116484797D01*
X128832575Y-116478367D01*
X128784667Y-116478000D01*
X128615749Y-116479845D01*
X128514496Y-116488141D01*
X128463937Y-116507033D01*
X128447099Y-116540665D01*
X128446000Y-116560690D01*
X128414054Y-116644280D01*
X128343581Y-116719440D01*
X128241162Y-116795500D01*
X128417180Y-117127235D01*
X128519167Y-117306915D01*
X128603786Y-117423398D01*
X128683792Y-117492613D01*
X128727858Y-117515234D01*
X128867281Y-117611034D01*
X128942243Y-117742740D01*
X128948265Y-117890106D01*
X128880862Y-118032883D01*
X128850091Y-118067424D01*
X128716482Y-118155661D01*
X128632137Y-118158188D01*
X128632137Y-117954365D01*
X128683830Y-117942440D01*
X128733514Y-117888270D01*
X128732770Y-117810049D01*
X128689740Y-117744869D01*
X128636500Y-117726833D01*
X128565612Y-117756777D01*
X128546980Y-117823126D01*
X128565787Y-117922737D01*
X128632137Y-117954365D01*
X128632137Y-118158188D01*
X128578750Y-118159788D01*
X128440458Y-118080016D01*
X128400655Y-118041109D01*
X128326514Y-117970332D01*
X128257202Y-117937407D01*
X128170647Y-117941958D01*
X128044779Y-117983609D01*
X127925316Y-118032995D01*
X127820976Y-118086940D01*
X127779035Y-118143633D01*
X127777621Y-118210460D01*
X127755861Y-118323659D01*
X127737443Y-118347984D01*
X127737443Y-117967336D01*
X127832332Y-117948353D01*
X127980794Y-117901632D01*
X127997169Y-117896135D01*
X128170002Y-117829858D01*
X128281714Y-117763679D01*
X128354687Y-117683697D01*
X128364785Y-117667833D01*
X128427058Y-117581192D01*
X128477171Y-117537572D01*
X128483191Y-117536333D01*
X128482480Y-117501534D01*
X128448973Y-117408066D01*
X128389040Y-117272326D01*
X128346230Y-117183799D01*
X128267720Y-117032002D01*
X128201816Y-116915650D01*
X128157936Y-116850831D01*
X128146676Y-116842938D01*
X128123307Y-116837781D01*
X128123307Y-116595146D01*
X128197506Y-116576540D01*
X128234235Y-116523635D01*
X128234333Y-116520333D01*
X128200357Y-116468060D01*
X128167988Y-116449883D01*
X128089734Y-116448096D01*
X128038971Y-116490197D01*
X128040151Y-116550855D01*
X128053688Y-116568288D01*
X128123307Y-116595146D01*
X128123307Y-116837781D01*
X128093806Y-116831269D01*
X128007944Y-116784763D01*
X127920234Y-116723856D01*
X127861823Y-116668982D01*
X127853333Y-116650477D01*
X127817017Y-116643375D01*
X127721229Y-116662133D01*
X127585711Y-116702714D01*
X127567583Y-116708904D01*
X127377788Y-116775217D01*
X127254962Y-116821345D01*
X127185919Y-116854374D01*
X127157477Y-116881394D01*
X127156449Y-116909491D01*
X127162327Y-116926764D01*
X127162881Y-117022476D01*
X127120252Y-117136560D01*
X127118411Y-117139116D01*
X127118411Y-116736789D01*
X127206918Y-116720290D01*
X127340311Y-116677079D01*
X127437248Y-116642176D01*
X127588147Y-116590617D01*
X127703500Y-116557884D01*
X127764938Y-116548920D01*
X127770324Y-116552528D01*
X127785717Y-116539803D01*
X127821737Y-116468819D01*
X127832053Y-116445601D01*
X127889227Y-116345871D01*
X127949024Y-116286008D01*
X127954979Y-116283249D01*
X127995442Y-116244488D01*
X127981717Y-116164398D01*
X127977916Y-116154142D01*
X127951764Y-116042782D01*
X127937955Y-115901292D01*
X127937352Y-115871994D01*
X127929083Y-115730834D01*
X127909534Y-115681911D01*
X127909534Y-115365248D01*
X127981082Y-115352433D01*
X128021888Y-115302198D01*
X128022667Y-115292666D01*
X127988690Y-115240394D01*
X127956321Y-115222217D01*
X127875954Y-115220525D01*
X127836331Y-115270048D01*
X127850823Y-115330939D01*
X127909534Y-115365248D01*
X127909534Y-115681911D01*
X127893105Y-115640795D01*
X127810710Y-115568808D01*
X127742055Y-115526803D01*
X127667167Y-115487267D01*
X127601193Y-115471348D01*
X127517039Y-115478962D01*
X127387605Y-115510028D01*
X127329862Y-115525540D01*
X127175584Y-115571703D01*
X127080225Y-115616722D01*
X127019690Y-115676120D01*
X126975473Y-115753882D01*
X126871792Y-115892910D01*
X126760246Y-115970000D01*
X126677837Y-116011553D01*
X126640053Y-116056931D01*
X126635575Y-116134231D01*
X126649382Y-116245166D01*
X126668152Y-116393345D01*
X126681315Y-116523779D01*
X126684136Y-116565356D01*
X126702016Y-116644074D01*
X126758595Y-116659852D01*
X126779406Y-116656629D01*
X126881334Y-116663387D01*
X126987738Y-116701253D01*
X127052712Y-116729476D01*
X127118411Y-116736789D01*
X127118411Y-117139116D01*
X127052753Y-117230284D01*
X127003776Y-117262084D01*
X126968179Y-117280551D01*
X126959591Y-117316370D01*
X126981948Y-117385674D01*
X127039182Y-117504596D01*
X127084125Y-117591575D01*
X127164646Y-117742135D01*
X127222235Y-117831586D01*
X127271828Y-117874545D01*
X127328358Y-117885633D01*
X127381004Y-117882161D01*
X127509223Y-117891171D01*
X127614302Y-117930546D01*
X127672607Y-117960696D01*
X127737443Y-117967336D01*
X127737443Y-118347984D01*
X127677919Y-118426601D01*
X127566036Y-118506091D01*
X127442454Y-118548931D01*
X127420617Y-118547578D01*
X127420617Y-118330114D01*
X127480385Y-118308864D01*
X127491375Y-118300096D01*
X127545609Y-118241064D01*
X127557000Y-118213666D01*
X127528212Y-118163357D01*
X127491375Y-118127237D01*
X127429035Y-118096230D01*
X127367074Y-118131778D01*
X127355304Y-118143220D01*
X127307842Y-118202734D01*
X127324710Y-118251672D01*
X127355304Y-118284113D01*
X127420617Y-118330114D01*
X127420617Y-118547578D01*
X127329415Y-118541924D01*
X127275806Y-118508206D01*
X127219698Y-118493052D01*
X127178998Y-118527554D01*
X127149704Y-118590557D01*
X127179085Y-118665544D01*
X127193492Y-118686934D01*
X127245115Y-118796228D01*
X127260666Y-118881177D01*
X127224204Y-118994999D01*
X127133668Y-119101218D01*
X127017339Y-119172564D01*
X126943250Y-119187316D01*
X126943250Y-118968967D01*
X127012719Y-118940353D01*
X127042604Y-118873806D01*
X127041059Y-118859864D01*
X126992242Y-118789213D01*
X126953136Y-118771941D01*
X126881871Y-118791307D01*
X126845475Y-118856610D01*
X126861795Y-118930848D01*
X126871200Y-118941800D01*
X126943250Y-118968967D01*
X126943250Y-119187316D01*
X126943167Y-119187333D01*
X126820917Y-119150469D01*
X126709991Y-119058479D01*
X126638290Y-118939264D01*
X126625666Y-118869833D01*
X126657069Y-118761947D01*
X126734244Y-118654093D01*
X126831647Y-118575187D01*
X126906159Y-118552333D01*
X127021911Y-118516216D01*
X127092558Y-118420122D01*
X127105049Y-118282437D01*
X127103770Y-118273904D01*
X127101879Y-118148577D01*
X127131643Y-118067938D01*
X127150166Y-118022524D01*
X127140499Y-117950724D01*
X127098224Y-117836612D01*
X127020707Y-117667977D01*
X126942437Y-117516672D01*
X126871099Y-117399700D01*
X126835907Y-117356678D01*
X126835907Y-117109049D01*
X126895927Y-117061660D01*
X126903727Y-117051426D01*
X126942937Y-116980834D01*
X126921420Y-116926306D01*
X126900453Y-116903977D01*
X126828394Y-116862521D01*
X126762456Y-116885498D01*
X126696196Y-116960586D01*
X126712030Y-117040331D01*
X126765729Y-117087219D01*
X126835907Y-117109049D01*
X126835907Y-117356678D01*
X126817976Y-117334756D01*
X126803481Y-117327230D01*
X126728757Y-117306994D01*
X126629175Y-117262981D01*
X126530071Y-117225213D01*
X126458856Y-117240113D01*
X126440329Y-117252397D01*
X126397241Y-117298984D01*
X126397409Y-117364085D01*
X126423780Y-117443593D01*
X126452630Y-117545055D01*
X126442591Y-117631126D01*
X126389449Y-117743140D01*
X126347158Y-117826540D01*
X126330624Y-117894583D01*
X126345704Y-117965504D01*
X126398252Y-118057541D01*
X126494124Y-118188928D01*
X126560315Y-118275310D01*
X126632848Y-118382997D01*
X126680873Y-118479127D01*
X126699504Y-118547564D01*
X126683858Y-118572175D01*
X126643293Y-118549395D01*
X126594328Y-118494186D01*
X126513809Y-118388679D01*
X126417020Y-118253113D01*
X126391012Y-118215346D01*
X126283569Y-118066245D01*
X126205721Y-117980513D01*
X126146227Y-117947352D01*
X126113331Y-117948534D01*
X126054167Y-117946573D01*
X126054167Y-117748000D01*
X126132901Y-117716817D01*
X126208648Y-117646416D01*
X126244576Y-117571522D01*
X126244667Y-117568393D01*
X126218595Y-117503413D01*
X126174605Y-117444417D01*
X126100033Y-117384228D01*
X126050629Y-117367000D01*
X125970231Y-117400482D01*
X125895907Y-117476466D01*
X125863667Y-117557500D01*
X125897354Y-117640914D01*
X125974003Y-117716602D01*
X126054167Y-117748000D01*
X126054167Y-117946573D01*
X125978963Y-117944080D01*
X125844062Y-117877207D01*
X125731114Y-117766974D01*
X125662605Y-117632440D01*
X125652000Y-117557500D01*
X125688885Y-117407132D01*
G37*
X125688885Y-117407132D02*
X125785049Y-117281358D01*
X125918751Y-117196062D01*
X126068251Y-117167131D01*
X126161420Y-117185244D01*
X126270068Y-117206965D01*
X126370436Y-117169590D01*
X126389359Y-117157612D01*
X126457811Y-117100499D01*
X126473956Y-117060297D01*
X126472757Y-117058868D01*
X126460363Y-116995549D01*
X126483630Y-116896766D01*
X126531840Y-116797890D01*
X126564167Y-116757213D01*
X126595803Y-116715853D01*
X126608053Y-116660497D01*
X126607688Y-116655917D01*
X126607688Y-115783420D01*
X126694412Y-115780636D01*
X126732039Y-115757886D01*
X126789353Y-115673610D01*
X126775521Y-115592017D01*
X126742083Y-115560939D01*
X126631682Y-115522098D01*
X126546239Y-115562123D01*
X126538113Y-115571311D01*
X126507308Y-115657370D01*
X126537909Y-115735202D01*
X126607688Y-115783420D01*
X126607688Y-116655917D01*
X126600865Y-116570300D01*
X126574188Y-116424417D01*
X126563202Y-116370670D01*
X126535053Y-116211182D01*
X126520930Y-116081400D01*
X126523265Y-116005436D01*
X126525718Y-115999167D01*
X126533219Y-115971245D01*
X126520133Y-115980015D01*
X126475488Y-115972800D01*
X126413758Y-115911139D01*
X126351061Y-115818468D01*
X126303515Y-115718225D01*
X126287000Y-115641019D01*
X126322612Y-115529981D01*
X126411583Y-115417625D01*
X126527114Y-115329895D01*
X126642407Y-115292734D01*
X126646833Y-115292666D01*
X126761494Y-115325812D01*
X126876135Y-115409622D01*
X126993090Y-115526577D01*
X127280554Y-115436847D01*
X127439180Y-115382322D01*
X127536564Y-115332177D01*
X127594164Y-115272644D01*
X127622564Y-115217392D01*
X127718516Y-115075427D01*
X127847554Y-115006474D01*
X127994923Y-115014466D01*
X128122791Y-115084072D01*
X128215251Y-115200573D01*
X128232010Y-115331143D01*
X128172774Y-115454664D01*
X128128500Y-115496770D01*
X128065566Y-115562112D01*
X128031662Y-115647344D01*
X128023998Y-115771230D01*
X128039785Y-115952534D01*
X128049587Y-116027591D01*
X128075605Y-116154737D01*
X128113703Y-116213981D01*
X128150731Y-116224000D01*
X128236447Y-116249508D01*
X128323768Y-116304015D01*
X128386613Y-116344400D01*
X128464435Y-116365605D01*
X128580049Y-116370657D01*
X128756272Y-116362581D01*
X128762375Y-116362190D01*
X128937639Y-116348044D01*
X129052291Y-116327993D01*
X129130367Y-116294437D01*
X129195904Y-116239775D01*
X129216197Y-116218675D01*
X129348954Y-116119855D01*
X129461538Y-116097000D01*
X129604021Y-116134100D01*
X129722261Y-116229578D01*
X129791782Y-116359697D01*
X129800667Y-116425902D01*
X129838096Y-116535359D01*
X129932709Y-116617934D01*
X130057992Y-116659520D01*
X130187430Y-116646010D01*
X130202594Y-116639739D01*
X130263141Y-116611197D01*
X130295116Y-116580769D01*
X130302060Y-116527355D01*
X130287512Y-116429855D01*
X130260489Y-116294560D01*
X130222802Y-116152337D01*
X130181181Y-116069432D01*
X130175006Y-116065659D01*
X130175006Y-115828361D01*
X130261030Y-115819155D01*
X130283951Y-115803611D01*
X130340113Y-115723162D01*
X130351000Y-115673666D01*
X130320463Y-115586087D01*
X130283951Y-115543722D01*
X130197993Y-115514570D01*
X130120986Y-115552700D01*
X130078226Y-115642318D01*
X130075833Y-115673666D01*
X130104842Y-115774601D01*
X130175006Y-115828361D01*
X130175006Y-116065659D01*
X130157016Y-116054666D01*
X130058979Y-116018050D01*
X129959911Y-115924911D01*
X129881408Y-115800312D01*
X129848139Y-115696170D01*
X129817591Y-115581487D01*
X129757380Y-115518103D01*
X129678818Y-115484901D01*
X129579501Y-115459482D01*
X129509122Y-115475980D01*
X129427750Y-115545148D01*
X129417601Y-115555244D01*
X129279543Y-115651134D01*
X129174632Y-115673666D01*
X129162383Y-115670732D01*
X129162383Y-115462000D01*
X129261468Y-115429987D01*
X129311528Y-115353626D01*
X129303851Y-115262430D01*
X129241803Y-115192958D01*
X129141771Y-115172774D01*
X129048690Y-115216752D01*
X129011804Y-115271079D01*
X129016795Y-115358470D01*
X129077869Y-115433087D01*
X129162383Y-115462000D01*
X129162383Y-115670732D01*
X129036607Y-115640599D01*
X128905984Y-115557217D01*
X128817101Y-115447250D01*
X128805483Y-115418562D01*
X128777625Y-115370832D01*
X128718510Y-115345411D01*
X128606705Y-115335850D01*
X128527814Y-115335000D01*
X128393686Y-115328508D01*
X128302877Y-115311585D01*
X128276667Y-115292666D01*
X128314967Y-115269604D01*
X128413876Y-115254229D01*
X128512343Y-115250333D01*
X128655626Y-115244874D01*
X128750210Y-115219093D01*
X128831834Y-115158884D01*
X128887758Y-115102166D01*
X129039571Y-114989668D01*
X129196463Y-114956849D01*
X129344242Y-115000942D01*
X129468712Y-115119184D01*
X129527219Y-115226752D01*
X129616244Y-115349165D01*
X129744015Y-115418868D01*
X129884679Y-115427793D01*
X130003309Y-115375345D01*
X130147998Y-115302526D01*
X130290650Y-115314105D01*
X130432642Y-115410211D01*
X130438923Y-115416410D01*
X130541836Y-115564541D01*
X130560424Y-115715895D01*
X130494693Y-115866142D01*
X130438343Y-115931502D01*
X130371521Y-116002273D01*
X130338534Y-116062210D01*
X130333903Y-116139444D01*
X130352149Y-116262111D01*
X130362713Y-116319829D01*
X130404429Y-116493024D01*
X130462605Y-116614735D01*
X130550536Y-116715832D01*
X130635620Y-116813982D01*
X130684812Y-116904466D01*
X130689667Y-116930750D01*
X130705215Y-116988010D01*
X130767477Y-117000627D01*
X130814155Y-116995399D01*
X130930631Y-117003444D01*
X131037299Y-117075966D01*
X131046988Y-117085473D01*
X131136235Y-117221723D01*
X131144840Y-117362808D01*
X131072402Y-117495525D01*
X131059908Y-117508607D01*
X130988935Y-117622700D01*
X130998151Y-117748870D01*
X131054589Y-117852669D01*
X131100718Y-117961410D01*
X131113000Y-118046373D01*
X131083592Y-118147318D01*
X131012271Y-118249585D01*
X130924392Y-118322859D01*
X130866855Y-118340666D01*
X130844679Y-118359397D01*
X130844679Y-118109886D01*
X130892075Y-118078032D01*
X130901333Y-118044333D01*
X130870855Y-117989133D01*
X130861925Y-117982641D01*
X130811741Y-117985391D01*
X130784930Y-118036284D01*
X130795927Y-118087357D01*
X130844679Y-118109886D01*
X130844679Y-118359397D01*
X130825266Y-118375795D01*
X130816667Y-118420150D01*
X130794003Y-118499464D01*
X130742861Y-118559576D01*
X130688508Y-118574475D01*
X130675040Y-118565929D01*
X130674537Y-118514249D01*
X130708296Y-118444431D01*
X130743737Y-118374207D01*
X130727690Y-118318286D01*
X130666111Y-118253756D01*
X130589263Y-118146263D01*
X130562667Y-118044333D01*
X130595246Y-117932840D01*
X130675180Y-117828026D01*
X130775763Y-117759498D01*
X130829978Y-117748000D01*
X130890985Y-117717334D01*
X130901333Y-117684500D01*
X130865851Y-117632828D01*
X130837917Y-117626364D01*
X130837917Y-117402634D01*
X130907386Y-117374020D01*
X130937271Y-117307473D01*
X130935726Y-117293531D01*
X130886909Y-117222880D01*
X130847802Y-117205607D01*
X130776538Y-117224974D01*
X130740141Y-117290277D01*
X130756462Y-117364515D01*
X130765867Y-117375466D01*
X130837917Y-117402634D01*
X130837917Y-117626364D01*
X130814742Y-117621000D01*
X130721967Y-117588882D01*
X130618044Y-117510273D01*
X130534529Y-117411787D01*
X130510712Y-117364595D01*
X130475616Y-117326257D01*
X130430391Y-117364940D01*
X130379308Y-117474231D01*
X130355923Y-117550491D01*
X130355923Y-117146396D01*
X130412994Y-117114249D01*
X130465585Y-117024149D01*
X130451573Y-116921169D01*
X130380270Y-116842157D01*
X130310243Y-116820725D01*
X130250007Y-116868159D01*
X130241463Y-116879348D01*
X130192884Y-116992624D01*
X130225958Y-117087711D01*
X130273368Y-117127174D01*
X130355923Y-117146396D01*
X130355923Y-117550491D01*
X130329424Y-117636908D01*
X130295711Y-117779174D01*
X130287348Y-117868114D01*
X130304348Y-117931191D01*
X130329575Y-117972144D01*
X130379683Y-118081901D01*
X130393333Y-118162842D01*
X130360883Y-118262634D01*
X130280687Y-118371581D01*
X130178479Y-118462595D01*
X130079993Y-118508586D01*
X130069701Y-118509470D01*
X130069701Y-118271809D01*
X130130565Y-118241323D01*
X130172399Y-118167387D01*
X130145003Y-118081363D01*
X130087211Y-118028422D01*
X130013784Y-118007482D01*
X129939875Y-118056315D01*
X129939762Y-118056428D01*
X129895370Y-118141737D01*
X129915322Y-118218758D01*
X129979979Y-118268458D01*
X130069701Y-118271809D01*
X130069701Y-118509470D01*
X130063548Y-118510000D01*
X129986167Y-118545445D01*
X129897424Y-118638749D01*
X129874774Y-118670897D01*
X129811550Y-118775846D01*
X129794781Y-118842792D01*
X129818755Y-118900418D01*
X129826816Y-118911821D01*
X129881324Y-119048846D01*
X129853521Y-119192085D01*
X129761590Y-119317590D01*
X129613751Y-119420581D01*
X129553768Y-119427972D01*
X129553768Y-119219169D01*
X129622867Y-119178866D01*
X129670880Y-119088046D01*
X129634557Y-118998994D01*
X129608913Y-118974626D01*
X129527526Y-118949844D01*
X129431131Y-118969570D01*
X129355859Y-119020942D01*
X129335000Y-119072126D01*
X129369751Y-119164507D01*
X129453117Y-119217394D01*
X129553768Y-119219169D01*
X129553768Y-119427972D01*
X129462898Y-119439169D01*
X129312426Y-119373377D01*
X129243820Y-119314333D01*
X129098072Y-119210731D01*
X128954622Y-119189196D01*
X128820408Y-119249881D01*
X128765135Y-119303750D01*
X128682787Y-119379649D01*
X128585878Y-119413501D01*
X128504749Y-119418055D01*
X128504749Y-119221793D01*
X128596497Y-119185399D01*
X128653770Y-119098451D01*
X128626966Y-119007051D01*
X128606867Y-118984133D01*
X128518149Y-118937024D01*
X128420092Y-118940377D01*
X128335972Y-118982346D01*
X128289066Y-119051084D01*
X128302650Y-119134746D01*
X128304611Y-119137965D01*
X128390553Y-119205940D01*
X128504749Y-119221793D01*
X128504749Y-119418055D01*
X128467167Y-119420166D01*
X128330795Y-119410477D01*
X128239286Y-119370970D01*
X128163359Y-119296962D01*
X128082998Y-119163686D01*
X128074378Y-119057959D01*
X128067210Y-118957693D01*
X127996476Y-118886013D01*
X127982937Y-118877682D01*
X127880763Y-118805801D01*
X127785841Y-118721058D01*
X127712719Y-118639726D01*
X127675944Y-118578077D01*
X127690064Y-118552383D01*
X127692063Y-118552333D01*
X127773611Y-118582530D01*
X127810575Y-118615322D01*
X127880301Y-118678582D01*
X127984793Y-118753367D01*
X128005461Y-118766448D01*
X128102770Y-118820534D01*
X128166416Y-118829200D01*
X128232016Y-118795696D01*
X128242955Y-118788126D01*
X128388066Y-118731729D01*
X128548682Y-118737229D01*
X128698521Y-118796437D01*
X128811303Y-118901167D01*
X128848517Y-118976771D01*
X128906431Y-119046318D01*
X128998333Y-119063681D01*
X129093166Y-119030876D01*
X129156944Y-118956739D01*
X129261996Y-118818685D01*
X129412046Y-118741493D01*
X129566270Y-118734379D01*
X129668294Y-118741231D01*
X129733209Y-118706275D01*
X129792242Y-118620605D01*
X129873249Y-118483307D01*
X129773458Y-118367293D01*
X129688959Y-118223499D01*
X129688317Y-118083037D01*
X129771796Y-117941659D01*
X129802017Y-117909470D01*
X129906994Y-117823173D01*
X130002912Y-117795862D01*
X130056050Y-117799566D01*
X130141794Y-117802920D01*
X130188862Y-117765316D01*
X130223797Y-117666590D01*
X130256860Y-117526510D01*
X130252928Y-117432180D01*
X130202643Y-117349323D01*
X130112393Y-117258464D01*
X130020561Y-117164623D01*
X129979679Y-117089147D01*
X129975790Y-116996033D01*
X129983961Y-116927182D01*
X129995482Y-116809847D01*
X129979515Y-116746134D01*
X129923603Y-116706341D01*
X129884150Y-116689177D01*
X129779870Y-116659535D01*
X129694852Y-116681387D01*
X129654239Y-116705801D01*
X129541215Y-116757205D01*
X129448095Y-116774333D01*
X129448022Y-116774311D01*
X129448022Y-116553839D01*
X129502098Y-116538838D01*
X129520919Y-116524135D01*
X129582045Y-116453141D01*
X129565367Y-116389739D01*
X129523375Y-116349237D01*
X129458634Y-116317106D01*
X129396356Y-116356168D01*
X129395961Y-116356562D01*
X129356255Y-116414981D01*
X129378235Y-116477717D01*
X129393505Y-116499494D01*
X129448022Y-116553839D01*
X129448022Y-116774311D01*
X129361964Y-116747408D01*
X129260271Y-116681954D01*
X129171745Y-116600950D01*
X129125116Y-116527376D01*
X129123333Y-116514560D01*
X129084350Y-116497582D01*
X128980754Y-116484797D01*
X128832575Y-116478367D01*
X128784667Y-116478000D01*
X128615749Y-116479845D01*
X128514496Y-116488141D01*
X128463937Y-116507033D01*
X128447099Y-116540665D01*
X128446000Y-116560690D01*
X128414054Y-116644280D01*
X128343581Y-116719440D01*
X128241162Y-116795500D01*
X128417180Y-117127235D01*
X128519167Y-117306915D01*
X128603786Y-117423398D01*
X128683792Y-117492613D01*
X128727858Y-117515234D01*
X128867281Y-117611034D01*
X128942243Y-117742740D01*
X128948265Y-117890106D01*
X128880862Y-118032883D01*
X128850091Y-118067424D01*
X128716482Y-118155661D01*
X128632137Y-118158188D01*
X128632137Y-117954365D01*
X128683830Y-117942440D01*
X128733514Y-117888270D01*
X128732770Y-117810049D01*
X128689740Y-117744869D01*
X128636500Y-117726833D01*
X128565612Y-117756777D01*
X128546980Y-117823126D01*
X128565787Y-117922737D01*
X128632137Y-117954365D01*
X128632137Y-118158188D01*
X128578750Y-118159788D01*
X128440458Y-118080016D01*
X128400655Y-118041109D01*
X128326514Y-117970332D01*
X128257202Y-117937407D01*
X128170647Y-117941958D01*
X128044779Y-117983609D01*
X127925316Y-118032995D01*
X127820976Y-118086940D01*
X127779035Y-118143633D01*
X127777621Y-118210460D01*
X127755861Y-118323659D01*
X127737443Y-118347984D01*
X127737443Y-117967336D01*
X127832332Y-117948353D01*
X127980794Y-117901632D01*
X127997169Y-117896135D01*
X128170002Y-117829858D01*
X128281714Y-117763679D01*
X128354687Y-117683697D01*
X128364785Y-117667833D01*
X128427058Y-117581192D01*
X128477171Y-117537572D01*
X128483191Y-117536333D01*
X128482480Y-117501534D01*
X128448973Y-117408066D01*
X128389040Y-117272326D01*
X128346230Y-117183799D01*
X128267720Y-117032002D01*
X128201816Y-116915650D01*
X128157936Y-116850831D01*
X128146676Y-116842938D01*
X128123307Y-116837781D01*
X128123307Y-116595146D01*
X128197506Y-116576540D01*
X128234235Y-116523635D01*
X128234333Y-116520333D01*
X128200357Y-116468060D01*
X128167988Y-116449883D01*
X128089734Y-116448096D01*
X128038971Y-116490197D01*
X128040151Y-116550855D01*
X128053688Y-116568288D01*
X128123307Y-116595146D01*
X128123307Y-116837781D01*
X128093806Y-116831269D01*
X128007944Y-116784763D01*
X127920234Y-116723856D01*
X127861823Y-116668982D01*
X127853333Y-116650477D01*
X127817017Y-116643375D01*
X127721229Y-116662133D01*
X127585711Y-116702714D01*
X127567583Y-116708904D01*
X127377788Y-116775217D01*
X127254962Y-116821345D01*
X127185919Y-116854374D01*
X127157477Y-116881394D01*
X127156449Y-116909491D01*
X127162327Y-116926764D01*
X127162881Y-117022476D01*
X127120252Y-117136560D01*
X127118411Y-117139116D01*
X127118411Y-116736789D01*
X127206918Y-116720290D01*
X127340311Y-116677079D01*
X127437248Y-116642176D01*
X127588147Y-116590617D01*
X127703500Y-116557884D01*
X127764938Y-116548920D01*
X127770324Y-116552528D01*
X127785717Y-116539803D01*
X127821737Y-116468819D01*
X127832053Y-116445601D01*
X127889227Y-116345871D01*
X127949024Y-116286008D01*
X127954979Y-116283249D01*
X127995442Y-116244488D01*
X127981717Y-116164398D01*
X127977916Y-116154142D01*
X127951764Y-116042782D01*
X127937955Y-115901292D01*
X127937352Y-115871994D01*
X127929083Y-115730834D01*
X127909534Y-115681911D01*
X127909534Y-115365248D01*
X127981082Y-115352433D01*
X128021888Y-115302198D01*
X128022667Y-115292666D01*
X127988690Y-115240394D01*
X127956321Y-115222217D01*
X127875954Y-115220525D01*
X127836331Y-115270048D01*
X127850823Y-115330939D01*
X127909534Y-115365248D01*
X127909534Y-115681911D01*
X127893105Y-115640795D01*
X127810710Y-115568808D01*
X127742055Y-115526803D01*
X127667167Y-115487267D01*
X127601193Y-115471348D01*
X127517039Y-115478962D01*
X127387605Y-115510028D01*
X127329862Y-115525540D01*
X127175584Y-115571703D01*
X127080225Y-115616722D01*
X127019690Y-115676120D01*
X126975473Y-115753882D01*
X126871792Y-115892910D01*
X126760246Y-115970000D01*
X126677837Y-116011553D01*
X126640053Y-116056931D01*
X126635575Y-116134231D01*
X126649382Y-116245166D01*
X126668152Y-116393345D01*
X126681315Y-116523779D01*
X126684136Y-116565356D01*
X126702016Y-116644074D01*
X126758595Y-116659852D01*
X126779406Y-116656629D01*
X126881334Y-116663387D01*
X126987738Y-116701253D01*
X127052712Y-116729476D01*
X127118411Y-116736789D01*
X127118411Y-117139116D01*
X127052753Y-117230284D01*
X127003776Y-117262084D01*
X126968179Y-117280551D01*
X126959591Y-117316370D01*
X126981948Y-117385674D01*
X127039182Y-117504596D01*
X127084125Y-117591575D01*
X127164646Y-117742135D01*
X127222235Y-117831586D01*
X127271828Y-117874545D01*
X127328358Y-117885633D01*
X127381004Y-117882161D01*
X127509223Y-117891171D01*
X127614302Y-117930546D01*
X127672607Y-117960696D01*
X127737443Y-117967336D01*
X127737443Y-118347984D01*
X127677919Y-118426601D01*
X127566036Y-118506091D01*
X127442454Y-118548931D01*
X127420617Y-118547578D01*
X127420617Y-118330114D01*
X127480385Y-118308864D01*
X127491375Y-118300096D01*
X127545609Y-118241064D01*
X127557000Y-118213666D01*
X127528212Y-118163357D01*
X127491375Y-118127237D01*
X127429035Y-118096230D01*
X127367074Y-118131778D01*
X127355304Y-118143220D01*
X127307842Y-118202734D01*
X127324710Y-118251672D01*
X127355304Y-118284113D01*
X127420617Y-118330114D01*
X127420617Y-118547578D01*
X127329415Y-118541924D01*
X127275806Y-118508206D01*
X127219698Y-118493052D01*
X127178998Y-118527554D01*
X127149704Y-118590557D01*
X127179085Y-118665544D01*
X127193492Y-118686934D01*
X127245115Y-118796228D01*
X127260666Y-118881177D01*
X127224204Y-118994999D01*
X127133668Y-119101218D01*
X127017339Y-119172564D01*
X126943250Y-119187316D01*
X126943250Y-118968967D01*
X127012719Y-118940353D01*
X127042604Y-118873806D01*
X127041059Y-118859864D01*
X126992242Y-118789213D01*
X126953136Y-118771941D01*
X126881871Y-118791307D01*
X126845475Y-118856610D01*
X126861795Y-118930848D01*
X126871200Y-118941800D01*
X126943250Y-118968967D01*
X126943250Y-119187316D01*
X126943167Y-119187333D01*
X126820917Y-119150469D01*
X126709991Y-119058479D01*
X126638290Y-118939264D01*
X126625666Y-118869833D01*
X126657069Y-118761947D01*
X126734244Y-118654093D01*
X126831647Y-118575187D01*
X126906159Y-118552333D01*
X127021911Y-118516216D01*
X127092558Y-118420122D01*
X127105049Y-118282437D01*
X127103770Y-118273904D01*
X127101879Y-118148577D01*
X127131643Y-118067938D01*
X127150166Y-118022524D01*
X127140499Y-117950724D01*
X127098224Y-117836612D01*
X127020707Y-117667977D01*
X126942437Y-117516672D01*
X126871099Y-117399700D01*
X126835907Y-117356678D01*
X126835907Y-117109049D01*
X126895927Y-117061660D01*
X126903727Y-117051426D01*
X126942937Y-116980834D01*
X126921420Y-116926306D01*
X126900453Y-116903977D01*
X126828394Y-116862521D01*
X126762456Y-116885498D01*
X126696196Y-116960586D01*
X126712030Y-117040331D01*
X126765729Y-117087219D01*
X126835907Y-117109049D01*
X126835907Y-117356678D01*
X126817976Y-117334756D01*
X126803481Y-117327230D01*
X126728757Y-117306994D01*
X126629175Y-117262981D01*
X126530071Y-117225213D01*
X126458856Y-117240113D01*
X126440329Y-117252397D01*
X126397241Y-117298984D01*
X126397409Y-117364085D01*
X126423780Y-117443593D01*
X126452630Y-117545055D01*
X126442591Y-117631126D01*
X126389449Y-117743140D01*
X126347158Y-117826540D01*
X126330624Y-117894583D01*
X126345704Y-117965504D01*
X126398252Y-118057541D01*
X126494124Y-118188928D01*
X126560315Y-118275310D01*
X126632848Y-118382997D01*
X126680873Y-118479127D01*
X126699504Y-118547564D01*
X126683858Y-118572175D01*
X126643293Y-118549395D01*
X126594328Y-118494186D01*
X126513809Y-118388679D01*
X126417020Y-118253113D01*
X126391012Y-118215346D01*
X126283569Y-118066245D01*
X126205721Y-117980513D01*
X126146227Y-117947352D01*
X126113331Y-117948534D01*
X126054167Y-117946573D01*
X126054167Y-117748000D01*
X126132901Y-117716817D01*
X126208648Y-117646416D01*
X126244576Y-117571522D01*
X126244667Y-117568393D01*
X126218595Y-117503413D01*
X126174605Y-117444417D01*
X126100033Y-117384228D01*
X126050629Y-117367000D01*
X125970231Y-117400482D01*
X125895907Y-117476466D01*
X125863667Y-117557500D01*
X125897354Y-117640914D01*
X125974003Y-117716602D01*
X126054167Y-117748000D01*
X126054167Y-117946573D01*
X125978963Y-117944080D01*
X125844062Y-117877207D01*
X125731114Y-117766974D01*
X125662605Y-117632440D01*
X125652000Y-117557500D01*
X125688885Y-117407132D01*
G36*
X130091530Y-118662917D02*
G01*
X130183520Y-118551991D01*
X130302736Y-118480290D01*
X130372167Y-118467666D01*
X130477720Y-118497016D01*
X130582117Y-118568000D01*
X130585757Y-118571576D01*
X130657951Y-118674749D01*
X130689605Y-118781331D01*
X130689667Y-118785166D01*
X130660317Y-118890720D01*
X130589333Y-118995117D01*
X130585757Y-118998757D01*
X130482584Y-119070951D01*
X130376002Y-119102605D01*
X130372250Y-119102664D01*
X130372250Y-118884301D01*
X130441719Y-118855687D01*
X130471604Y-118789140D01*
X130470059Y-118775197D01*
X130421242Y-118704546D01*
X130382136Y-118687274D01*
X130310871Y-118706640D01*
X130274475Y-118771943D01*
X130290795Y-118846182D01*
X130300200Y-118857133D01*
X130372250Y-118884301D01*
X130372250Y-119102664D01*
X130372167Y-119102666D01*
X130249917Y-119065803D01*
X130138991Y-118973813D01*
X130067290Y-118854597D01*
X130054667Y-118785166D01*
X130091530Y-118662917D01*
G37*
X130091530Y-118662917D02*
X130183520Y-118551991D01*
X130302736Y-118480290D01*
X130372167Y-118467666D01*
X130477720Y-118497016D01*
X130582117Y-118568000D01*
X130585757Y-118571576D01*
X130657951Y-118674749D01*
X130689605Y-118781331D01*
X130689667Y-118785166D01*
X130660317Y-118890720D01*
X130589333Y-118995117D01*
X130585757Y-118998757D01*
X130482584Y-119070951D01*
X130376002Y-119102605D01*
X130372250Y-119102664D01*
X130372250Y-118884301D01*
X130441719Y-118855687D01*
X130471604Y-118789140D01*
X130470059Y-118775197D01*
X130421242Y-118704546D01*
X130382136Y-118687274D01*
X130310871Y-118706640D01*
X130274475Y-118771943D01*
X130290795Y-118846182D01*
X130300200Y-118857133D01*
X130372250Y-118884301D01*
X130372250Y-119102664D01*
X130372167Y-119102666D01*
X130249917Y-119065803D01*
X130138991Y-118973813D01*
X130067290Y-118854597D01*
X130054667Y-118785166D01*
X130091530Y-118662917D01*
G36*
X130795500Y-117240000D02*
G01*
X130816667Y-117261166D01*
X130795500Y-117282333D01*
X130774333Y-117261166D01*
X130795500Y-117240000D01*
G37*
X130795500Y-117240000D02*
X130816667Y-117261166D01*
X130795500Y-117282333D01*
X130774333Y-117261166D01*
X130795500Y-117240000D01*
G36*
X130202833Y-115631333D02*
G01*
X130224000Y-115652500D01*
X130202833Y-115673666D01*
X130181667Y-115652500D01*
X130202833Y-115631333D01*
G37*
X130202833Y-115631333D02*
X130224000Y-115652500D01*
X130202833Y-115673666D01*
X130181667Y-115652500D01*
X130202833Y-115631333D01*
G36*
X130033500Y-118044333D02*
G01*
X130054667Y-118065500D01*
X130033500Y-118086666D01*
X130012333Y-118065500D01*
X130033500Y-118044333D01*
G37*
X130033500Y-118044333D02*
X130054667Y-118065500D01*
X130033500Y-118086666D01*
X130012333Y-118065500D01*
X130033500Y-118044333D01*
G36*
X129440833Y-119145000D02*
G01*
X129462000Y-119166166D01*
X129440833Y-119187333D01*
X129419667Y-119166166D01*
X129440833Y-119145000D01*
G37*
X129440833Y-119145000D02*
X129462000Y-119166166D01*
X129440833Y-119187333D01*
X129419667Y-119166166D01*
X129440833Y-119145000D01*
G36*
X129433778Y-116365111D02*
G01*
X129458945Y-116370922D01*
X129462000Y-116393333D01*
X129446511Y-116428178D01*
X129433778Y-116421555D01*
X129428711Y-116371316D01*
X129433778Y-116365111D01*
G37*
X129433778Y-116365111D02*
X129458945Y-116370922D01*
X129462000Y-116393333D01*
X129446511Y-116428178D01*
X129433778Y-116421555D01*
X129428711Y-116371316D01*
X129433778Y-116365111D01*
G36*
X129193012Y-115305948D02*
G01*
X129208000Y-115313833D01*
X129248428Y-115353720D01*
X129250333Y-115361163D01*
X129222988Y-115364052D01*
X129208000Y-115356166D01*
X129167571Y-115316279D01*
X129165667Y-115308836D01*
X129193012Y-115305948D01*
G37*
X129193012Y-115305948D02*
X129208000Y-115313833D01*
X129248428Y-115353720D01*
X129250333Y-115361163D01*
X129222988Y-115364052D01*
X129208000Y-115356166D01*
X129167571Y-115316279D01*
X129165667Y-115308836D01*
X129193012Y-115305948D01*
G36*
X129059833Y-115292666D02*
G01*
X129081000Y-115313833D01*
X129059833Y-115335000D01*
X129038667Y-115313833D01*
X129059833Y-115292666D01*
G37*
X129059833Y-115292666D02*
X129081000Y-115313833D01*
X129059833Y-115335000D01*
X129038667Y-115313833D01*
X129059833Y-115292666D01*
G36*
X128594167Y-117748000D02*
G01*
X128615333Y-117769166D01*
X128594167Y-117790333D01*
X128573000Y-117769166D01*
X128594167Y-117748000D01*
G37*
X128594167Y-117748000D02*
X128615333Y-117769166D01*
X128594167Y-117790333D01*
X128573000Y-117769166D01*
X128594167Y-117748000D01*
G36*
X128594167Y-119018000D02*
G01*
X128615333Y-119039166D01*
X128594167Y-119060333D01*
X128573000Y-119039166D01*
X128594167Y-119018000D01*
G37*
X128594167Y-119018000D02*
X128615333Y-119039166D01*
X128594167Y-119060333D01*
X128573000Y-119039166D01*
X128594167Y-119018000D01*
G36*
X127413847Y-118237032D02*
G01*
X127448008Y-118177445D01*
X127470098Y-118187427D01*
X127472333Y-118211168D01*
X127441587Y-118268573D01*
X127430485Y-118276867D01*
X127406429Y-118270053D01*
X127413847Y-118237032D01*
G37*
X127413847Y-118237032D02*
X127448008Y-118177445D01*
X127470098Y-118187427D01*
X127472333Y-118211168D01*
X127441587Y-118268573D01*
X127430485Y-118276867D01*
X127406429Y-118270053D01*
X127413847Y-118237032D01*
G36*
X126816167Y-116901333D02*
G01*
X126837333Y-116922500D01*
X126816167Y-116943666D01*
X126795000Y-116922500D01*
X126816167Y-116901333D01*
G37*
X126816167Y-116901333D02*
X126837333Y-116922500D01*
X126816167Y-116943666D01*
X126795000Y-116922500D01*
X126816167Y-116901333D01*
G36*
X126646833Y-115716000D02*
G01*
X126668000Y-115737166D01*
X126646833Y-115758333D01*
X126625667Y-115737166D01*
X126646833Y-115716000D01*
G37*
X126646833Y-115716000D02*
X126668000Y-115737166D01*
X126646833Y-115758333D01*
X126625667Y-115737166D01*
X126646833Y-115716000D01*
G36*
X126054167Y-117494000D02*
G01*
X126075333Y-117515166D01*
X126054167Y-117536333D01*
X126033000Y-117515166D01*
X126054167Y-117494000D01*
G37*
X126054167Y-117494000D02*
X126075333Y-117515166D01*
X126054167Y-117536333D01*
X126033000Y-117515166D01*
X126054167Y-117494000D01*
D12*
%TO.C,Joystick1*%
X175260000Y-107660000D02*
X174200000Y-107660000D01*
X175260000Y-106600000D02*
X175260000Y-107660000D01*
X173200000Y-107660000D02*
X171140000Y-107660000D01*
X173200000Y-105600000D02*
X173200000Y-107660000D01*
X175260000Y-105600000D02*
X173200000Y-105600000D01*
X171140000Y-107660000D02*
X171140000Y-99540000D01*
X175260000Y-105600000D02*
X175260000Y-99540000D01*
X175260000Y-99540000D02*
X171140000Y-99540000D01*
%TO.C,Controller1*%
X175060000Y-89960000D02*
X174000000Y-89960000D01*
X175060000Y-88900000D02*
X175060000Y-89960000D01*
X173000000Y-89960000D02*
X170940000Y-89960000D01*
X173000000Y-87900000D02*
X173000000Y-89960000D01*
X175060000Y-87900000D02*
X173000000Y-87900000D01*
X170940000Y-89960000D02*
X170940000Y-81840000D01*
X175060000Y-87900000D02*
X175060000Y-81840000D01*
X175060000Y-81840000D02*
X170940000Y-81840000D01*
D13*
%TO.C,MUX1*%
X175006000Y-96309500D02*
X175260000Y-96309500D01*
X175006000Y-96690500D02*
X175006000Y-96309500D01*
X175260000Y-96690500D02*
X175006000Y-96690500D01*
X175260000Y-96309500D02*
X175260000Y-96690500D01*
X173901100Y-92976700D02*
X171538900Y-92976700D01*
X171538900Y-97523300D02*
X173901100Y-97523300D01*
D12*
%TO.C,R2*%
X149860000Y-97560000D02*
X149860000Y-98330000D01*
X149860000Y-105640000D02*
X149860000Y-104870000D01*
X148490000Y-98330000D02*
X148490000Y-104870000D01*
X151230000Y-98330000D02*
X148490000Y-98330000D01*
X151230000Y-104870000D02*
X151230000Y-98330000D01*
X148490000Y-104870000D02*
X151230000Y-104870000D01*
%TO.C,R1*%
X154940000Y-105640000D02*
X154940000Y-104870000D01*
X154940000Y-97560000D02*
X154940000Y-98330000D01*
X156310000Y-104870000D02*
X156310000Y-98330000D01*
X153570000Y-104870000D02*
X156310000Y-104870000D01*
X153570000Y-98330000D02*
X153570000Y-104870000D01*
X156310000Y-98330000D02*
X153570000Y-98330000D01*
%TO.C,SW1*%
X163195000Y-87036667D02*
X164465000Y-87036667D01*
X164395000Y-88390000D02*
X164395000Y-87036667D01*
X164275000Y-88390000D02*
X164275000Y-87036667D01*
X164155000Y-88390000D02*
X164155000Y-87036667D01*
X164035000Y-88390000D02*
X164035000Y-87036667D01*
X163915000Y-88390000D02*
X163915000Y-87036667D01*
X163795000Y-88390000D02*
X163795000Y-87036667D01*
X163675000Y-88390000D02*
X163675000Y-87036667D01*
X163555000Y-88390000D02*
X163555000Y-87036667D01*
X163435000Y-88390000D02*
X163435000Y-87036667D01*
X163315000Y-88390000D02*
X163315000Y-87036667D01*
X163195000Y-84330000D02*
X163195000Y-88390000D01*
X164465000Y-84330000D02*
X163195000Y-84330000D01*
X164465000Y-88390000D02*
X164465000Y-84330000D01*
X163195000Y-88390000D02*
X164465000Y-88390000D01*
X161170000Y-91550000D02*
X162553000Y-91550000D01*
X161170000Y-91550000D02*
X161170000Y-90166000D01*
X161410000Y-81410000D02*
X166250000Y-81410000D01*
X161410000Y-91310000D02*
X166250000Y-91310000D01*
X166250000Y-91310000D02*
X166250000Y-81410000D01*
X161410000Y-91310000D02*
X161410000Y-81410000D01*
%TO.C,DigiPOT1*%
X152400000Y-83195000D02*
X150450000Y-83195000D01*
X152400000Y-83195000D02*
X154350000Y-83195000D01*
X152400000Y-92065000D02*
X150450000Y-92065000D01*
X152400000Y-92065000D02*
X155850000Y-92065000D01*
%TO.C,Joystick1*%
D10*
X175852380Y-106628571D02*
X176566666Y-106628571D01*
X176709523Y-106676190D01*
X176804761Y-106771428D01*
X176852380Y-106914285D01*
X176852380Y-107009523D01*
X176852380Y-106009523D02*
X176804761Y-106104761D01*
X176757142Y-106152380D01*
X176661904Y-106200000D01*
X176376190Y-106200000D01*
X176280952Y-106152380D01*
X176233333Y-106104761D01*
X176185714Y-106009523D01*
X176185714Y-105866666D01*
X176233333Y-105771428D01*
X176280952Y-105723809D01*
X176376190Y-105676190D01*
X176661904Y-105676190D01*
X176757142Y-105723809D01*
X176804761Y-105771428D01*
X176852380Y-105866666D01*
X176852380Y-106009523D01*
X176185714Y-105342857D02*
X176852380Y-105104761D01*
X176185714Y-104866666D02*
X176852380Y-105104761D01*
X177090476Y-105200000D01*
X177138095Y-105247619D01*
X177185714Y-105342857D01*
X176804761Y-104533333D02*
X176852380Y-104438095D01*
X176852380Y-104247619D01*
X176804761Y-104152380D01*
X176709523Y-104104761D01*
X176661904Y-104104761D01*
X176566666Y-104152380D01*
X176519047Y-104247619D01*
X176519047Y-104390476D01*
X176471428Y-104485714D01*
X176376190Y-104533333D01*
X176328571Y-104533333D01*
X176233333Y-104485714D01*
X176185714Y-104390476D01*
X176185714Y-104247619D01*
X176233333Y-104152380D01*
X176185714Y-103819047D02*
X176185714Y-103438095D01*
X175852380Y-103676190D02*
X176709523Y-103676190D01*
X176804761Y-103628571D01*
X176852380Y-103533333D01*
X176852380Y-103438095D01*
X176852380Y-103104761D02*
X176185714Y-103104761D01*
X175852380Y-103104761D02*
X175900000Y-103152380D01*
X175947619Y-103104761D01*
X175900000Y-103057142D01*
X175852380Y-103104761D01*
X175947619Y-103104761D01*
X176804761Y-102200000D02*
X176852380Y-102295238D01*
X176852380Y-102485714D01*
X176804761Y-102580952D01*
X176757142Y-102628571D01*
X176661904Y-102676190D01*
X176376190Y-102676190D01*
X176280952Y-102628571D01*
X176233333Y-102580952D01*
X176185714Y-102485714D01*
X176185714Y-102295238D01*
X176233333Y-102200000D01*
X176852380Y-101771428D02*
X175852380Y-101771428D01*
X176471428Y-101676190D02*
X176852380Y-101390476D01*
X176185714Y-101390476D02*
X176566666Y-101771428D01*
X176852380Y-100438095D02*
X176852380Y-101009523D01*
X176852380Y-100723809D02*
X175852380Y-100723809D01*
X175995238Y-100819047D01*
X176090476Y-100914285D01*
X176138095Y-101009523D01*
%TO.C,Controller1*%
X176457142Y-89080952D02*
X176504761Y-89128571D01*
X176552380Y-89271428D01*
X176552380Y-89366666D01*
X176504761Y-89509523D01*
X176409523Y-89604761D01*
X176314285Y-89652380D01*
X176123809Y-89700000D01*
X175980952Y-89700000D01*
X175790476Y-89652380D01*
X175695238Y-89604761D01*
X175600000Y-89509523D01*
X175552380Y-89366666D01*
X175552380Y-89271428D01*
X175600000Y-89128571D01*
X175647619Y-89080952D01*
X176552380Y-88509523D02*
X176504761Y-88604761D01*
X176457142Y-88652380D01*
X176361904Y-88700000D01*
X176076190Y-88700000D01*
X175980952Y-88652380D01*
X175933333Y-88604761D01*
X175885714Y-88509523D01*
X175885714Y-88366666D01*
X175933333Y-88271428D01*
X175980952Y-88223809D01*
X176076190Y-88176190D01*
X176361904Y-88176190D01*
X176457142Y-88223809D01*
X176504761Y-88271428D01*
X176552380Y-88366666D01*
X176552380Y-88509523D01*
X175885714Y-87747619D02*
X176552380Y-87747619D01*
X175980952Y-87747619D02*
X175933333Y-87700000D01*
X175885714Y-87604761D01*
X175885714Y-87461904D01*
X175933333Y-87366666D01*
X176028571Y-87319047D01*
X176552380Y-87319047D01*
X175885714Y-86985714D02*
X175885714Y-86604761D01*
X175552380Y-86842857D02*
X176409523Y-86842857D01*
X176504761Y-86795238D01*
X176552380Y-86700000D01*
X176552380Y-86604761D01*
X176552380Y-86271428D02*
X175885714Y-86271428D01*
X176076190Y-86271428D02*
X175980952Y-86223809D01*
X175933333Y-86176190D01*
X175885714Y-86080952D01*
X175885714Y-85985714D01*
X176552380Y-85509523D02*
X176504761Y-85604761D01*
X176457142Y-85652380D01*
X176361904Y-85700000D01*
X176076190Y-85700000D01*
X175980952Y-85652380D01*
X175933333Y-85604761D01*
X175885714Y-85509523D01*
X175885714Y-85366666D01*
X175933333Y-85271428D01*
X175980952Y-85223809D01*
X176076190Y-85176190D01*
X176361904Y-85176190D01*
X176457142Y-85223809D01*
X176504761Y-85271428D01*
X176552380Y-85366666D01*
X176552380Y-85509523D01*
X176552380Y-84604761D02*
X176504761Y-84700000D01*
X176409523Y-84747619D01*
X175552380Y-84747619D01*
X176552380Y-84080952D02*
X176504761Y-84176190D01*
X176409523Y-84223809D01*
X175552380Y-84223809D01*
X176504761Y-83319047D02*
X176552380Y-83414285D01*
X176552380Y-83604761D01*
X176504761Y-83700000D01*
X176409523Y-83747619D01*
X176028571Y-83747619D01*
X175933333Y-83700000D01*
X175885714Y-83604761D01*
X175885714Y-83414285D01*
X175933333Y-83319047D01*
X176028571Y-83271428D01*
X176123809Y-83271428D01*
X176219047Y-83747619D01*
X176552380Y-82842857D02*
X175885714Y-82842857D01*
X176076190Y-82842857D02*
X175980952Y-82795238D01*
X175933333Y-82747619D01*
X175885714Y-82652380D01*
X175885714Y-82557142D01*
X176552380Y-81700000D02*
X176552380Y-82271428D01*
X176552380Y-81985714D02*
X175552380Y-81985714D01*
X175695238Y-82080952D01*
X175790476Y-82176190D01*
X175838095Y-82271428D01*
%TO.C,MUX1*%
X177252380Y-97109523D02*
X176252380Y-97109523D01*
X176966666Y-96776190D01*
X176252380Y-96442857D01*
X177252380Y-96442857D01*
X176252380Y-95966666D02*
X177061904Y-95966666D01*
X177157142Y-95919047D01*
X177204761Y-95871428D01*
X177252380Y-95776190D01*
X177252380Y-95585714D01*
X177204761Y-95490476D01*
X177157142Y-95442857D01*
X177061904Y-95395238D01*
X176252380Y-95395238D01*
X176252380Y-95014285D02*
X177252380Y-94347619D01*
X176252380Y-94347619D02*
X177252380Y-95014285D01*
X177252380Y-93442857D02*
X177252380Y-94014285D01*
X177252380Y-93728571D02*
X176252380Y-93728571D01*
X176395238Y-93823809D01*
X176490476Y-93919047D01*
X176538095Y-94014285D01*
X170922950Y-91504580D02*
X170922950Y-91742676D01*
X170684854Y-91647438D02*
X170922950Y-91742676D01*
X171161045Y-91647438D01*
X170780092Y-91933152D02*
X170922950Y-91742676D01*
X171065807Y-91933152D01*
X170922950Y-91504580D02*
X170922950Y-91742676D01*
X170684854Y-91647438D02*
X170922950Y-91742676D01*
X171161045Y-91647438D01*
X170780092Y-91933152D02*
X170922950Y-91742676D01*
X171065807Y-91933152D01*
%TO.C,R2*%
X150352380Y-101766666D02*
X149876190Y-102100000D01*
X150352380Y-102338095D02*
X149352380Y-102338095D01*
X149352380Y-101957142D01*
X149400000Y-101861904D01*
X149447619Y-101814285D01*
X149542857Y-101766666D01*
X149685714Y-101766666D01*
X149780952Y-101814285D01*
X149828571Y-101861904D01*
X149876190Y-101957142D01*
X149876190Y-102338095D01*
X149447619Y-101385714D02*
X149400000Y-101338095D01*
X149352380Y-101242857D01*
X149352380Y-101004761D01*
X149400000Y-100909523D01*
X149447619Y-100861904D01*
X149542857Y-100814285D01*
X149638095Y-100814285D01*
X149780952Y-100861904D01*
X150352380Y-101433333D01*
X150352380Y-100814285D01*
%TO.C,R1*%
X155452380Y-101666666D02*
X154976190Y-102000000D01*
X155452380Y-102238095D02*
X154452380Y-102238095D01*
X154452380Y-101857142D01*
X154500000Y-101761904D01*
X154547619Y-101714285D01*
X154642857Y-101666666D01*
X154785714Y-101666666D01*
X154880952Y-101714285D01*
X154928571Y-101761904D01*
X154976190Y-101857142D01*
X154976190Y-102238095D01*
X155452380Y-100714285D02*
X155452380Y-101285714D01*
X155452380Y-101000000D02*
X154452380Y-101000000D01*
X154595238Y-101095238D01*
X154690476Y-101190476D01*
X154738095Y-101285714D01*
%TO.C,SW1*%
X167704761Y-87693333D02*
X167752380Y-87550476D01*
X167752380Y-87312380D01*
X167704761Y-87217142D01*
X167657142Y-87169523D01*
X167561904Y-87121904D01*
X167466666Y-87121904D01*
X167371428Y-87169523D01*
X167323809Y-87217142D01*
X167276190Y-87312380D01*
X167228571Y-87502857D01*
X167180952Y-87598095D01*
X167133333Y-87645714D01*
X167038095Y-87693333D01*
X166942857Y-87693333D01*
X166847619Y-87645714D01*
X166800000Y-87598095D01*
X166752380Y-87502857D01*
X166752380Y-87264761D01*
X166800000Y-87121904D01*
X166752380Y-86788571D02*
X167752380Y-86550476D01*
X167038095Y-86360000D01*
X167752380Y-86169523D01*
X166752380Y-85931428D01*
X167752380Y-85026666D02*
X167752380Y-85598095D01*
X167752380Y-85312380D02*
X166752380Y-85312380D01*
X166895238Y-85407619D01*
X166990476Y-85502857D01*
X167038095Y-85598095D01*
%TO.C,DigiPOT1*%
X157452380Y-90871428D02*
X156452380Y-90871428D01*
X156452380Y-90633333D01*
X156500000Y-90490476D01*
X156595238Y-90395238D01*
X156690476Y-90347619D01*
X156880952Y-90300000D01*
X157023809Y-90300000D01*
X157214285Y-90347619D01*
X157309523Y-90395238D01*
X157404761Y-90490476D01*
X157452380Y-90633333D01*
X157452380Y-90871428D01*
X157452380Y-89871428D02*
X156785714Y-89871428D01*
X156452380Y-89871428D02*
X156500000Y-89919047D01*
X156547619Y-89871428D01*
X156500000Y-89823809D01*
X156452380Y-89871428D01*
X156547619Y-89871428D01*
X156785714Y-88966666D02*
X157595238Y-88966666D01*
X157690476Y-89014285D01*
X157738095Y-89061904D01*
X157785714Y-89157142D01*
X157785714Y-89300000D01*
X157738095Y-89395238D01*
X157404761Y-88966666D02*
X157452380Y-89061904D01*
X157452380Y-89252380D01*
X157404761Y-89347619D01*
X157357142Y-89395238D01*
X157261904Y-89442857D01*
X156976190Y-89442857D01*
X156880952Y-89395238D01*
X156833333Y-89347619D01*
X156785714Y-89252380D01*
X156785714Y-89061904D01*
X156833333Y-88966666D01*
X157452380Y-88490476D02*
X156785714Y-88490476D01*
X156452380Y-88490476D02*
X156500000Y-88538095D01*
X156547619Y-88490476D01*
X156500000Y-88442857D01*
X156452380Y-88490476D01*
X156547619Y-88490476D01*
X157452380Y-88014285D02*
X156452380Y-88014285D01*
X156452380Y-87633333D01*
X156500000Y-87538095D01*
X156547619Y-87490476D01*
X156642857Y-87442857D01*
X156785714Y-87442857D01*
X156880952Y-87490476D01*
X156928571Y-87538095D01*
X156976190Y-87633333D01*
X156976190Y-88014285D01*
X156452380Y-86823809D02*
X156452380Y-86633333D01*
X156500000Y-86538095D01*
X156595238Y-86442857D01*
X156785714Y-86395238D01*
X157119047Y-86395238D01*
X157309523Y-86442857D01*
X157404761Y-86538095D01*
X157452380Y-86633333D01*
X157452380Y-86823809D01*
X157404761Y-86919047D01*
X157309523Y-87014285D01*
X157119047Y-87061904D01*
X156785714Y-87061904D01*
X156595238Y-87014285D01*
X156500000Y-86919047D01*
X156452380Y-86823809D01*
X156452380Y-86109523D02*
X156452380Y-85538095D01*
X157452380Y-85823809D02*
X156452380Y-85823809D01*
X157452380Y-84680952D02*
X157452380Y-85252380D01*
X157452380Y-84966666D02*
X156452380Y-84966666D01*
X156595238Y-85061904D01*
X156690476Y-85157142D01*
X156738095Y-85252380D01*
%TD*%
M02*
