%TF.GenerationSoftware,KiCad,Pcbnew,(5.1.9)-1*%
%TF.CreationDate,2021-02-03T21:02:23-05:00*%
%TF.ProjectId,JoystickCtrl,4a6f7973-7469-4636-9b43-74726c2e6b69,rev?*%
%TF.SameCoordinates,Original*%
%TF.FileFunction,Soldermask,Bot*%
%TF.FilePolarity,Negative*%
%FSLAX46Y46*%
G04 Gerber Fmt 4.6, Leading zero omitted, Abs format (unit mm)*
G04 Created by KiCad (PCBNEW (5.1.9)-1) date 2021-02-03 21:02:23*
%MOMM*%
%LPD*%
G01*
G04 APERTURE LIST*
%ADD10O,1.350000X1.350000*%
%ADD11R,1.350000X1.350000*%
%ADD12C,3.200000*%
%ADD13O,1.600000X1.600000*%
%ADD14R,1.600000X1.600000*%
%ADD15C,1.600000*%
G04 APERTURE END LIST*
D10*
%TO.C,Joystick1*%
X172200000Y-100600000D03*
X174200000Y-100600000D03*
X172200000Y-102600000D03*
X174200000Y-102600000D03*
X172200000Y-104600000D03*
X174200000Y-104600000D03*
X172200000Y-106600000D03*
D11*
X174200000Y-106600000D03*
%TD*%
D10*
%TO.C,Controller1*%
X172000000Y-82900000D03*
X174000000Y-82900000D03*
X172000000Y-84900000D03*
X174000000Y-84900000D03*
X172000000Y-86900000D03*
X174000000Y-86900000D03*
X172000000Y-88900000D03*
D11*
X174000000Y-88900000D03*
%TD*%
D12*
%TO.C,A1*%
X180340000Y-120650000D03*
X180340000Y-92710000D03*
X129540000Y-77470000D03*
X128270000Y-125730000D03*
D13*
X175260000Y-77470000D03*
X177800000Y-77470000D03*
X138180000Y-77470000D03*
X177800000Y-125730000D03*
X140720000Y-77470000D03*
X175260000Y-125730000D03*
X143260000Y-77470000D03*
X172720000Y-125730000D03*
X145800000Y-77470000D03*
X170180000Y-125730000D03*
X148340000Y-77470000D03*
X167640000Y-125730000D03*
X150880000Y-77470000D03*
X165100000Y-125730000D03*
X153420000Y-77470000D03*
X160020000Y-125730000D03*
X155960000Y-77470000D03*
X157480000Y-125730000D03*
X160020000Y-77470000D03*
X154940000Y-125730000D03*
X162560000Y-77470000D03*
X152400000Y-125730000D03*
X165100000Y-77470000D03*
X149860000Y-125730000D03*
X167640000Y-77470000D03*
X147320000Y-125730000D03*
X170180000Y-77470000D03*
X144780000Y-125730000D03*
X172720000Y-77470000D03*
D14*
X142240000Y-125730000D03*
D13*
X135640000Y-77470000D03*
X133100000Y-77470000D03*
%TD*%
%TO.C,R2*%
X149860000Y-96520000D03*
D15*
X149860000Y-106680000D03*
%TD*%
D13*
%TO.C,R1*%
X154940000Y-106680000D03*
D15*
X154940000Y-96520000D03*
%TD*%
D13*
%TO.C,SW1*%
X163830000Y-82550000D03*
D14*
X163830000Y-90170000D03*
%TD*%
M02*
