%TF.GenerationSoftware,KiCad,Pcbnew,(5.1.9)-1*%
%TF.CreationDate,2021-02-03T21:02:23-05:00*%
%TF.ProjectId,JoystickCtrl,4a6f7973-7469-4636-9b43-74726c2e6b69,rev?*%
%TF.SameCoordinates,Original*%
%TF.FileFunction,Copper,L1,Top*%
%TF.FilePolarity,Positive*%
%FSLAX46Y46*%
G04 Gerber Fmt 4.6, Leading zero omitted, Abs format (unit mm)*
G04 Created by KiCad (PCBNEW (5.1.9)-1) date 2021-02-03 21:02:23*
%MOMM*%
%LPD*%
G01*
G04 APERTURE LIST*
%TA.AperFunction,ComponentPad*%
%ADD10O,1.350000X1.350000*%
%TD*%
%TA.AperFunction,ComponentPad*%
%ADD11R,1.350000X1.350000*%
%TD*%
%TA.AperFunction,SMDPad,CuDef*%
%ADD12R,0.977900X0.304800*%
%TD*%
%TA.AperFunction,ComponentPad*%
%ADD13O,1.600000X1.600000*%
%TD*%
%TA.AperFunction,ComponentPad*%
%ADD14R,1.600000X1.600000*%
%TD*%
%TA.AperFunction,ComponentPad*%
%ADD15C,1.600000*%
%TD*%
%TA.AperFunction,ViaPad*%
%ADD16C,0.800000*%
%TD*%
%TA.AperFunction,Conductor*%
%ADD17C,0.250000*%
%TD*%
G04 APERTURE END LIST*
D10*
%TO.P,Joystick1,8*%
%TO.N,N/C*%
X172200000Y-100600000D03*
%TO.P,Joystick1,7*%
%TO.N,Net-(Joystick1-Pad2)*%
X174200000Y-100600000D03*
%TO.P,Joystick1,6*%
%TO.N,GNDA*%
X172200000Y-102600000D03*
%TO.P,Joystick1,5*%
%TO.N,Net-(Joystick1-Pad4)*%
X174200000Y-102600000D03*
%TO.P,Joystick1,4*%
X172200000Y-104600000D03*
%TO.P,Joystick1,3*%
%TO.N,Net-(Joystick1-Pad3)*%
X174200000Y-104600000D03*
%TO.P,Joystick1,2*%
%TO.N,Net-(Joystick1-Pad2)*%
X172200000Y-106600000D03*
D11*
%TO.P,Joystick1,1*%
%TO.N,Net-(Joystick1-Pad1)*%
X174200000Y-106600000D03*
%TD*%
D10*
%TO.P,Controller1,8*%
%TO.N,N/C*%
X172000000Y-82900000D03*
%TO.P,Controller1,7*%
%TO.N,Net-(Controller1-Pad2)*%
X174000000Y-82900000D03*
%TO.P,Controller1,6*%
%TO.N,GNDA*%
X172000000Y-84900000D03*
%TO.P,Controller1,5*%
%TO.N,Net-(Controller1-Pad4)*%
X174000000Y-84900000D03*
%TO.P,Controller1,4*%
X172000000Y-86900000D03*
%TO.P,Controller1,3*%
%TO.N,Net-(Controller1-Pad3)*%
X174000000Y-86900000D03*
%TO.P,Controller1,2*%
%TO.N,Net-(Controller1-Pad2)*%
X172000000Y-88900000D03*
D11*
%TO.P,Controller1,1*%
%TO.N,Net-(Controller1-Pad1)*%
X174000000Y-88900000D03*
%TD*%
D12*
%TO.P,MUX1,16*%
%TO.N,+5V*%
X174263050Y-93500001D03*
%TO.P,MUX1,15*%
%TO.N,EnMUX*%
X174263050Y-94000000D03*
%TO.P,MUX1,14*%
%TO.N,Net-(Joystick1-Pad4)*%
X174263050Y-94500002D03*
%TO.P,MUX1,13*%
%TO.N,Xctrl*%
X174263050Y-95000000D03*
%TO.P,MUX1,12*%
%TO.N,Net-(Controller1-Pad4)*%
X174263050Y-95500000D03*
%TO.P,MUX1,11*%
%TO.N,Net-(Joystick1-Pad2)*%
X174263050Y-96000001D03*
%TO.P,MUX1,10*%
%TO.N,Yctrl*%
X174263050Y-96500000D03*
%TO.P,MUX1,9*%
%TO.N,Net-(Controller1-Pad2)*%
X174263050Y-97000002D03*
%TO.P,MUX1,8*%
%TO.N,GNDD*%
X171176950Y-96999999D03*
%TO.P,MUX1,7*%
%TO.N,Net-(Controller1-Pad3)*%
X171176950Y-96500000D03*
%TO.P,MUX1,6*%
%TO.N,VDD*%
X171176950Y-95999998D03*
%TO.P,MUX1,5*%
%TO.N,Net-(Joystick1-Pad1)*%
X171176950Y-95500000D03*
%TO.P,MUX1,4*%
%TO.N,Net-(Controller1-Pad1)*%
X171176950Y-95000000D03*
%TO.P,MUX1,3*%
%TO.N,VSS*%
X171176950Y-94499999D03*
%TO.P,MUX1,2*%
%TO.N,Net-(Joystick1-Pad3)*%
X171176950Y-94000000D03*
%TO.P,MUX1,1*%
%TO.N,MuxSwitch*%
X171176950Y-93499998D03*
%TD*%
D13*
%TO.P,A1,16*%
%TO.N,N/C*%
X175260000Y-77470000D03*
%TO.P,A1,15*%
X177800000Y-77470000D03*
%TO.P,A1,30*%
X138180000Y-77470000D03*
%TO.P,A1,14*%
X177800000Y-125730000D03*
%TO.P,A1,29*%
%TO.N,GNDD*%
X140720000Y-77470000D03*
%TO.P,A1,13*%
%TO.N,N/C*%
X175260000Y-125730000D03*
%TO.P,A1,28*%
%TO.N,CLK*%
X143260000Y-77470000D03*
%TO.P,A1,12*%
%TO.N,N/C*%
X172720000Y-125730000D03*
%TO.P,A1,27*%
X145800000Y-77470000D03*
%TO.P,A1,11*%
X170180000Y-125730000D03*
%TO.P,A1,26*%
%TO.N,MOSI*%
X148340000Y-77470000D03*
%TO.P,A1,10*%
%TO.N,N/C*%
X167640000Y-125730000D03*
%TO.P,A1,25*%
%TO.N,CS\u002A*%
X150880000Y-77470000D03*
%TO.P,A1,9*%
%TO.N,N/C*%
X165100000Y-125730000D03*
%TO.P,A1,24*%
%TO.N,SHDN\u002A*%
X153420000Y-77470000D03*
%TO.P,A1,8*%
%TO.N,N/C*%
X160020000Y-125730000D03*
%TO.P,A1,23*%
X155960000Y-77470000D03*
%TO.P,A1,7*%
X157480000Y-125730000D03*
%TO.P,A1,22*%
X160020000Y-77470000D03*
%TO.P,A1,6*%
%TO.N,GNDA*%
X154940000Y-125730000D03*
%TO.P,A1,21*%
%TO.N,N/C*%
X162560000Y-77470000D03*
%TO.P,A1,5*%
%TO.N,+5V*%
X152400000Y-125730000D03*
%TO.P,A1,20*%
%TO.N,N/C*%
X165100000Y-77470000D03*
%TO.P,A1,4*%
X149860000Y-125730000D03*
%TO.P,A1,19*%
%TO.N,EnMUX*%
X167640000Y-77470000D03*
%TO.P,A1,3*%
%TO.N,RST\u002A*%
X147320000Y-125730000D03*
%TO.P,A1,18*%
%TO.N,MuxSwitch*%
X170180000Y-77470000D03*
%TO.P,A1,2*%
%TO.N,N/C*%
X144780000Y-125730000D03*
%TO.P,A1,17*%
%TO.N,Net-(A1-Pad17)*%
X172720000Y-77470000D03*
D14*
%TO.P,A1,1*%
%TO.N,N/C*%
X142240000Y-125730000D03*
D13*
%TO.P,A1,31*%
X135640000Y-77470000D03*
%TO.P,A1,32*%
X133100000Y-77470000D03*
%TD*%
%TO.P,R2,2*%
%TO.N,VSS*%
X149860000Y-96520000D03*
D15*
%TO.P,R2,1*%
%TO.N,GNDA*%
X149860000Y-106680000D03*
%TD*%
D13*
%TO.P,R1,2*%
%TO.N,GNDA*%
X154940000Y-106680000D03*
D15*
%TO.P,R1,1*%
%TO.N,VDD*%
X154940000Y-96520000D03*
%TD*%
D13*
%TO.P,SW1,2*%
%TO.N,Net-(A1-Pad17)*%
X163830000Y-82550000D03*
D14*
%TO.P,SW1,1*%
%TO.N,GNDD*%
X163830000Y-90170000D03*
%TD*%
%TO.P,DigiPOT1,14*%
%TO.N,VSS*%
%TA.AperFunction,SMDPad,CuDef*%
G36*
G01*
X150900000Y-91290000D02*
X150900000Y-91590000D01*
G75*
G02*
X150750000Y-91740000I-150000J0D01*
G01*
X149100000Y-91740000D01*
G75*
G02*
X148950000Y-91590000I0J150000D01*
G01*
X148950000Y-91290000D01*
G75*
G02*
X149100000Y-91140000I150000J0D01*
G01*
X150750000Y-91140000D01*
G75*
G02*
X150900000Y-91290000I0J-150000D01*
G01*
G37*
%TD.AperFunction*%
%TO.P,DigiPOT1,13*%
%TO.N,VDD*%
%TA.AperFunction,SMDPad,CuDef*%
G36*
G01*
X150900000Y-90020000D02*
X150900000Y-90320000D01*
G75*
G02*
X150750000Y-90470000I-150000J0D01*
G01*
X149100000Y-90470000D01*
G75*
G02*
X148950000Y-90320000I0J150000D01*
G01*
X148950000Y-90020000D01*
G75*
G02*
X149100000Y-89870000I150000J0D01*
G01*
X150750000Y-89870000D01*
G75*
G02*
X150900000Y-90020000I0J-150000D01*
G01*
G37*
%TD.AperFunction*%
%TO.P,DigiPOT1,12*%
%TO.N,Yctrl*%
%TA.AperFunction,SMDPad,CuDef*%
G36*
G01*
X150900000Y-88750000D02*
X150900000Y-89050000D01*
G75*
G02*
X150750000Y-89200000I-150000J0D01*
G01*
X149100000Y-89200000D01*
G75*
G02*
X148950000Y-89050000I0J150000D01*
G01*
X148950000Y-88750000D01*
G75*
G02*
X149100000Y-88600000I150000J0D01*
G01*
X150750000Y-88600000D01*
G75*
G02*
X150900000Y-88750000I0J-150000D01*
G01*
G37*
%TD.AperFunction*%
%TO.P,DigiPOT1,11*%
%TO.N,+5V*%
%TA.AperFunction,SMDPad,CuDef*%
G36*
G01*
X150900000Y-87480000D02*
X150900000Y-87780000D01*
G75*
G02*
X150750000Y-87930000I-150000J0D01*
G01*
X149100000Y-87930000D01*
G75*
G02*
X148950000Y-87780000I0J150000D01*
G01*
X148950000Y-87480000D01*
G75*
G02*
X149100000Y-87330000I150000J0D01*
G01*
X150750000Y-87330000D01*
G75*
G02*
X150900000Y-87480000I0J-150000D01*
G01*
G37*
%TD.AperFunction*%
%TO.P,DigiPOT1,10*%
%TO.N,RST\u002A*%
%TA.AperFunction,SMDPad,CuDef*%
G36*
G01*
X150900000Y-86210000D02*
X150900000Y-86510000D01*
G75*
G02*
X150750000Y-86660000I-150000J0D01*
G01*
X149100000Y-86660000D01*
G75*
G02*
X148950000Y-86510000I0J150000D01*
G01*
X148950000Y-86210000D01*
G75*
G02*
X149100000Y-86060000I150000J0D01*
G01*
X150750000Y-86060000D01*
G75*
G02*
X150900000Y-86210000I0J-150000D01*
G01*
G37*
%TD.AperFunction*%
%TO.P,DigiPOT1,9*%
%TO.N,CLK*%
%TA.AperFunction,SMDPad,CuDef*%
G36*
G01*
X150900000Y-84940000D02*
X150900000Y-85240000D01*
G75*
G02*
X150750000Y-85390000I-150000J0D01*
G01*
X149100000Y-85390000D01*
G75*
G02*
X148950000Y-85240000I0J150000D01*
G01*
X148950000Y-84940000D01*
G75*
G02*
X149100000Y-84790000I150000J0D01*
G01*
X150750000Y-84790000D01*
G75*
G02*
X150900000Y-84940000I0J-150000D01*
G01*
G37*
%TD.AperFunction*%
%TO.P,DigiPOT1,8*%
%TO.N,MOSI*%
%TA.AperFunction,SMDPad,CuDef*%
G36*
G01*
X150900000Y-83670000D02*
X150900000Y-83970000D01*
G75*
G02*
X150750000Y-84120000I-150000J0D01*
G01*
X149100000Y-84120000D01*
G75*
G02*
X148950000Y-83970000I0J150000D01*
G01*
X148950000Y-83670000D01*
G75*
G02*
X149100000Y-83520000I150000J0D01*
G01*
X150750000Y-83520000D01*
G75*
G02*
X150900000Y-83670000I0J-150000D01*
G01*
G37*
%TD.AperFunction*%
%TO.P,DigiPOT1,7*%
%TO.N,CS\u002A*%
%TA.AperFunction,SMDPad,CuDef*%
G36*
G01*
X155850000Y-83670000D02*
X155850000Y-83970000D01*
G75*
G02*
X155700000Y-84120000I-150000J0D01*
G01*
X154050000Y-84120000D01*
G75*
G02*
X153900000Y-83970000I0J150000D01*
G01*
X153900000Y-83670000D01*
G75*
G02*
X154050000Y-83520000I150000J0D01*
G01*
X155700000Y-83520000D01*
G75*
G02*
X155850000Y-83670000I0J-150000D01*
G01*
G37*
%TD.AperFunction*%
%TO.P,DigiPOT1,6*%
%TO.N,SHDN\u002A*%
%TA.AperFunction,SMDPad,CuDef*%
G36*
G01*
X155850000Y-84940000D02*
X155850000Y-85240000D01*
G75*
G02*
X155700000Y-85390000I-150000J0D01*
G01*
X154050000Y-85390000D01*
G75*
G02*
X153900000Y-85240000I0J150000D01*
G01*
X153900000Y-84940000D01*
G75*
G02*
X154050000Y-84790000I150000J0D01*
G01*
X155700000Y-84790000D01*
G75*
G02*
X155850000Y-84940000I0J-150000D01*
G01*
G37*
%TD.AperFunction*%
%TO.P,DigiPOT1,5*%
%TO.N,GNDD*%
%TA.AperFunction,SMDPad,CuDef*%
G36*
G01*
X155850000Y-86210000D02*
X155850000Y-86510000D01*
G75*
G02*
X155700000Y-86660000I-150000J0D01*
G01*
X154050000Y-86660000D01*
G75*
G02*
X153900000Y-86510000I0J150000D01*
G01*
X153900000Y-86210000D01*
G75*
G02*
X154050000Y-86060000I150000J0D01*
G01*
X155700000Y-86060000D01*
G75*
G02*
X155850000Y-86210000I0J-150000D01*
G01*
G37*
%TD.AperFunction*%
%TO.P,DigiPOT1,4*%
%TO.N,Xctrl*%
%TA.AperFunction,SMDPad,CuDef*%
G36*
G01*
X155850000Y-87480000D02*
X155850000Y-87780000D01*
G75*
G02*
X155700000Y-87930000I-150000J0D01*
G01*
X154050000Y-87930000D01*
G75*
G02*
X153900000Y-87780000I0J150000D01*
G01*
X153900000Y-87480000D01*
G75*
G02*
X154050000Y-87330000I150000J0D01*
G01*
X155700000Y-87330000D01*
G75*
G02*
X155850000Y-87480000I0J-150000D01*
G01*
G37*
%TD.AperFunction*%
%TO.P,DigiPOT1,3*%
%TO.N,VDD*%
%TA.AperFunction,SMDPad,CuDef*%
G36*
G01*
X155850000Y-88750000D02*
X155850000Y-89050000D01*
G75*
G02*
X155700000Y-89200000I-150000J0D01*
G01*
X154050000Y-89200000D01*
G75*
G02*
X153900000Y-89050000I0J150000D01*
G01*
X153900000Y-88750000D01*
G75*
G02*
X154050000Y-88600000I150000J0D01*
G01*
X155700000Y-88600000D01*
G75*
G02*
X155850000Y-88750000I0J-150000D01*
G01*
G37*
%TD.AperFunction*%
%TO.P,DigiPOT1,2*%
%TO.N,VSS*%
%TA.AperFunction,SMDPad,CuDef*%
G36*
G01*
X155850000Y-90020000D02*
X155850000Y-90320000D01*
G75*
G02*
X155700000Y-90470000I-150000J0D01*
G01*
X154050000Y-90470000D01*
G75*
G02*
X153900000Y-90320000I0J150000D01*
G01*
X153900000Y-90020000D01*
G75*
G02*
X154050000Y-89870000I150000J0D01*
G01*
X155700000Y-89870000D01*
G75*
G02*
X155850000Y-90020000I0J-150000D01*
G01*
G37*
%TD.AperFunction*%
%TO.P,DigiPOT1,1*%
%TO.N,GNDA*%
%TA.AperFunction,SMDPad,CuDef*%
G36*
G01*
X155850000Y-91290000D02*
X155850000Y-91590000D01*
G75*
G02*
X155700000Y-91740000I-150000J0D01*
G01*
X154050000Y-91740000D01*
G75*
G02*
X153900000Y-91590000I0J150000D01*
G01*
X153900000Y-91290000D01*
G75*
G02*
X154050000Y-91140000I150000J0D01*
G01*
X155700000Y-91140000D01*
G75*
G02*
X155850000Y-91290000I0J-150000D01*
G01*
G37*
%TD.AperFunction*%
%TD*%
D16*
%TO.N,Net-(Controller1-Pad1)*%
X167100000Y-94700000D03*
%TO.N,Net-(Controller1-Pad3)*%
X169300000Y-96724998D03*
X166915000Y-90570001D03*
X171000000Y-90570001D03*
%TO.N,Net-(Joystick1-Pad1)*%
X166252000Y-95230000D03*
%TO.N,Net-(Joystick1-Pad3)*%
X168200000Y-93700000D03*
%TO.N,GNDD*%
X163800000Y-97500000D03*
%TO.N,GNDA*%
X159200000Y-87400000D03*
X157100000Y-91500000D03*
X157200000Y-97200000D03*
%TO.N,MuxSwitch*%
X170200000Y-92924989D03*
%TO.N,Yctrl*%
X173900000Y-98400000D03*
X146900000Y-88900000D03*
%TO.N,EnMUX*%
X167126998Y-92674694D03*
%TD*%
D17*
%TO.N,Net-(A1-Pad17)*%
X167640000Y-82550000D02*
X172720000Y-77470000D01*
X163830000Y-82550000D02*
X167640000Y-82550000D01*
%TO.N,Net-(Controller1-Pad1)*%
X167400000Y-95000000D02*
X167100000Y-94700000D01*
X171176950Y-95000000D02*
X167400000Y-95000000D01*
%TO.N,Net-(Controller1-Pad2)*%
X171990000Y-89440000D02*
X171990000Y-88900000D01*
X171990000Y-88900000D02*
X174190000Y-91100000D01*
X174190000Y-91100000D02*
X175900000Y-91100000D01*
X177100000Y-86010000D02*
X173990000Y-82900000D01*
X177100000Y-89900000D02*
X177100000Y-86010000D01*
X175900000Y-91100000D02*
X177100000Y-89900000D01*
X175900000Y-91100000D02*
X177100000Y-92300000D01*
X174989400Y-97000002D02*
X174263050Y-97000002D01*
X177100000Y-94889402D02*
X174989400Y-97000002D01*
X177100000Y-92300000D02*
X177100000Y-94889402D01*
%TO.N,Net-(Controller1-Pad3)*%
X169524998Y-96500000D02*
X169300000Y-96724998D01*
X171176950Y-96500000D02*
X169524998Y-96500000D01*
X171000000Y-90570001D02*
X166915000Y-90570001D01*
%TO.N,Net-(Controller1-Pad4)*%
X171990000Y-86900000D02*
X173990000Y-84900000D01*
X170989999Y-89380001D02*
X170989999Y-87900001D01*
X171509999Y-89900001D02*
X170989999Y-89380001D01*
X171990000Y-89900001D02*
X171509999Y-89900001D01*
X175650010Y-91550010D02*
X173640009Y-91550010D01*
X176649990Y-92549990D02*
X175650010Y-91550010D01*
X176649990Y-94450010D02*
X176649990Y-92549990D01*
X173640009Y-91550010D02*
X171990000Y-89900001D01*
X175600000Y-95500000D02*
X176649990Y-94450010D01*
X170989999Y-87900001D02*
X171990000Y-86900000D01*
X174263050Y-95500000D02*
X175600000Y-95500000D01*
%TO.N,Net-(Joystick1-Pad1)*%
X166522000Y-95500000D02*
X166252000Y-95230000D01*
X171176950Y-95500000D02*
X166522000Y-95500000D01*
%TO.N,Net-(Joystick1-Pad2)*%
X171990000Y-106680000D02*
X171990000Y-107990000D01*
X171990000Y-107990000D02*
X173100000Y-109100000D01*
X173100000Y-109100000D02*
X175000000Y-109100000D01*
X175000000Y-109100000D02*
X177000000Y-107100000D01*
X177000000Y-103690000D02*
X173990000Y-100680000D01*
X177000000Y-107100000D02*
X177000000Y-103690000D01*
X173536697Y-96000001D02*
X174263050Y-96000001D01*
X172440911Y-96946779D02*
X173387689Y-96000001D01*
X172440911Y-98176317D02*
X172440911Y-96946779D01*
X173990000Y-99725406D02*
X172440911Y-98176317D01*
X173387689Y-96000001D02*
X173536697Y-96000001D01*
X173990000Y-100680000D02*
X173990000Y-99725406D01*
%TO.N,Net-(Joystick1-Pad3)*%
X168500000Y-94000000D02*
X168200000Y-93700000D01*
X171176950Y-94000000D02*
X168500000Y-94000000D01*
%TO.N,Net-(Joystick1-Pad4)*%
X171990000Y-104680000D02*
X173990000Y-102680000D01*
X172990000Y-101680000D02*
X172990000Y-100090000D01*
X173990000Y-102680000D02*
X172990000Y-101680000D01*
X172990000Y-100090000D02*
X171990901Y-99090901D01*
X173536696Y-94500002D02*
X174263050Y-94500002D01*
X171990901Y-96045797D02*
X173536696Y-94500002D01*
X171990901Y-99090901D02*
X171990901Y-96045797D01*
%TO.N,GNDD*%
X140970000Y-77720000D02*
X140720000Y-77470000D01*
X163830000Y-90170000D02*
X160170000Y-90170000D01*
X156360000Y-86360000D02*
X154875000Y-86360000D01*
X160170000Y-90170000D02*
X156360000Y-86360000D01*
X141845001Y-76344999D02*
X140720000Y-77470000D01*
X148880001Y-76344999D02*
X141845001Y-76344999D01*
X149465001Y-76929999D02*
X148880001Y-76344999D01*
X149465001Y-81326769D02*
X149465001Y-76929999D01*
X154498232Y-86360000D02*
X149465001Y-81326769D01*
X154875000Y-86360000D02*
X154498232Y-86360000D01*
X163850001Y-97449999D02*
X163800000Y-97500000D01*
X163800000Y-97500000D02*
X169700000Y-97500000D01*
X170200001Y-96999999D02*
X171176950Y-96999999D01*
X169700000Y-97500000D02*
X170200001Y-96999999D01*
%TO.N,CLK*%
X143260000Y-79400000D02*
X143260000Y-77470000D01*
X148950000Y-85090000D02*
X143260000Y-79400000D01*
X149925000Y-85090000D02*
X148950000Y-85090000D01*
%TO.N,MOSI*%
X149925000Y-83820000D02*
X148655000Y-82550000D01*
X148655000Y-77785000D02*
X148340000Y-77470000D01*
X148655000Y-82550000D02*
X148655000Y-77785000D01*
%TO.N,CS\u002A*%
X154875000Y-81465000D02*
X150880000Y-77470000D01*
X154875000Y-83820000D02*
X154875000Y-81465000D01*
%TO.N,SHDN\u002A*%
X156175010Y-80225010D02*
X153420000Y-77470000D01*
X156175010Y-84764990D02*
X156175010Y-80225010D01*
X155850000Y-85090000D02*
X156175010Y-84764990D01*
X154875000Y-85090000D02*
X155850000Y-85090000D01*
%TO.N,GNDA*%
X149860000Y-106680000D02*
X154940000Y-106680000D01*
X154940000Y-106680000D02*
X154940000Y-125730000D01*
X167990000Y-106680000D02*
X171990000Y-102680000D01*
X154940000Y-106680000D02*
X167990000Y-106680000D01*
X161700000Y-84900000D02*
X159200000Y-87400000D01*
X171990000Y-84900000D02*
X161700000Y-84900000D01*
X154935000Y-91500000D02*
X154875000Y-91440000D01*
X157100000Y-91500000D02*
X154935000Y-91500000D01*
X157200000Y-97200000D02*
X157200000Y-104400000D01*
X154940000Y-106660000D02*
X154940000Y-106680000D01*
X157200000Y-104400000D02*
X154940000Y-106660000D01*
%TO.N,+5V*%
X146174999Y-119504999D02*
X152400000Y-125730000D01*
X146174999Y-88551999D02*
X146174999Y-119504999D01*
X147096998Y-87630000D02*
X146174999Y-88551999D01*
X149925000Y-87630000D02*
X147096998Y-87630000D01*
X150550010Y-88255010D02*
X149925000Y-87630000D01*
X159366779Y-91745011D02*
X155876778Y-88255010D01*
X171284725Y-91745011D02*
X159366779Y-91745011D01*
X155876778Y-88255010D02*
X150550010Y-88255010D01*
X173039715Y-93500001D02*
X171284725Y-91745011D01*
X174263050Y-93500001D02*
X173039715Y-93500001D01*
%TO.N,RST\u002A*%
X145724989Y-124134989D02*
X147320000Y-125730000D01*
X145724989Y-88365599D02*
X145724989Y-124134989D01*
X147730588Y-86360000D02*
X145724989Y-88365599D01*
X149925000Y-86360000D02*
X147730588Y-86360000D01*
%TO.N,MuxSwitch*%
X170775009Y-93499998D02*
X170200000Y-92924989D01*
X171176950Y-93499998D02*
X170775009Y-93499998D01*
%TO.N,VSS*%
X152630000Y-91440000D02*
X149925000Y-91440000D01*
X153900000Y-90170000D02*
X152630000Y-91440000D01*
X154875000Y-90170000D02*
X153900000Y-90170000D01*
X149860000Y-91505000D02*
X149925000Y-91440000D01*
X149860000Y-96520000D02*
X149860000Y-91505000D01*
X155251768Y-90170000D02*
X154875000Y-90170000D01*
X167926997Y-94499999D02*
X171176950Y-94499999D01*
X167401997Y-93974999D02*
X167926997Y-94499999D01*
X166974999Y-93974999D02*
X167401997Y-93974999D01*
X165195021Y-92195021D02*
X166974999Y-93974999D01*
X159180379Y-92195021D02*
X165195021Y-92195021D01*
X157155358Y-90170000D02*
X159180379Y-92195021D01*
X154875000Y-90170000D02*
X157155358Y-90170000D01*
%TO.N,VDD*%
X152170000Y-88900000D02*
X154875000Y-88900000D01*
X150900000Y-90170000D02*
X152170000Y-88900000D01*
X149925000Y-90170000D02*
X150900000Y-90170000D01*
X148950000Y-90170000D02*
X149925000Y-90170000D01*
X148624990Y-90495010D02*
X148950000Y-90170000D01*
X148624990Y-96949992D02*
X148624990Y-90495010D01*
X149319999Y-97645001D02*
X148624990Y-96949992D01*
X153814999Y-97645001D02*
X149319999Y-97645001D01*
X154940000Y-96520000D02*
X153814999Y-97645001D01*
X155460002Y-95999998D02*
X154940000Y-96520000D01*
X171176950Y-95999998D02*
X155460002Y-95999998D01*
%TO.N,Yctrl*%
X150665685Y-88900000D02*
X149925000Y-88900000D01*
X173449099Y-97949099D02*
X173900000Y-98400000D01*
X173449099Y-96575001D02*
X173449099Y-97949099D01*
X173524100Y-96500000D02*
X173449099Y-96575001D01*
X174263050Y-96500000D02*
X173524100Y-96500000D01*
X146900000Y-88900000D02*
X149925000Y-88900000D01*
%TO.N,Xctrl*%
X155888178Y-87630000D02*
X154875000Y-87630000D01*
X172748590Y-91295001D02*
X159553179Y-91295001D01*
X173453608Y-92000019D02*
X172748590Y-91295001D01*
X173989421Y-92000020D02*
X173453608Y-92000019D01*
X175077001Y-93087600D02*
X173989421Y-92000020D01*
X175077001Y-94912403D02*
X175077001Y-93087600D01*
X159553179Y-91295001D02*
X155888178Y-87630000D01*
X174989404Y-95000000D02*
X175077001Y-94912403D01*
X174263050Y-95000000D02*
X174989404Y-95000000D01*
%TO.N,EnMUX*%
X172903304Y-94000000D02*
X171378303Y-92474999D01*
X174263050Y-94000000D02*
X172903304Y-94000000D01*
X167601704Y-92199988D02*
X167126998Y-92674694D01*
X171103292Y-92199988D02*
X167601704Y-92199988D01*
X171378303Y-92474999D02*
X171103292Y-92199988D01*
%TD*%
M02*
